<svg version="1.1" viewBox="0.0 0.0 1158.1916010498687 470.48293963254594" fill="none" stroke="none" stroke-linecap="square" stroke-miterlimit="10" xmlns:xlink="http://www.w3.org/1999/xlink" xmlns="http://www.w3.org/2000/svg"><clipPath id="p.0"><path d="m0 0l1158.1917 0l0 470.48294l-1158.1917 0l0 -470.48294z" clip-rule="nonzero"/></clipPath><g clip-path="url(#p.0)"><path fill="#000000" fill-opacity="0.0" d="m0 0l1158.1917 0l0 470.48294l-1158.1917 0z" fill-rule="evenodd"/><path fill="#dd7e6b" d="m112.31714 65.135056l140.40945 0l0 68.72441l-140.40945 0z" fill-rule="evenodd"/><path stroke="#000000" stroke-width="2.0" stroke-linejoin="round" stroke-linecap="butt" d="m112.31714 65.135056l140.40945 0l0 68.72441l-140.40945 0z" fill-rule="evenodd"/><path fill="#000000" fill-opacity="0.0" d="m139.38715 67.181114l86.267715 0l0 64.62992l-86.267715 0z" fill-rule="evenodd"/><path fill="#000000" d="m172.71931 92.31986q0 0.21875 -0.015625 0.390625q-0.015625 0.15625 -0.046875 0.265625q-0.015625 0.109375 -0.0625 0.203125q-0.046875 0.078125 -0.15625 0.1875q-0.09375 0.09375 -0.390625 0.265625q-0.28125 0.15625 -0.703125 0.3125q-0.40625 0.140625 -0.9375 0.234375q-0.53125 0.109375 -1.15625 0.109375q-1.203125 0 -2.1875 -0.375q-0.96875 -0.375 -1.65625 -1.109375q-0.671875 -0.75 -1.046875 -1.859375q-0.359375 -1.109375 -0.359375 -2.578125q0 -1.5 0.390625 -2.671875q0.40625 -1.171875 1.125 -1.953125q0.71875 -0.796875 1.71875 -1.203125q1.015625 -0.421875 2.234375 -0.421875q0.484375 0 0.9375 0.09375q0.46875 0.078125 0.84375 0.21875q0.390625 0.125 0.703125 0.296875q0.3125 0.171875 0.4375 0.296875q0.125 0.125 0.15625 0.203125q0.046875 0.078125 0.078125 0.203125q0.03125 0.125 0.046875 0.3125q0.015625 0.171875 0.015625 0.421875q0 0.265625 -0.03125 0.46875q-0.015625 0.1875 -0.0625 0.3125q-0.03125 0.109375 -0.109375 0.171875q-0.0625 0.046875 -0.140625 0.046875q-0.140625 0 -0.34375 -0.15625q-0.203125 -0.15625 -0.546875 -0.34375q-0.328125 -0.203125 -0.796875 -0.359375q-0.453125 -0.171875 -1.09375 -0.171875q-0.703125 0 -1.25 0.296875q-0.546875 0.28125 -0.9375 0.8125q-0.390625 0.53125 -0.59375 1.296875q-0.1875 0.75 -0.1875 1.703125q0 1.03125 0.203125 1.796875q0.21875 0.75 0.609375 1.25q0.40625 0.484375 0.953125 0.734375q0.5625 0.234375 1.265625 0.234375q0.640625 0 1.109375 -0.140625q0.46875 -0.15625 0.796875 -0.328125q0.328125 -0.1875 0.546875 -0.328125q0.21875 -0.15625 0.328125 -0.15625q0.09375 0 0.140625 0.046875q0.0625 0.03125 0.09375 0.140625q0.046875 0.109375 0.0625 0.3125q0.015625 0.1875 0.015625 0.515625zm9.79657 -2.671875q0 1.03125 -0.28125 1.890625q-0.265625 0.859375 -0.828125 1.484375q-0.546875 0.609375 -1.390625 0.953125q-0.828125 0.328125 -1.953125 0.328125q-1.078125 0 -1.890625 -0.296875q-0.796875 -0.296875 -1.328125 -0.875q-0.515625 -0.578125 -0.78125 -1.40625q-0.25 -0.84375 -0.25 -1.921875q0 -1.03125 0.28125 -1.890625q0.28125 -0.859375 0.828125 -1.46875q0.5625 -0.625 1.390625 -0.953125q0.828125 -0.34375 1.953125 -0.34375q1.09375 0 1.890625 0.296875q0.8125 0.296875 1.328125 0.875q0.53125 0.5625 0.78125 1.40625q0.25 0.84375 0.25 1.921875zm-2.359375 0.09375q0 -0.609375 -0.09375 -1.109375q-0.09375 -0.5 -0.328125 -0.875q-0.21875 -0.375 -0.59375 -0.578125q-0.375 -0.21875 -0.953125 -0.21875q-0.515625 0 -0.90625 0.1875q-0.375 0.1875 -0.625 0.546875q-0.234375 0.359375 -0.359375 0.875q-0.125 0.5 -0.125 1.140625q0 0.59375 0.09375 1.109375q0.109375 0.5 0.328125 0.875q0.21875 0.375 0.59375 0.578125q0.390625 0.203125 0.953125 0.203125q0.53125 0 0.90625 -0.1875q0.390625 -0.1875 0.625 -0.53125q0.25 -0.359375 0.359375 -0.859375q0.125 -0.515625 0.125 -1.15625zm11.935806 4.046875q0 0.09375 -0.0625 0.171875q-0.046875 0.0625 -0.171875 0.109375q-0.125 0.046875 -0.359375 0.0625q-0.21875 0.015625 -0.546875 0.015625q-0.328125 0 -0.5625 -0.015625q-0.21875 -0.015625 -0.34375 -0.0625q-0.125 -0.046875 -0.1875 -0.109375q-0.046875 -0.078125 -0.046875 -0.171875l0 -4.640625q0 -0.578125 -0.09375 -0.921875q-0.078125 -0.34375 -0.25 -0.578125q-0.15625 -0.25 -0.421875 -0.375q-0.25 -0.125 -0.609375 -0.125q-0.4375 0 -0.890625 0.3125q-0.4375 0.3125 -0.921875 0.921875l0 5.40625q0 0.09375 -0.0625 0.171875q-0.046875 0.0625 -0.1875 0.109375q-0.125 0.046875 -0.34375 0.0625q-0.21875 0.015625 -0.546875 0.015625q-0.34375 0 -0.5625 -0.015625q-0.21875 -0.015625 -0.359375 -0.0625q-0.125 -0.046875 -0.1875 -0.109375q-0.046875 -0.078125 -0.046875 -0.171875l0 -8.125q0 -0.09375 0.046875 -0.15625q0.046875 -0.0625 0.15625 -0.109375q0.125 -0.046875 0.3125 -0.0625q0.1875 -0.03125 0.46875 -0.03125q0.296875 0 0.484375 0.03125q0.203125 0.015625 0.296875 0.0625q0.109375 0.046875 0.15625 0.109375q0.046875 0.0625 0.046875 0.15625l0 0.9375q0.671875 -0.71875 1.359375 -1.078125q0.703125 -0.375 1.46875 -0.375q0.828125 0 1.390625 0.28125q0.5625 0.265625 0.90625 0.734375q0.359375 0.46875 0.515625 1.09375q0.15625 0.625 0.15625 1.515625l0 5.015625zm9.465759 -8.125q0 0.03125 0 0.109375q0 0.0625 -0.015625 0.140625q-0.015625 0.078125 -0.046875 0.171875q-0.015625 0.09375 -0.046875 0.234375l-2.453125 7.34375q-0.046875 0.15625 -0.125 0.25q-0.078125 0.09375 -0.25 0.15625q-0.171875 0.046875 -0.484375 0.0625q-0.296875 0.015625 -0.796875 0.015625q-0.484375 0 -0.796875 -0.015625q-0.296875 -0.015625 -0.46875 -0.0625q-0.171875 -0.0625 -0.25 -0.15625q-0.078125 -0.109375 -0.125 -0.25l-2.4375 -7.34375q-0.0625 -0.1875 -0.09375 -0.328125q-0.03125 -0.15625 -0.03125 -0.21875q0 -0.0625 0 -0.109375q0 -0.09375 0.046875 -0.15625q0.046875 -0.078125 0.171875 -0.125q0.140625 -0.046875 0.359375 -0.0625q0.21875 -0.015625 0.5625 -0.015625q0.375 0 0.59375 0.03125q0.234375 0.015625 0.359375 0.0625q0.140625 0.03125 0.1875 0.109375q0.0625 0.078125 0.09375 0.1875l1.84375 5.96875l0.0625 0.21875l0.046875 -0.21875l1.828125 -5.96875q0.03125 -0.109375 0.078125 -0.1875q0.0625 -0.078125 0.1875 -0.109375q0.140625 -0.046875 0.34375 -0.0625q0.21875 -0.03125 0.5625 -0.03125q0.34375 0 0.546875 0.015625q0.21875 0.015625 0.328125 0.0625q0.125 0.046875 0.171875 0.125q0.046875 0.0625 0.046875 0.15625z" fill-rule="nonzero"/><path fill="#000000" d="m177.01324 115.594864q0 0.25 -0.03125 0.4375q-0.015625 0.171875 -0.078125 0.28125q-0.046875 0.09375 -0.109375 0.140625q-0.0625 0.046875 -0.140625 0.046875l-6.5 0q-0.078125 0 -0.140625 -0.046875q-0.0625 -0.046875 -0.109375 -0.140625q-0.046875 -0.109375 -0.078125 -0.28125q-0.03125 -0.1875 -0.03125 -0.4375q0 -0.265625 0.015625 -0.4375q0.03125 -0.1875 0.078125 -0.296875q0.046875 -0.109375 0.109375 -0.15625q0.078125 -0.046875 0.15625 -0.046875l2.1875 0l0 -7.671875l-1.890625 1.046875q-0.203125 0.09375 -0.34375 0.125q-0.125 0.015625 -0.203125 -0.0625q-0.078125 -0.078125 -0.109375 -0.265625q-0.03125 -0.1875 -0.03125 -0.53125q0 -0.21875 0 -0.359375q0.015625 -0.140625 0.046875 -0.234375q0.046875 -0.109375 0.109375 -0.171875q0.0625 -0.0625 0.171875 -0.140625l2.53125 -1.640625q0.046875 -0.03125 0.109375 -0.046875q0.078125 -0.03125 0.1875 -0.046875q0.109375 -0.015625 0.28125 -0.015625q0.1875 -0.015625 0.46875 -0.015625q0.34375 0 0.546875 0.015625q0.21875 0.015625 0.328125 0.046875q0.109375 0.03125 0.140625 0.09375q0.046875 0.046875 0.046875 0.125l0 9.75l1.921875 0q0.078125 0 0.140625 0.046875q0.078125 0.046875 0.125 0.15625q0.046875 0.109375 0.0625 0.296875q0.03125 0.171875 0.03125 0.4375zm8.690033 -7.640625q0.171875 0.0625 0.15625 0.28125q0 0.21875 -0.265625 0.671875q-0.265625 0.453125 -0.453125 0.5625q-0.171875 0.109375 -0.328125 0l-1.8125 -1.453125l0.375 2.296875q0.03125 0.1875 -0.171875 0.296875q-0.1875 0.09375 -0.71875 0.09375q-0.53125 0 -0.734375 -0.09375q-0.1875 -0.109375 -0.15625 -0.296875l0.375 -2.296875l-1.8125 1.453125q-0.140625 0.109375 -0.328125 0q-0.171875 -0.125 -0.453125 -0.578125q-0.265625 -0.4375 -0.28125 -0.65625q0 -0.21875 0.171875 -0.28125l2.171875 -0.84375l-2.171875 -0.84375q-0.171875 -0.0625 -0.171875 -0.28125q0.015625 -0.21875 0.28125 -0.671875q0.265625 -0.453125 0.453125 -0.5625q0.1875 -0.125 0.328125 0l1.8125 1.453125l-0.375 -2.296875q-0.03125 -0.171875 0.15625 -0.28125q0.203125 -0.109375 0.734375 -0.109375q0.53125 0 0.71875 0.109375q0.203125 0.109375 0.171875 0.28125l-0.375 2.296875l1.8125 -1.453125q0.15625 -0.125 0.328125 0q0.171875 0.109375 0.453125 0.578125q0.265625 0.4375 0.265625 0.65625q0.015625 0.21875 -0.15625 0.28125l-2.15625 0.84375l2.15625 0.84375zm10.057312 7.640625q0 0.25 -0.03125 0.4375q-0.015625 0.171875 -0.078125 0.28125q-0.046875 0.09375 -0.109375 0.140625q-0.0625 0.046875 -0.140625 0.046875l-6.5 0q-0.078125 0 -0.140625 -0.046875q-0.0625 -0.046875 -0.109375 -0.140625q-0.046875 -0.109375 -0.078125 -0.28125q-0.03125 -0.1875 -0.03125 -0.4375q0 -0.265625 0.015625 -0.4375q0.03125 -0.1875 0.078125 -0.296875q0.046875 -0.109375 0.109375 -0.15625q0.078125 -0.046875 0.15625 -0.046875l2.1875 0l0 -7.671875l-1.890625 1.046875q-0.203125 0.09375 -0.34375 0.125q-0.125 0.015625 -0.203125 -0.0625q-0.078125 -0.078125 -0.109375 -0.265625q-0.03125 -0.1875 -0.03125 -0.53125q0 -0.21875 0 -0.359375q0.015625 -0.140625 0.046875 -0.234375q0.046875 -0.109375 0.109375 -0.171875q0.0625 -0.0625 0.171875 -0.140625l2.53125 -1.640625q0.046875 -0.03125 0.109375 -0.046875q0.078125 -0.03125 0.1875 -0.046875q0.109375 -0.015625 0.28125 -0.015625q0.1875 -0.015625 0.46875 -0.015625q0.34375 0 0.546875 0.015625q0.21875 0.015625 0.328125 0.046875q0.109375 0.03125 0.140625 0.09375q0.046875 0.046875 0.046875 0.125l0 9.75l1.921875 0q0.078125 0 0.140625 0.046875q0.078125 0.046875 0.125 0.15625q0.046875 0.109375 0.0625 0.296875q0.03125 0.171875 0.03125 0.4375z" fill-rule="nonzero"/><path fill="#f1c232" d="m226.93059 66.760765l0 0c0 -12.7851715 9.28569 -23.149605 20.740158 -23.149605l0 0c5.500641 0 10.77597 2.4389687 14.665497 6.780365c3.889557 4.3413925 6.0746765 10.229584 6.0746765 16.36924l0 0c0 12.785179 -9.285706 23.149605 -20.740173 23.149605l0 0c-11.454468 0 -20.740158 -10.364426 -20.740158 -23.149605z" fill-rule="evenodd"/><path stroke="#000000" stroke-width="1.0" stroke-linejoin="round" stroke-linecap="butt" d="m226.93059 66.760765l0 0c0 -12.7851715 9.28569 -23.149605 20.740158 -23.149605l0 0c5.500641 0 10.77597 2.4389687 14.665497 6.780365c3.889557 4.3413925 6.0746765 10.229584 6.0746765 16.36924l0 0c0 12.785179 -9.285706 23.149605 -20.740173 23.149605l0 0c-11.454468 0 -20.740158 -10.364426 -20.740158 -23.149605z" fill-rule="evenodd"/><path fill="#000000" fill-opacity="0.0" d="m226.92743 36.151245l41.480316 0l0 42.015747l-41.480316 0z" fill-rule="evenodd"/><path fill="#000000" d="m252.4472 62.758743q0 0.109375 -0.046875 0.171875q-0.03125 0.0625 -0.171875 0.109375q-0.125 0.046875 -0.390625 0.0625q-0.265625 0.015625 -0.71875 0.015625q-0.390625 0 -0.625 -0.015625q-0.21875 -0.015625 -0.359375 -0.0625q-0.125 -0.046875 -0.1875 -0.125q-0.046875 -0.078125 -0.078125 -0.1875l-1.0625 -2.640625q-0.1875 -0.4375 -0.375 -0.78125q-0.171875 -0.359375 -0.40625 -0.578125q-0.21875 -0.234375 -0.515625 -0.34375q-0.28125 -0.125 -0.671875 -0.125l-0.734375 0l0 4.484375q0 0.09375 -0.0625 0.171875q-0.0625 0.0625 -0.203125 0.109375q-0.140625 0.046875 -0.375 0.0625q-0.21875 0.03125 -0.5625 0.03125q-0.359375 0 -0.59375 -0.03125q-0.21875 -0.015625 -0.359375 -0.0625q-0.140625 -0.046875 -0.203125 -0.109375q-0.046875 -0.078125 -0.046875 -0.171875l0 -10.703125q0 -0.40625 0.203125 -0.578125q0.203125 -0.171875 0.515625 -0.171875l3.046875 0q0.46875 0 0.765625 0.015625q0.296875 0.015625 0.546875 0.046875q0.703125 0.09375 1.265625 0.34375q0.578125 0.25 0.96875 0.640625q0.40625 0.390625 0.609375 0.9375q0.21875 0.546875 0.21875 1.25q0 0.578125 -0.15625 1.078125q-0.140625 0.484375 -0.4375 0.875q-0.296875 0.375 -0.734375 0.65625q-0.421875 0.28125 -0.96875 0.453125q0.265625 0.125 0.5 0.3125q0.234375 0.1875 0.4375 0.453125q0.203125 0.25 0.390625 0.578125q0.1875 0.328125 0.359375 0.75l0.984375 2.328125q0.140625 0.34375 0.1875 0.5q0.046875 0.15625 0.046875 0.25zm-3.09375 -8.0q0 -0.578125 -0.265625 -0.96875q-0.265625 -0.40625 -0.859375 -0.578125q-0.1875 -0.046875 -0.421875 -0.0625q-0.21875 -0.03125 -0.640625 -0.03125l-1.0625 0l0 3.34375l1.21875 0q0.5 0 0.875 -0.125q0.390625 -0.125 0.640625 -0.34375q0.265625 -0.234375 0.390625 -0.53125q0.125 -0.3125 0.125 -0.703125z" fill-rule="nonzero"/><path fill="#dd7e6b" d="m338.66885 65.135056l140.40945 0l0 68.72441l-140.40945 0z" fill-rule="evenodd"/><path stroke="#000000" stroke-width="2.0" stroke-linejoin="round" stroke-linecap="butt" d="m338.66885 65.135056l140.40945 0l0 68.72441l-140.40945 0z" fill-rule="evenodd"/><path fill="#000000" fill-opacity="0.0" d="m365.73883 74.640465l86.26773 0l0 64.62992l-86.26773 0z" fill-rule="evenodd"/><path fill="#000000" d="m399.071 99.77921q0 0.21875 -0.015625 0.390625q-0.015625 0.15625 -0.046875 0.265625q-0.015625 0.109375 -0.0625 0.203125q-0.046875 0.078125 -0.15625 0.1875q-0.09375 0.09375 -0.390625 0.265625q-0.28125 0.15625 -0.703125 0.3125q-0.40625 0.140625 -0.9375 0.234375q-0.53125 0.109375 -1.15625 0.109375q-1.203125 0 -2.1875 -0.375q-0.96875 -0.375 -1.65625 -1.109375q-0.671875 -0.75 -1.046875 -1.859375q-0.359375 -1.109375 -0.359375 -2.578125q0 -1.5 0.390625 -2.671875q0.40625 -1.171875 1.125 -1.953125q0.71875 -0.796875 1.71875 -1.203125q1.015625 -0.421875 2.234375 -0.421875q0.484375 0 0.9375 0.09375q0.46875 0.078125 0.84375 0.21875q0.390625 0.125 0.703125 0.296875q0.3125 0.171875 0.4375 0.296875q0.125 0.125 0.15625 0.203125q0.046875 0.078125 0.078125 0.203125q0.03125 0.125 0.046875 0.3125q0.015625 0.171875 0.015625 0.421875q0 0.265625 -0.03125 0.46875q-0.015625 0.1875 -0.0625 0.3125q-0.03125 0.109375 -0.109375 0.171875q-0.0625 0.046875 -0.140625 0.046875q-0.140625 0 -0.34375 -0.15625q-0.203125 -0.15625 -0.546875 -0.34375q-0.328125 -0.203125 -0.796875 -0.359375q-0.453125 -0.171875 -1.09375 -0.171875q-0.703125 0 -1.25 0.296875q-0.546875 0.28125 -0.9375 0.8125q-0.390625 0.53125 -0.59375 1.296875q-0.1875 0.75 -0.1875 1.703125q0 1.03125 0.203125 1.796875q0.21875 0.75 0.609375 1.25q0.40625 0.484375 0.953125 0.734375q0.5625 0.234375 1.265625 0.234375q0.640625 0 1.109375 -0.140625q0.46875 -0.15625 0.796875 -0.328125q0.328125 -0.1875 0.546875 -0.328125q0.21875 -0.15625 0.328125 -0.15625q0.09375 0 0.140625 0.046875q0.0625 0.03125 0.09375 0.140625q0.046875 0.109375 0.0625 0.3125q0.015625 0.1875 0.015625 0.515625zm9.79657 -2.671875q0 1.03125 -0.28125 1.890625q-0.265625 0.859375 -0.828125 1.484375q-0.546875 0.609375 -1.390625 0.953125q-0.828125 0.328125 -1.953125 0.328125q-1.078125 0 -1.890625 -0.296875q-0.796875 -0.296875 -1.328125 -0.875q-0.515625 -0.578125 -0.78125 -1.40625q-0.25 -0.84375 -0.25 -1.921875q0 -1.03125 0.28125 -1.890625q0.28125 -0.859375 0.828125 -1.46875q0.5625 -0.625 1.390625 -0.953125q0.828125 -0.34375 1.953125 -0.34375q1.09375 0 1.890625 0.296875q0.8125 0.296875 1.328125 0.875q0.53125 0.5625 0.78125 1.40625q0.25 0.84375 0.25 1.921875zm-2.359375 0.09375q0 -0.609375 -0.09375 -1.109375q-0.09375 -0.5 -0.328125 -0.875q-0.21875 -0.375 -0.59375 -0.578125q-0.375 -0.21875 -0.953125 -0.21875q-0.515625 0 -0.90625 0.1875q-0.375 0.1875 -0.625 0.546875q-0.234375 0.359375 -0.359375 0.875q-0.125 0.5 -0.125 1.140625q0 0.59375 0.09375 1.109375q0.109375 0.5 0.328125 0.875q0.21875 0.375 0.59375 0.578125q0.390625 0.203125 0.953125 0.203125q0.53125 0 0.90625 -0.1875q0.390625 -0.1875 0.625 -0.53125q0.25 -0.359375 0.359375 -0.859375q0.125 -0.515625 0.125 -1.15625zm11.935822 4.046875q0 0.09375 -0.0625 0.171875q-0.046875 0.0625 -0.171875 0.109375q-0.125 0.046875 -0.359375 0.0625q-0.21875 0.015625 -0.546875 0.015625q-0.328125 0 -0.5625 -0.015625q-0.21875 -0.015625 -0.34375 -0.0625q-0.125 -0.046875 -0.1875 -0.109375q-0.046875 -0.078125 -0.046875 -0.171875l0 -4.640625q0 -0.578125 -0.09375 -0.921875q-0.078125 -0.34375 -0.25 -0.578125q-0.15625 -0.25 -0.421875 -0.375q-0.25 -0.125 -0.609375 -0.125q-0.4375 0 -0.890625 0.3125q-0.4375 0.3125 -0.921875 0.921875l0 5.40625q0 0.09375 -0.0625 0.171875q-0.046875 0.0625 -0.1875 0.109375q-0.125 0.046875 -0.34375 0.0625q-0.21875 0.015625 -0.546875 0.015625q-0.34375 0 -0.5625 -0.015625q-0.21875 -0.015625 -0.359375 -0.0625q-0.125 -0.046875 -0.1875 -0.109375q-0.046875 -0.078125 -0.046875 -0.171875l0 -8.125q0 -0.09375 0.046875 -0.15625q0.046875 -0.0625 0.15625 -0.109375q0.125 -0.046875 0.3125 -0.0625q0.1875 -0.03125 0.46875 -0.03125q0.296875 0 0.484375 0.03125q0.203125 0.015625 0.296875 0.0625q0.109375 0.046875 0.15625 0.109375q0.046875 0.0625 0.046875 0.15625l0 0.9375q0.671875 -0.71875 1.359375 -1.078125q0.703125 -0.375 1.46875 -0.375q0.828125 0 1.390625 0.28125q0.5625 0.265625 0.90625 0.734375q0.359375 0.46875 0.515625 1.09375q0.15625 0.625 0.15625 1.515625l0 5.015625zm9.465759 -8.125q0 0.03125 0 0.109375q0 0.0625 -0.015625 0.140625q-0.015625 0.078125 -0.046875 0.171875q-0.015625 0.09375 -0.046875 0.234375l-2.453125 7.34375q-0.046875 0.15625 -0.125 0.25q-0.078125 0.09375 -0.25 0.15625q-0.171875 0.046875 -0.484375 0.0625q-0.296875 0.015625 -0.796875 0.015625q-0.484375 0 -0.796875 -0.015625q-0.296875 -0.015625 -0.46875 -0.0625q-0.171875 -0.0625 -0.25 -0.15625q-0.078125 -0.109375 -0.125 -0.25l-2.4375 -7.34375q-0.0625 -0.1875 -0.09375 -0.328125q-0.03125 -0.15625 -0.03125 -0.21875q0 -0.0625 0 -0.109375q0 -0.09375 0.046875 -0.15625q0.046875 -0.078125 0.171875 -0.125q0.140625 -0.046875 0.359375 -0.0625q0.21875 -0.015625 0.5625 -0.015625q0.375 0 0.59375 0.03125q0.234375 0.015625 0.359375 0.0625q0.140625 0.03125 0.1875 0.109375q0.0625 0.078125 0.09375 0.1875l1.84375 5.96875l0.0625 0.21875l0.046875 -0.21875l1.828125 -5.96875q0.03125 -0.109375 0.078125 -0.1875q0.0625 -0.078125 0.1875 -0.109375q0.140625 -0.046875 0.34375 -0.0625q0.21875 -0.03125 0.5625 -0.03125q0.34375 0 0.546875 0.015625q0.21875 0.015625 0.328125 0.0625q0.125 0.046875 0.171875 0.125q0.046875 0.0625 0.046875 0.15625z" fill-rule="nonzero"/><path fill="#000000" d="m403.42746 120.50734q0 0.890625 -0.34375 1.578125q-0.328125 0.671875 -0.9375 1.140625q-0.59375 0.46875 -1.4375 0.703125q-0.84375 0.234375 -1.828125 0.234375q-0.609375 0 -1.140625 -0.09375q-0.515625 -0.078125 -0.921875 -0.203125q-0.40625 -0.125 -0.671875 -0.25q-0.265625 -0.140625 -0.34375 -0.21875q-0.078125 -0.078125 -0.125 -0.15625q-0.046875 -0.09375 -0.078125 -0.21875q-0.03125 -0.125 -0.046875 -0.3125q0 -0.1875 0 -0.453125q0 -0.4375 0.0625 -0.609375q0.078125 -0.171875 0.21875 -0.171875q0.09375 0 0.3125 0.125q0.234375 0.125 0.578125 0.265625q0.34375 0.140625 0.796875 0.265625q0.46875 0.125 1.0625 0.125q0.5 0 0.875 -0.109375q0.390625 -0.125 0.65625 -0.34375q0.28125 -0.21875 0.40625 -0.515625q0.140625 -0.3125 0.140625 -0.6875q0 -0.40625 -0.171875 -0.734375q-0.15625 -0.328125 -0.46875 -0.546875q-0.3125 -0.234375 -0.796875 -0.359375q-0.46875 -0.140625 -1.125 -0.140625l-1.015625 0q-0.109375 0 -0.203125 -0.03125q-0.078125 -0.03125 -0.140625 -0.125q-0.046875 -0.109375 -0.078125 -0.28125q-0.015625 -0.171875 -0.015625 -0.46875q0 -0.25 0.015625 -0.421875q0.03125 -0.171875 0.078125 -0.265625q0.046875 -0.09375 0.125 -0.125q0.078125 -0.03125 0.1875 -0.03125l1.03125 0q0.53125 0 0.9375 -0.125q0.421875 -0.125 0.6875 -0.34375q0.28125 -0.234375 0.421875 -0.5625q0.15625 -0.328125 0.15625 -0.71875q0 -0.296875 -0.109375 -0.5625q-0.09375 -0.265625 -0.296875 -0.453125q-0.1875 -0.203125 -0.5 -0.3125q-0.3125 -0.125 -0.734375 -0.125q-0.46875 0 -0.890625 0.140625q-0.421875 0.140625 -0.75 0.3125q-0.328125 0.171875 -0.5625 0.3125q-0.234375 0.140625 -0.34375 0.140625q-0.078125 0 -0.140625 -0.03125q-0.046875 -0.03125 -0.078125 -0.109375q-0.03125 -0.09375 -0.0625 -0.265625q-0.015625 -0.1875 -0.015625 -0.453125q0 -0.234375 0.015625 -0.375q0.015625 -0.15625 0.03125 -0.25q0.03125 -0.109375 0.0625 -0.171875q0.046875 -0.078125 0.140625 -0.15625q0.09375 -0.09375 0.375 -0.265625q0.28125 -0.171875 0.703125 -0.328125q0.4375 -0.171875 1.0 -0.28125q0.5625 -0.125 1.21875 -0.125q0.84375 0 1.5 0.203125q0.671875 0.203125 1.125 0.578125q0.453125 0.375 0.671875 0.9375q0.234375 0.546875 0.234375 1.234375q0 0.53125 -0.140625 1.0q-0.125 0.46875 -0.390625 0.84375q-0.265625 0.359375 -0.671875 0.609375q-0.390625 0.25 -0.90625 0.375l0 0.03125q0.625 0.078125 1.109375 0.328125q0.5 0.234375 0.84375 0.59375q0.34375 0.359375 0.515625 0.828125q0.1875 0.453125 0.1875 0.984375zm8.627533 -5.09375q0.171875 0.0625 0.15625 0.28125q0 0.21875 -0.265625 0.671875q-0.265625 0.453125 -0.453125 0.5625q-0.171875 0.109375 -0.328125 0l-1.8125 -1.453125l0.375 2.296875q0.03125 0.1875 -0.171875 0.296875q-0.1875 0.09375 -0.71875 0.09375q-0.53125 0 -0.734375 -0.09375q-0.1875 -0.109375 -0.15625 -0.296875l0.375 -2.296875l-1.8125 1.453125q-0.140625 0.109375 -0.328125 0q-0.171875 -0.125 -0.453125 -0.578125q-0.265625 -0.4375 -0.28125 -0.65625q0 -0.21875 0.171875 -0.28125l2.171875 -0.84375l-2.171875 -0.84375q-0.171875 -0.0625 -0.171875 -0.28125q0.015625 -0.21875 0.28125 -0.671875q0.265625 -0.453125 0.453125 -0.5625q0.1875 -0.125 0.328125 0l1.8125 1.453125l-0.375 -2.296875q-0.03125 -0.171875 0.15625 -0.28125q0.203125 -0.109375 0.734375 -0.109375q0.53125 0 0.71875 0.109375q0.203125 0.109375 0.171875 0.28125l-0.375 2.296875l1.8125 -1.453125q0.15625 -0.125 0.328125 0q0.171875 0.109375 0.453125 0.578125q0.265625 0.4375 0.265625 0.65625q0.015625 0.21875 -0.15625 0.28125l-2.15625 0.84375l2.15625 0.84375zm10.119812 5.09375q0 0.890625 -0.34375 1.578125q-0.328125 0.671875 -0.9375 1.140625q-0.59375 0.46875 -1.4375 0.703125q-0.84375 0.234375 -1.828125 0.234375q-0.609375 0 -1.140625 -0.09375q-0.515625 -0.078125 -0.921875 -0.203125q-0.40625 -0.125 -0.671875 -0.25q-0.265625 -0.140625 -0.34375 -0.21875q-0.078125 -0.078125 -0.125 -0.15625q-0.046875 -0.09375 -0.078125 -0.21875q-0.03125 -0.125 -0.046875 -0.3125q0 -0.1875 0 -0.453125q0 -0.4375 0.0625 -0.609375q0.078125 -0.171875 0.21875 -0.171875q0.09375 0 0.3125 0.125q0.234375 0.125 0.578125 0.265625q0.34375 0.140625 0.796875 0.265625q0.46875 0.125 1.0625 0.125q0.5 0 0.875 -0.109375q0.390625 -0.125 0.65625 -0.34375q0.28125 -0.21875 0.40625 -0.515625q0.140625 -0.3125 0.140625 -0.6875q0 -0.40625 -0.171875 -0.734375q-0.15625 -0.328125 -0.46875 -0.546875q-0.3125 -0.234375 -0.796875 -0.359375q-0.46875 -0.140625 -1.125 -0.140625l-1.015625 0q-0.109375 0 -0.203125 -0.03125q-0.078125 -0.03125 -0.140625 -0.125q-0.046875 -0.109375 -0.078125 -0.28125q-0.015625 -0.171875 -0.015625 -0.46875q0 -0.25 0.015625 -0.421875q0.03125 -0.171875 0.078125 -0.265625q0.046875 -0.09375 0.125 -0.125q0.078125 -0.03125 0.1875 -0.03125l1.03125 0q0.53125 0 0.9375 -0.125q0.421875 -0.125 0.6875 -0.34375q0.28125 -0.234375 0.421875 -0.5625q0.15625 -0.328125 0.15625 -0.71875q0 -0.296875 -0.109375 -0.5625q-0.09375 -0.265625 -0.296875 -0.453125q-0.1875 -0.203125 -0.5 -0.3125q-0.3125 -0.125 -0.734375 -0.125q-0.46875 0 -0.890625 0.140625q-0.421875 0.140625 -0.75 0.3125q-0.328125 0.171875 -0.5625 0.3125q-0.234375 0.140625 -0.34375 0.140625q-0.078125 0 -0.140625 -0.03125q-0.046875 -0.03125 -0.078125 -0.109375q-0.03125 -0.09375 -0.0625 -0.265625q-0.015625 -0.1875 -0.015625 -0.453125q0 -0.234375 0.015625 -0.375q0.015625 -0.15625 0.03125 -0.25q0.03125 -0.109375 0.0625 -0.171875q0.046875 -0.078125 0.140625 -0.15625q0.09375 -0.09375 0.375 -0.265625q0.28125 -0.171875 0.703125 -0.328125q0.4375 -0.171875 1.0 -0.28125q0.5625 -0.125 1.21875 -0.125q0.84375 0 1.5 0.203125q0.671875 0.203125 1.125 0.578125q0.453125 0.375 0.671875 0.9375q0.234375 0.546875 0.234375 1.234375q0 0.53125 -0.140625 1.0q-0.125 0.46875 -0.390625 0.84375q-0.265625 0.359375 -0.671875 0.609375q-0.390625 0.25 -0.90625 0.375l0 0.03125q0.625 0.078125 1.109375 0.328125q0.5 0.234375 0.84375 0.59375q0.34375 0.359375 0.515625 0.828125q0.1875 0.453125 0.1875 0.984375z" fill-rule="nonzero"/><path fill="#f1c232" d="m453.2823 74.220085l0 0c0 -12.785175 9.285706 -23.149605 20.740173 -23.149605l0 0c5.500641 0 10.77597 2.4389687 14.665497 6.780361c3.8895264 4.3413925 6.074646 10.229588 6.074646 16.369244l0 0c0 12.7851715 -9.285675 23.149605 -20.740143 23.149605l0 0c-11.454468 0 -20.740173 -10.364433 -20.740173 -23.149605z" fill-rule="evenodd"/><path stroke="#000000" stroke-width="1.0" stroke-linejoin="round" stroke-linecap="butt" d="m453.2823 74.220085l0 0c0 -12.785175 9.285706 -23.149605 20.740173 -23.149605l0 0c5.500641 0 10.77597 2.4389687 14.665497 6.780361c3.8895264 4.3413925 6.074646 10.229588 6.074646 16.369244l0 0c0 12.7851715 -9.285675 23.149605 -20.740143 23.149605l0 0c-11.454468 0 -20.740173 -10.364433 -20.740173 -23.149605z" fill-rule="evenodd"/><path fill="#000000" fill-opacity="0.0" d="m453.27914 43.610565l41.480316 0l0 42.015747l-41.480316 0z" fill-rule="evenodd"/><path fill="#000000" d="m478.79892 70.21806q0 0.109375 -0.046875 0.171875q-0.03125 0.0625 -0.171875 0.109375q-0.125 0.046875 -0.390625 0.0625q-0.265625 0.015625 -0.71875 0.015625q-0.390625 0 -0.625 -0.015625q-0.21875 -0.015625 -0.359375 -0.0625q-0.125 -0.046875 -0.1875 -0.125q-0.046875 -0.078125 -0.078125 -0.1875l-1.0625 -2.640625q-0.1875 -0.4375 -0.375 -0.78125q-0.171875 -0.359375 -0.40625 -0.578125q-0.21875 -0.234375 -0.515625 -0.34375q-0.28125 -0.125 -0.671875 -0.125l-0.734375 0l0 4.484375q0 0.09375 -0.0625 0.171875q-0.0625 0.0625 -0.203125 0.109375q-0.140625 0.046875 -0.375 0.0625q-0.21875 0.03125 -0.5625 0.03125q-0.359375 0 -0.59375 -0.03125q-0.21875 -0.015625 -0.359375 -0.0625q-0.140625 -0.046875 -0.203125 -0.109375q-0.046875 -0.078125 -0.046875 -0.171875l0 -10.703125q0 -0.40625 0.203125 -0.578125q0.203125 -0.171875 0.515625 -0.171875l3.046875 0q0.46875 0 0.765625 0.015625q0.296875 0.015625 0.546875 0.046875q0.703125 0.09375 1.265625 0.34375q0.578125 0.25 0.96875 0.640625q0.40625 0.390625 0.609375 0.9375q0.21875 0.546875 0.21875 1.25q0 0.578125 -0.15625 1.078125q-0.140625 0.484375 -0.4375 0.875q-0.296875 0.375 -0.734375 0.65625q-0.421875 0.28125 -0.96875 0.453125q0.265625 0.125 0.5 0.3125q0.234375 0.1875 0.4375 0.453125q0.203125 0.25 0.390625 0.578125q0.1875 0.328125 0.359375 0.75l0.984375 2.328125q0.140625 0.34375 0.1875 0.5q0.046875 0.15625 0.046875 0.25zm-3.09375 -8.0q0 -0.578125 -0.265625 -0.96875q-0.265625 -0.40625 -0.859375 -0.578125q-0.1875 -0.046875 -0.421875 -0.0625q-0.21875 -0.03125 -0.640625 -0.03125l-1.0625 0l0 3.34375l1.21875 0q0.5 0 0.875 -0.125q0.390625 -0.125 0.640625 -0.34375q0.265625 -0.234375 0.390625 -0.53125q0.125 -0.3125 0.125 -0.703125z" fill-rule="nonzero"/><path fill="#000000" fill-opacity="0.0" d="m252.7161 99.49726l85.95276 0" fill-rule="evenodd"/><path stroke="#000000" stroke-width="2.0" stroke-linejoin="round" stroke-linecap="butt" d="m252.71608 99.49726l73.952774 0" fill-rule="evenodd"/><path fill="#000000" stroke="#000000" stroke-width="2.0" stroke-linecap="butt" d="m326.66885 102.80073l9.076172 -3.3034668l-9.076172 -3.3034668z" fill-rule="evenodd"/><path fill="#dd7e6b" d="m535.84735 65.135056l140.40942 0l0 68.72441l-140.40942 0z" fill-rule="evenodd"/><path stroke="#000000" stroke-width="2.0" stroke-linejoin="round" stroke-linecap="butt" d="m535.84735 65.135056l140.40942 0l0 68.72441l-140.40942 0z" fill-rule="evenodd"/><path fill="#000000" fill-opacity="0.0" d="m562.9173 74.640465l86.26776 0l0 64.62992l-86.26776 0z" fill-rule="evenodd"/><path fill="#000000" d="m596.2495 99.77921q0 0.21875 -0.015625 0.390625q-0.015625 0.15625 -0.046875 0.265625q-0.015625 0.109375 -0.0625 0.203125q-0.046875 0.078125 -0.15625 0.1875q-0.09375 0.09375 -0.390625 0.265625q-0.28125 0.15625 -0.703125 0.3125q-0.40625 0.140625 -0.9375 0.234375q-0.53125 0.109375 -1.15625 0.109375q-1.203125 0 -2.1875 -0.375q-0.96875 -0.375 -1.65625 -1.109375q-0.671875 -0.75 -1.046875 -1.859375q-0.359375 -1.109375 -0.359375 -2.578125q0 -1.5 0.390625 -2.671875q0.40625 -1.171875 1.125 -1.953125q0.71875 -0.796875 1.71875 -1.203125q1.015625 -0.421875 2.234375 -0.421875q0.484375 0 0.9375 0.09375q0.46875 0.078125 0.84375 0.21875q0.390625 0.125 0.703125 0.296875q0.3125 0.171875 0.4375 0.296875q0.125 0.125 0.15625 0.203125q0.046875 0.078125 0.078125 0.203125q0.03125 0.125 0.046875 0.3125q0.015625 0.171875 0.015625 0.421875q0 0.265625 -0.03125 0.46875q-0.015625 0.1875 -0.0625 0.3125q-0.03125 0.109375 -0.109375 0.171875q-0.0625 0.046875 -0.140625 0.046875q-0.140625 0 -0.34375 -0.15625q-0.203125 -0.15625 -0.546875 -0.34375q-0.328125 -0.203125 -0.796875 -0.359375q-0.453125 -0.171875 -1.09375 -0.171875q-0.703125 0 -1.25 0.296875q-0.546875 0.28125 -0.9375 0.8125q-0.390625 0.53125 -0.59375 1.296875q-0.1875 0.75 -0.1875 1.703125q0 1.03125 0.203125 1.796875q0.21875 0.75 0.609375 1.25q0.40625 0.484375 0.953125 0.734375q0.5625 0.234375 1.265625 0.234375q0.640625 0 1.109375 -0.140625q0.46875 -0.15625 0.796875 -0.328125q0.328125 -0.1875 0.546875 -0.328125q0.21875 -0.15625 0.328125 -0.15625q0.09375 0 0.140625 0.046875q0.0625 0.03125 0.09375 0.140625q0.046875 0.109375 0.0625 0.3125q0.015625 0.1875 0.015625 0.515625zm9.79657 -2.671875q0 1.03125 -0.28125 1.890625q-0.265625 0.859375 -0.828125 1.484375q-0.546875 0.609375 -1.390625 0.953125q-0.828125 0.328125 -1.953125 0.328125q-1.078125 0 -1.890625 -0.296875q-0.796875 -0.296875 -1.328125 -0.875q-0.515625 -0.578125 -0.78125 -1.40625q-0.25 -0.84375 -0.25 -1.921875q0 -1.03125 0.28125 -1.890625q0.28125 -0.859375 0.828125 -1.46875q0.5625 -0.625 1.390625 -0.953125q0.828125 -0.34375 1.953125 -0.34375q1.09375 0 1.890625 0.296875q0.8125 0.296875 1.328125 0.875q0.53125 0.5625 0.78125 1.40625q0.25 0.84375 0.25 1.921875zm-2.359375 0.09375q0 -0.609375 -0.09375 -1.109375q-0.09375 -0.5 -0.328125 -0.875q-0.21875 -0.375 -0.59375 -0.578125q-0.375 -0.21875 -0.953125 -0.21875q-0.515625 0 -0.90625 0.1875q-0.375 0.1875 -0.625 0.546875q-0.234375 0.359375 -0.359375 0.875q-0.125 0.5 -0.125 1.140625q0 0.59375 0.09375 1.109375q0.109375 0.5 0.328125 0.875q0.21875 0.375 0.59375 0.578125q0.390625 0.203125 0.953125 0.203125q0.53125 0 0.90625 -0.1875q0.390625 -0.1875 0.625 -0.53125q0.25 -0.359375 0.359375 -0.859375q0.125 -0.515625 0.125 -1.15625zm11.935791 4.046875q0 0.09375 -0.0625 0.171875q-0.046875 0.0625 -0.171875 0.109375q-0.125 0.046875 -0.359375 0.0625q-0.21875 0.015625 -0.546875 0.015625q-0.328125 0 -0.5625 -0.015625q-0.21875 -0.015625 -0.34375 -0.0625q-0.125 -0.046875 -0.1875 -0.109375q-0.046875 -0.078125 -0.046875 -0.171875l0 -4.640625q0 -0.578125 -0.09375 -0.921875q-0.078125 -0.34375 -0.25 -0.578125q-0.15625 -0.25 -0.421875 -0.375q-0.25 -0.125 -0.609375 -0.125q-0.4375 0 -0.890625 0.3125q-0.4375 0.3125 -0.921875 0.921875l0 5.40625q0 0.09375 -0.0625 0.171875q-0.046875 0.0625 -0.1875 0.109375q-0.125 0.046875 -0.34375 0.0625q-0.21875 0.015625 -0.546875 0.015625q-0.34375 0 -0.5625 -0.015625q-0.21875 -0.015625 -0.359375 -0.0625q-0.125 -0.046875 -0.1875 -0.109375q-0.046875 -0.078125 -0.046875 -0.171875l0 -8.125q0 -0.09375 0.046875 -0.15625q0.046875 -0.0625 0.15625 -0.109375q0.125 -0.046875 0.3125 -0.0625q0.1875 -0.03125 0.46875 -0.03125q0.296875 0 0.484375 0.03125q0.203125 0.015625 0.296875 0.0625q0.109375 0.046875 0.15625 0.109375q0.046875 0.0625 0.046875 0.15625l0 0.9375q0.671875 -0.71875 1.359375 -1.078125q0.703125 -0.375 1.46875 -0.375q0.828125 0 1.390625 0.28125q0.5625 0.265625 0.90625 0.734375q0.359375 0.46875 0.515625 1.09375q0.15625 0.625 0.15625 1.515625l0 5.015625zm9.465759 -8.125q0 0.03125 0 0.109375q0 0.0625 -0.015625 0.140625q-0.015625 0.078125 -0.046875 0.171875q-0.015625 0.09375 -0.046875 0.234375l-2.453125 7.34375q-0.046875 0.15625 -0.125 0.25q-0.078125 0.09375 -0.25 0.15625q-0.171875 0.046875 -0.484375 0.0625q-0.296875 0.015625 -0.796875 0.015625q-0.484375 0 -0.796875 -0.015625q-0.296875 -0.015625 -0.46875 -0.0625q-0.171875 -0.0625 -0.25 -0.15625q-0.078125 -0.109375 -0.125 -0.25l-2.4375 -7.34375q-0.0625 -0.1875 -0.09375 -0.328125q-0.03125 -0.15625 -0.03125 -0.21875q0 -0.0625 0 -0.109375q0 -0.09375 0.046875 -0.15625q0.046875 -0.078125 0.171875 -0.125q0.140625 -0.046875 0.359375 -0.0625q0.21875 -0.015625 0.5625 -0.015625q0.375 0 0.59375 0.03125q0.234375 0.015625 0.359375 0.0625q0.140625 0.03125 0.1875 0.109375q0.0625 0.078125 0.09375 0.1875l1.84375 5.96875l0.0625 0.21875l0.046875 -0.21875l1.828125 -5.96875q0.03125 -0.109375 0.078125 -0.1875q0.0625 -0.078125 0.1875 -0.109375q0.140625 -0.046875 0.34375 -0.0625q0.21875 -0.03125 0.5625 -0.03125q0.34375 0 0.546875 0.015625q0.21875 0.015625 0.328125 0.0625q0.125 0.046875 0.171875 0.125q0.046875 0.0625 0.046875 0.15625z" fill-rule="nonzero"/><path fill="#000000" d="m600.60596 120.50734q0 0.890625 -0.34375 1.578125q-0.328125 0.671875 -0.9375 1.140625q-0.59375 0.46875 -1.4375 0.703125q-0.84375 0.234375 -1.828125 0.234375q-0.609375 0 -1.140625 -0.09375q-0.515625 -0.078125 -0.921875 -0.203125q-0.40625 -0.125 -0.671875 -0.25q-0.265625 -0.140625 -0.34375 -0.21875q-0.078125 -0.078125 -0.125 -0.15625q-0.046875 -0.09375 -0.078125 -0.21875q-0.03125 -0.125 -0.046875 -0.3125q0 -0.1875 0 -0.453125q0 -0.4375 0.0625 -0.609375q0.078125 -0.171875 0.21875 -0.171875q0.09375 0 0.3125 0.125q0.234375 0.125 0.578125 0.265625q0.34375 0.140625 0.796875 0.265625q0.46875 0.125 1.0625 0.125q0.5 0 0.875 -0.109375q0.390625 -0.125 0.65625 -0.34375q0.28125 -0.21875 0.40625 -0.515625q0.140625 -0.3125 0.140625 -0.6875q0 -0.40625 -0.171875 -0.734375q-0.15625 -0.328125 -0.46875 -0.546875q-0.3125 -0.234375 -0.796875 -0.359375q-0.46875 -0.140625 -1.125 -0.140625l-1.015625 0q-0.109375 0 -0.203125 -0.03125q-0.078125 -0.03125 -0.140625 -0.125q-0.046875 -0.109375 -0.078125 -0.28125q-0.015625 -0.171875 -0.015625 -0.46875q0 -0.25 0.015625 -0.421875q0.03125 -0.171875 0.078125 -0.265625q0.046875 -0.09375 0.125 -0.125q0.078125 -0.03125 0.1875 -0.03125l1.03125 0q0.53125 0 0.9375 -0.125q0.421875 -0.125 0.6875 -0.34375q0.28125 -0.234375 0.421875 -0.5625q0.15625 -0.328125 0.15625 -0.71875q0 -0.296875 -0.109375 -0.5625q-0.09375 -0.265625 -0.296875 -0.453125q-0.1875 -0.203125 -0.5 -0.3125q-0.3125 -0.125 -0.734375 -0.125q-0.46875 0 -0.890625 0.140625q-0.421875 0.140625 -0.75 0.3125q-0.328125 0.171875 -0.5625 0.3125q-0.234375 0.140625 -0.34375 0.140625q-0.078125 0 -0.140625 -0.03125q-0.046875 -0.03125 -0.078125 -0.109375q-0.03125 -0.09375 -0.0625 -0.265625q-0.015625 -0.1875 -0.015625 -0.453125q0 -0.234375 0.015625 -0.375q0.015625 -0.15625 0.03125 -0.25q0.03125 -0.109375 0.0625 -0.171875q0.046875 -0.078125 0.140625 -0.15625q0.09375 -0.09375 0.375 -0.265625q0.28125 -0.171875 0.703125 -0.328125q0.4375 -0.171875 1.0 -0.28125q0.5625 -0.125 1.21875 -0.125q0.84375 0 1.5 0.203125q0.671875 0.203125 1.125 0.578125q0.453125 0.375 0.671875 0.9375q0.234375 0.546875 0.234375 1.234375q0 0.53125 -0.140625 1.0q-0.125 0.46875 -0.390625 0.84375q-0.265625 0.359375 -0.671875 0.609375q-0.390625 0.25 -0.90625 0.375l0 0.03125q0.625 0.078125 1.109375 0.328125q0.5 0.234375 0.84375 0.59375q0.34375 0.359375 0.515625 0.828125q0.1875 0.453125 0.1875 0.984375zm8.627502 -5.09375q0.171875 0.0625 0.15625 0.28125q0 0.21875 -0.265625 0.671875q-0.265625 0.453125 -0.453125 0.5625q-0.171875 0.109375 -0.328125 0l-1.8125 -1.453125l0.375 2.296875q0.03125 0.1875 -0.171875 0.296875q-0.1875 0.09375 -0.71875 0.09375q-0.53125 0 -0.734375 -0.09375q-0.1875 -0.109375 -0.15625 -0.296875l0.375 -2.296875l-1.8125 1.453125q-0.140625 0.109375 -0.328125 0q-0.171875 -0.125 -0.453125 -0.578125q-0.265625 -0.4375 -0.28125 -0.65625q0 -0.21875 0.171875 -0.28125l2.171875 -0.84375l-2.171875 -0.84375q-0.171875 -0.0625 -0.171875 -0.28125q0.015625 -0.21875 0.28125 -0.671875q0.265625 -0.453125 0.453125 -0.5625q0.1875 -0.125 0.328125 0l1.8125 1.453125l-0.375 -2.296875q-0.03125 -0.171875 0.15625 -0.28125q0.203125 -0.109375 0.734375 -0.109375q0.53125 0 0.71875 0.109375q0.203125 0.109375 0.171875 0.28125l-0.375 2.296875l1.8125 -1.453125q0.15625 -0.125 0.328125 0q0.171875 0.109375 0.453125 0.578125q0.265625 0.4375 0.265625 0.65625q0.015625 0.21875 -0.15625 0.28125l-2.15625 0.84375l2.15625 0.84375zm10.119812 5.09375q0 0.890625 -0.34375 1.578125q-0.328125 0.671875 -0.9375 1.140625q-0.59375 0.46875 -1.4375 0.703125q-0.84375 0.234375 -1.828125 0.234375q-0.609375 0 -1.140625 -0.09375q-0.515625 -0.078125 -0.921875 -0.203125q-0.40625 -0.125 -0.671875 -0.25q-0.265625 -0.140625 -0.34375 -0.21875q-0.078125 -0.078125 -0.125 -0.15625q-0.046875 -0.09375 -0.078125 -0.21875q-0.03125 -0.125 -0.046875 -0.3125q0 -0.1875 0 -0.453125q0 -0.4375 0.0625 -0.609375q0.078125 -0.171875 0.21875 -0.171875q0.09375 0 0.3125 0.125q0.234375 0.125 0.578125 0.265625q0.34375 0.140625 0.796875 0.265625q0.46875 0.125 1.0625 0.125q0.5 0 0.875 -0.109375q0.390625 -0.125 0.65625 -0.34375q0.28125 -0.21875 0.40625 -0.515625q0.140625 -0.3125 0.140625 -0.6875q0 -0.40625 -0.171875 -0.734375q-0.15625 -0.328125 -0.46875 -0.546875q-0.3125 -0.234375 -0.796875 -0.359375q-0.46875 -0.140625 -1.125 -0.140625l-1.015625 0q-0.109375 0 -0.203125 -0.03125q-0.078125 -0.03125 -0.140625 -0.125q-0.046875 -0.109375 -0.078125 -0.28125q-0.015625 -0.171875 -0.015625 -0.46875q0 -0.25 0.015625 -0.421875q0.03125 -0.171875 0.078125 -0.265625q0.046875 -0.09375 0.125 -0.125q0.078125 -0.03125 0.1875 -0.03125l1.03125 0q0.53125 0 0.9375 -0.125q0.421875 -0.125 0.6875 -0.34375q0.28125 -0.234375 0.421875 -0.5625q0.15625 -0.328125 0.15625 -0.71875q0 -0.296875 -0.109375 -0.5625q-0.09375 -0.265625 -0.296875 -0.453125q-0.1875 -0.203125 -0.5 -0.3125q-0.3125 -0.125 -0.734375 -0.125q-0.46875 0 -0.890625 0.140625q-0.421875 0.140625 -0.75 0.3125q-0.328125 0.171875 -0.5625 0.3125q-0.234375 0.140625 -0.34375 0.140625q-0.078125 0 -0.140625 -0.03125q-0.046875 -0.03125 -0.078125 -0.109375q-0.03125 -0.09375 -0.0625 -0.265625q-0.015625 -0.1875 -0.015625 -0.453125q0 -0.234375 0.015625 -0.375q0.015625 -0.15625 0.03125 -0.25q0.03125 -0.109375 0.0625 -0.171875q0.046875 -0.078125 0.140625 -0.15625q0.09375 -0.09375 0.375 -0.265625q0.28125 -0.171875 0.703125 -0.328125q0.4375 -0.171875 1.0 -0.28125q0.5625 -0.125 1.21875 -0.125q0.84375 0 1.5 0.203125q0.671875 0.203125 1.125 0.578125q0.453125 0.375 0.671875 0.9375q0.234375 0.546875 0.234375 1.234375q0 0.53125 -0.140625 1.0q-0.125 0.46875 -0.390625 0.84375q-0.265625 0.359375 -0.671875 0.609375q-0.390625 0.25 -0.90625 0.375l0 0.03125q0.625 0.078125 1.109375 0.328125q0.5 0.234375 0.84375 0.59375q0.34375 0.359375 0.515625 0.828125q0.1875 0.453125 0.1875 0.984375z" fill-rule="nonzero"/><path fill="#000000" fill-opacity="0.0" d="m479.09143 99.49726l56.75592 0" fill-rule="evenodd"/><path stroke="#000000" stroke-width="1.0" stroke-linejoin="round" stroke-linecap="butt" d="m479.0914 99.49726l50.75589 0" fill-rule="evenodd"/><path fill="#000000" stroke="#000000" stroke-width="1.0" stroke-linecap="butt" d="m529.8473 101.148994l4.538147 -1.6517334l-4.538147 -1.6517334z" fill-rule="evenodd"/><path fill="#dd7e6b" d="m112.31845 209.82272l140.40945 0l0 68.724396l-140.40945 0z" fill-rule="evenodd"/><path stroke="#000000" stroke-width="2.0" stroke-linejoin="round" stroke-linecap="butt" d="m112.31845 209.82272l140.40945 0l0 68.724396l-140.40945 0z" fill-rule="evenodd"/><path fill="#000000" fill-opacity="0.0" d="m139.38846 219.32812l86.267715 0l0 64.62991l-86.267715 0z" fill-rule="evenodd"/><path fill="#000000" d="m172.72063 244.46687q0 0.21875 -0.015625 0.390625q-0.015625 0.15625 -0.046875 0.265625q-0.015625 0.109375 -0.0625 0.203125q-0.046875 0.078125 -0.15625 0.1875q-0.09375 0.09375 -0.390625 0.265625q-0.28125 0.15625 -0.703125 0.3125q-0.40625 0.140625 -0.9375 0.234375q-0.53125 0.109375 -1.15625 0.109375q-1.203125 0 -2.1875 -0.375q-0.96875 -0.375 -1.65625 -1.109375q-0.671875 -0.75 -1.046875 -1.859375q-0.359375 -1.109375 -0.359375 -2.578125q0 -1.5 0.390625 -2.671875q0.40625 -1.171875 1.125 -1.953125q0.71875 -0.796875 1.71875 -1.203125q1.015625 -0.421875 2.234375 -0.421875q0.484375 0 0.9375 0.09375q0.46875 0.078125 0.84375 0.21875q0.390625 0.125 0.703125 0.296875q0.3125 0.171875 0.4375 0.296875q0.125 0.125 0.15625 0.203125q0.046875 0.078125 0.078125 0.203125q0.03125 0.125 0.046875 0.3125q0.015625 0.171875 0.015625 0.421875q0 0.265625 -0.03125 0.46875q-0.015625 0.1875 -0.0625 0.3125q-0.03125 0.109375 -0.109375 0.171875q-0.0625 0.046875 -0.140625 0.046875q-0.140625 0 -0.34375 -0.15625q-0.203125 -0.15625 -0.546875 -0.34375q-0.328125 -0.203125 -0.796875 -0.359375q-0.453125 -0.171875 -1.09375 -0.171875q-0.703125 0 -1.25 0.296875q-0.546875 0.28125 -0.9375 0.8125q-0.390625 0.53125 -0.59375 1.296875q-0.1875 0.75 -0.1875 1.703125q0 1.03125 0.203125 1.796875q0.21875 0.75 0.609375 1.25q0.40625 0.484375 0.953125 0.734375q0.5625 0.234375 1.265625 0.234375q0.640625 0 1.109375 -0.140625q0.46875 -0.15625 0.796875 -0.328125q0.328125 -0.1875 0.546875 -0.328125q0.21875 -0.15625 0.328125 -0.15625q0.09375 0 0.140625 0.046875q0.0625 0.03125 0.09375 0.140625q0.046875 0.109375 0.0625 0.3125q0.015625 0.1875 0.015625 0.515625zm9.79657 -2.671875q0 1.03125 -0.28125 1.890625q-0.265625 0.859375 -0.828125 1.484375q-0.546875 0.609375 -1.390625 0.953125q-0.828125 0.328125 -1.953125 0.328125q-1.078125 0 -1.890625 -0.296875q-0.796875 -0.296875 -1.328125 -0.875q-0.515625 -0.578125 -0.78125 -1.40625q-0.25 -0.84375 -0.25 -1.921875q0 -1.03125 0.28125 -1.890625q0.28125 -0.859375 0.828125 -1.46875q0.5625 -0.625 1.390625 -0.953125q0.828125 -0.34375 1.953125 -0.34375q1.09375 0 1.890625 0.296875q0.8125 0.296875 1.328125 0.875q0.53125 0.5625 0.78125 1.40625q0.25 0.84375 0.25 1.921875zm-2.359375 0.09375q0 -0.609375 -0.09375 -1.109375q-0.09375 -0.5 -0.328125 -0.875q-0.21875 -0.375 -0.59375 -0.578125q-0.375 -0.21875 -0.953125 -0.21875q-0.515625 0 -0.90625 0.1875q-0.375 0.1875 -0.625 0.546875q-0.234375 0.359375 -0.359375 0.875q-0.125 0.5 -0.125 1.140625q0 0.59375 0.09375 1.109375q0.109375 0.5 0.328125 0.875q0.21875 0.375 0.59375 0.578125q0.390625 0.203125 0.953125 0.203125q0.53125 0 0.90625 -0.1875q0.390625 -0.1875 0.625 -0.53125q0.25 -0.359375 0.359375 -0.859375q0.125 -0.515625 0.125 -1.15625zm11.935806 4.046875q0 0.09375 -0.0625 0.171875q-0.046875 0.0625 -0.171875 0.109375q-0.125 0.046875 -0.359375 0.0625q-0.21875 0.015625 -0.546875 0.015625q-0.328125 0 -0.5625 -0.015625q-0.21875 -0.015625 -0.34375 -0.0625q-0.125 -0.046875 -0.1875 -0.109375q-0.046875 -0.078125 -0.046875 -0.171875l0 -4.640625q0 -0.578125 -0.09375 -0.921875q-0.078125 -0.34375 -0.25 -0.578125q-0.15625 -0.25 -0.421875 -0.375q-0.25 -0.125 -0.609375 -0.125q-0.4375 0 -0.890625 0.3125q-0.4375 0.3125 -0.921875 0.921875l0 5.40625q0 0.09375 -0.0625 0.171875q-0.046875 0.0625 -0.1875 0.109375q-0.125 0.046875 -0.34375 0.0625q-0.21875 0.015625 -0.546875 0.015625q-0.34375 0 -0.5625 -0.015625q-0.21875 -0.015625 -0.359375 -0.0625q-0.125 -0.046875 -0.1875 -0.109375q-0.046875 -0.078125 -0.046875 -0.171875l0 -8.125q0 -0.09375 0.046875 -0.15625q0.046875 -0.0625 0.15625 -0.109375q0.125 -0.046875 0.3125 -0.0625q0.1875 -0.03125 0.46875 -0.03125q0.296875 0 0.484375 0.03125q0.203125 0.015625 0.296875 0.0625q0.109375 0.046875 0.15625 0.109375q0.046875 0.0625 0.046875 0.15625l0 0.9375q0.671875 -0.71875 1.359375 -1.078125q0.703125 -0.375 1.46875 -0.375q0.828125 0 1.390625 0.28125q0.5625 0.265625 0.90625 0.734375q0.359375 0.46875 0.515625 1.09375q0.15625 0.625 0.15625 1.515625l0 5.015625zm9.465759 -8.125q0 0.03125 0 0.109375q0 0.0625 -0.015625 0.140625q-0.015625 0.078125 -0.046875 0.171875q-0.015625 0.09375 -0.046875 0.234375l-2.453125 7.34375q-0.046875 0.15625 -0.125 0.25q-0.078125 0.09375 -0.25 0.15625q-0.171875 0.046875 -0.484375 0.0625q-0.296875 0.015625 -0.796875 0.015625q-0.484375 0 -0.796875 -0.015625q-0.296875 -0.015625 -0.46875 -0.0625q-0.171875 -0.0625 -0.25 -0.15625q-0.078125 -0.109375 -0.125 -0.25l-2.4375 -7.34375q-0.0625 -0.1875 -0.09375 -0.328125q-0.03125 -0.15625 -0.03125 -0.21875q0 -0.0625 0 -0.109375q0 -0.09375 0.046875 -0.15625q0.046875 -0.078125 0.171875 -0.125q0.140625 -0.046875 0.359375 -0.0625q0.21875 -0.015625 0.5625 -0.015625q0.375 0 0.59375 0.03125q0.234375 0.015625 0.359375 0.0625q0.140625 0.03125 0.1875 0.109375q0.0625 0.078125 0.09375 0.1875l1.84375 5.96875l0.0625 0.21875l0.046875 -0.21875l1.828125 -5.96875q0.03125 -0.109375 0.078125 -0.1875q0.0625 -0.078125 0.1875 -0.109375q0.140625 -0.046875 0.34375 -0.0625q0.21875 -0.03125 0.5625 -0.03125q0.34375 0 0.546875 0.015625q0.21875 0.015625 0.328125 0.0625q0.125 0.046875 0.171875 0.125q0.046875 0.0625 0.046875 0.15625z" fill-rule="nonzero"/><path fill="#000000" d="m177.01456 267.74188q0 0.25 -0.03125 0.4375q-0.015625 0.171875 -0.078125 0.28125q-0.046875 0.09375 -0.109375 0.140625q-0.0625 0.046875 -0.140625 0.046875l-6.5 0q-0.078125 0 -0.140625 -0.046875q-0.0625 -0.046875 -0.109375 -0.140625q-0.046875 -0.109375 -0.078125 -0.28125q-0.03125 -0.1875 -0.03125 -0.4375q0 -0.265625 0.015625 -0.4375q0.03125 -0.1875 0.078125 -0.296875q0.046875 -0.109375 0.109375 -0.15625q0.078125 -0.046875 0.15625 -0.046875l2.1875 0l0 -7.671875l-1.890625 1.046875q-0.203125 0.09375 -0.34375 0.125q-0.125 0.015625 -0.203125 -0.0625q-0.078125 -0.078125 -0.109375 -0.265625q-0.03125 -0.1875 -0.03125 -0.53125q0 -0.21875 0 -0.359375q0.015625 -0.140625 0.046875 -0.234375q0.046875 -0.109375 0.109375 -0.171875q0.0625 -0.0625 0.171875 -0.140625l2.53125 -1.640625q0.046875 -0.03125 0.109375 -0.046875q0.078125 -0.03125 0.1875 -0.046875q0.109375 -0.015625 0.28125 -0.015625q0.1875 -0.015625 0.46875 -0.015625q0.34375 0 0.546875 0.015625q0.21875 0.015625 0.328125 0.046875q0.109375 0.03125 0.140625 0.09375q0.046875 0.046875 0.046875 0.125l0 9.75l1.921875 0q0.078125 0 0.140625 0.046875q0.078125 0.046875 0.125 0.15625q0.046875 0.109375 0.0625 0.296875q0.03125 0.171875 0.03125 0.4375zm8.690033 -7.640625q0.171875 0.0625 0.15625 0.28125q0 0.21875 -0.265625 0.671875q-0.265625 0.453125 -0.453125 0.5625q-0.171875 0.109375 -0.328125 0l-1.8125 -1.453125l0.375 2.296875q0.03125 0.1875 -0.171875 0.296875q-0.1875 0.09375 -0.71875 0.09375q-0.53125 0 -0.734375 -0.09375q-0.1875 -0.109375 -0.15625 -0.296875l0.375 -2.296875l-1.8125 1.453125q-0.140625 0.109375 -0.328125 0q-0.171875 -0.125 -0.453125 -0.578125q-0.265625 -0.4375 -0.28125 -0.65625q0 -0.21875 0.171875 -0.28125l2.171875 -0.84375l-2.171875 -0.84375q-0.171875 -0.0625 -0.171875 -0.28125q0.015625 -0.21875 0.28125 -0.671875q0.265625 -0.453125 0.453125 -0.5625q0.1875 -0.125 0.328125 0l1.8125 1.453125l-0.375 -2.296875q-0.03125 -0.171875 0.15625 -0.28125q0.203125 -0.109375 0.734375 -0.109375q0.53125 0 0.71875 0.109375q0.203125 0.109375 0.171875 0.28125l-0.375 2.296875l1.8125 -1.453125q0.15625 -0.125 0.328125 0q0.171875 0.109375 0.453125 0.578125q0.265625 0.4375 0.265625 0.65625q0.015625 0.21875 -0.15625 0.28125l-2.15625 0.84375l2.15625 0.84375zm10.057312 7.640625q0 0.25 -0.03125 0.4375q-0.015625 0.171875 -0.078125 0.28125q-0.046875 0.09375 -0.109375 0.140625q-0.0625 0.046875 -0.140625 0.046875l-6.5 0q-0.078125 0 -0.140625 -0.046875q-0.0625 -0.046875 -0.109375 -0.140625q-0.046875 -0.109375 -0.078125 -0.28125q-0.03125 -0.1875 -0.03125 -0.4375q0 -0.265625 0.015625 -0.4375q0.03125 -0.1875 0.078125 -0.296875q0.046875 -0.109375 0.109375 -0.15625q0.078125 -0.046875 0.15625 -0.046875l2.1875 0l0 -7.671875l-1.890625 1.046875q-0.203125 0.09375 -0.34375 0.125q-0.125 0.015625 -0.203125 -0.0625q-0.078125 -0.078125 -0.109375 -0.265625q-0.03125 -0.1875 -0.03125 -0.53125q0 -0.21875 0 -0.359375q0.015625 -0.140625 0.046875 -0.234375q0.046875 -0.109375 0.109375 -0.171875q0.0625 -0.0625 0.171875 -0.140625l2.53125 -1.640625q0.046875 -0.03125 0.109375 -0.046875q0.078125 -0.03125 0.1875 -0.046875q0.109375 -0.015625 0.28125 -0.015625q0.1875 -0.015625 0.46875 -0.015625q0.34375 0 0.546875 0.015625q0.21875 0.015625 0.328125 0.046875q0.109375 0.03125 0.140625 0.09375q0.046875 0.046875 0.046875 0.125l0 9.75l1.921875 0q0.078125 0 0.140625 0.046875q0.078125 0.046875 0.125 0.15625q0.046875 0.109375 0.0625 0.296875q0.03125 0.171875 0.03125 0.4375z" fill-rule="nonzero"/><path fill="#f1c232" d="m226.9319 218.90775l0 0c0 -12.7851715 9.28569 -23.149597 20.740158 -23.149597l0 0c5.500641 0 10.77597 2.4389648 14.665497 6.7803497c3.889557 4.3414 6.0746765 10.229599 6.0746765 16.369247l0 0c0 12.7851715 -9.285706 23.149612 -20.740173 23.149612l0 0c-11.454468 0 -20.740158 -10.364441 -20.740158 -23.149612z" fill-rule="evenodd"/><path stroke="#000000" stroke-width="1.0" stroke-linejoin="round" stroke-linecap="butt" d="m226.9319 218.90775l0 0c0 -12.7851715 9.28569 -23.149597 20.740158 -23.149597l0 0c5.500641 0 10.77597 2.4389648 14.665497 6.7803497c3.889557 4.3414 6.0746765 10.229599 6.0746765 16.369247l0 0c0 12.7851715 -9.285706 23.149612 -20.740173 23.149612l0 0c-11.454468 0 -20.740158 -10.364441 -20.740158 -23.149612z" fill-rule="evenodd"/><path fill="#000000" fill-opacity="0.0" d="m226.92874 188.29823l41.480316 0l0 42.015747l-41.480316 0z" fill-rule="evenodd"/><path fill="#000000" d="m252.44852 214.90573q0 0.109375 -0.046875 0.171875q-0.03125 0.0625 -0.171875 0.109375q-0.125 0.046875 -0.390625 0.0625q-0.265625 0.015625 -0.71875 0.015625q-0.390625 0 -0.625 -0.015625q-0.21875 -0.015625 -0.359375 -0.0625q-0.125 -0.046875 -0.1875 -0.125q-0.046875 -0.078125 -0.078125 -0.1875l-1.0625 -2.640625q-0.1875 -0.4375 -0.375 -0.78125q-0.171875 -0.359375 -0.40625 -0.578125q-0.21875 -0.234375 -0.515625 -0.34375q-0.28125 -0.125 -0.671875 -0.125l-0.734375 0l0 4.484375q0 0.09375 -0.0625 0.171875q-0.0625 0.0625 -0.203125 0.109375q-0.140625 0.046875 -0.375 0.0625q-0.21875 0.03125 -0.5625 0.03125q-0.359375 0 -0.59375 -0.03125q-0.21875 -0.015625 -0.359375 -0.0625q-0.140625 -0.046875 -0.203125 -0.109375q-0.046875 -0.078125 -0.046875 -0.171875l0 -10.703125q0 -0.40625 0.203125 -0.578125q0.203125 -0.171875 0.515625 -0.171875l3.046875 0q0.46875 0 0.765625 0.015625q0.296875 0.015625 0.546875 0.046875q0.703125 0.09375 1.265625 0.34375q0.578125 0.25 0.96875 0.640625q0.40625 0.390625 0.609375 0.9375q0.21875 0.546875 0.21875 1.25q0 0.578125 -0.15625 1.078125q-0.140625 0.484375 -0.4375 0.875q-0.296875 0.375 -0.734375 0.65625q-0.421875 0.28125 -0.96875 0.453125q0.265625 0.125 0.5 0.3125q0.234375 0.1875 0.4375 0.453125q0.203125 0.25 0.390625 0.578125q0.1875 0.328125 0.359375 0.75l0.984375 2.328125q0.140625 0.34375 0.1875 0.5q0.046875 0.15625 0.046875 0.25zm-3.09375 -8.0q0 -0.578125 -0.265625 -0.96875q-0.265625 -0.40625 -0.859375 -0.578125q-0.1875 -0.046875 -0.421875 -0.0625q-0.21875 -0.03125 -0.640625 -0.03125l-1.0625 0l0 3.34375l1.21875 0q0.5 0 0.875 -0.125q0.390625 -0.125 0.640625 -0.34375q0.265625 -0.234375 0.390625 -0.53125q0.125 -0.3125 0.125 -0.703125z" fill-rule="nonzero"/><path fill="#000000" fill-opacity="0.0" d="m44.75853 99.49606l-0.69291306 359.0551" fill-rule="evenodd"/><path stroke="#000000" stroke-width="2.0" stroke-linejoin="round" stroke-linecap="butt" d="m44.75853 99.49606l-0.69291306 359.0551" fill-rule="evenodd"/><path fill="#000000" fill-opacity="0.0" d="m44.758083 97.95396l67.55905 1.5433044" fill-rule="evenodd"/><path stroke="#000000" stroke-width="2.0" stroke-linejoin="round" stroke-linecap="butt" d="m44.758083 97.95396l55.562176 1.2692566" fill-rule="evenodd"/><path fill="#000000" stroke="#000000" stroke-width="2.0" stroke-linecap="butt" d="m100.24482 102.52581l9.149269 -3.0953217l-8.998383 -3.50988z" fill-rule="evenodd"/><path fill="#000000" fill-opacity="0.0" d="m48.192467 243.30304l64.125984 0.8818817" fill-rule="evenodd"/><path stroke="#000000" stroke-width="2.0" stroke-linejoin="round" stroke-linecap="butt" d="m48.192467 243.30304l52.12712 0.7168884" fill-rule="evenodd"/><path fill="#000000" stroke="#000000" stroke-width="2.0" stroke-linecap="butt" d="m100.274155 247.32307l9.120766 -3.1783447l-9.029915 -3.4279633z" fill-rule="evenodd"/><path fill="#000000" fill-opacity="0.0" d="m44.75801 459.97052l984.59845 -4.7243958" fill-rule="evenodd"/><path stroke="#000000" stroke-width="2.0" stroke-linejoin="round" stroke-linecap="butt" d="m44.758007 459.97055l972.59863 -4.6668396" fill-rule="evenodd"/><path fill="#000000" stroke="#000000" stroke-width="2.0" stroke-linecap="butt" d="m1017.37244 458.60715l9.060303 -3.3469849l-9.09198 -3.2598572z" fill-rule="evenodd"/><path fill="#000000" fill-opacity="0.0" d="m252.7279 244.18492l504.9134 -3.1810913" fill-rule="evenodd"/><path stroke="#000000" stroke-width="2.0" stroke-linejoin="round" stroke-linecap="butt" d="m252.72789 244.18494l492.91364 -3.1054993" fill-rule="evenodd"/><path fill="#000000" stroke="#000000" stroke-width="2.0" stroke-linecap="butt" d="m745.66235 244.38284l9.055237 -3.3605957l-9.096863 -3.2462158z" fill-rule="evenodd"/><path fill="#000000" fill-opacity="0.0" d="m676.2568 99.49726l79.08661 0.75590515" fill-rule="evenodd"/><path stroke="#000000" stroke-width="2.0" stroke-linejoin="round" stroke-linecap="butt" d="m676.2568 99.49726l67.08722 0.6412201" fill-rule="evenodd"/><path fill="#000000" stroke="#000000" stroke-width="2.0" stroke-linecap="butt" d="m743.3124 103.441795l9.107361 -3.216568l-9.044189 -3.3900604z" fill-rule="evenodd"/><path fill="#000000" fill-opacity="0.0" d="m754.2047 97.96588l1.6063232 260.47244" fill-rule="evenodd"/><path stroke="#000000" stroke-width="2.0" stroke-linejoin="round" stroke-linecap="butt" d="m754.2047 97.96588l1.6063232 260.47244" fill-rule="evenodd"/><path fill="#000000" fill-opacity="0.0" d="m754.2047 241.00262l78.96063 0" fill-rule="evenodd"/><path stroke="#000000" stroke-width="2.0" stroke-linejoin="round" stroke-linecap="butt" d="m754.2047 241.00262l66.96063 0" fill-rule="evenodd"/><path fill="#000000" stroke="#000000" stroke-width="2.0" stroke-linecap="butt" d="m821.16534 244.30609l9.076233 -3.3034668l-9.076233 -3.3034668z" fill-rule="evenodd"/><path fill="#dd7e6b" d="m833.1649 199.03795l140.40942 0l0 68.72441l-140.40942 0z" fill-rule="evenodd"/><path stroke="#000000" stroke-width="2.0" stroke-linejoin="round" stroke-linecap="butt" d="m833.1649 199.03795l140.40942 0l0 68.72441l-140.40942 0z" fill-rule="evenodd"/><path fill="#000000" fill-opacity="0.0" d="m860.2349 201.084l86.2677 0l0 64.62993l-86.2677 0z" fill-rule="evenodd"/><path fill="#000000" d="m893.5671 226.22275q0 0.21875 -0.015625 0.390625q-0.015625 0.15625 -0.046875 0.265625q-0.015625 0.109375 -0.0625 0.203125q-0.046875 0.078125 -0.15625 0.1875q-0.09375 0.09375 -0.390625 0.265625q-0.28125 0.15625 -0.703125 0.3125q-0.40625 0.140625 -0.9375 0.234375q-0.53125 0.109375 -1.15625 0.109375q-1.203125 0 -2.1875 -0.375q-0.96875 -0.375 -1.65625 -1.109375q-0.671875 -0.75 -1.046875 -1.859375q-0.359375 -1.109375 -0.359375 -2.578125q0 -1.5 0.390625 -2.671875q0.40625 -1.171875 1.125 -1.953125q0.71875 -0.796875 1.71875 -1.203125q1.015625 -0.421875 2.234375 -0.421875q0.484375 0 0.9375 0.09375q0.46875 0.078125 0.84375 0.21875q0.390625 0.125 0.703125 0.296875q0.3125 0.171875 0.4375 0.296875q0.125 0.125 0.15625 0.203125q0.046875 0.078125 0.078125 0.203125q0.03125 0.125 0.046875 0.3125q0.015625 0.171875 0.015625 0.421875q0 0.265625 -0.03125 0.46875q-0.015625 0.1875 -0.0625 0.3125q-0.03125 0.109375 -0.109375 0.171875q-0.0625 0.046875 -0.140625 0.046875q-0.140625 0 -0.34375 -0.15625q-0.203125 -0.15625 -0.546875 -0.34375q-0.328125 -0.203125 -0.796875 -0.359375q-0.453125 -0.171875 -1.09375 -0.171875q-0.703125 0 -1.25 0.296875q-0.546875 0.28125 -0.9375 0.8125q-0.390625 0.53125 -0.59375 1.296875q-0.1875 0.75 -0.1875 1.703125q0 1.03125 0.203125 1.796875q0.21875 0.75 0.609375 1.25q0.40625 0.484375 0.953125 0.734375q0.5625 0.234375 1.265625 0.234375q0.640625 0 1.109375 -0.140625q0.46875 -0.15625 0.796875 -0.328125q0.328125 -0.1875 0.546875 -0.328125q0.21875 -0.15625 0.328125 -0.15625q0.09375 0 0.140625 0.046875q0.0625 0.03125 0.09375 0.140625q0.046875 0.109375 0.0625 0.3125q0.015625 0.1875 0.015625 0.515625zm9.79657 -2.671875q0 1.03125 -0.28125 1.890625q-0.265625 0.859375 -0.828125 1.484375q-0.546875 0.609375 -1.390625 0.953125q-0.828125 0.328125 -1.953125 0.328125q-1.078125 0 -1.890625 -0.296875q-0.796875 -0.296875 -1.328125 -0.875q-0.515625 -0.578125 -0.78125 -1.40625q-0.25 -0.84375 -0.25 -1.921875q0 -1.03125 0.28125 -1.890625q0.28125 -0.859375 0.828125 -1.46875q0.5625 -0.625 1.390625 -0.953125q0.828125 -0.34375 1.953125 -0.34375q1.09375 0 1.890625 0.296875q0.8125 0.296875 1.328125 0.875q0.53125 0.5625 0.78125 1.40625q0.25 0.84375 0.25 1.921875zm-2.359375 0.09375q0 -0.609375 -0.09375 -1.109375q-0.09375 -0.5 -0.328125 -0.875q-0.21875 -0.375 -0.59375 -0.578125q-0.375 -0.21875 -0.953125 -0.21875q-0.515625 0 -0.90625 0.1875q-0.375 0.1875 -0.625 0.546875q-0.234375 0.359375 -0.359375 0.875q-0.125 0.5 -0.125 1.140625q0 0.59375 0.09375 1.109375q0.109375 0.5 0.328125 0.875q0.21875 0.375 0.59375 0.578125q0.390625 0.203125 0.953125 0.203125q0.53125 0 0.90625 -0.1875q0.390625 -0.1875 0.625 -0.53125q0.25 -0.359375 0.359375 -0.859375q0.125 -0.515625 0.125 -1.15625zm11.935791 4.046875q0 0.09375 -0.0625 0.171875q-0.046875 0.0625 -0.171875 0.109375q-0.125 0.046875 -0.359375 0.0625q-0.21875 0.015625 -0.546875 0.015625q-0.328125 0 -0.5625 -0.015625q-0.21875 -0.015625 -0.34375 -0.0625q-0.125 -0.046875 -0.1875 -0.109375q-0.046875 -0.078125 -0.046875 -0.171875l0 -4.640625q0 -0.578125 -0.09375 -0.921875q-0.078125 -0.34375 -0.25 -0.578125q-0.15625 -0.25 -0.421875 -0.375q-0.25 -0.125 -0.609375 -0.125q-0.4375 0 -0.890625 0.3125q-0.4375 0.3125 -0.921875 0.921875l0 5.40625q0 0.09375 -0.0625 0.171875q-0.046875 0.0625 -0.1875 0.109375q-0.125 0.046875 -0.34375 0.0625q-0.21875 0.015625 -0.546875 0.015625q-0.34375 0 -0.5625 -0.015625q-0.21875 -0.015625 -0.359375 -0.0625q-0.125 -0.046875 -0.1875 -0.109375q-0.046875 -0.078125 -0.046875 -0.171875l0 -8.125q0 -0.09375 0.046875 -0.15625q0.046875 -0.0625 0.15625 -0.109375q0.125 -0.046875 0.3125 -0.0625q0.1875 -0.03125 0.46875 -0.03125q0.296875 0 0.484375 0.03125q0.203125 0.015625 0.296875 0.0625q0.109375 0.046875 0.15625 0.109375q0.046875 0.0625 0.046875 0.15625l0 0.9375q0.671875 -0.71875 1.359375 -1.078125q0.703125 -0.375 1.46875 -0.375q0.828125 0 1.390625 0.28125q0.5625 0.265625 0.90625 0.734375q0.359375 0.46875 0.515625 1.09375q0.15625 0.625 0.15625 1.515625l0 5.015625zm9.465759 -8.125q0 0.03125 0 0.109375q0 0.0625 -0.015625 0.140625q-0.015625 0.078125 -0.046875 0.171875q-0.015625 0.09375 -0.046875 0.234375l-2.453125 7.34375q-0.046875 0.15625 -0.125 0.25q-0.078125 0.09375 -0.25 0.15625q-0.171875 0.046875 -0.484375 0.0625q-0.296875 0.015625 -0.796875 0.015625q-0.484375 0 -0.796875 -0.015625q-0.296875 -0.015625 -0.46875 -0.0625q-0.171875 -0.0625 -0.25 -0.15625q-0.078125 -0.109375 -0.125 -0.25l-2.4375 -7.34375q-0.0625 -0.1875 -0.09375 -0.328125q-0.03125 -0.15625 -0.03125 -0.21875q0 -0.0625 0 -0.109375q0 -0.09375 0.046875 -0.15625q0.046875 -0.078125 0.171875 -0.125q0.140625 -0.046875 0.359375 -0.0625q0.21875 -0.015625 0.5625 -0.015625q0.375 0 0.59375 0.03125q0.234375 0.015625 0.359375 0.0625q0.140625 0.03125 0.1875 0.109375q0.0625 0.078125 0.09375 0.1875l1.84375 5.96875l0.0625 0.21875l0.046875 -0.21875l1.828125 -5.96875q0.03125 -0.109375 0.078125 -0.1875q0.0625 -0.078125 0.1875 -0.109375q0.140625 -0.046875 0.34375 -0.0625q0.21875 -0.03125 0.5625 -0.03125q0.34375 0 0.546875 0.015625q0.21875 0.015625 0.328125 0.0625q0.125 0.046875 0.171875 0.125q0.046875 0.0625 0.046875 0.15625z" fill-rule="nonzero"/><path fill="#000000" d="m897.861 249.49776q0 0.25 -0.03125 0.4375q-0.015625 0.171875 -0.078125 0.28125q-0.046875 0.09375 -0.109375 0.140625q-0.0625 0.046875 -0.140625 0.046875l-6.5 0q-0.078125 0 -0.140625 -0.046875q-0.0625 -0.046875 -0.109375 -0.140625q-0.046875 -0.109375 -0.078125 -0.28125q-0.03125 -0.1875 -0.03125 -0.4375q0 -0.265625 0.015625 -0.4375q0.03125 -0.1875 0.078125 -0.296875q0.046875 -0.109375 0.109375 -0.15625q0.078125 -0.046875 0.15625 -0.046875l2.1875 0l0 -7.671875l-1.890625 1.046875q-0.203125 0.09375 -0.34375 0.125q-0.125 0.015625 -0.203125 -0.0625q-0.078125 -0.078125 -0.109375 -0.265625q-0.03125 -0.1875 -0.03125 -0.53125q0 -0.21875 0 -0.359375q0.015625 -0.140625 0.046875 -0.234375q0.046875 -0.109375 0.109375 -0.171875q0.0625 -0.0625 0.171875 -0.140625l2.53125 -1.640625q0.046875 -0.03125 0.109375 -0.046875q0.078125 -0.03125 0.1875 -0.046875q0.109375 -0.015625 0.28125 -0.015625q0.1875 -0.015625 0.46875 -0.015625q0.34375 0 0.546875 0.015625q0.21875 0.015625 0.328125 0.046875q0.109375 0.03125 0.140625 0.09375q0.046875 0.046875 0.046875 0.125l0 9.75l1.921875 0q0.078125 0 0.140625 0.046875q0.078125 0.046875 0.125 0.15625q0.046875 0.109375 0.0625 0.296875q0.03125 0.171875 0.03125 0.4375zm8.690002 -7.640625q0.171875 0.0625 0.15625 0.28125q0 0.21875 -0.265625 0.671875q-0.265625 0.453125 -0.453125 0.5625q-0.171875 0.109375 -0.328125 0l-1.8125 -1.453125l0.375 2.296875q0.03125 0.1875 -0.171875 0.296875q-0.1875 0.09375 -0.71875 0.09375q-0.53125 0 -0.734375 -0.09375q-0.1875 -0.109375 -0.15625 -0.296875l0.375 -2.296875l-1.8125 1.453125q-0.140625 0.109375 -0.328125 0q-0.171875 -0.125 -0.453125 -0.578125q-0.265625 -0.4375 -0.28125 -0.65625q0 -0.21875 0.171875 -0.28125l2.171875 -0.84375l-2.171875 -0.84375q-0.171875 -0.0625 -0.171875 -0.28125q0.015625 -0.21875 0.28125 -0.671875q0.265625 -0.453125 0.453125 -0.5625q0.1875 -0.125 0.328125 0l1.8125 1.453125l-0.375 -2.296875q-0.03125 -0.171875 0.15625 -0.28125q0.203125 -0.109375 0.734375 -0.109375q0.53125 0 0.71875 0.109375q0.203125 0.109375 0.171875 0.28125l-0.375 2.296875l1.8125 -1.453125q0.15625 -0.125 0.328125 0q0.171875 0.109375 0.453125 0.578125q0.265625 0.4375 0.265625 0.65625q0.015625 0.21875 -0.15625 0.28125l-2.15625 0.84375l2.15625 0.84375zm10.057312 7.640625q0 0.25 -0.03125 0.4375q-0.015625 0.171875 -0.078125 0.28125q-0.046875 0.09375 -0.109375 0.140625q-0.0625 0.046875 -0.140625 0.046875l-6.5 0q-0.078125 0 -0.140625 -0.046875q-0.0625 -0.046875 -0.109375 -0.140625q-0.046875 -0.109375 -0.078125 -0.28125q-0.03125 -0.1875 -0.03125 -0.4375q0 -0.265625 0.015625 -0.4375q0.03125 -0.1875 0.078125 -0.296875q0.046875 -0.109375 0.109375 -0.15625q0.078125 -0.046875 0.15625 -0.046875l2.1875 0l0 -7.671875l-1.890625 1.046875q-0.203125 0.09375 -0.34375 0.125q-0.125 0.015625 -0.203125 -0.0625q-0.078125 -0.078125 -0.109375 -0.265625q-0.03125 -0.1875 -0.03125 -0.53125q0 -0.21875 0 -0.359375q0.015625 -0.140625 0.046875 -0.234375q0.046875 -0.109375 0.109375 -0.171875q0.0625 -0.0625 0.171875 -0.140625l2.53125 -1.640625q0.046875 -0.03125 0.109375 -0.046875q0.078125 -0.03125 0.1875 -0.046875q0.109375 -0.015625 0.28125 -0.015625q0.1875 -0.015625 0.46875 -0.015625q0.34375 0 0.546875 0.015625q0.21875 0.015625 0.328125 0.046875q0.109375 0.03125 0.140625 0.09375q0.046875 0.046875 0.046875 0.125l0 9.75l1.921875 0q0.078125 0 0.140625 0.046875q0.078125 0.046875 0.125 0.15625q0.046875 0.109375 0.0625 0.296875q0.03125 0.171875 0.03125 0.4375z" fill-rule="nonzero"/><path fill="#f1c232" d="m947.7784 200.66365l0 0c0 -12.7851715 9.285645 -23.149597 20.740112 -23.149597l0 0c5.5006714 0 10.776001 2.4389648 14.665527 6.780365c3.8895264 4.341385 6.074646 10.229584 6.074646 16.369232l0 0c0 12.7851715 -9.285706 23.149612 -20.740173 23.149612l0 0c-11.454468 0 -20.740112 -10.364441 -20.740112 -23.149612z" fill-rule="evenodd"/><path stroke="#000000" stroke-width="1.0" stroke-linejoin="round" stroke-linecap="butt" d="m947.7784 200.66365l0 0c0 -12.7851715 9.285645 -23.149597 20.740112 -23.149597l0 0c5.5006714 0 10.776001 2.4389648 14.665527 6.780365c3.8895264 4.341385 6.074646 10.229584 6.074646 16.369232l0 0c0 12.7851715 -9.285706 23.149612 -20.740173 23.149612l0 0c-11.454468 0 -20.740112 -10.364441 -20.740112 -23.149612z" fill-rule="evenodd"/><path fill="#000000" fill-opacity="0.0" d="m947.7752 170.05414l41.480286 0l0 42.015747l-41.480286 0z" fill-rule="evenodd"/><path fill="#000000" d="m973.295 196.66164q0 0.109375 -0.046875 0.171875q-0.03125 0.0625 -0.171875 0.109375q-0.125 0.046875 -0.390625 0.0625q-0.265625 0.015625 -0.71875 0.015625q-0.390625 0 -0.625 -0.015625q-0.21875 -0.015625 -0.359375 -0.0625q-0.125 -0.046875 -0.1875 -0.125q-0.046875 -0.078125 -0.078125 -0.1875l-1.0625 -2.640625q-0.1875 -0.4375 -0.375 -0.78125q-0.171875 -0.359375 -0.40625 -0.578125q-0.21875 -0.234375 -0.515625 -0.34375q-0.28125 -0.125 -0.671875 -0.125l-0.734375 0l0 4.484375q0 0.09375 -0.0625 0.171875q-0.0625 0.0625 -0.203125 0.109375q-0.140625 0.046875 -0.375 0.0625q-0.21875 0.03125 -0.5625 0.03125q-0.359375 0 -0.59375 -0.03125q-0.21875 -0.015625 -0.359375 -0.0625q-0.140625 -0.046875 -0.203125 -0.109375q-0.046875 -0.078125 -0.046875 -0.171875l0 -10.703125q0 -0.40625 0.203125 -0.578125q0.203125 -0.171875 0.515625 -0.171875l3.046875 0q0.46875 0 0.765625 0.015625q0.296875 0.015625 0.546875 0.046875q0.703125 0.09375 1.265625 0.34375q0.578125 0.25 0.96875 0.640625q0.40625 0.390625 0.609375 0.9375q0.21875 0.546875 0.21875 1.25q0 0.578125 -0.15625 1.078125q-0.140625 0.484375 -0.4375 0.875q-0.296875 0.375 -0.734375 0.65625q-0.421875 0.28125 -0.96875 0.453125q0.265625 0.125 0.5 0.3125q0.234375 0.1875 0.4375 0.453125q0.203125 0.25 0.390625 0.578125q0.1875 0.328125 0.359375 0.75l0.984375 2.328125q0.140625 0.34375 0.1875 0.5q0.046875 0.15625 0.046875 0.25zm-3.09375 -8.0q0 -0.578125 -0.265625 -0.96875q-0.265625 -0.40625 -0.859375 -0.578125q-0.1875 -0.046875 -0.421875 -0.0625q-0.21875 -0.03125 -0.640625 -0.03125l-1.0625 0l0 3.34375l1.21875 0q0.5 0 0.875 -0.125q0.390625 -0.125 0.640625 -0.34375q0.265625 -0.234375 0.390625 -0.53125q0.125 -0.3125 0.125 -0.703125z" fill-rule="nonzero"/><path fill="#000000" fill-opacity="0.0" d="m973.57434 233.40015l57.070923 0.34646606" fill-rule="evenodd"/><path stroke="#000000" stroke-width="2.0" stroke-linejoin="round" stroke-linecap="butt" d="m973.5744 233.40016l45.071106 0.27360535" fill-rule="evenodd"/><path fill="#000000" stroke="#000000" stroke-width="2.0" stroke-linecap="butt" d="m1018.6254 236.97717l9.09613 -3.2483063l-9.05603 -3.3585052z" fill-rule="evenodd"/><path fill="#000000" fill-opacity="0.0" d="m1030.0762 232.30708l2.015747 223.2441" fill-rule="evenodd"/><path stroke="#000000" stroke-width="2.0" stroke-linejoin="round" stroke-linecap="butt" d="m1030.0762 232.30708l2.015747 223.2441" fill-rule="evenodd"/><path fill="#000000" fill-opacity="0.0" d="m1030.0762 295.3727l62.078735 0" fill-rule="evenodd"/><path stroke="#000000" stroke-width="2.0" stroke-linejoin="round" stroke-linecap="butt" d="m1030.0762 295.3727l50.078735 0" fill-rule="evenodd"/><path fill="#000000" stroke="#000000" stroke-width="2.0" stroke-linecap="butt" d="m1080.1549 298.67618l9.076172 -3.3034668l-9.076172 -3.3034668z" fill-rule="evenodd"/><path fill="#dd7e6b" d="m112.31845 323.40933l140.40945 0l0 68.72443l-140.40945 0z" fill-rule="evenodd"/><path stroke="#000000" stroke-width="2.0" stroke-linejoin="round" stroke-linecap="butt" d="m112.31845 323.40933l140.40945 0l0 68.72443l-140.40945 0z" fill-rule="evenodd"/><path fill="#000000" fill-opacity="0.0" d="m139.38846 332.91473l86.267715 0l0 64.629944l-86.267715 0z" fill-rule="evenodd"/><path fill="#000000" d="m172.72063 358.0535q0 0.21875 -0.015625 0.390625q-0.015625 0.15625 -0.046875 0.265625q-0.015625 0.109375 -0.0625 0.203125q-0.046875 0.078125 -0.15625 0.1875q-0.09375 0.09375 -0.390625 0.265625q-0.28125 0.15625 -0.703125 0.3125q-0.40625 0.140625 -0.9375 0.234375q-0.53125 0.109375 -1.15625 0.109375q-1.203125 0 -2.1875 -0.375q-0.96875 -0.375 -1.65625 -1.109375q-0.671875 -0.75 -1.046875 -1.859375q-0.359375 -1.109375 -0.359375 -2.578125q0 -1.5 0.390625 -2.671875q0.40625 -1.171875 1.125 -1.953125q0.71875 -0.796875 1.71875 -1.203125q1.015625 -0.421875 2.234375 -0.421875q0.484375 0 0.9375 0.09375q0.46875 0.078125 0.84375 0.21875q0.390625 0.125 0.703125 0.296875q0.3125 0.171875 0.4375 0.296875q0.125 0.125 0.15625 0.203125q0.046875 0.078125 0.078125 0.203125q0.03125 0.125 0.046875 0.3125q0.015625 0.171875 0.015625 0.421875q0 0.265625 -0.03125 0.46875q-0.015625 0.1875 -0.0625 0.3125q-0.03125 0.109375 -0.109375 0.171875q-0.0625 0.046875 -0.140625 0.046875q-0.140625 0 -0.34375 -0.15625q-0.203125 -0.15625 -0.546875 -0.34375q-0.328125 -0.203125 -0.796875 -0.359375q-0.453125 -0.171875 -1.09375 -0.171875q-0.703125 0 -1.25 0.296875q-0.546875 0.28125 -0.9375 0.8125q-0.390625 0.53125 -0.59375 1.296875q-0.1875 0.75 -0.1875 1.703125q0 1.03125 0.203125 1.796875q0.21875 0.75 0.609375 1.25q0.40625 0.484375 0.953125 0.734375q0.5625 0.234375 1.265625 0.234375q0.640625 0 1.109375 -0.140625q0.46875 -0.15625 0.796875 -0.328125q0.328125 -0.1875 0.546875 -0.328125q0.21875 -0.15625 0.328125 -0.15625q0.09375 0 0.140625 0.046875q0.0625 0.03125 0.09375 0.140625q0.046875 0.109375 0.0625 0.3125q0.015625 0.1875 0.015625 0.515625zm9.79657 -2.671875q0 1.03125 -0.28125 1.890625q-0.265625 0.859375 -0.828125 1.484375q-0.546875 0.609375 -1.390625 0.953125q-0.828125 0.328125 -1.953125 0.328125q-1.078125 0 -1.890625 -0.296875q-0.796875 -0.296875 -1.328125 -0.875q-0.515625 -0.578125 -0.78125 -1.40625q-0.25 -0.84375 -0.25 -1.921875q0 -1.03125 0.28125 -1.890625q0.28125 -0.859375 0.828125 -1.46875q0.5625 -0.625 1.390625 -0.953125q0.828125 -0.34375 1.953125 -0.34375q1.09375 0 1.890625 0.296875q0.8125 0.296875 1.328125 0.875q0.53125 0.5625 0.78125 1.40625q0.25 0.84375 0.25 1.921875zm-2.359375 0.09375q0 -0.609375 -0.09375 -1.109375q-0.09375 -0.5 -0.328125 -0.875q-0.21875 -0.375 -0.59375 -0.578125q-0.375 -0.21875 -0.953125 -0.21875q-0.515625 0 -0.90625 0.1875q-0.375 0.1875 -0.625 0.546875q-0.234375 0.359375 -0.359375 0.875q-0.125 0.5 -0.125 1.140625q0 0.59375 0.09375 1.109375q0.109375 0.5 0.328125 0.875q0.21875 0.375 0.59375 0.578125q0.390625 0.203125 0.953125 0.203125q0.53125 0 0.90625 -0.1875q0.390625 -0.1875 0.625 -0.53125q0.25 -0.359375 0.359375 -0.859375q0.125 -0.515625 0.125 -1.15625zm11.935806 4.046875q0 0.09375 -0.0625 0.171875q-0.046875 0.0625 -0.171875 0.109375q-0.125 0.046875 -0.359375 0.0625q-0.21875 0.015625 -0.546875 0.015625q-0.328125 0 -0.5625 -0.015625q-0.21875 -0.015625 -0.34375 -0.0625q-0.125 -0.046875 -0.1875 -0.109375q-0.046875 -0.078125 -0.046875 -0.171875l0 -4.640625q0 -0.578125 -0.09375 -0.921875q-0.078125 -0.34375 -0.25 -0.578125q-0.15625 -0.25 -0.421875 -0.375q-0.25 -0.125 -0.609375 -0.125q-0.4375 0 -0.890625 0.3125q-0.4375 0.3125 -0.921875 0.921875l0 5.40625q0 0.09375 -0.0625 0.171875q-0.046875 0.0625 -0.1875 0.109375q-0.125 0.046875 -0.34375 0.0625q-0.21875 0.015625 -0.546875 0.015625q-0.34375 0 -0.5625 -0.015625q-0.21875 -0.015625 -0.359375 -0.0625q-0.125 -0.046875 -0.1875 -0.109375q-0.046875 -0.078125 -0.046875 -0.171875l0 -8.125q0 -0.09375 0.046875 -0.15625q0.046875 -0.0625 0.15625 -0.109375q0.125 -0.046875 0.3125 -0.0625q0.1875 -0.03125 0.46875 -0.03125q0.296875 0 0.484375 0.03125q0.203125 0.015625 0.296875 0.0625q0.109375 0.046875 0.15625 0.109375q0.046875 0.0625 0.046875 0.15625l0 0.9375q0.671875 -0.71875 1.359375 -1.078125q0.703125 -0.375 1.46875 -0.375q0.828125 0 1.390625 0.28125q0.5625 0.265625 0.90625 0.734375q0.359375 0.46875 0.515625 1.09375q0.15625 0.625 0.15625 1.515625l0 5.015625zm9.465759 -8.125q0 0.03125 0 0.109375q0 0.0625 -0.015625 0.140625q-0.015625 0.078125 -0.046875 0.171875q-0.015625 0.09375 -0.046875 0.234375l-2.453125 7.34375q-0.046875 0.15625 -0.125 0.25q-0.078125 0.09375 -0.25 0.15625q-0.171875 0.046875 -0.484375 0.0625q-0.296875 0.015625 -0.796875 0.015625q-0.484375 0 -0.796875 -0.015625q-0.296875 -0.015625 -0.46875 -0.0625q-0.171875 -0.0625 -0.25 -0.15625q-0.078125 -0.109375 -0.125 -0.25l-2.4375 -7.34375q-0.0625 -0.1875 -0.09375 -0.328125q-0.03125 -0.15625 -0.03125 -0.21875q0 -0.0625 0 -0.109375q0 -0.09375 0.046875 -0.15625q0.046875 -0.078125 0.171875 -0.125q0.140625 -0.046875 0.359375 -0.0625q0.21875 -0.015625 0.5625 -0.015625q0.375 0 0.59375 0.03125q0.234375 0.015625 0.359375 0.0625q0.140625 0.03125 0.1875 0.109375q0.0625 0.078125 0.09375 0.1875l1.84375 5.96875l0.0625 0.21875l0.046875 -0.21875l1.828125 -5.96875q0.03125 -0.109375 0.078125 -0.1875q0.0625 -0.078125 0.1875 -0.109375q0.140625 -0.046875 0.34375 -0.0625q0.21875 -0.03125 0.5625 -0.03125q0.34375 0 0.546875 0.015625q0.21875 0.015625 0.328125 0.0625q0.125 0.046875 0.171875 0.125q0.046875 0.0625 0.046875 0.15625z" fill-rule="nonzero"/><path fill="#000000" d="m177.01456 381.3285q0 0.25 -0.03125 0.4375q-0.015625 0.171875 -0.078125 0.28125q-0.046875 0.09375 -0.109375 0.140625q-0.0625 0.046875 -0.140625 0.046875l-6.5 0q-0.078125 0 -0.140625 -0.046875q-0.0625 -0.046875 -0.109375 -0.140625q-0.046875 -0.109375 -0.078125 -0.28125q-0.03125 -0.1875 -0.03125 -0.4375q0 -0.265625 0.015625 -0.4375q0.03125 -0.1875 0.078125 -0.296875q0.046875 -0.109375 0.109375 -0.15625q0.078125 -0.046875 0.15625 -0.046875l2.1875 0l0 -7.671875l-1.890625 1.046875q-0.203125 0.09375 -0.34375 0.125q-0.125 0.015625 -0.203125 -0.0625q-0.078125 -0.078125 -0.109375 -0.265625q-0.03125 -0.1875 -0.03125 -0.53125q0 -0.21875 0 -0.359375q0.015625 -0.140625 0.046875 -0.234375q0.046875 -0.109375 0.109375 -0.171875q0.0625 -0.0625 0.171875 -0.140625l2.53125 -1.640625q0.046875 -0.03125 0.109375 -0.046875q0.078125 -0.03125 0.1875 -0.046875q0.109375 -0.015625 0.28125 -0.015625q0.1875 -0.015625 0.46875 -0.015625q0.34375 0 0.546875 0.015625q0.21875 0.015625 0.328125 0.046875q0.109375 0.03125 0.140625 0.09375q0.046875 0.046875 0.046875 0.125l0 9.75l1.921875 0q0.078125 0 0.140625 0.046875q0.078125 0.046875 0.125 0.15625q0.046875 0.109375 0.0625 0.296875q0.03125 0.171875 0.03125 0.4375zm8.690033 -7.640625q0.171875 0.0625 0.15625 0.28125q0 0.21875 -0.265625 0.671875q-0.265625 0.453125 -0.453125 0.5625q-0.171875 0.109375 -0.328125 0l-1.8125 -1.453125l0.375 2.296875q0.03125 0.1875 -0.171875 0.296875q-0.1875 0.09375 -0.71875 0.09375q-0.53125 0 -0.734375 -0.09375q-0.1875 -0.109375 -0.15625 -0.296875l0.375 -2.296875l-1.8125 1.453125q-0.140625 0.109375 -0.328125 0q-0.171875 -0.125 -0.453125 -0.578125q-0.265625 -0.4375 -0.28125 -0.65625q0 -0.21875 0.171875 -0.28125l2.171875 -0.84375l-2.171875 -0.84375q-0.171875 -0.0625 -0.171875 -0.28125q0.015625 -0.21875 0.28125 -0.671875q0.265625 -0.453125 0.453125 -0.5625q0.1875 -0.125 0.328125 0l1.8125 1.453125l-0.375 -2.296875q-0.03125 -0.171875 0.15625 -0.28125q0.203125 -0.109375 0.734375 -0.109375q0.53125 0 0.71875 0.109375q0.203125 0.109375 0.171875 0.28125l-0.375 2.296875l1.8125 -1.453125q0.15625 -0.125 0.328125 0q0.171875 0.109375 0.453125 0.578125q0.265625 0.4375 0.265625 0.65625q0.015625 0.21875 -0.15625 0.28125l-2.15625 0.84375l2.15625 0.84375zm10.057312 7.640625q0 0.25 -0.03125 0.4375q-0.015625 0.171875 -0.078125 0.28125q-0.046875 0.09375 -0.109375 0.140625q-0.0625 0.046875 -0.140625 0.046875l-6.5 0q-0.078125 0 -0.140625 -0.046875q-0.0625 -0.046875 -0.109375 -0.140625q-0.046875 -0.109375 -0.078125 -0.28125q-0.03125 -0.1875 -0.03125 -0.4375q0 -0.265625 0.015625 -0.4375q0.03125 -0.1875 0.078125 -0.296875q0.046875 -0.109375 0.109375 -0.15625q0.078125 -0.046875 0.15625 -0.046875l2.1875 0l0 -7.671875l-1.890625 1.046875q-0.203125 0.09375 -0.34375 0.125q-0.125 0.015625 -0.203125 -0.0625q-0.078125 -0.078125 -0.109375 -0.265625q-0.03125 -0.1875 -0.03125 -0.53125q0 -0.21875 0 -0.359375q0.015625 -0.140625 0.046875 -0.234375q0.046875 -0.109375 0.109375 -0.171875q0.0625 -0.0625 0.171875 -0.140625l2.53125 -1.640625q0.046875 -0.03125 0.109375 -0.046875q0.078125 -0.03125 0.1875 -0.046875q0.109375 -0.015625 0.28125 -0.015625q0.1875 -0.015625 0.46875 -0.015625q0.34375 0 0.546875 0.015625q0.21875 0.015625 0.328125 0.046875q0.109375 0.03125 0.140625 0.09375q0.046875 0.046875 0.046875 0.125l0 9.75l1.921875 0q0.078125 0 0.140625 0.046875q0.078125 0.046875 0.125 0.15625q0.046875 0.109375 0.0625 0.296875q0.03125 0.171875 0.03125 0.4375z" fill-rule="nonzero"/><path fill="#f1c232" d="m226.9319 332.49435l0 0c0 -12.785156 9.28569 -23.149597 20.740158 -23.149597l0 0c5.500641 0 10.77597 2.4389648 14.665497 6.780365c3.889557 4.3414 6.0746765 10.229584 6.0746765 16.369232l0 0c0 12.785187 -9.285706 23.149628 -20.740173 23.149628l0 0c-11.454468 0 -20.740158 -10.364441 -20.740158 -23.149628z" fill-rule="evenodd"/><path stroke="#000000" stroke-width="1.0" stroke-linejoin="round" stroke-linecap="butt" d="m226.9319 332.49435l0 0c0 -12.785156 9.28569 -23.149597 20.740158 -23.149597l0 0c5.500641 0 10.77597 2.4389648 14.665497 6.780365c3.889557 4.3414 6.0746765 10.229584 6.0746765 16.369232l0 0c0 12.785187 -9.285706 23.149628 -20.740173 23.149628l0 0c-11.454468 0 -20.740158 -10.364441 -20.740158 -23.149628z" fill-rule="evenodd"/><path fill="#000000" fill-opacity="0.0" d="m226.92874 301.88486l41.480316 0l0 42.015747l-41.480316 0z" fill-rule="evenodd"/><path fill="#000000" d="m252.44852 328.49234q0 0.109375 -0.046875 0.171875q-0.03125 0.0625 -0.171875 0.109375q-0.125 0.046875 -0.390625 0.0625q-0.265625 0.015625 -0.71875 0.015625q-0.390625 0 -0.625 -0.015625q-0.21875 -0.015625 -0.359375 -0.0625q-0.125 -0.046875 -0.1875 -0.125q-0.046875 -0.078125 -0.078125 -0.1875l-1.0625 -2.640625q-0.1875 -0.4375 -0.375 -0.78125q-0.171875 -0.359375 -0.40625 -0.578125q-0.21875 -0.234375 -0.515625 -0.34375q-0.28125 -0.125 -0.671875 -0.125l-0.734375 0l0 4.484375q0 0.09375 -0.0625 0.171875q-0.0625 0.0625 -0.203125 0.109375q-0.140625 0.046875 -0.375 0.0625q-0.21875 0.03125 -0.5625 0.03125q-0.359375 0 -0.59375 -0.03125q-0.21875 -0.015625 -0.359375 -0.0625q-0.140625 -0.046875 -0.203125 -0.109375q-0.046875 -0.078125 -0.046875 -0.171875l0 -10.703125q0 -0.40625 0.203125 -0.578125q0.203125 -0.171875 0.515625 -0.171875l3.046875 0q0.46875 0 0.765625 0.015625q0.296875 0.015625 0.546875 0.046875q0.703125 0.09375 1.265625 0.34375q0.578125 0.25 0.96875 0.640625q0.40625 0.390625 0.609375 0.9375q0.21875 0.546875 0.21875 1.25q0 0.578125 -0.15625 1.078125q-0.140625 0.484375 -0.4375 0.875q-0.296875 0.375 -0.734375 0.65625q-0.421875 0.28125 -0.96875 0.453125q0.265625 0.125 0.5 0.3125q0.234375 0.1875 0.4375 0.453125q0.203125 0.25 0.390625 0.578125q0.1875 0.328125 0.359375 0.75l0.984375 2.328125q0.140625 0.34375 0.1875 0.5q0.046875 0.15625 0.046875 0.25zm-3.09375 -8.0q0 -0.578125 -0.265625 -0.96875q-0.265625 -0.40625 -0.859375 -0.578125q-0.1875 -0.046875 -0.421875 -0.0625q-0.21875 -0.03125 -0.640625 -0.03125l-1.0625 0l0 3.34375l1.21875 0q0.5 0 0.875 -0.125q0.390625 -0.125 0.640625 -0.34375q0.265625 -0.234375 0.390625 -0.53125q0.125 -0.3125 0.125 -0.703125z" fill-rule="nonzero"/><path fill="#000000" fill-opacity="0.0" d="m49.074356 358.43295l63.244095 -0.6614075" fill-rule="evenodd"/><path stroke="#000000" stroke-width="2.0" stroke-linejoin="round" stroke-linecap="butt" d="m49.074356 358.43295l51.244743 -0.5359192" fill-rule="evenodd"/><path fill="#000000" stroke="#000000" stroke-width="2.0" stroke-linecap="butt" d="m100.35365 361.20032l9.041145 -3.3982239l-9.110245 -3.2083435z" fill-rule="evenodd"/><path fill="#000000" fill-opacity="0.0" d="m252.7279 357.77155l503.0551 -0.34646606" fill-rule="evenodd"/><path stroke="#000000" stroke-width="2.0" stroke-linejoin="round" stroke-linecap="butt" d="m252.72789 357.77155l491.05518 -0.3381958" fill-rule="evenodd"/><path fill="#000000" stroke="#000000" stroke-width="2.0" stroke-linecap="butt" d="m743.78534 360.73682l9.073914 -3.309723l-9.078491 -3.2972107z" fill-rule="evenodd"/><path fill="#dd7e6b" d="m330.82632 208.93558l140.40945 0l0 68.72443l-140.40945 0z" fill-rule="evenodd"/><path stroke="#000000" stroke-width="2.0" stroke-linejoin="round" stroke-linecap="butt" d="m330.82632 208.93558l140.40945 0l0 68.72443l-140.40945 0z" fill-rule="evenodd"/><path fill="#000000" fill-opacity="0.0" d="m357.89633 218.441l86.2677 0l0 64.62993l-86.2677 0z" fill-rule="evenodd"/><path fill="#000000" d="m391.22852 243.57974q0 0.21875 -0.015625 0.390625q-0.015625 0.15625 -0.046875 0.265625q-0.015625 0.109375 -0.0625 0.203125q-0.046875 0.078125 -0.15625 0.1875q-0.09375 0.09375 -0.390625 0.265625q-0.28125 0.15625 -0.703125 0.3125q-0.40625 0.140625 -0.9375 0.234375q-0.53125 0.109375 -1.15625 0.109375q-1.203125 0 -2.1875 -0.375q-0.96875 -0.375 -1.65625 -1.109375q-0.671875 -0.75 -1.046875 -1.859375q-0.359375 -1.109375 -0.359375 -2.578125q0 -1.5 0.390625 -2.671875q0.40625 -1.171875 1.125 -1.953125q0.71875 -0.796875 1.71875 -1.203125q1.015625 -0.421875 2.234375 -0.421875q0.484375 0 0.9375 0.09375q0.46875 0.078125 0.84375 0.21875q0.390625 0.125 0.703125 0.296875q0.3125 0.171875 0.4375 0.296875q0.125 0.125 0.15625 0.203125q0.046875 0.078125 0.078125 0.203125q0.03125 0.125 0.046875 0.3125q0.015625 0.171875 0.015625 0.421875q0 0.265625 -0.03125 0.46875q-0.015625 0.1875 -0.0625 0.3125q-0.03125 0.109375 -0.109375 0.171875q-0.0625 0.046875 -0.140625 0.046875q-0.140625 0 -0.34375 -0.15625q-0.203125 -0.15625 -0.546875 -0.34375q-0.328125 -0.203125 -0.796875 -0.359375q-0.453125 -0.171875 -1.09375 -0.171875q-0.703125 0 -1.25 0.296875q-0.546875 0.28125 -0.9375 0.8125q-0.390625 0.53125 -0.59375 1.296875q-0.1875 0.75 -0.1875 1.703125q0 1.03125 0.203125 1.796875q0.21875 0.75 0.609375 1.25q0.40625 0.484375 0.953125 0.734375q0.5625 0.234375 1.265625 0.234375q0.640625 0 1.109375 -0.140625q0.46875 -0.15625 0.796875 -0.328125q0.328125 -0.1875 0.546875 -0.328125q0.21875 -0.15625 0.328125 -0.15625q0.09375 0 0.140625 0.046875q0.0625 0.03125 0.09375 0.140625q0.046875 0.109375 0.0625 0.3125q0.015625 0.1875 0.015625 0.515625zm9.79657 -2.671875q0 1.03125 -0.28125 1.890625q-0.265625 0.859375 -0.828125 1.484375q-0.546875 0.609375 -1.390625 0.953125q-0.828125 0.328125 -1.953125 0.328125q-1.078125 0 -1.890625 -0.296875q-0.796875 -0.296875 -1.328125 -0.875q-0.515625 -0.578125 -0.78125 -1.40625q-0.25 -0.84375 -0.25 -1.921875q0 -1.03125 0.28125 -1.890625q0.28125 -0.859375 0.828125 -1.46875q0.5625 -0.625 1.390625 -0.953125q0.828125 -0.34375 1.953125 -0.34375q1.09375 0 1.890625 0.296875q0.8125 0.296875 1.328125 0.875q0.53125 0.5625 0.78125 1.40625q0.25 0.84375 0.25 1.921875zm-2.359375 0.09375q0 -0.609375 -0.09375 -1.109375q-0.09375 -0.5 -0.328125 -0.875q-0.21875 -0.375 -0.59375 -0.578125q-0.375 -0.21875 -0.953125 -0.21875q-0.515625 0 -0.90625 0.1875q-0.375 0.1875 -0.625 0.546875q-0.234375 0.359375 -0.359375 0.875q-0.125 0.5 -0.125 1.140625q0 0.59375 0.09375 1.109375q0.109375 0.5 0.328125 0.875q0.21875 0.375 0.59375 0.578125q0.390625 0.203125 0.953125 0.203125q0.53125 0 0.90625 -0.1875q0.390625 -0.1875 0.625 -0.53125q0.25 -0.359375 0.359375 -0.859375q0.125 -0.515625 0.125 -1.15625zm11.935791 4.046875q0 0.09375 -0.0625 0.171875q-0.046875 0.0625 -0.171875 0.109375q-0.125 0.046875 -0.359375 0.0625q-0.21875 0.015625 -0.546875 0.015625q-0.328125 0 -0.5625 -0.015625q-0.21875 -0.015625 -0.34375 -0.0625q-0.125 -0.046875 -0.1875 -0.109375q-0.046875 -0.078125 -0.046875 -0.171875l0 -4.640625q0 -0.578125 -0.09375 -0.921875q-0.078125 -0.34375 -0.25 -0.578125q-0.15625 -0.25 -0.421875 -0.375q-0.25 -0.125 -0.609375 -0.125q-0.4375 0 -0.890625 0.3125q-0.4375 0.3125 -0.921875 0.921875l0 5.40625q0 0.09375 -0.0625 0.171875q-0.046875 0.0625 -0.1875 0.109375q-0.125 0.046875 -0.34375 0.0625q-0.21875 0.015625 -0.546875 0.015625q-0.34375 0 -0.5625 -0.015625q-0.21875 -0.015625 -0.359375 -0.0625q-0.125 -0.046875 -0.1875 -0.109375q-0.046875 -0.078125 -0.046875 -0.171875l0 -8.125q0 -0.09375 0.046875 -0.15625q0.046875 -0.0625 0.15625 -0.109375q0.125 -0.046875 0.3125 -0.0625q0.1875 -0.03125 0.46875 -0.03125q0.296875 0 0.484375 0.03125q0.203125 0.015625 0.296875 0.0625q0.109375 0.046875 0.15625 0.109375q0.046875 0.0625 0.046875 0.15625l0 0.9375q0.671875 -0.71875 1.359375 -1.078125q0.703125 -0.375 1.46875 -0.375q0.828125 0 1.390625 0.28125q0.5625 0.265625 0.90625 0.734375q0.359375 0.46875 0.515625 1.09375q0.15625 0.625 0.15625 1.515625l0 5.015625zm9.465759 -8.125q0 0.03125 0 0.109375q0 0.0625 -0.015625 0.140625q-0.015625 0.078125 -0.046875 0.171875q-0.015625 0.09375 -0.046875 0.234375l-2.453125 7.34375q-0.046875 0.15625 -0.125 0.25q-0.078125 0.09375 -0.25 0.15625q-0.171875 0.046875 -0.484375 0.0625q-0.296875 0.015625 -0.796875 0.015625q-0.484375 0 -0.796875 -0.015625q-0.296875 -0.015625 -0.46875 -0.0625q-0.171875 -0.0625 -0.25 -0.15625q-0.078125 -0.109375 -0.125 -0.25l-2.4375 -7.34375q-0.0625 -0.1875 -0.09375 -0.328125q-0.03125 -0.15625 -0.03125 -0.21875q0 -0.0625 0 -0.109375q0 -0.09375 0.046875 -0.15625q0.046875 -0.078125 0.171875 -0.125q0.140625 -0.046875 0.359375 -0.0625q0.21875 -0.015625 0.5625 -0.015625q0.375 0 0.59375 0.03125q0.234375 0.015625 0.359375 0.0625q0.140625 0.03125 0.1875 0.109375q0.0625 0.078125 0.09375 0.1875l1.84375 5.96875l0.0625 0.21875l0.046875 -0.21875l1.828125 -5.96875q0.03125 -0.109375 0.078125 -0.1875q0.0625 -0.078125 0.1875 -0.109375q0.140625 -0.046875 0.34375 -0.0625q0.21875 -0.03125 0.5625 -0.03125q0.34375 0 0.546875 0.015625q0.21875 0.015625 0.328125 0.0625q0.125 0.046875 0.171875 0.125q0.046875 0.0625 0.046875 0.15625z" fill-rule="nonzero"/><path fill="#000000" d="m395.58493 264.30786q0 0.890625 -0.34375 1.578125q-0.328125 0.671875 -0.9375 1.140625q-0.59375 0.46875 -1.4375 0.703125q-0.84375 0.234375 -1.828125 0.234375q-0.609375 0 -1.140625 -0.09375q-0.515625 -0.078125 -0.921875 -0.203125q-0.40625 -0.125 -0.671875 -0.25q-0.265625 -0.140625 -0.34375 -0.21875q-0.078125 -0.078125 -0.125 -0.15625q-0.046875 -0.09375 -0.078125 -0.21875q-0.03125 -0.125 -0.046875 -0.3125q0 -0.1875 0 -0.453125q0 -0.4375 0.0625 -0.609375q0.078125 -0.171875 0.21875 -0.171875q0.09375 0 0.3125 0.125q0.234375 0.125 0.578125 0.265625q0.34375 0.140625 0.796875 0.265625q0.46875 0.125 1.0625 0.125q0.5 0 0.875 -0.109375q0.390625 -0.125 0.65625 -0.34375q0.28125 -0.21875 0.40625 -0.515625q0.140625 -0.3125 0.140625 -0.6875q0 -0.40625 -0.171875 -0.734375q-0.15625 -0.328125 -0.46875 -0.546875q-0.3125 -0.234375 -0.796875 -0.359375q-0.46875 -0.140625 -1.125 -0.140625l-1.015625 0q-0.109375 0 -0.203125 -0.03125q-0.078125 -0.03125 -0.140625 -0.125q-0.046875 -0.109375 -0.078125 -0.28125q-0.015625 -0.171875 -0.015625 -0.46875q0 -0.25 0.015625 -0.421875q0.03125 -0.171875 0.078125 -0.265625q0.046875 -0.09375 0.125 -0.125q0.078125 -0.03125 0.1875 -0.03125l1.03125 0q0.53125 0 0.9375 -0.125q0.421875 -0.125 0.6875 -0.34375q0.28125 -0.234375 0.421875 -0.5625q0.15625 -0.328125 0.15625 -0.71875q0 -0.296875 -0.109375 -0.5625q-0.09375 -0.265625 -0.296875 -0.453125q-0.1875 -0.203125 -0.5 -0.3125q-0.3125 -0.125 -0.734375 -0.125q-0.46875 0 -0.890625 0.140625q-0.421875 0.140625 -0.75 0.3125q-0.328125 0.171875 -0.5625 0.3125q-0.234375 0.140625 -0.34375 0.140625q-0.078125 0 -0.140625 -0.03125q-0.046875 -0.03125 -0.078125 -0.109375q-0.03125 -0.09375 -0.0625 -0.265625q-0.015625 -0.1875 -0.015625 -0.453125q0 -0.234375 0.015625 -0.375q0.015625 -0.15625 0.03125 -0.25q0.03125 -0.109375 0.0625 -0.171875q0.046875 -0.078125 0.140625 -0.15625q0.09375 -0.09375 0.375 -0.265625q0.28125 -0.171875 0.703125 -0.328125q0.4375 -0.171875 1.0 -0.28125q0.5625 -0.125 1.21875 -0.125q0.84375 0 1.5 0.203125q0.671875 0.203125 1.125 0.578125q0.453125 0.375 0.671875 0.9375q0.234375 0.546875 0.234375 1.234375q0 0.53125 -0.140625 1.0q-0.125 0.46875 -0.390625 0.84375q-0.265625 0.359375 -0.671875 0.609375q-0.390625 0.25 -0.90625 0.375l0 0.03125q0.625 0.078125 1.109375 0.328125q0.5 0.234375 0.84375 0.59375q0.34375 0.359375 0.515625 0.828125q0.1875 0.453125 0.1875 0.984375zm8.627533 -5.09375q0.171875 0.0625 0.15625 0.28125q0 0.21875 -0.265625 0.671875q-0.265625 0.453125 -0.453125 0.5625q-0.171875 0.109375 -0.328125 0l-1.8125 -1.453125l0.375 2.296875q0.03125 0.1875 -0.171875 0.296875q-0.1875 0.09375 -0.71875 0.09375q-0.53125 0 -0.734375 -0.09375q-0.1875 -0.109375 -0.15625 -0.296875l0.375 -2.296875l-1.8125 1.453125q-0.140625 0.109375 -0.328125 0q-0.171875 -0.125 -0.453125 -0.578125q-0.265625 -0.4375 -0.28125 -0.65625q0 -0.21875 0.171875 -0.28125l2.171875 -0.84375l-2.171875 -0.84375q-0.171875 -0.0625 -0.171875 -0.28125q0.015625 -0.21875 0.28125 -0.671875q0.265625 -0.453125 0.453125 -0.5625q0.1875 -0.125 0.328125 0l1.8125 1.453125l-0.375 -2.296875q-0.03125 -0.171875 0.15625 -0.28125q0.203125 -0.109375 0.734375 -0.109375q0.53125 0 0.71875 0.109375q0.203125 0.109375 0.171875 0.28125l-0.375 2.296875l1.8125 -1.453125q0.15625 -0.125 0.328125 0q0.171875 0.109375 0.453125 0.578125q0.265625 0.4375 0.265625 0.65625q0.015625 0.21875 -0.15625 0.28125l-2.15625 0.84375l2.15625 0.84375zm10.119812 5.09375q0 0.890625 -0.34375 1.578125q-0.328125 0.671875 -0.9375 1.140625q-0.59375 0.46875 -1.4375 0.703125q-0.84375 0.234375 -1.828125 0.234375q-0.609375 0 -1.140625 -0.09375q-0.515625 -0.078125 -0.921875 -0.203125q-0.40625 -0.125 -0.671875 -0.25q-0.265625 -0.140625 -0.34375 -0.21875q-0.078125 -0.078125 -0.125 -0.15625q-0.046875 -0.09375 -0.078125 -0.21875q-0.03125 -0.125 -0.046875 -0.3125q0 -0.1875 0 -0.453125q0 -0.4375 0.0625 -0.609375q0.078125 -0.171875 0.21875 -0.171875q0.09375 0 0.3125 0.125q0.234375 0.125 0.578125 0.265625q0.34375 0.140625 0.796875 0.265625q0.46875 0.125 1.0625 0.125q0.5 0 0.875 -0.109375q0.390625 -0.125 0.65625 -0.34375q0.28125 -0.21875 0.40625 -0.515625q0.140625 -0.3125 0.140625 -0.6875q0 -0.40625 -0.171875 -0.734375q-0.15625 -0.328125 -0.46875 -0.546875q-0.3125 -0.234375 -0.796875 -0.359375q-0.46875 -0.140625 -1.125 -0.140625l-1.015625 0q-0.109375 0 -0.203125 -0.03125q-0.078125 -0.03125 -0.140625 -0.125q-0.046875 -0.109375 -0.078125 -0.28125q-0.015625 -0.171875 -0.015625 -0.46875q0 -0.25 0.015625 -0.421875q0.03125 -0.171875 0.078125 -0.265625q0.046875 -0.09375 0.125 -0.125q0.078125 -0.03125 0.1875 -0.03125l1.03125 0q0.53125 0 0.9375 -0.125q0.421875 -0.125 0.6875 -0.34375q0.28125 -0.234375 0.421875 -0.5625q0.15625 -0.328125 0.15625 -0.71875q0 -0.296875 -0.109375 -0.5625q-0.09375 -0.265625 -0.296875 -0.453125q-0.1875 -0.203125 -0.5 -0.3125q-0.3125 -0.125 -0.734375 -0.125q-0.46875 0 -0.890625 0.140625q-0.421875 0.140625 -0.75 0.3125q-0.328125 0.171875 -0.5625 0.3125q-0.234375 0.140625 -0.34375 0.140625q-0.078125 0 -0.140625 -0.03125q-0.046875 -0.03125 -0.078125 -0.109375q-0.03125 -0.09375 -0.0625 -0.265625q-0.015625 -0.1875 -0.015625 -0.453125q0 -0.234375 0.015625 -0.375q0.015625 -0.15625 0.03125 -0.25q0.03125 -0.109375 0.0625 -0.171875q0.046875 -0.078125 0.140625 -0.15625q0.09375 -0.09375 0.375 -0.265625q0.28125 -0.171875 0.703125 -0.328125q0.4375 -0.171875 1.0 -0.28125q0.5625 -0.125 1.21875 -0.125q0.84375 0 1.5 0.203125q0.671875 0.203125 1.125 0.578125q0.453125 0.375 0.671875 0.9375q0.234375 0.546875 0.234375 1.234375q0 0.53125 -0.140625 1.0q-0.125 0.46875 -0.390625 0.84375q-0.265625 0.359375 -0.671875 0.609375q-0.390625 0.25 -0.90625 0.375l0 0.03125q0.625 0.078125 1.109375 0.328125q0.5 0.234375 0.84375 0.59375q0.34375 0.359375 0.515625 0.828125q0.1875 0.453125 0.1875 0.984375z" fill-rule="nonzero"/><path fill="#f1c232" d="m445.4398 218.02061l0 0c0 -12.785187 9.285675 -23.149612 20.740143 -23.149612l0 0c5.500641 0 10.77597 2.4389648 14.665497 6.780365c3.889557 4.341385 6.0746765 10.229584 6.0746765 16.369247l0 0c0 12.7851715 -9.285706 23.149597 -20.740173 23.149597l0 0c-11.454468 0 -20.740143 -10.364426 -20.740143 -23.149597z" fill-rule="evenodd"/><path stroke="#000000" stroke-width="1.0" stroke-linejoin="round" stroke-linecap="butt" d="m445.4398 218.02061l0 0c0 -12.785187 9.285675 -23.149612 20.740143 -23.149612l0 0c5.500641 0 10.77597 2.4389648 14.665497 6.780365c3.889557 4.341385 6.0746765 10.229584 6.0746765 16.369247l0 0c0 12.7851715 -9.285706 23.149597 -20.740173 23.149597l0 0c-11.454468 0 -20.740143 -10.364426 -20.740143 -23.149597z" fill-rule="evenodd"/><path fill="#000000" fill-opacity="0.0" d="m445.4366 187.41109l41.480316 0l0 42.015747l-41.480316 0z" fill-rule="evenodd"/><path fill="#000000" d="m470.9564 214.01859q0 0.109375 -0.046875 0.171875q-0.03125 0.0625 -0.171875 0.109375q-0.125 0.046875 -0.390625 0.0625q-0.265625 0.015625 -0.71875 0.015625q-0.390625 0 -0.625 -0.015625q-0.21875 -0.015625 -0.359375 -0.0625q-0.125 -0.046875 -0.1875 -0.125q-0.046875 -0.078125 -0.078125 -0.1875l-1.0625 -2.640625q-0.1875 -0.4375 -0.375 -0.78125q-0.171875 -0.359375 -0.40625 -0.578125q-0.21875 -0.234375 -0.515625 -0.34375q-0.28125 -0.125 -0.671875 -0.125l-0.734375 0l0 4.484375q0 0.09375 -0.0625 0.171875q-0.0625 0.0625 -0.203125 0.109375q-0.140625 0.046875 -0.375 0.0625q-0.21875 0.03125 -0.5625 0.03125q-0.359375 0 -0.59375 -0.03125q-0.21875 -0.015625 -0.359375 -0.0625q-0.140625 -0.046875 -0.203125 -0.109375q-0.046875 -0.078125 -0.046875 -0.171875l0 -10.703125q0 -0.40625 0.203125 -0.578125q0.203125 -0.171875 0.515625 -0.171875l3.046875 0q0.46875 0 0.765625 0.015625q0.296875 0.015625 0.546875 0.046875q0.703125 0.09375 1.265625 0.34375q0.578125 0.25 0.96875 0.640625q0.40625 0.390625 0.609375 0.9375q0.21875 0.546875 0.21875 1.25q0 0.578125 -0.15625 1.078125q-0.140625 0.484375 -0.4375 0.875q-0.296875 0.375 -0.734375 0.65625q-0.421875 0.28125 -0.96875 0.453125q0.265625 0.125 0.5 0.3125q0.234375 0.1875 0.4375 0.453125q0.203125 0.25 0.390625 0.578125q0.1875 0.328125 0.359375 0.75l0.984375 2.328125q0.140625 0.34375 0.1875 0.5q0.046875 0.15625 0.046875 0.25zm-3.09375 -8.0q0 -0.578125 -0.265625 -0.96875q-0.265625 -0.40625 -0.859375 -0.578125q-0.1875 -0.046875 -0.421875 -0.0625q-0.21875 -0.03125 -0.640625 -0.03125l-1.0625 0l0 3.34375l1.21875 0q0.5 0 0.875 -0.125q0.390625 -0.125 0.640625 -0.34375q0.265625 -0.234375 0.390625 -0.53125q0.125 -0.3125 0.125 -0.703125z" fill-rule="nonzero"/><path fill="#f1c232" d="m653.47125 68.348694l0 0c0 -12.785175 9.285706 -23.149605 20.740173 -23.149605l0 0c5.5006104 0 10.776001 2.4389687 14.665527 6.780361c3.8895264 4.3413925 6.074646 10.229588 6.074646 16.369244l0 0c0 12.7851715 -9.285706 23.149605 -20.740173 23.149605l0 0c-11.454468 0 -20.740173 -10.364433 -20.740173 -23.149605z" fill-rule="evenodd"/><path stroke="#000000" stroke-width="1.0" stroke-linejoin="round" stroke-linecap="butt" d="m653.47125 68.348694l0 0c0 -12.785175 9.285706 -23.149605 20.740173 -23.149605l0 0c5.5006104 0 10.776001 2.4389687 14.665527 6.780361c3.8895264 4.3413925 6.074646 10.229588 6.074646 16.369244l0 0c0 12.7851715 -9.285706 23.149605 -20.740173 23.149605l0 0c-11.454468 0 -20.740173 -10.364433 -20.740173 -23.149605z" fill-rule="evenodd"/><path fill="#000000" fill-opacity="0.0" d="m653.46814 37.739174l41.480286 0l0 42.015747l-41.480286 0z" fill-rule="evenodd"/><path fill="#000000" d="m678.9879 64.34667q0 0.109375 -0.046875 0.171875q-0.03125 0.0625 -0.171875 0.109375q-0.125 0.046875 -0.390625 0.0625q-0.265625 0.015625 -0.71875 0.015625q-0.390625 0 -0.625 -0.015625q-0.21875 -0.015625 -0.359375 -0.0625q-0.125 -0.046875 -0.1875 -0.125q-0.046875 -0.078125 -0.078125 -0.1875l-1.0625 -2.640625q-0.1875 -0.4375 -0.375 -0.78125q-0.171875 -0.359375 -0.40625 -0.578125q-0.21875 -0.234375 -0.515625 -0.34375q-0.28125 -0.125 -0.671875 -0.125l-0.734375 0l0 4.484375q0 0.09375 -0.0625 0.171875q-0.0625 0.0625 -0.203125 0.109375q-0.140625 0.046875 -0.375 0.0625q-0.21875 0.03125 -0.5625 0.03125q-0.359375 0 -0.59375 -0.03125q-0.21875 -0.015625 -0.359375 -0.0625q-0.140625 -0.046875 -0.203125 -0.109375q-0.046875 -0.078125 -0.046875 -0.171875l0 -10.703125q0 -0.40625 0.203125 -0.578125q0.203125 -0.171875 0.515625 -0.171875l3.046875 0q0.46875 0 0.765625 0.015625q0.296875 0.015625 0.546875 0.046875q0.703125 0.09375 1.265625 0.34375q0.578125 0.25 0.96875 0.640625q0.40625 0.390625 0.609375 0.9375q0.21875 0.546875 0.21875 1.25q0 0.578125 -0.15625 1.078125q-0.140625 0.484375 -0.4375 0.875q-0.296875 0.375 -0.734375 0.65625q-0.421875 0.28125 -0.96875 0.453125q0.265625 0.125 0.5 0.3125q0.234375 0.1875 0.4375 0.453125q0.203125 0.25 0.390625 0.578125q0.1875 0.328125 0.359375 0.75l0.984375 2.328125q0.140625 0.34375 0.1875 0.5q0.046875 0.15625 0.046875 0.25zm-3.09375 -8.0q0 -0.578125 -0.265625 -0.96875q-0.265625 -0.40625 -0.859375 -0.578125q-0.1875 -0.046875 -0.421875 -0.0625q-0.21875 -0.03125 -0.640625 -0.03125l-1.0625 0l0 3.34375l1.21875 0q0.5 0 0.875 -0.125q0.390625 -0.125 0.640625 -0.34375q0.265625 -0.234375 0.390625 -0.53125q0.125 -0.3125 0.125 -0.703125z" fill-rule="nonzero"/></g></svg>