<svg version="1.1" viewBox="0.0 0.0 1061.6456692913387 430.5748031496063" fill="none" stroke="none" stroke-linecap="square" stroke-miterlimit="10" xmlns:xlink="http://www.w3.org/1999/xlink" xmlns="http://www.w3.org/2000/svg"><clipPath id="p.0"><path d="m0 0l1061.6456 0l0 430.5748l-1061.6456 0l0 -430.5748z" clip-rule="nonzero"/></clipPath><g clip-path="url(#p.0)"><path fill="#000000" fill-opacity="0.0" d="m0 0l1061.6456 0l0 430.5748l-1061.6456 0z" fill-rule="evenodd"/><path fill="#dd7e6b" d="m212.76596 109.21642l140.40945 0l0 68.7244l-140.40945 0z" fill-rule="evenodd"/><path stroke="#000000" stroke-width="2.0" stroke-linejoin="round" stroke-linecap="butt" d="m212.76596 109.21642l140.40945 0l0 68.7244l-140.40945 0z" fill-rule="evenodd"/><path fill="#000000" fill-opacity="0.0" d="m239.83595 111.26248l86.267715 0l0 64.62993l-86.267715 0z" fill-rule="evenodd"/><path fill="#000000" d="m273.16812 136.40123q0 0.21875 -0.015625 0.390625q-0.015625 0.15625 -0.046875 0.265625q-0.015625 0.109375 -0.0625 0.203125q-0.046875 0.078125 -0.15625 0.1875q-0.09375 0.09375 -0.390625 0.265625q-0.28125 0.15625 -0.703125 0.3125q-0.40625 0.140625 -0.9375 0.234375q-0.53125 0.109375 -1.15625 0.109375q-1.203125 0 -2.1875 -0.375q-0.96875 -0.375 -1.65625 -1.109375q-0.671875 -0.75 -1.046875 -1.859375q-0.359375 -1.109375 -0.359375 -2.578125q0 -1.5 0.390625 -2.671875q0.40625 -1.171875 1.125 -1.953125q0.71875 -0.796875 1.71875 -1.203125q1.015625 -0.421875 2.234375 -0.421875q0.484375 0 0.9375 0.09375q0.46875 0.078125 0.84375 0.21875q0.390625 0.125 0.703125 0.296875q0.3125 0.171875 0.4375 0.296875q0.125 0.125 0.15625 0.203125q0.046875 0.078125 0.078125 0.203125q0.03125 0.125 0.046875 0.3125q0.015625 0.171875 0.015625 0.421875q0 0.265625 -0.03125 0.46875q-0.015625 0.1875 -0.0625 0.3125q-0.03125 0.109375 -0.109375 0.171875q-0.0625 0.046875 -0.140625 0.046875q-0.140625 0 -0.34375 -0.15625q-0.203125 -0.15625 -0.546875 -0.34375q-0.328125 -0.203125 -0.796875 -0.359375q-0.453125 -0.171875 -1.09375 -0.171875q-0.703125 0 -1.25 0.296875q-0.546875 0.28125 -0.9375 0.8125q-0.390625 0.53125 -0.59375 1.296875q-0.1875 0.75 -0.1875 1.703125q0 1.03125 0.203125 1.796875q0.21875 0.75 0.609375 1.25q0.40625 0.484375 0.953125 0.734375q0.5625 0.234375 1.265625 0.234375q0.640625 0 1.109375 -0.140625q0.46875 -0.15625 0.796875 -0.328125q0.328125 -0.1875 0.546875 -0.328125q0.21875 -0.15625 0.328125 -0.15625q0.09375 0 0.140625 0.046875q0.0625 0.03125 0.09375 0.140625q0.046875 0.109375 0.0625 0.3125q0.015625 0.1875 0.015625 0.515625zm9.79657 -2.671875q0 1.03125 -0.28125 1.890625q-0.265625 0.859375 -0.828125 1.484375q-0.546875 0.609375 -1.390625 0.953125q-0.828125 0.328125 -1.953125 0.328125q-1.078125 0 -1.890625 -0.296875q-0.796875 -0.296875 -1.328125 -0.875q-0.515625 -0.578125 -0.78125 -1.40625q-0.25 -0.84375 -0.25 -1.921875q0 -1.03125 0.28125 -1.890625q0.28125 -0.859375 0.828125 -1.46875q0.5625 -0.625 1.390625 -0.953125q0.828125 -0.34375 1.953125 -0.34375q1.09375 0 1.890625 0.296875q0.8125 0.296875 1.328125 0.875q0.53125 0.5625 0.78125 1.40625q0.25 0.84375 0.25 1.921875zm-2.359375 0.09375q0 -0.609375 -0.09375 -1.109375q-0.09375 -0.5 -0.328125 -0.875q-0.21875 -0.375 -0.59375 -0.578125q-0.375 -0.21875 -0.953125 -0.21875q-0.515625 0 -0.90625 0.1875q-0.375 0.1875 -0.625 0.546875q-0.234375 0.359375 -0.359375 0.875q-0.125 0.5 -0.125 1.140625q0 0.59375 0.09375 1.109375q0.109375 0.5 0.328125 0.875q0.21875 0.375 0.59375 0.578125q0.390625 0.203125 0.953125 0.203125q0.53125 0 0.90625 -0.1875q0.390625 -0.1875 0.625 -0.53125q0.25 -0.359375 0.359375 -0.859375q0.125 -0.515625 0.125 -1.15625zm11.935822 4.046875q0 0.09375 -0.0625 0.171875q-0.046875 0.0625 -0.171875 0.109375q-0.125 0.046875 -0.359375 0.0625q-0.21875 0.015625 -0.546875 0.015625q-0.328125 0 -0.5625 -0.015625q-0.21875 -0.015625 -0.34375 -0.0625q-0.125 -0.046875 -0.1875 -0.109375q-0.046875 -0.078125 -0.046875 -0.171875l0 -4.640625q0 -0.578125 -0.09375 -0.921875q-0.078125 -0.34375 -0.25 -0.578125q-0.15625 -0.25 -0.421875 -0.375q-0.25 -0.125 -0.609375 -0.125q-0.4375 0 -0.890625 0.3125q-0.4375 0.3125 -0.921875 0.921875l0 5.40625q0 0.09375 -0.0625 0.171875q-0.046875 0.0625 -0.1875 0.109375q-0.125 0.046875 -0.34375 0.0625q-0.21875 0.015625 -0.546875 0.015625q-0.34375 0 -0.5625 -0.015625q-0.21875 -0.015625 -0.359375 -0.0625q-0.125 -0.046875 -0.1875 -0.109375q-0.046875 -0.078125 -0.046875 -0.171875l0 -8.125q0 -0.09375 0.046875 -0.15625q0.046875 -0.0625 0.15625 -0.109375q0.125 -0.046875 0.3125 -0.0625q0.1875 -0.03125 0.46875 -0.03125q0.296875 0 0.484375 0.03125q0.203125 0.015625 0.296875 0.0625q0.109375 0.046875 0.15625 0.109375q0.046875 0.0625 0.046875 0.15625l0 0.9375q0.671875 -0.71875 1.359375 -1.078125q0.703125 -0.375 1.46875 -0.375q0.828125 0 1.390625 0.28125q0.5625 0.265625 0.90625 0.734375q0.359375 0.46875 0.515625 1.09375q0.15625 0.625 0.15625 1.515625l0 5.015625zm9.465759 -8.125q0 0.03125 0 0.109375q0 0.0625 -0.015625 0.140625q-0.015625 0.078125 -0.046875 0.171875q-0.015625 0.09375 -0.046875 0.234375l-2.453125 7.34375q-0.046875 0.15625 -0.125 0.25q-0.078125 0.09375 -0.25 0.15625q-0.171875 0.046875 -0.484375 0.0625q-0.296875 0.015625 -0.796875 0.015625q-0.484375 0 -0.796875 -0.015625q-0.296875 -0.015625 -0.46875 -0.0625q-0.171875 -0.0625 -0.25 -0.15625q-0.078125 -0.109375 -0.125 -0.25l-2.4375 -7.34375q-0.0625 -0.1875 -0.09375 -0.328125q-0.03125 -0.15625 -0.03125 -0.21875q0 -0.0625 0 -0.109375q0 -0.09375 0.046875 -0.15625q0.046875 -0.078125 0.171875 -0.125q0.140625 -0.046875 0.359375 -0.0625q0.21875 -0.015625 0.5625 -0.015625q0.375 0 0.59375 0.03125q0.234375 0.015625 0.359375 0.0625q0.140625 0.03125 0.1875 0.109375q0.0625 0.078125 0.09375 0.1875l1.84375 5.96875l0.0625 0.21875l0.046875 -0.21875l1.828125 -5.96875q0.03125 -0.109375 0.078125 -0.1875q0.0625 -0.078125 0.1875 -0.109375q0.140625 -0.046875 0.34375 -0.0625q0.21875 -0.03125 0.5625 -0.03125q0.34375 0 0.546875 0.015625q0.21875 0.015625 0.328125 0.0625q0.125 0.046875 0.171875 0.125q0.046875 0.0625 0.046875 0.15625z" fill-rule="nonzero"/><path fill="#000000" d="m277.46207 159.67622q0 0.25 -0.03125 0.4375q-0.015625 0.171875 -0.078125 0.28125q-0.046875 0.09375 -0.109375 0.140625q-0.0625 0.046875 -0.140625 0.046875l-6.5 0q-0.078125 0 -0.140625 -0.046875q-0.0625 -0.046875 -0.109375 -0.140625q-0.046875 -0.109375 -0.078125 -0.28125q-0.03125 -0.1875 -0.03125 -0.4375q0 -0.265625 0.015625 -0.4375q0.03125 -0.1875 0.078125 -0.296875q0.046875 -0.109375 0.109375 -0.15625q0.078125 -0.046875 0.15625 -0.046875l2.1875 0l0 -7.671875l-1.890625 1.046875q-0.203125 0.09375 -0.34375 0.125q-0.125 0.015625 -0.203125 -0.0625q-0.078125 -0.078125 -0.109375 -0.265625q-0.03125 -0.1875 -0.03125 -0.53125q0 -0.21875 0 -0.359375q0.015625 -0.140625 0.046875 -0.234375q0.046875 -0.109375 0.109375 -0.171875q0.0625 -0.0625 0.171875 -0.140625l2.53125 -1.640625q0.046875 -0.03125 0.109375 -0.046875q0.078125 -0.03125 0.1875 -0.046875q0.109375 -0.015625 0.28125 -0.015625q0.1875 -0.015625 0.46875 -0.015625q0.34375 0 0.546875 0.015625q0.21875 0.015625 0.328125 0.046875q0.109375 0.03125 0.140625 0.09375q0.046875 0.046875 0.046875 0.125l0 9.75l1.921875 0q0.078125 0 0.140625 0.046875q0.078125 0.046875 0.125 0.15625q0.046875 0.109375 0.0625 0.296875q0.03125 0.171875 0.03125 0.4375zm8.690033 -7.640625q0.171875 0.0625 0.15625 0.28125q0 0.21875 -0.265625 0.671875q-0.265625 0.453125 -0.453125 0.5625q-0.171875 0.109375 -0.328125 0l-1.8125 -1.453125l0.375 2.296875q0.03125 0.1875 -0.171875 0.296875q-0.1875 0.09375 -0.71875 0.09375q-0.53125 0 -0.734375 -0.09375q-0.1875 -0.109375 -0.15625 -0.296875l0.375 -2.296875l-1.8125 1.453125q-0.140625 0.109375 -0.328125 0q-0.171875 -0.125 -0.453125 -0.578125q-0.265625 -0.4375 -0.28125 -0.65625q0 -0.21875 0.171875 -0.28125l2.171875 -0.84375l-2.171875 -0.84375q-0.171875 -0.0625 -0.171875 -0.28125q0.015625 -0.21875 0.28125 -0.671875q0.265625 -0.453125 0.453125 -0.5625q0.1875 -0.125 0.328125 0l1.8125 1.453125l-0.375 -2.296875q-0.03125 -0.171875 0.15625 -0.28125q0.203125 -0.109375 0.734375 -0.109375q0.53125 0 0.71875 0.109375q0.203125 0.109375 0.171875 0.28125l-0.375 2.296875l1.8125 -1.453125q0.15625 -0.125 0.328125 0q0.171875 0.109375 0.453125 0.578125q0.265625 0.4375 0.265625 0.65625q0.015625 0.21875 -0.15625 0.28125l-2.15625 0.84375l2.15625 0.84375zm10.057312 7.640625q0 0.25 -0.03125 0.4375q-0.015625 0.171875 -0.078125 0.28125q-0.046875 0.09375 -0.109375 0.140625q-0.0625 0.046875 -0.140625 0.046875l-6.5 0q-0.078125 0 -0.140625 -0.046875q-0.0625 -0.046875 -0.109375 -0.140625q-0.046875 -0.109375 -0.078125 -0.28125q-0.03125 -0.1875 -0.03125 -0.4375q0 -0.265625 0.015625 -0.4375q0.03125 -0.1875 0.078125 -0.296875q0.046875 -0.109375 0.109375 -0.15625q0.078125 -0.046875 0.15625 -0.046875l2.1875 0l0 -7.671875l-1.890625 1.046875q-0.203125 0.09375 -0.34375 0.125q-0.125 0.015625 -0.203125 -0.0625q-0.078125 -0.078125 -0.109375 -0.265625q-0.03125 -0.1875 -0.03125 -0.53125q0 -0.21875 0 -0.359375q0.015625 -0.140625 0.046875 -0.234375q0.046875 -0.109375 0.109375 -0.171875q0.0625 -0.0625 0.171875 -0.140625l2.53125 -1.640625q0.046875 -0.03125 0.109375 -0.046875q0.078125 -0.03125 0.1875 -0.046875q0.109375 -0.015625 0.28125 -0.015625q0.1875 -0.015625 0.46875 -0.015625q0.34375 0 0.546875 0.015625q0.21875 0.015625 0.328125 0.046875q0.109375 0.03125 0.140625 0.09375q0.046875 0.046875 0.046875 0.125l0 9.75l1.921875 0q0.078125 0 0.140625 0.046875q0.078125 0.046875 0.125 0.15625q0.046875 0.109375 0.0625 0.296875q0.03125 0.171875 0.03125 0.4375z" fill-rule="nonzero"/><path fill="#f1c232" d="m327.37943 110.84213l0 0c0 -12.7851715 9.285675 -23.149605 20.740143 -23.149605l0 0c5.500641 0 10.77597 2.4389648 14.665497 6.7803574c3.889557 4.3414 6.0746765 10.229591 6.0746765 16.369247l0 0c0 12.7851715 -9.285706 23.149612 -20.740173 23.149612l0 0c-11.454468 0 -20.740143 -10.364441 -20.740143 -23.149612z" fill-rule="evenodd"/><path stroke="#000000" stroke-width="1.0" stroke-linejoin="round" stroke-linecap="butt" d="m327.37943 110.84213l0 0c0 -12.7851715 9.285675 -23.149605 20.740143 -23.149605l0 0c5.500641 0 10.77597 2.4389648 14.665497 6.7803574c3.889557 4.3414 6.0746765 10.229591 6.0746765 16.369247l0 0c0 12.7851715 -9.285706 23.149612 -20.740173 23.149612l0 0c-11.454468 0 -20.740143 -10.364441 -20.740143 -23.149612z" fill-rule="evenodd"/><path fill="#000000" fill-opacity="0.0" d="m327.37625 80.23261l41.480316 0l0 42.015747l-41.480316 0z" fill-rule="evenodd"/><path fill="#000000" d="m352.89603 106.84011q0 0.109375 -0.046875 0.171875q-0.03125 0.0625 -0.171875 0.109375q-0.125 0.046875 -0.390625 0.0625q-0.265625 0.015625 -0.71875 0.015625q-0.390625 0 -0.625 -0.015625q-0.21875 -0.015625 -0.359375 -0.0625q-0.125 -0.046875 -0.1875 -0.125q-0.046875 -0.078125 -0.078125 -0.1875l-1.0625 -2.640625q-0.1875 -0.4375 -0.375 -0.78125q-0.171875 -0.359375 -0.40625 -0.578125q-0.21875 -0.234375 -0.515625 -0.34375q-0.28125 -0.125 -0.671875 -0.125l-0.734375 0l0 4.484375q0 0.09375 -0.0625 0.171875q-0.0625 0.0625 -0.203125 0.109375q-0.140625 0.046875 -0.375 0.0625q-0.21875 0.03125 -0.5625 0.03125q-0.359375 0 -0.59375 -0.03125q-0.21875 -0.015625 -0.359375 -0.0625q-0.140625 -0.046875 -0.203125 -0.109375q-0.046875 -0.078125 -0.046875 -0.171875l0 -10.703125q0 -0.40625 0.203125 -0.578125q0.203125 -0.171875 0.515625 -0.171875l3.046875 0q0.46875 0 0.765625 0.015625q0.296875 0.015625 0.546875 0.046875q0.703125 0.09375 1.265625 0.34375q0.578125 0.25 0.96875 0.640625q0.40625 0.390625 0.609375 0.9375q0.21875 0.546875 0.21875 1.25q0 0.578125 -0.15625 1.078125q-0.140625 0.484375 -0.4375 0.875q-0.296875 0.375 -0.734375 0.65625q-0.421875 0.28125 -0.96875 0.453125q0.265625 0.125 0.5 0.3125q0.234375 0.1875 0.4375 0.453125q0.203125 0.25 0.390625 0.578125q0.1875 0.328125 0.359375 0.75l0.984375 2.328125q0.140625 0.34375 0.1875 0.5q0.046875 0.15625 0.046875 0.25zm-3.09375 -8.0q0 -0.578125 -0.265625 -0.96875q-0.265625 -0.40625 -0.859375 -0.578125q-0.1875 -0.046875 -0.421875 -0.0625q-0.21875 -0.03125 -0.640625 -0.03125l-1.0625 0l0 3.34375l1.21875 0q0.5 0 0.875 -0.125q0.390625 -0.125 0.640625 -0.34375q0.265625 -0.234375 0.390625 -0.53125q0.125 -0.3125 0.125 -0.703125z" fill-rule="nonzero"/><path fill="#dd7e6b" d="m439.11768 109.21642l140.40942 0l0 68.7244l-140.40942 0z" fill-rule="evenodd"/><path stroke="#000000" stroke-width="2.0" stroke-linejoin="round" stroke-linecap="butt" d="m439.11768 109.21642l140.40942 0l0 68.7244l-140.40942 0z" fill-rule="evenodd"/><path fill="#000000" fill-opacity="0.0" d="m466.18765 118.72183l86.26773 0l0 64.62993l-86.26773 0z" fill-rule="evenodd"/><path fill="#000000" d="m499.51984 143.86058q0 0.21875 -0.015625 0.390625q-0.015625 0.15625 -0.046875 0.265625q-0.015625 0.109375 -0.0625 0.203125q-0.046875 0.078125 -0.15625 0.1875q-0.09375 0.09375 -0.390625 0.265625q-0.28125 0.15625 -0.703125 0.3125q-0.40625 0.140625 -0.9375 0.234375q-0.53125 0.109375 -1.15625 0.109375q-1.203125 0 -2.1875 -0.375q-0.96875 -0.375 -1.65625 -1.109375q-0.671875 -0.75 -1.046875 -1.859375q-0.359375 -1.109375 -0.359375 -2.578125q0 -1.5 0.390625 -2.671875q0.40625 -1.171875 1.125 -1.953125q0.71875 -0.796875 1.71875 -1.203125q1.015625 -0.421875 2.234375 -0.421875q0.484375 0 0.9375 0.09375q0.46875 0.078125 0.84375 0.21875q0.390625 0.125 0.703125 0.296875q0.3125 0.171875 0.4375 0.296875q0.125 0.125 0.15625 0.203125q0.046875 0.078125 0.078125 0.203125q0.03125 0.125 0.046875 0.3125q0.015625 0.171875 0.015625 0.421875q0 0.265625 -0.03125 0.46875q-0.015625 0.1875 -0.0625 0.3125q-0.03125 0.109375 -0.109375 0.171875q-0.0625 0.046875 -0.140625 0.046875q-0.140625 0 -0.34375 -0.15625q-0.203125 -0.15625 -0.546875 -0.34375q-0.328125 -0.203125 -0.796875 -0.359375q-0.453125 -0.171875 -1.09375 -0.171875q-0.703125 0 -1.25 0.296875q-0.546875 0.28125 -0.9375 0.8125q-0.390625 0.53125 -0.59375 1.296875q-0.1875 0.75 -0.1875 1.703125q0 1.03125 0.203125 1.796875q0.21875 0.75 0.609375 1.25q0.40625 0.484375 0.953125 0.734375q0.5625 0.234375 1.265625 0.234375q0.640625 0 1.109375 -0.140625q0.46875 -0.15625 0.796875 -0.328125q0.328125 -0.1875 0.546875 -0.328125q0.21875 -0.15625 0.328125 -0.15625q0.09375 0 0.140625 0.046875q0.0625 0.03125 0.09375 0.140625q0.046875 0.109375 0.0625 0.3125q0.015625 0.1875 0.015625 0.515625zm9.79657 -2.671875q0 1.03125 -0.28125 1.890625q-0.265625 0.859375 -0.828125 1.484375q-0.546875 0.609375 -1.390625 0.953125q-0.828125 0.328125 -1.953125 0.328125q-1.078125 0 -1.890625 -0.296875q-0.796875 -0.296875 -1.328125 -0.875q-0.515625 -0.578125 -0.78125 -1.40625q-0.25 -0.84375 -0.25 -1.921875q0 -1.03125 0.28125 -1.890625q0.28125 -0.859375 0.828125 -1.46875q0.5625 -0.625 1.390625 -0.953125q0.828125 -0.34375 1.953125 -0.34375q1.09375 0 1.890625 0.296875q0.8125 0.296875 1.328125 0.875q0.53125 0.5625 0.78125 1.40625q0.25 0.84375 0.25 1.921875zm-2.359375 0.09375q0 -0.609375 -0.09375 -1.109375q-0.09375 -0.5 -0.328125 -0.875q-0.21875 -0.375 -0.59375 -0.578125q-0.375 -0.21875 -0.953125 -0.21875q-0.515625 0 -0.90625 0.1875q-0.375 0.1875 -0.625 0.546875q-0.234375 0.359375 -0.359375 0.875q-0.125 0.5 -0.125 1.140625q0 0.59375 0.09375 1.109375q0.109375 0.5 0.328125 0.875q0.21875 0.375 0.59375 0.578125q0.390625 0.203125 0.953125 0.203125q0.53125 0 0.90625 -0.1875q0.390625 -0.1875 0.625 -0.53125q0.25 -0.359375 0.359375 -0.859375q0.125 -0.515625 0.125 -1.15625zm11.935791 4.046875q0 0.09375 -0.0625 0.171875q-0.046875 0.0625 -0.171875 0.109375q-0.125 0.046875 -0.359375 0.0625q-0.21875 0.015625 -0.546875 0.015625q-0.328125 0 -0.5625 -0.015625q-0.21875 -0.015625 -0.34375 -0.0625q-0.125 -0.046875 -0.1875 -0.109375q-0.046875 -0.078125 -0.046875 -0.171875l0 -4.640625q0 -0.578125 -0.09375 -0.921875q-0.078125 -0.34375 -0.25 -0.578125q-0.15625 -0.25 -0.421875 -0.375q-0.25 -0.125 -0.609375 -0.125q-0.4375 0 -0.890625 0.3125q-0.4375 0.3125 -0.921875 0.921875l0 5.40625q0 0.09375 -0.0625 0.171875q-0.046875 0.0625 -0.1875 0.109375q-0.125 0.046875 -0.34375 0.0625q-0.21875 0.015625 -0.546875 0.015625q-0.34371948 0 -0.5624695 -0.015625q-0.21875 -0.015625 -0.359375 -0.0625q-0.125 -0.046875 -0.1875 -0.109375q-0.046875 -0.078125 -0.046875 -0.171875l0 -8.125q0 -0.09375 0.046875 -0.15625q0.046875 -0.0625 0.15625 -0.109375q0.125 -0.046875 0.3125 -0.0625q0.1875 -0.03125 0.46871948 -0.03125q0.296875 0 0.484375 0.03125q0.203125 0.015625 0.296875 0.0625q0.109375 0.046875 0.15625 0.109375q0.046875 0.0625 0.046875 0.15625l0 0.9375q0.671875 -0.71875 1.359375 -1.078125q0.703125 -0.375 1.46875 -0.375q0.828125 0 1.390625 0.28125q0.5625 0.265625 0.90625 0.734375q0.359375 0.46875 0.515625 1.09375q0.15625 0.625 0.15625 1.515625l0 5.015625zm9.465759 -8.125q0 0.03125 0 0.109375q0 0.0625 -0.015625 0.140625q-0.015625 0.078125 -0.046875 0.171875q-0.015625 0.09375 -0.046875 0.234375l-2.453125 7.34375q-0.046875 0.15625 -0.125 0.25q-0.078125 0.09375 -0.25 0.15625q-0.171875 0.046875 -0.484375 0.0625q-0.296875 0.015625 -0.796875 0.015625q-0.484375 0 -0.796875 -0.015625q-0.296875 -0.015625 -0.46875 -0.0625q-0.171875 -0.0625 -0.25 -0.15625q-0.078125 -0.109375 -0.125 -0.25l-2.4375 -7.34375q-0.0625 -0.1875 -0.09375 -0.328125q-0.03125 -0.15625 -0.03125 -0.21875q0 -0.0625 0 -0.109375q0 -0.09375 0.046875 -0.15625q0.046875 -0.078125 0.171875 -0.125q0.140625 -0.046875 0.359375 -0.0625q0.21875 -0.015625 0.5625 -0.015625q0.375 0 0.59375 0.03125q0.234375 0.015625 0.359375 0.0625q0.140625 0.03125 0.1875 0.109375q0.0625 0.078125 0.09375 0.1875l1.84375 5.96875l0.0625 0.21875l0.046875 -0.21875l1.828125 -5.96875q0.03125 -0.109375 0.078125 -0.1875q0.0625 -0.078125 0.1875 -0.109375q0.140625 -0.046875 0.34375 -0.0625q0.21875 -0.03125 0.5625 -0.03125q0.34375 0 0.546875 0.015625q0.21875 0.015625 0.328125 0.0625q0.125 0.046875 0.171875 0.125q0.046875 0.0625 0.046875 0.15625z" fill-rule="nonzero"/><path fill="#000000" d="m503.87628 164.5887q0 0.890625 -0.34375 1.578125q-0.328125 0.671875 -0.9375 1.140625q-0.59375 0.46875 -1.4375 0.703125q-0.84375 0.234375 -1.828125 0.234375q-0.609375 0 -1.140625 -0.09375q-0.515625 -0.078125 -0.921875 -0.203125q-0.40625 -0.125 -0.671875 -0.25q-0.265625 -0.140625 -0.34375 -0.21875q-0.078125 -0.078125 -0.125 -0.15625q-0.046875 -0.09375 -0.078125 -0.21875q-0.03125 -0.125 -0.046875 -0.3125q0 -0.1875 0 -0.453125q0 -0.4375 0.0625 -0.609375q0.078125 -0.171875 0.21875 -0.171875q0.09375 0 0.3125 0.125q0.234375 0.125 0.578125 0.265625q0.34375 0.140625 0.796875 0.265625q0.46875 0.125 1.0625 0.125q0.5 0 0.875 -0.109375q0.390625 -0.125 0.65625 -0.34375q0.28125 -0.21875 0.40625 -0.515625q0.140625 -0.3125 0.140625 -0.6875q0 -0.40625 -0.171875 -0.734375q-0.15625 -0.328125 -0.46875 -0.546875q-0.3125 -0.234375 -0.796875 -0.359375q-0.46875 -0.140625 -1.125 -0.140625l-1.015625 0q-0.109375 0 -0.203125 -0.03125q-0.078125 -0.03125 -0.140625 -0.125q-0.046875 -0.109375 -0.078125 -0.28125q-0.015625 -0.171875 -0.015625 -0.46875q0 -0.25 0.015625 -0.421875q0.03125 -0.171875 0.078125 -0.265625q0.046875 -0.09375 0.125 -0.125q0.078125 -0.03125 0.1875 -0.03125l1.03125 0q0.53125 0 0.9375 -0.125q0.421875 -0.125 0.6875 -0.34375q0.28125 -0.234375 0.421875 -0.5625q0.15625 -0.328125 0.15625 -0.71875q0 -0.296875 -0.109375 -0.5625q-0.09375 -0.265625 -0.296875 -0.453125q-0.1875 -0.203125 -0.5 -0.3125q-0.3125 -0.125 -0.734375 -0.125q-0.46875 0 -0.890625 0.140625q-0.421875 0.140625 -0.75 0.3125q-0.328125 0.171875 -0.5625 0.3125q-0.234375 0.140625 -0.34375 0.140625q-0.078125 0 -0.140625 -0.03125q-0.046875 -0.03125 -0.078125 -0.109375q-0.03125 -0.09375 -0.0625 -0.265625q-0.015625 -0.1875 -0.015625 -0.453125q0 -0.234375 0.015625 -0.375q0.015625 -0.15625 0.03125 -0.25q0.03125 -0.109375 0.0625 -0.171875q0.046875 -0.078125 0.140625 -0.15625q0.09375 -0.09375 0.375 -0.265625q0.28125 -0.171875 0.703125 -0.328125q0.4375 -0.171875 1.0 -0.28125q0.5625 -0.125 1.21875 -0.125q0.84375 0 1.5 0.203125q0.671875 0.203125 1.125 0.578125q0.453125 0.375 0.671875 0.9375q0.234375 0.546875 0.234375 1.234375q0 0.53125 -0.140625 1.0q-0.125 0.46875 -0.390625 0.84375q-0.265625 0.359375 -0.671875 0.609375q-0.390625 0.25 -0.90625 0.375l0 0.03125q0.625 0.078125 1.109375 0.328125q0.5 0.234375 0.84375 0.59375q0.34375 0.359375 0.515625 0.828125q0.1875 0.453125 0.1875 0.984375zm8.627502 -5.09375q0.171875 0.0625 0.15625 0.28125q0 0.21875 -0.265625 0.671875q-0.265625 0.453125 -0.45309448 0.5625q-0.171875 0.109375 -0.328125 0l-1.8125 -1.453125l0.375 2.296875q0.03125 0.1875 -0.171875 0.296875q-0.1875 0.09375 -0.71875 0.09375q-0.53125 0 -0.734375 -0.09375q-0.1875 -0.109375 -0.15625 -0.296875l0.375 -2.296875l-1.8125 1.453125q-0.140625 0.109375 -0.328125 0q-0.171875 -0.125 -0.453125 -0.578125q-0.265625 -0.4375 -0.28125 -0.65625q0 -0.21875 0.171875 -0.28125l2.171875 -0.84375l-2.171875 -0.84375q-0.171875 -0.0625 -0.171875 -0.28125q0.015625 -0.21875 0.28125 -0.671875q0.265625 -0.453125 0.453125 -0.5625q0.1875 -0.125 0.328125 0l1.8125 1.453125l-0.375 -2.296875q-0.03125 -0.171875 0.15625 -0.28125q0.203125 -0.109375 0.734375 -0.109375q0.53125 0 0.71875 0.109375q0.203125 0.109375 0.171875 0.28125l-0.375 2.296875l1.8125 -1.453125q0.15625 -0.125 0.328125 0q0.17184448 0.109375 0.45309448 0.578125q0.265625 0.4375 0.265625 0.65625q0.015625 0.21875 -0.15625 0.28125l-2.1562195 0.84375l2.1562195 0.84375zm10.119812 5.09375q0 0.890625 -0.34375 1.578125q-0.328125 0.671875 -0.9375 1.140625q-0.59375 0.46875 -1.4375 0.703125q-0.84375 0.234375 -1.828125 0.234375q-0.609375 0 -1.140625 -0.09375q-0.515625 -0.078125 -0.921875 -0.203125q-0.40625 -0.125 -0.671875 -0.25q-0.265625 -0.140625 -0.34375 -0.21875q-0.078125 -0.078125 -0.125 -0.15625q-0.046875 -0.09375 -0.078125 -0.21875q-0.03125 -0.125 -0.046875 -0.3125q0 -0.1875 0 -0.453125q0 -0.4375 0.0625 -0.609375q0.078125 -0.171875 0.21875 -0.171875q0.09375 0 0.3125 0.125q0.234375 0.125 0.578125 0.265625q0.34375 0.140625 0.796875 0.265625q0.46875 0.125 1.0625 0.125q0.5 0 0.875 -0.109375q0.390625 -0.125 0.65625 -0.34375q0.28125 -0.21875 0.40625 -0.515625q0.140625 -0.3125 0.140625 -0.6875q0 -0.40625 -0.171875 -0.734375q-0.15625 -0.328125 -0.46875 -0.546875q-0.3125 -0.234375 -0.796875 -0.359375q-0.46875 -0.140625 -1.125 -0.140625l-1.015625 0q-0.109375 0 -0.203125 -0.03125q-0.078125 -0.03125 -0.140625 -0.125q-0.046875 -0.109375 -0.078125 -0.28125q-0.015625 -0.171875 -0.015625 -0.46875q0 -0.25 0.015625 -0.421875q0.03125 -0.171875 0.078125 -0.265625q0.046875 -0.09375 0.125 -0.125q0.078125 -0.03125 0.1875 -0.03125l1.03125 0q0.53125 0 0.9375 -0.125q0.421875 -0.125 0.6875 -0.34375q0.28125 -0.234375 0.421875 -0.5625q0.15625 -0.328125 0.15625 -0.71875q0 -0.296875 -0.109375 -0.5625q-0.09375 -0.265625 -0.296875 -0.453125q-0.1875 -0.203125 -0.5 -0.3125q-0.3125 -0.125 -0.734375 -0.125q-0.46875 0 -0.890625 0.140625q-0.421875 0.140625 -0.75 0.3125q-0.328125 0.171875 -0.5625 0.3125q-0.234375 0.140625 -0.34375 0.140625q-0.078125 0 -0.140625 -0.03125q-0.046875 -0.03125 -0.078125 -0.109375q-0.03125 -0.09375 -0.0625 -0.265625q-0.015625 -0.1875 -0.015625 -0.453125q0 -0.234375 0.015625 -0.375q0.015625 -0.15625 0.03125 -0.25q0.03125 -0.109375 0.0625 -0.171875q0.046875 -0.078125 0.140625 -0.15625q0.09375 -0.09375 0.375 -0.265625q0.28125 -0.171875 0.703125 -0.328125q0.4375 -0.171875 1.0 -0.28125q0.5625 -0.125 1.21875 -0.125q0.84375 0 1.5 0.203125q0.671875 0.203125 1.125 0.578125q0.453125 0.375 0.671875 0.9375q0.234375 0.546875 0.234375 1.234375q0 0.53125 -0.140625 1.0q-0.125 0.46875 -0.390625 0.84375q-0.265625 0.359375 -0.671875 0.609375q-0.390625 0.25 -0.90625 0.375l0 0.03125q0.625 0.078125 1.109375 0.328125q0.5 0.234375 0.84375 0.59375q0.34375 0.359375 0.515625 0.828125q0.1875 0.453125 0.1875 0.984375z" fill-rule="nonzero"/><path fill="#f1c232" d="m553.73114 118.30145l0 0c0 -12.785179 9.285645 -23.149612 20.740112 -23.149612l0 0c5.5006714 0 10.776001 2.4389725 14.665527 6.780365c3.8895264 4.3413925 6.074646 10.229584 6.074646 16.369247l0 0c0 12.7851715 -9.285706 23.149597 -20.740173 23.149597l0 0c-11.454468 0 -20.740112 -10.364426 -20.740112 -23.149597z" fill-rule="evenodd"/><path stroke="#000000" stroke-width="1.0" stroke-linejoin="round" stroke-linecap="butt" d="m553.73114 118.30145l0 0c0 -12.785179 9.285645 -23.149612 20.740112 -23.149612l0 0c5.5006714 0 10.776001 2.4389725 14.665527 6.780365c3.8895264 4.3413925 6.074646 10.229584 6.074646 16.369247l0 0c0 12.7851715 -9.285706 23.149597 -20.740173 23.149597l0 0c-11.454468 0 -20.740112 -10.364426 -20.740112 -23.149597z" fill-rule="evenodd"/><path fill="#000000" fill-opacity="0.0" d="m553.72797 87.69193l41.480286 0l0 42.01574l-41.480286 0z" fill-rule="evenodd"/><path fill="#000000" d="m579.24774 114.29943q0 0.109375 -0.046875 0.171875q-0.03125 0.0625 -0.171875 0.109375q-0.125 0.046875 -0.390625 0.0625q-0.265625 0.015625 -0.71875 0.015625q-0.390625 0 -0.625 -0.015625q-0.21875 -0.015625 -0.359375 -0.0625q-0.125 -0.046875 -0.1875 -0.125q-0.046875 -0.078125 -0.078125 -0.1875l-1.0625 -2.640625q-0.1875 -0.4375 -0.375 -0.78125q-0.171875 -0.359375 -0.40625 -0.578125q-0.21875 -0.234375 -0.515625 -0.34375q-0.28125 -0.125 -0.671875 -0.125l-0.734375 0l0 4.484375q0 0.09375 -0.0625 0.171875q-0.0625 0.0625 -0.203125 0.109375q-0.140625 0.046875 -0.375 0.0625q-0.21875 0.03125 -0.5625 0.03125q-0.359375 0 -0.59375 -0.03125q-0.21875 -0.015625 -0.359375 -0.0625q-0.140625 -0.046875 -0.203125 -0.109375q-0.046875 -0.078125 -0.046875 -0.171875l0 -10.703125q0 -0.40625 0.203125 -0.578125q0.203125 -0.171875 0.515625 -0.171875l3.046875 0q0.46875 0 0.765625 0.015625q0.296875 0.015625 0.546875 0.046875q0.703125 0.09375 1.265625 0.34375q0.578125 0.25 0.96875 0.640625q0.40625 0.390625 0.609375 0.9375q0.21875 0.546875 0.21875 1.25q0 0.578125 -0.15625 1.078125q-0.140625 0.484375 -0.4375 0.875q-0.296875 0.375 -0.734375 0.65625q-0.421875 0.28125 -0.96875 0.453125q0.265625 0.125 0.5 0.3125q0.234375 0.1875 0.4375 0.453125q0.203125 0.25 0.390625 0.578125q0.1875 0.328125 0.359375 0.75l0.984375 2.328125q0.140625 0.34375 0.1875 0.5q0.046875 0.15625 0.046875 0.25zm-3.09375 -8.0q0 -0.578125 -0.265625 -0.96875q-0.265625 -0.40625 -0.859375 -0.578125q-0.1875 -0.046875 -0.421875 -0.0625q-0.21875 -0.03125 -0.640625 -0.03125l-1.0625 0l0 3.34375l1.21875 0q0.5 0 0.875 -0.125q0.390625 -0.125 0.640625 -0.34375q0.265625 -0.234375 0.390625 -0.53125q0.125 -0.3125 0.125 -0.703125z" fill-rule="nonzero"/><path fill="#000000" fill-opacity="0.0" d="m353.16492 143.57863l85.95276 0" fill-rule="evenodd"/><path stroke="#000000" stroke-width="2.0" stroke-linejoin="round" stroke-linecap="butt" d="m353.16492 143.57863l73.95273 0" fill-rule="evenodd"/><path fill="#000000" stroke="#000000" stroke-width="2.0" stroke-linecap="butt" d="m427.11765 146.8821l9.076202 -3.3034668l-9.076202 -3.3034668z" fill-rule="evenodd"/><path fill="#dd7e6b" d="m636.29614 109.21642l140.40942 0l0 68.7244l-140.40942 0z" fill-rule="evenodd"/><path stroke="#000000" stroke-width="2.0" stroke-linejoin="round" stroke-linecap="butt" d="m636.29614 109.21642l140.40942 0l0 68.7244l-140.40942 0z" fill-rule="evenodd"/><path fill="#000000" fill-opacity="0.0" d="m663.36615 118.72183l86.2677 0l0 64.62993l-86.2677 0z" fill-rule="evenodd"/><path fill="#000000" d="m696.6983 143.86058q0 0.21875 -0.015625 0.390625q-0.015625 0.15625 -0.046875 0.265625q-0.015625 0.109375 -0.0625 0.203125q-0.046875 0.078125 -0.15625 0.1875q-0.09375 0.09375 -0.390625 0.265625q-0.28125 0.15625 -0.703125 0.3125q-0.40625 0.140625 -0.9375 0.234375q-0.53125 0.109375 -1.15625 0.109375q-1.203125 0 -2.1875 -0.375q-0.96875 -0.375 -1.65625 -1.109375q-0.671875 -0.75 -1.046875 -1.859375q-0.359375 -1.109375 -0.359375 -2.578125q0 -1.5 0.390625 -2.671875q0.40625 -1.171875 1.125 -1.953125q0.71875 -0.796875 1.71875 -1.203125q1.015625 -0.421875 2.234375 -0.421875q0.484375 0 0.9375 0.09375q0.46875 0.078125 0.84375 0.21875q0.390625 0.125 0.703125 0.296875q0.3125 0.171875 0.4375 0.296875q0.125 0.125 0.15625 0.203125q0.046875 0.078125 0.078125 0.203125q0.03125 0.125 0.046875 0.3125q0.015625 0.171875 0.015625 0.421875q0 0.265625 -0.03125 0.46875q-0.015625 0.1875 -0.0625 0.3125q-0.03125 0.109375 -0.109375 0.171875q-0.0625 0.046875 -0.140625 0.046875q-0.140625 0 -0.34375 -0.15625q-0.203125 -0.15625 -0.546875 -0.34375q-0.328125 -0.203125 -0.796875 -0.359375q-0.453125 -0.171875 -1.09375 -0.171875q-0.703125 0 -1.25 0.296875q-0.546875 0.28125 -0.9375 0.8125q-0.390625 0.53125 -0.59375 1.296875q-0.1875 0.75 -0.1875 1.703125q0 1.03125 0.203125 1.796875q0.21875 0.75 0.609375 1.25q0.40625 0.484375 0.953125 0.734375q0.5625 0.234375 1.265625 0.234375q0.640625 0 1.109375 -0.140625q0.46875 -0.15625 0.796875 -0.328125q0.328125 -0.1875 0.546875 -0.328125q0.21875 -0.15625 0.328125 -0.15625q0.09375 0 0.140625 0.046875q0.0625 0.03125 0.09375 0.140625q0.046875 0.109375 0.0625 0.3125q0.015625 0.1875 0.015625 0.515625zm9.79657 -2.671875q0 1.03125 -0.28125 1.890625q-0.265625 0.859375 -0.828125 1.484375q-0.546875 0.609375 -1.390625 0.953125q-0.828125 0.328125 -1.953125 0.328125q-1.078125 0 -1.890625 -0.296875q-0.796875 -0.296875 -1.328125 -0.875q-0.515625 -0.578125 -0.78125 -1.40625q-0.25 -0.84375 -0.25 -1.921875q0 -1.03125 0.28125 -1.890625q0.28125 -0.859375 0.828125 -1.46875q0.5625 -0.625 1.390625 -0.953125q0.828125 -0.34375 1.953125 -0.34375q1.09375 0 1.890625 0.296875q0.8125 0.296875 1.328125 0.875q0.53125 0.5625 0.78125 1.40625q0.25 0.84375 0.25 1.921875zm-2.359375 0.09375q0 -0.609375 -0.09375 -1.109375q-0.09375 -0.5 -0.328125 -0.875q-0.21875 -0.375 -0.59375 -0.578125q-0.375 -0.21875 -0.953125 -0.21875q-0.515625 0 -0.90625 0.1875q-0.375 0.1875 -0.625 0.546875q-0.234375 0.359375 -0.359375 0.875q-0.125 0.5 -0.125 1.140625q0 0.59375 0.09375 1.109375q0.109375 0.5 0.328125 0.875q0.21875 0.375 0.59375 0.578125q0.390625 0.203125 0.953125 0.203125q0.53125 0 0.90625 -0.1875q0.390625 -0.1875 0.625 -0.53125q0.25 -0.359375 0.359375 -0.859375q0.125 -0.515625 0.125 -1.15625zm11.935791 4.046875q0 0.09375 -0.0625 0.171875q-0.046875 0.0625 -0.171875 0.109375q-0.125 0.046875 -0.359375 0.0625q-0.21875 0.015625 -0.546875 0.015625q-0.328125 0 -0.5625 -0.015625q-0.21875 -0.015625 -0.34375 -0.0625q-0.125 -0.046875 -0.1875 -0.109375q-0.046875 -0.078125 -0.046875 -0.171875l0 -4.640625q0 -0.578125 -0.09375 -0.921875q-0.078125 -0.34375 -0.25 -0.578125q-0.15625 -0.25 -0.421875 -0.375q-0.25 -0.125 -0.609375 -0.125q-0.4375 0 -0.890625 0.3125q-0.4375 0.3125 -0.921875 0.921875l0 5.40625q0 0.09375 -0.0625 0.171875q-0.046875 0.0625 -0.1875 0.109375q-0.125 0.046875 -0.34375 0.0625q-0.21875 0.015625 -0.546875 0.015625q-0.34375 0 -0.5625 -0.015625q-0.21875 -0.015625 -0.359375 -0.0625q-0.125 -0.046875 -0.1875 -0.109375q-0.046875 -0.078125 -0.046875 -0.171875l0 -8.125q0 -0.09375 0.046875 -0.15625q0.046875 -0.0625 0.15625 -0.109375q0.125 -0.046875 0.3125 -0.0625q0.1875 -0.03125 0.46875 -0.03125q0.296875 0 0.484375 0.03125q0.203125 0.015625 0.296875 0.0625q0.109375 0.046875 0.15625 0.109375q0.046875 0.0625 0.046875 0.15625l0 0.9375q0.671875 -0.71875 1.359375 -1.078125q0.703125 -0.375 1.46875 -0.375q0.828125 0 1.390625 0.28125q0.5625 0.265625 0.90625 0.734375q0.359375 0.46875 0.515625 1.09375q0.15625 0.625 0.15625 1.515625l0 5.015625zm9.465759 -8.125q0 0.03125 0 0.109375q0 0.0625 -0.015625 0.140625q-0.015625 0.078125 -0.046875 0.171875q-0.015625 0.09375 -0.046875 0.234375l-2.453125 7.34375q-0.046875 0.15625 -0.125 0.25q-0.078125 0.09375 -0.25 0.15625q-0.171875 0.046875 -0.484375 0.0625q-0.296875 0.015625 -0.796875 0.015625q-0.484375 0 -0.796875 -0.015625q-0.296875 -0.015625 -0.46875 -0.0625q-0.171875 -0.0625 -0.25 -0.15625q-0.078125 -0.109375 -0.125 -0.25l-2.4375 -7.34375q-0.0625 -0.1875 -0.09375 -0.328125q-0.03125 -0.15625 -0.03125 -0.21875q0 -0.0625 0 -0.109375q0 -0.09375 0.046875 -0.15625q0.046875 -0.078125 0.171875 -0.125q0.140625 -0.046875 0.359375 -0.0625q0.21875 -0.015625 0.5625 -0.015625q0.375 0 0.59375 0.03125q0.234375 0.015625 0.359375 0.0625q0.140625 0.03125 0.1875 0.109375q0.0625 0.078125 0.09375 0.1875l1.84375 5.96875l0.0625 0.21875l0.046875 -0.21875l1.828125 -5.96875q0.03125 -0.109375 0.078125 -0.1875q0.0625 -0.078125 0.1875 -0.109375q0.140625 -0.046875 0.34375 -0.0625q0.21875 -0.03125 0.5625 -0.03125q0.34375 0 0.546875 0.015625q0.21875 0.015625 0.328125 0.0625q0.125 0.046875 0.171875 0.125q0.046875 0.0625 0.046875 0.15625z" fill-rule="nonzero"/><path fill="#000000" d="m700.99225 167.13557q0 0.25 -0.03125 0.4375q-0.015625 0.171875 -0.078125 0.28125q-0.046875 0.09375 -0.109375 0.140625q-0.0625 0.046875 -0.140625 0.046875l-6.5 0q-0.078125 0 -0.140625 -0.046875q-0.0625 -0.046875 -0.109375 -0.140625q-0.046875 -0.109375 -0.078125 -0.28125q-0.03125 -0.1875 -0.03125 -0.4375q0 -0.265625 0.015625 -0.4375q0.03125 -0.1875 0.078125 -0.296875q0.046875 -0.109375 0.109375 -0.15625q0.078125 -0.046875 0.15625 -0.046875l2.1875 0l0 -7.671875l-1.890625 1.046875q-0.203125 0.09375 -0.34375 0.125q-0.125 0.015625 -0.203125 -0.0625q-0.078125 -0.078125 -0.109375 -0.265625q-0.03125 -0.1875 -0.03125 -0.53125q0 -0.21875 0 -0.359375q0.015625 -0.140625 0.046875 -0.234375q0.046875 -0.109375 0.109375 -0.171875q0.0625 -0.0625 0.171875 -0.140625l2.53125 -1.640625q0.046875 -0.03125 0.109375 -0.046875q0.078125 -0.03125 0.1875 -0.046875q0.109375 -0.015625 0.28125 -0.015625q0.1875 -0.015625 0.46875 -0.015625q0.34375 0 0.546875 0.015625q0.21875 0.015625 0.328125 0.046875q0.109375 0.03125 0.140625 0.09375q0.046875 0.046875 0.046875 0.125l0 9.75l1.921875 0q0.078125 0 0.140625 0.046875q0.078125 0.046875 0.125 0.15625q0.046875 0.109375 0.0625 0.296875q0.03125 0.171875 0.03125 0.4375zm8.690002 -7.640625q0.171875 0.0625 0.15625 0.28125q0 0.21875 -0.265625 0.671875q-0.265625 0.453125 -0.453125 0.5625q-0.171875 0.109375 -0.328125 0l-1.8125 -1.453125l0.375 2.296875q0.03125 0.1875 -0.171875 0.296875q-0.1875 0.09375 -0.71875 0.09375q-0.53125 0 -0.734375 -0.09375q-0.1875 -0.109375 -0.15625 -0.296875l0.375 -2.296875l-1.8125 1.453125q-0.140625 0.109375 -0.328125 0q-0.171875 -0.125 -0.453125 -0.578125q-0.265625 -0.4375 -0.28125 -0.65625q0 -0.21875 0.171875 -0.28125l2.171875 -0.84375l-2.171875 -0.84375q-0.171875 -0.0625 -0.171875 -0.28125q0.015625 -0.21875 0.28125 -0.671875q0.265625 -0.453125 0.453125 -0.5625q0.1875 -0.125 0.328125 0l1.8125 1.453125l-0.375 -2.296875q-0.03125 -0.171875 0.15625 -0.28125q0.203125 -0.109375 0.734375 -0.109375q0.53125 0 0.71875 0.109375q0.203125 0.109375 0.171875 0.28125l-0.375 2.296875l1.8125 -1.453125q0.15625 -0.125 0.328125 0q0.171875 0.109375 0.453125 0.578125q0.265625 0.4375 0.265625 0.65625q0.015625 0.21875 -0.15625 0.28125l-2.15625 0.84375l2.15625 0.84375zm10.057312 7.640625q0 0.25 -0.03125 0.4375q-0.015625 0.171875 -0.078125 0.28125q-0.046875 0.09375 -0.109375 0.140625q-0.0625 0.046875 -0.140625 0.046875l-6.5 0q-0.078125 0 -0.140625 -0.046875q-0.0625 -0.046875 -0.109375 -0.140625q-0.046875 -0.109375 -0.078125 -0.28125q-0.03125 -0.1875 -0.03125 -0.4375q0 -0.265625 0.015625 -0.4375q0.03125 -0.1875 0.078125 -0.296875q0.046875 -0.109375 0.109375 -0.15625q0.078125 -0.046875 0.15625 -0.046875l2.1875 0l0 -7.671875l-1.890625 1.046875q-0.203125 0.09375 -0.34375 0.125q-0.125 0.015625 -0.203125 -0.0625q-0.078125 -0.078125 -0.109375 -0.265625q-0.03125 -0.1875 -0.03125 -0.53125q0 -0.21875 0 -0.359375q0.015625 -0.140625 0.046875 -0.234375q0.046875 -0.109375 0.109375 -0.171875q0.0625 -0.0625 0.171875 -0.140625l2.53125 -1.640625q0.046875 -0.03125 0.109375 -0.046875q0.078125 -0.03125 0.1875 -0.046875q0.109375 -0.015625 0.28125 -0.015625q0.1875 -0.015625 0.46875 -0.015625q0.34375 0 0.546875 0.015625q0.21875 0.015625 0.328125 0.046875q0.109375 0.03125 0.140625 0.09375q0.046875 0.046875 0.046875 0.125l0 9.75l1.921875 0q0.078125 0 0.140625 0.046875q0.078125 0.046875 0.125 0.15625q0.046875 0.109375 0.0625 0.296875q0.03125 0.171875 0.03125 0.4375z" fill-rule="nonzero"/><path fill="#000000" fill-opacity="0.0" d="m579.5402 143.57863l56.75592 0" fill-rule="evenodd"/><path stroke="#000000" stroke-width="2.0" stroke-linejoin="round" stroke-linecap="butt" d="m579.5402 143.57863l44.75592 0" fill-rule="evenodd"/><path fill="#000000" stroke="#000000" stroke-width="2.0" stroke-linecap="butt" d="m624.29614 146.8821l9.076172 -3.3034668l-9.076172 -3.3034668z" fill-rule="evenodd"/><path fill="#f1c232" d="m755.6314 114.57179l0 0c0 -12.785179 9.285645 -23.149605 20.740112 -23.149605l0 0c5.5006714 0 10.776001 2.4389648 14.665527 6.7803574c3.8895264 4.3413925 6.074646 10.229591 6.074646 16.369247l0 0c0 12.7851715 -9.285706 23.149597 -20.740173 23.149597l0 0c-11.454468 0 -20.740112 -10.364426 -20.740112 -23.149597z" fill-rule="evenodd"/><path stroke="#000000" stroke-width="1.0" stroke-linejoin="round" stroke-linecap="butt" d="m755.6314 114.57179l0 0c0 -12.785179 9.285645 -23.149605 20.740112 -23.149605l0 0c5.5006714 0 10.776001 2.4389648 14.665527 6.7803574c3.8895264 4.3413925 6.074646 10.229591 6.074646 16.369247l0 0c0 12.7851715 -9.285706 23.149597 -20.740173 23.149597l0 0c-11.454468 0 -20.740112 -10.364426 -20.740112 -23.149597z" fill-rule="evenodd"/><path fill="#000000" fill-opacity="0.0" d="m755.62823 83.96227l41.480286 0l0 42.015747l-41.480286 0z" fill-rule="evenodd"/><path fill="#000000" d="m781.148 110.56977q0 0.109375 -0.046875 0.171875q-0.03125 0.0625 -0.171875 0.109375q-0.125 0.046875 -0.390625 0.0625q-0.265625 0.015625 -0.71875 0.015625q-0.390625 0 -0.625 -0.015625q-0.21875 -0.015625 -0.359375 -0.0625q-0.125 -0.046875 -0.1875 -0.125q-0.046875 -0.078125 -0.078125 -0.1875l-1.0625 -2.640625q-0.1875 -0.4375 -0.375 -0.78125q-0.171875 -0.359375 -0.40625 -0.578125q-0.21875 -0.234375 -0.515625 -0.34375q-0.28125 -0.125 -0.671875 -0.125l-0.734375 0l0 4.484375q0 0.09375 -0.0625 0.171875q-0.0625 0.0625 -0.203125 0.109375q-0.140625 0.046875 -0.375 0.0625q-0.21875 0.03125 -0.5625 0.03125q-0.359375 0 -0.59375 -0.03125q-0.21875 -0.015625 -0.359375 -0.0625q-0.140625 -0.046875 -0.203125 -0.109375q-0.046875 -0.078125 -0.046875 -0.171875l0 -10.703125q0 -0.40625 0.203125 -0.578125q0.203125 -0.171875 0.515625 -0.171875l3.046875 0q0.46875 0 0.765625 0.015625q0.296875 0.015625 0.546875 0.046875q0.703125 0.09375 1.265625 0.34375q0.578125 0.25 0.96875 0.640625q0.40625 0.390625 0.609375 0.9375q0.21875 0.546875 0.21875 1.25q0 0.578125 -0.15625 1.078125q-0.140625 0.484375 -0.4375 0.875q-0.296875 0.375 -0.734375 0.65625q-0.421875 0.28125 -0.96875 0.453125q0.265625 0.125 0.5 0.3125q0.234375 0.1875 0.4375 0.453125q0.203125 0.25 0.390625 0.578125q0.1875 0.328125 0.359375 0.75l0.984375 2.328125q0.140625 0.34375 0.1875 0.5q0.046875 0.15625 0.046875 0.25zm-3.09375 -8.0q0 -0.578125 -0.265625 -0.96875q-0.265625 -0.40625 -0.859375 -0.578125q-0.1875 -0.046875 -0.421875 -0.0625q-0.21875 -0.03125 -0.640625 -0.03125l-1.0625 0l0 3.34375l1.21875 0q0.5 0 0.875 -0.125q0.390625 -0.125 0.640625 -0.34375q0.265625 -0.234375 0.390625 -0.53125q0.125 -0.3125 0.125 -0.703125z" fill-rule="nonzero"/><path fill="#dd7e6b" d="m212.25153 306.6049l140.40945 0l0 68.724396l-140.40945 0z" fill-rule="evenodd"/><path stroke="#000000" stroke-width="2.0" stroke-linejoin="round" stroke-linecap="butt" d="m212.25153 306.6049l140.40945 0l0 68.724396l-140.40945 0z" fill-rule="evenodd"/><path fill="#000000" fill-opacity="0.0" d="m239.32152 308.65094l86.267715 0l0 64.62991l-86.267715 0z" fill-rule="evenodd"/><path fill="#000000" d="m272.6537 333.78967q0 0.21875 -0.015625 0.390625q-0.015625 0.15625 -0.046875 0.265625q-0.015625 0.109375 -0.0625 0.203125q-0.046875 0.078125 -0.15625 0.1875q-0.09375 0.09375 -0.390625 0.265625q-0.28125 0.15625 -0.703125 0.3125q-0.40625 0.140625 -0.9375 0.234375q-0.53125 0.109375 -1.15625 0.109375q-1.203125 0 -2.1875 -0.375q-0.96875 -0.375 -1.65625 -1.109375q-0.671875 -0.75 -1.046875 -1.859375q-0.359375 -1.109375 -0.359375 -2.578125q0 -1.5 0.390625 -2.671875q0.40625 -1.171875 1.125 -1.953125q0.71875 -0.796875 1.71875 -1.203125q1.015625 -0.421875 2.234375 -0.421875q0.484375 0 0.9375 0.09375q0.46875 0.078125 0.84375 0.21875q0.390625 0.125 0.703125 0.296875q0.3125 0.171875 0.4375 0.296875q0.125 0.125 0.15625 0.203125q0.046875 0.078125 0.078125 0.203125q0.03125 0.125 0.046875 0.3125q0.015625 0.171875 0.015625 0.421875q0 0.265625 -0.03125 0.46875q-0.015625 0.1875 -0.0625 0.3125q-0.03125 0.109375 -0.109375 0.171875q-0.0625 0.046875 -0.140625 0.046875q-0.140625 0 -0.34375 -0.15625q-0.203125 -0.15625 -0.546875 -0.34375q-0.328125 -0.203125 -0.796875 -0.359375q-0.453125 -0.171875 -1.09375 -0.171875q-0.703125 0 -1.25 0.296875q-0.546875 0.28125 -0.9375 0.8125q-0.390625 0.53125 -0.59375 1.296875q-0.1875 0.75 -0.1875 1.703125q0 1.03125 0.203125 1.796875q0.21875 0.75 0.609375 1.25q0.40625 0.484375 0.953125 0.734375q0.5625 0.234375 1.265625 0.234375q0.640625 0 1.109375 -0.140625q0.46875 -0.15625 0.796875 -0.328125q0.328125 -0.1875 0.546875 -0.328125q0.21875 -0.15625 0.328125 -0.15625q0.09375 0 0.140625 0.046875q0.0625 0.03125 0.09375 0.140625q0.046875 0.109375 0.0625 0.3125q0.015625 0.1875 0.015625 0.515625zm9.79657 -2.671875q0 1.03125 -0.28125 1.890625q-0.265625 0.859375 -0.828125 1.484375q-0.546875 0.609375 -1.390625 0.953125q-0.828125 0.328125 -1.953125 0.328125q-1.078125 0 -1.890625 -0.296875q-0.796875 -0.296875 -1.328125 -0.875q-0.515625 -0.578125 -0.78125 -1.40625q-0.25 -0.84375 -0.25 -1.921875q0 -1.03125 0.28125 -1.890625q0.28125 -0.859375 0.828125 -1.46875q0.5625 -0.625 1.390625 -0.953125q0.828125 -0.34375 1.953125 -0.34375q1.09375 0 1.890625 0.296875q0.8125 0.296875 1.328125 0.875q0.53125 0.5625 0.78125 1.40625q0.25 0.84375 0.25 1.921875zm-2.359375 0.09375q0 -0.609375 -0.09375 -1.109375q-0.09375 -0.5 -0.328125 -0.875q-0.21875 -0.375 -0.59375 -0.578125q-0.375 -0.21875 -0.953125 -0.21875q-0.515625 0 -0.90625 0.1875q-0.375 0.1875 -0.625 0.546875q-0.234375 0.359375 -0.359375 0.875q-0.125 0.5 -0.125 1.140625q0 0.59375 0.09375 1.109375q0.109375 0.5 0.328125 0.875q0.21875 0.375 0.59375 0.578125q0.390625 0.203125 0.953125 0.203125q0.53125 0 0.90625 -0.1875q0.390625 -0.1875 0.625 -0.53125q0.25 -0.359375 0.359375 -0.859375q0.125 -0.515625 0.125 -1.15625zm11.935822 4.046875q0 0.09375 -0.0625 0.171875q-0.046875 0.0625 -0.171875 0.109375q-0.125 0.046875 -0.359375 0.0625q-0.21875 0.015625 -0.546875 0.015625q-0.328125 0 -0.5625 -0.015625q-0.21875 -0.015625 -0.34375 -0.0625q-0.125 -0.046875 -0.1875 -0.109375q-0.046875 -0.078125 -0.046875 -0.171875l0 -4.640625q0 -0.578125 -0.09375 -0.921875q-0.078125 -0.34375 -0.25 -0.578125q-0.15625 -0.25 -0.421875 -0.375q-0.25 -0.125 -0.609375 -0.125q-0.4375 0 -0.890625 0.3125q-0.4375 0.3125 -0.921875 0.921875l0 5.40625q0 0.09375 -0.0625 0.171875q-0.046875 0.0625 -0.1875 0.109375q-0.125 0.046875 -0.34375 0.0625q-0.21875 0.015625 -0.546875 0.015625q-0.34375 0 -0.5625 -0.015625q-0.21875 -0.015625 -0.359375 -0.0625q-0.125 -0.046875 -0.1875 -0.109375q-0.046875 -0.078125 -0.046875 -0.171875l0 -8.125q0 -0.09375 0.046875 -0.15625q0.046875 -0.0625 0.15625 -0.109375q0.125 -0.046875 0.3125 -0.0625q0.1875 -0.03125 0.46875 -0.03125q0.296875 0 0.484375 0.03125q0.203125 0.015625 0.296875 0.0625q0.109375 0.046875 0.15625 0.109375q0.046875 0.0625 0.046875 0.15625l0 0.9375q0.671875 -0.71875 1.359375 -1.078125q0.703125 -0.375 1.46875 -0.375q0.828125 0 1.390625 0.28125q0.5625 0.265625 0.90625 0.734375q0.359375 0.46875 0.515625 1.09375q0.15625 0.625 0.15625 1.515625l0 5.015625zm9.465759 -8.125q0 0.03125 0 0.109375q0 0.0625 -0.015625 0.140625q-0.015625 0.078125 -0.046875 0.171875q-0.015625 0.09375 -0.046875 0.234375l-2.453125 7.34375q-0.046875 0.15625 -0.125 0.25q-0.078125 0.09375 -0.25 0.15625q-0.171875 0.046875 -0.484375 0.0625q-0.296875 0.015625 -0.796875 0.015625q-0.484375 0 -0.796875 -0.015625q-0.296875 -0.015625 -0.46875 -0.0625q-0.171875 -0.0625 -0.25 -0.15625q-0.078125 -0.109375 -0.125 -0.25l-2.4375 -7.34375q-0.0625 -0.1875 -0.09375 -0.328125q-0.03125 -0.15625 -0.03125 -0.21875q0 -0.0625 0 -0.109375q0 -0.09375 0.046875 -0.15625q0.046875 -0.078125 0.171875 -0.125q0.140625 -0.046875 0.359375 -0.0625q0.21875 -0.015625 0.5625 -0.015625q0.375 0 0.59375 0.03125q0.234375 0.015625 0.359375 0.0625q0.140625 0.03125 0.1875 0.109375q0.0625 0.078125 0.09375 0.1875l1.84375 5.96875l0.0625 0.21875l0.046875 -0.21875l1.828125 -5.96875q0.03125 -0.109375 0.078125 -0.1875q0.0625 -0.078125 0.1875 -0.109375q0.140625 -0.046875 0.34375 -0.0625q0.21875 -0.03125 0.5625 -0.03125q0.34375 0 0.546875 0.015625q0.21875 0.015625 0.328125 0.0625q0.125 0.046875 0.171875 0.125q0.046875 0.0625 0.046875 0.15625z" fill-rule="nonzero"/><path fill="#000000" d="m276.94763 357.06467q0 0.25 -0.03125 0.4375q-0.015625 0.171875 -0.078125 0.28125q-0.046875 0.09375 -0.109375 0.140625q-0.0625 0.046875 -0.140625 0.046875l-6.5 0q-0.078125 0 -0.140625 -0.046875q-0.0625 -0.046875 -0.109375 -0.140625q-0.046875 -0.109375 -0.078125 -0.28125q-0.03125 -0.1875 -0.03125 -0.4375q0 -0.265625 0.015625 -0.4375q0.03125 -0.1875 0.078125 -0.296875q0.046875 -0.109375 0.109375 -0.15625q0.078125 -0.046875 0.15625 -0.046875l2.1875 0l0 -7.671875l-1.890625 1.046875q-0.203125 0.09375 -0.34375 0.125q-0.125 0.015625 -0.203125 -0.0625q-0.078125 -0.078125 -0.109375 -0.265625q-0.03125 -0.1875 -0.03125 -0.53125q0 -0.21875 0 -0.359375q0.015625 -0.140625 0.046875 -0.234375q0.046875 -0.109375 0.109375 -0.171875q0.0625 -0.0625 0.171875 -0.140625l2.53125 -1.640625q0.046875 -0.03125 0.109375 -0.046875q0.078125 -0.03125 0.1875 -0.046875q0.109375 -0.015625 0.28125 -0.015625q0.1875 -0.015625 0.46875 -0.015625q0.34375 0 0.546875 0.015625q0.21875 0.015625 0.328125 0.046875q0.109375 0.03125 0.140625 0.09375q0.046875 0.046875 0.046875 0.125l0 9.75l1.921875 0q0.078125 0 0.140625 0.046875q0.078125 0.046875 0.125 0.15625q0.046875 0.109375 0.0625 0.296875q0.03125 0.171875 0.03125 0.4375zm8.690033 -7.640625q0.171875 0.0625 0.15625 0.28125q0 0.21875 -0.265625 0.671875q-0.265625 0.453125 -0.453125 0.5625q-0.171875 0.109375 -0.328125 0l-1.8125 -1.453125l0.375 2.296875q0.03125 0.1875 -0.171875 0.296875q-0.1875 0.09375 -0.71875 0.09375q-0.53125 0 -0.734375 -0.09375q-0.1875 -0.109375 -0.15625 -0.296875l0.375 -2.296875l-1.8125 1.453125q-0.140625 0.109375 -0.328125 0q-0.171875 -0.125 -0.453125 -0.578125q-0.265625 -0.4375 -0.28125 -0.65625q0 -0.21875 0.171875 -0.28125l2.171875 -0.84375l-2.171875 -0.84375q-0.171875 -0.0625 -0.171875 -0.28125q0.015625 -0.21875 0.28125 -0.671875q0.265625 -0.453125 0.453125 -0.5625q0.1875 -0.125 0.328125 0l1.8125 1.453125l-0.375 -2.296875q-0.03125 -0.171875 0.15625 -0.28125q0.203125 -0.109375 0.734375 -0.109375q0.53125 0 0.71875 0.109375q0.203125 0.109375 0.171875 0.28125l-0.375 2.296875l1.8125 -1.453125q0.15625 -0.125 0.328125 0q0.171875 0.109375 0.453125 0.578125q0.265625 0.4375 0.265625 0.65625q0.015625 0.21875 -0.15625 0.28125l-2.15625 0.84375l2.15625 0.84375zm10.057312 7.640625q0 0.25 -0.03125 0.4375q-0.015625 0.171875 -0.078125 0.28125q-0.046875 0.09375 -0.109375 0.140625q-0.0625 0.046875 -0.140625 0.046875l-6.5 0q-0.078125 0 -0.140625 -0.046875q-0.0625 -0.046875 -0.109375 -0.140625q-0.046875 -0.109375 -0.078125 -0.28125q-0.03125 -0.1875 -0.03125 -0.4375q0 -0.265625 0.015625 -0.4375q0.03125 -0.1875 0.078125 -0.296875q0.046875 -0.109375 0.109375 -0.15625q0.078125 -0.046875 0.15625 -0.046875l2.1875 0l0 -7.671875l-1.890625 1.046875q-0.203125 0.09375 -0.34375 0.125q-0.125 0.015625 -0.203125 -0.0625q-0.078125 -0.078125 -0.109375 -0.265625q-0.03125 -0.1875 -0.03125 -0.53125q0 -0.21875 0 -0.359375q0.015625 -0.140625 0.046875 -0.234375q0.046875 -0.109375 0.109375 -0.171875q0.0625 -0.0625 0.171875 -0.140625l2.53125 -1.640625q0.046875 -0.03125 0.109375 -0.046875q0.078125 -0.03125 0.1875 -0.046875q0.109375 -0.015625 0.28125 -0.015625q0.1875 -0.015625 0.46875 -0.015625q0.34375 0 0.546875 0.015625q0.21875 0.015625 0.328125 0.046875q0.109375 0.03125 0.140625 0.09375q0.046875 0.046875 0.046875 0.125l0 9.75l1.921875 0q0.078125 0 0.140625 0.046875q0.078125 0.046875 0.125 0.15625q0.046875 0.109375 0.0625 0.296875q0.03125 0.171875 0.03125 0.4375z" fill-rule="nonzero"/><path fill="#f1c232" d="m326.865 308.2306l0 0c0 -12.785187 9.285675 -23.149628 20.740143 -23.149628l0 0c5.500641 0 10.77597 2.4389954 14.665497 6.780365c3.889557 4.3414 6.074646 10.229584 6.074646 16.369263l0 0c0 12.785156 -9.285675 23.149597 -20.740143 23.149597l0 0c-11.454468 0 -20.740143 -10.364441 -20.740143 -23.149597z" fill-rule="evenodd"/><path stroke="#000000" stroke-width="1.0" stroke-linejoin="round" stroke-linecap="butt" d="m326.865 308.2306l0 0c0 -12.785187 9.285675 -23.149628 20.740143 -23.149628l0 0c5.500641 0 10.77597 2.4389954 14.665497 6.780365c3.889557 4.3414 6.074646 10.229584 6.074646 16.369263l0 0c0 12.785156 -9.285675 23.149597 -20.740143 23.149597l0 0c-11.454468 0 -20.740143 -10.364441 -20.740143 -23.149597z" fill-rule="evenodd"/><path fill="#000000" fill-opacity="0.0" d="m326.86182 277.62106l41.480316 0l0 42.015747l-41.480316 0z" fill-rule="evenodd"/><path fill="#000000" d="m352.3816 304.22858q0 0.109375 -0.046875 0.171875q-0.03125 0.0625 -0.171875 0.109375q-0.125 0.046875 -0.390625 0.0625q-0.265625 0.015625 -0.71875 0.015625q-0.390625 0 -0.625 -0.015625q-0.21875 -0.015625 -0.359375 -0.0625q-0.125 -0.046875 -0.1875 -0.125q-0.046875 -0.078125 -0.078125 -0.1875l-1.0625 -2.640625q-0.1875 -0.4375 -0.375 -0.78125q-0.171875 -0.359375 -0.40625 -0.578125q-0.21875 -0.234375 -0.515625 -0.34375q-0.28125 -0.125 -0.671875 -0.125l-0.734375 0l0 4.484375q0 0.09375 -0.0625 0.171875q-0.0625 0.0625 -0.203125 0.109375q-0.140625 0.046875 -0.375 0.0625q-0.21875 0.03125 -0.5625 0.03125q-0.359375 0 -0.59375 -0.03125q-0.21875 -0.015625 -0.359375 -0.0625q-0.140625 -0.046875 -0.203125 -0.109375q-0.046875 -0.078125 -0.046875 -0.171875l0 -10.703125q0 -0.40625 0.203125 -0.578125q0.203125 -0.171875 0.515625 -0.171875l3.046875 0q0.46875 0 0.765625 0.015625q0.296875 0.015625 0.546875 0.046875q0.703125 0.09375 1.265625 0.34375q0.578125 0.25 0.96875 0.640625q0.40625 0.390625 0.609375 0.9375q0.21875 0.546875 0.21875 1.25q0 0.578125 -0.15625 1.078125q-0.140625 0.484375 -0.4375 0.875q-0.296875 0.375 -0.734375 0.65625q-0.421875 0.28125 -0.96875 0.453125q0.265625 0.125 0.5 0.3125q0.234375 0.1875 0.4375 0.453125q0.203125 0.25 0.390625 0.578125q0.1875 0.328125 0.359375 0.75l0.984375 2.328125q0.140625 0.34375 0.1875 0.5q0.046875 0.15625 0.046875 0.25zm-3.09375 -8.0q0 -0.578125 -0.265625 -0.96875q-0.265625 -0.40625 -0.859375 -0.578125q-0.1875 -0.046875 -0.421875 -0.0625q-0.21875 -0.03125 -0.640625 -0.03125l-1.0625 0l0 3.34375l1.21875 0q0.5 0 0.875 -0.125q0.390625 -0.125 0.640625 -0.34375q0.265625 -0.234375 0.390625 -0.53125q0.125 -0.3125 0.125 -0.703125z" fill-rule="nonzero"/><path fill="#000000" fill-opacity="0.0" d="m103.53761 142.98021l109.22835 0.5984192" fill-rule="evenodd"/><path stroke="#000000" stroke-width="2.0" stroke-linejoin="round" stroke-linecap="butt" d="m103.537605 142.98021l97.22854 0.5326843" fill-rule="evenodd"/><path fill="#000000" stroke="#000000" stroke-width="2.0" stroke-linecap="butt" d="m200.74803 146.8163l9.094162 -3.2536926l-9.057968 -3.3531342z" fill-rule="evenodd"/><path fill="#000000" fill-opacity="0.0" d="m140.18854 143.89621l0 197.07086l72.06299 0" fill-rule="evenodd"/><path stroke="#000000" stroke-width="2.0" stroke-linejoin="round" stroke-linecap="butt" d="m140.18854 143.89621l0 197.07086l72.06299 0" fill-rule="evenodd"/><path fill="#000000" fill-opacity="0.0" d="m776.70557 143.57863l117.44885 -0.5984192" fill-rule="evenodd"/><path stroke="#000000" stroke-width="2.0" stroke-linejoin="round" stroke-linecap="butt" d="m776.7056 143.57863l105.448975 -0.5372772" fill-rule="evenodd"/><path fill="#000000" stroke="#000000" stroke-width="2.0" stroke-linecap="butt" d="m882.17145 146.34477l9.059204 -3.3496704l-9.0928955 -3.257187z" fill-rule="evenodd"/><path fill="#000000" fill-opacity="0.0" d="m352.66098 340.96707l233.8425 0l0 -0.12597656l233.84253 0" fill-rule="evenodd"/><path stroke="#000000" stroke-width="2.0" stroke-linejoin="round" stroke-linecap="butt" d="m352.66098 340.96707l233.8425 0l0 -0.12597656l233.84253 0" fill-rule="evenodd"/><path fill="#000000" fill-opacity="0.0" d="m820.853 340.85828l0 -99.40158l0.06298828 0l0 -99.40158" fill-rule="evenodd"/><path stroke="#000000" stroke-width="2.0" stroke-linejoin="round" stroke-linecap="butt" d="m820.853 340.85828l0 -99.40158l0.06298828 0l0 -99.40158" fill-rule="evenodd"/><path fill="#000000" fill-opacity="0.0" d="m427.7953 196.71391l163.05511 0l0 109.889755l-163.05511 0z" fill-rule="evenodd"/><path fill="#000000" d="m510.67514 222.32141q0 0.84375 -0.296875 1.140625q-0.296875 0.296875 -1.0625 0.296875q-0.765625 0 -1.0625 -0.28125q-0.28125 -0.296875 -0.28125 -1.09375q0 -0.859375 0.296875 -1.15625q0.296875 -0.296875 1.0625 -0.296875q0.765625 0 1.046875 0.296875q0.296875 0.28125 0.296875 1.09375z" fill-rule="nonzero"/><path fill="#000000" d="m510.67514 244.7214q0 0.84375 -0.296875 1.140625q-0.296875 0.296875 -1.0625 0.296875q-0.765625 0 -1.0625 -0.28125q-0.28125 -0.296875 -0.28125 -1.09375q0 -0.859375 0.296875 -1.15625q0.296875 -0.296875 1.0625 -0.296875q0.765625 0 1.046875 0.296875q0.296875 0.28125 0.296875 1.09375z" fill-rule="nonzero"/><path fill="#000000" d="m510.67514 267.1214q0 0.84375 -0.296875 1.140625q-0.296875 0.296875 -1.0625 0.296875q-0.765625 0 -1.0625 -0.28125q-0.28125 -0.296875 -0.28125 -1.09375q0 -0.859375 0.296875 -1.15625q0.296875 -0.296875 1.0625 -0.296875q0.765625 0 1.046875 0.296875q0.296875 0.28125 0.296875 1.09375z" fill-rule="nonzero"/><path fill="#000000" d="m453.13245 289.94327q0.109375 0.328125 0.140625 0.515625q0.03125 0.1875 -0.078125 0.296875q-0.09375 0.09375 -0.359375 0.109375q-0.25 0.015625 -0.6875 0.015625q-0.46875 0 -0.734375 -0.015625q-0.25 0 -0.390625 -0.03125q-0.140625 -0.046875 -0.203125 -0.125q-0.046875 -0.078125 -0.078125 -0.1875l-0.796875 -2.375l-4.421875 0l-0.75 2.3125q-0.03125 0.125 -0.09375 0.21875q-0.0625 0.078125 -0.203125 0.125q-0.125 0.046875 -0.375 0.0625q-0.234375 0.015625 -0.625 0.015625q-0.421875 0 -0.65625 -0.03125q-0.234375 -0.015625 -0.328125 -0.109375q-0.09375 -0.109375 -0.0625 -0.296875q0.03125 -0.203125 0.140625 -0.515625l3.640625 -10.46875q0.046875 -0.15625 0.109375 -0.25q0.078125 -0.09375 0.234375 -0.140625q0.171875 -0.046875 0.453125 -0.0625q0.28125 -0.015625 0.75 -0.015625q0.53125 0 0.84375 0.015625q0.328125 0.015625 0.5 0.0625q0.1875 0.046875 0.25 0.15625q0.078125 0.09375 0.140625 0.265625l3.640625 10.453125zm-5.40625 -8.640625l-0.015625 0l-1.65625 5.0l3.34375 0l-1.671875 -5.0zm14.679901 9.21875q0 0.09375 -0.0625 0.171875q-0.046875 0.0625 -0.171875 0.109375q-0.125 0.046875 -0.359375 0.0625q-0.21875 0.015625 -0.546875 0.015625q-0.328125 0 -0.5625 -0.015625q-0.21875 -0.015625 -0.34375 -0.0625q-0.125 -0.046875 -0.1875 -0.109375q-0.046875 -0.078125 -0.046875 -0.171875l0 -4.640625q0 -0.578125 -0.09375 -0.921875q-0.078125 -0.34375 -0.25 -0.578125q-0.15625 -0.25 -0.421875 -0.375q-0.25 -0.125 -0.609375 -0.125q-0.4375 0 -0.890625 0.3125q-0.4375 0.3125 -0.921875 0.921875l0 5.40625q0 0.09375 -0.0625 0.171875q-0.046875 0.0625 -0.1875 0.109375q-0.125 0.046875 -0.34375 0.0625q-0.21875 0.015625 -0.546875 0.015625q-0.34375 0 -0.5625 -0.015625q-0.21875 -0.015625 -0.359375 -0.0625q-0.125 -0.046875 -0.1875 -0.109375q-0.046875 -0.078125 -0.046875 -0.171875l0 -8.125q0 -0.09375 0.046875 -0.15625q0.046875 -0.0625 0.15625 -0.109375q0.125 -0.046875 0.3125 -0.0625q0.1875 -0.03125 0.46875 -0.03125q0.296875 0 0.484375 0.03125q0.203125 0.015625 0.296875 0.0625q0.109375 0.046875 0.15625 0.109375q0.046875 0.0625 0.046875 0.15625l0 0.9375q0.671875 -0.71875 1.359375 -1.078125q0.703125 -0.375 1.46875 -0.375q0.828125 0 1.390625 0.28125q0.5625 0.265625 0.90625 0.734375q0.359375 0.46875 0.515625 1.09375q0.15625 0.625 0.15625 1.515625l0 5.015625zm10.464447 -4.140625q0 1.03125 -0.28125 1.890625q-0.265625 0.859375 -0.828125 1.484375q-0.546875 0.609375 -1.390625 0.953125q-0.828125 0.328125 -1.953125 0.328125q-1.078125 0 -1.890625 -0.296875q-0.796875 -0.296875 -1.328125 -0.875q-0.515625 -0.578125 -0.78125 -1.40625q-0.25 -0.84375 -0.25 -1.921875q0 -1.03125 0.28125 -1.890625q0.28125 -0.859375 0.828125 -1.46875q0.5625 -0.625 1.390625 -0.953125q0.828125 -0.34375 1.953125 -0.34375q1.09375 0 1.890625 0.296875q0.8125 0.296875 1.328125 0.875q0.53125 0.5625 0.78125 1.40625q0.25 0.84375 0.25 1.921875zm-2.359375 0.09375q0 -0.609375 -0.09375 -1.109375q-0.09375 -0.5 -0.328125 -0.875q-0.21875 -0.375 -0.59375 -0.578125q-0.375 -0.21875 -0.953125 -0.21875q-0.515625 0 -0.90625 0.1875q-0.375 0.1875 -0.625 0.546875q-0.234375 0.359375 -0.359375 0.875q-0.125 0.5 -0.125 1.140625q0 0.59375 0.09375 1.109375q0.109375 0.5 0.328125 0.875q0.21875 0.375 0.59375 0.578125q0.390625 0.203125 0.953125 0.203125q0.53125 0 0.90625 -0.1875q0.390625 -0.1875 0.625 -0.53125q0.25 -0.359375 0.359375 -0.859375q0.125 -0.515625 0.125 -1.15625zm8.982697 3.25q0 0.40625 -0.046875 0.625q-0.046875 0.203125 -0.140625 0.296875q-0.078125 0.078125 -0.234375 0.15625q-0.15625 0.0625 -0.375 0.109375q-0.203125 0.046875 -0.453125 0.078125q-0.25 0.03125 -0.515625 0.03125q-0.6875 0 -1.1875 -0.171875q-0.5 -0.171875 -0.828125 -0.53125q-0.328125 -0.375 -0.484375 -0.921875q-0.140625 -0.546875 -0.140625 -1.28125l0 -4.171875l-0.984375 0q-0.171875 0 -0.265625 -0.203125q-0.09375 -0.21875 -0.09375 -0.71875q0 -0.265625 0.015625 -0.4375q0.03125 -0.1875 0.078125 -0.296875q0.046875 -0.109375 0.109375 -0.15625q0.078125 -0.046875 0.171875 -0.046875l0.96875 0l0 -1.8125q0 -0.09375 0.046875 -0.15625q0.046875 -0.078125 0.171875 -0.125q0.140625 -0.046875 0.359375 -0.0625q0.21875 -0.03125 0.546875 -0.03125q0.34375 0 0.5625 0.03125q0.234375 0.015625 0.359375 0.0625q0.125 0.046875 0.171875 0.125q0.0625 0.0625 0.0625 0.15625l0 1.8125l1.765625 0q0.09375 0 0.15625 0.046875q0.078125 0.046875 0.109375 0.15625q0.046875 0.109375 0.0625 0.296875q0.03125 0.171875 0.03125 0.4375q0 0.5 -0.09375 0.71875q-0.078125 0.203125 -0.25 0.203125l-1.78125 0l0 3.828125q0 0.65625 0.203125 1.0q0.21875 0.328125 0.75 0.328125q0.1875 0 0.328125 -0.03125q0.140625 -0.03125 0.25 -0.078125q0.125 -0.046875 0.203125 -0.078125q0.078125 -0.03125 0.140625 -0.03125q0.046875 0 0.09375 0.03125q0.0625 0.03125 0.078125 0.140625q0.03125 0.09375 0.046875 0.265625q0.03125 0.15625 0.03125 0.40625zm9.420868 0.796875q0 0.09375 -0.0625 0.171875q-0.046875 0.0625 -0.171875 0.109375q-0.125 0.046875 -0.359375 0.0625q-0.21875 0.015625 -0.546875 0.015625q-0.328125 0 -0.5625 -0.015625q-0.21875 -0.015625 -0.34375 -0.0625q-0.125 -0.046875 -0.1875 -0.109375q-0.046875 -0.078125 -0.046875 -0.171875l0 -4.640625q0 -0.578125 -0.09375 -0.921875q-0.078125 -0.34375 -0.25 -0.578125q-0.15625 -0.25 -0.421875 -0.375q-0.25 -0.125 -0.609375 -0.125q-0.4375 0 -0.890625 0.3125q-0.4375 0.3125 -0.921875 0.921875l0 5.40625q0 0.09375 -0.0625 0.171875q-0.046875 0.0625 -0.1875 0.109375q-0.125 0.046875 -0.34375 0.0625q-0.21875 0.015625 -0.546875 0.015625q-0.34375 0 -0.5625 -0.015625q-0.21875 -0.015625 -0.359375 -0.0625q-0.125 -0.046875 -0.1875 -0.109375q-0.046875 -0.078125 -0.046875 -0.171875l0 -11.96875q0 -0.09375 0.046875 -0.171875q0.0625 -0.078125 0.1875 -0.125q0.140625 -0.046875 0.359375 -0.078125q0.21875 -0.03125 0.5625 -0.03125q0.328125 0 0.546875 0.03125q0.21875 0.03125 0.34375 0.078125q0.140625 0.046875 0.1875 0.125q0.0625 0.078125 0.0625 0.171875l0 4.484375q0.59375 -0.578125 1.203125 -0.859375q0.625 -0.296875 1.296875 -0.296875q0.828125 0 1.390625 0.28125q0.5625 0.265625 0.90625 0.75q0.359375 0.46875 0.515625 1.109375q0.15625 0.625 0.15625 1.515625l0 4.984375zm9.761322 -4.296875q0 0.421875 -0.1875 0.625q-0.1875 0.1875 -0.515625 0.1875l-4.953125 0q0 0.53125 0.125 0.953125q0.125 0.421875 0.390625 0.71875q0.28125 0.296875 0.703125 0.453125q0.421875 0.15625 1.015625 0.15625q0.59375 0 1.046875 -0.078125q0.453125 -0.09375 0.78125 -0.203125q0.34375 -0.109375 0.5625 -0.1875q0.21875 -0.09375 0.359375 -0.09375q0.078125 0 0.125 0.03125q0.0625 0.03125 0.09375 0.125q0.046875 0.078125 0.046875 0.234375q0.015625 0.140625 0.015625 0.359375q0 0.203125 -0.015625 0.34375q0 0.140625 -0.015625 0.25q-0.015625 0.09375 -0.0625 0.171875q-0.03125 0.0625 -0.09375 0.125q-0.046875 0.0625 -0.3125 0.171875q-0.265625 0.109375 -0.6875 0.21875q-0.40625 0.09375 -0.9375 0.171875q-0.515625 0.078125 -1.125 0.078125q-1.078125 0 -1.890625 -0.265625q-0.8125 -0.28125 -1.359375 -0.828125q-0.546875 -0.5625 -0.828125 -1.40625q-0.265625 -0.84375 -0.265625 -1.984375q0 -1.078125 0.28125 -1.953125q0.28125 -0.875 0.8125 -1.46875q0.546875 -0.609375 1.3125 -0.921875q0.78125 -0.328125 1.734375 -0.328125q1.03125 0 1.75 0.296875q0.71875 0.296875 1.1875 0.84375q0.46875 0.53125 0.6875 1.265625q0.21875 0.71875 0.21875 1.578125l0 0.359375zm-2.21875 -0.65625q0.015625 -0.96875 -0.40625 -1.515625q-0.40625 -0.546875 -1.265625 -0.546875q-0.4375 0 -0.765625 0.171875q-0.3125 0.15625 -0.53125 0.4375q-0.21875 0.265625 -0.328125 0.65625q-0.109375 0.375 -0.140625 0.796875l3.4375 0zm9.329407 -2.40625q0 0.328125 -0.03125 0.53125q-0.015625 0.203125 -0.046875 0.328125q-0.03125 0.109375 -0.09375 0.15625q-0.0625 0.046875 -0.15625 0.046875q-0.078125 0 -0.171875 -0.03125q-0.078125 -0.03125 -0.203125 -0.0625q-0.109375 -0.03125 -0.25 -0.0625q-0.125 -0.046875 -0.296875 -0.046875q-0.1875 0 -0.375 0.078125q-0.1875 0.078125 -0.40625 0.25q-0.203125 0.15625 -0.421875 0.4375q-0.21875 0.265625 -0.484375 0.671875l0 5.0625q0 0.09375 -0.0625 0.171875q-0.046875 0.0625 -0.1875 0.109375q-0.125 0.046875 -0.34375 0.0625q-0.21875 0.015625 -0.546875 0.015625q-0.34375 0 -0.5625 -0.015625q-0.21875 -0.015625 -0.359375 -0.0625q-0.125 -0.046875 -0.1875 -0.109375q-0.046875 -0.078125 -0.046875 -0.171875l0 -8.125q0 -0.09375 0.046875 -0.15625q0.046875 -0.0625 0.15625 -0.109375q0.125 -0.046875 0.3125 -0.0625q0.1875 -0.03125 0.46875 -0.03125q0.296875 0 0.484375 0.03125q0.203125 0.015625 0.296875 0.0625q0.109375 0.046875 0.15625 0.109375q0.046875 0.0625 0.046875 0.15625l0 1.015625q0.3125 -0.453125 0.59375 -0.75q0.28125 -0.296875 0.53125 -0.46875q0.265625 -0.171875 0.515625 -0.234375q0.265625 -0.078125 0.515625 -0.078125q0.125 0 0.25 0.015625q0.140625 0.015625 0.28125 0.046875q0.15625 0.03125 0.265625 0.078125q0.109375 0.03125 0.15625 0.078125q0.046875 0.046875 0.0625 0.109375q0.03125 0.046875 0.046875 0.140625q0.015625 0.09375 0.03125 0.296875q0.015625 0.1875 0.015625 0.515625zm13.130646 4.21875q0 0.890625 -0.34375 1.578125q-0.328125 0.671875 -0.9375 1.140625q-0.59375 0.46875 -1.4375 0.703125q-0.84375 0.234375 -1.828125 0.234375q-0.609375 0 -1.140625 -0.09375q-0.515625 -0.078125 -0.921875 -0.203125q-0.40625 -0.125 -0.671875 -0.25q-0.265625 -0.140625 -0.34375 -0.21875q-0.078125 -0.078125 -0.125 -0.15625q-0.046875 -0.09375 -0.078125 -0.21875q-0.03125 -0.125 -0.046875 -0.3125q0 -0.1875 0 -0.453125q0 -0.4375 0.0625 -0.609375q0.078125 -0.171875 0.21875 -0.171875q0.09375 0 0.3125 0.125q0.234375 0.125 0.578125 0.265625q0.34375 0.140625 0.796875 0.265625q0.46875 0.125 1.0625 0.125q0.5 0 0.875 -0.109375q0.390625 -0.125 0.65625 -0.34375q0.28125 -0.21875 0.40625 -0.515625q0.140625 -0.3125 0.140625 -0.6875q0 -0.40625 -0.171875 -0.734375q-0.15625 -0.328125 -0.46875 -0.546875q-0.3125 -0.234375 -0.796875 -0.359375q-0.46875 -0.140625 -1.125 -0.140625l-1.015625 0q-0.109375 0 -0.203125 -0.03125q-0.078125 -0.03125 -0.140625 -0.125q-0.046875 -0.109375 -0.078125 -0.28125q-0.015625 -0.171875 -0.015625 -0.46875q0 -0.25 0.015625 -0.421875q0.03125 -0.171875 0.078125 -0.265625q0.046875 -0.09375 0.125 -0.125q0.078125 -0.03125 0.1875 -0.03125l1.03125 0q0.53125 0 0.9375 -0.125q0.421875 -0.125 0.6875 -0.34375q0.28125 -0.234375 0.421875 -0.5625q0.15625 -0.328125 0.15625 -0.71875q0 -0.296875 -0.109375 -0.5625q-0.09375 -0.265625 -0.296875 -0.453125q-0.1875 -0.203125 -0.5 -0.3125q-0.3125 -0.125 -0.734375 -0.125q-0.46875 0 -0.890625 0.140625q-0.421875 0.140625 -0.75 0.3125q-0.328125 0.171875 -0.5625 0.3125q-0.234375 0.140625 -0.34375 0.140625q-0.078125 0 -0.140625 -0.03125q-0.046875 -0.03125 -0.078125 -0.109375q-0.03125 -0.09375 -0.0625 -0.265625q-0.015625 -0.1875 -0.015625 -0.453125q0 -0.234375 0.015625 -0.375q0.015625 -0.15625 0.03125 -0.25q0.03125 -0.109375 0.0625 -0.171875q0.046875 -0.078125 0.140625 -0.15625q0.09375 -0.09375 0.375 -0.265625q0.28125 -0.171875 0.703125 -0.328125q0.4375 -0.171875 1.0 -0.28125q0.5625 -0.125 1.21875 -0.125q0.84375 0 1.5 0.203125q0.671875 0.203125 1.125 0.578125q0.453125 0.375 0.671875 0.9375q0.234375 0.546875 0.234375 1.234375q0 0.53125 -0.140625 1.0q-0.125 0.46875 -0.390625 0.84375q-0.265625 0.359375 -0.671875 0.609375q-0.390625 0.25 -0.90625 0.375l0 0.03125q0.625 0.078125 1.109375 0.328125q0.5 0.234375 0.84375 0.59375q0.34375 0.359375 0.515625 0.828125q0.1875 0.453125 0.1875 0.984375zm9.393188 2.546875q0 0.25 -0.03125 0.4375q-0.015625 0.171875 -0.078125 0.28125q-0.046875 0.09375 -0.109375 0.140625q-0.0625 0.046875 -0.140625 0.046875l-6.5 0q-0.078125 0 -0.140625 -0.046875q-0.0625 -0.046875 -0.109375 -0.140625q-0.046875 -0.109375 -0.078125 -0.28125q-0.03125 -0.1875 -0.03125 -0.4375q0 -0.265625 0.015625 -0.4375q0.03125 -0.1875 0.078125 -0.296875q0.046875 -0.109375 0.109375 -0.15625q0.078125 -0.046875 0.15625 -0.046875l2.1875 0l0 -7.671875l-1.890625 1.046875q-0.203125 0.09375 -0.34375 0.125q-0.125 0.015625 -0.203125 -0.0625q-0.078125 -0.078125 -0.109375 -0.265625q-0.03125 -0.1875 -0.03125 -0.53125q0 -0.21875 0 -0.359375q0.015625 -0.140625 0.046875 -0.234375q0.046875 -0.109375 0.109375 -0.171875q0.0625 -0.0625 0.171875 -0.140625l2.53125 -1.640625q0.046875 -0.03125 0.109375 -0.046875q0.078125 -0.03125 0.1875 -0.046875q0.109375 -0.015625 0.28125 -0.015625q0.1875 -0.015625 0.46875 -0.015625q0.34375 0 0.546875 0.015625q0.21875 0.015625 0.328125 0.046875q0.109375 0.03125 0.140625 0.09375q0.046875 0.046875 0.046875 0.125l0 9.75l1.921875 0q0.078125 0 0.140625 0.046875q0.078125 0.046875 0.125 0.15625q0.046875 0.109375 0.0625 0.296875q0.03125 0.171875 0.03125 0.4375zm11.032715 -0.203125q0 0.40625 -0.046875 0.625q-0.046875 0.203125 -0.140625 0.296875q-0.078125 0.078125 -0.234375 0.15625q-0.15625 0.0625 -0.375 0.109375q-0.203125 0.046875 -0.453125 0.078125q-0.25 0.03125 -0.515625 0.03125q-0.6875 0 -1.1875 -0.171875q-0.5 -0.171875 -0.828125 -0.53125q-0.328125 -0.375 -0.484375 -0.921875q-0.140625 -0.546875 -0.140625 -1.28125l0 -4.171875l-0.984375 0q-0.171875 0 -0.265625 -0.203125q-0.09375 -0.21875 -0.09375 -0.71875q0 -0.265625 0.015625 -0.4375q0.03125 -0.1875 0.078125 -0.296875q0.046875 -0.109375 0.109375 -0.15625q0.078125 -0.046875 0.171875 -0.046875l0.96875 0l0 -1.8125q0 -0.09375 0.046875 -0.15625q0.046875 -0.078125 0.171875 -0.125q0.140625 -0.046875 0.359375 -0.0625q0.21875 -0.03125 0.546875 -0.03125q0.34375 0 0.5625 0.03125q0.234375 0.015625 0.359375 0.0625q0.125 0.046875 0.171875 0.125q0.0625 0.0625 0.0625 0.15625l0 1.8125l1.765625 0q0.09375 0 0.15625 0.046875q0.078125 0.046875 0.109375 0.15625q0.046875 0.109375 0.0625 0.296875q0.03125 0.171875 0.03125 0.4375q0 0.5 -0.09375 0.71875q-0.078125 0.203125 -0.25 0.203125l-1.78125 0l0 3.828125q0 0.65625 0.203125 1.0q0.21875 0.328125 0.75 0.328125q0.1875 0 0.328125 -0.03125q0.140625 -0.03125 0.25 -0.078125q0.125 -0.046875 0.203125 -0.078125q0.078125 -0.03125 0.140625 -0.03125q0.046875 0 0.09375 0.03125q0.0625 0.03125 0.078125 0.140625q0.03125 0.09375 0.046875 0.265625q0.03125 0.15625 0.03125 0.40625zm3.9520874 0.796875q0 0.09375 -0.0625 0.171875q-0.046875 0.0625 -0.1875 0.109375q-0.125 0.046875 -0.34375 0.0625q-0.21875 0.015625 -0.546875 0.015625q-0.34375 0 -0.5625 -0.015625q-0.21875 -0.015625 -0.359375 -0.0625q-0.125 -0.046875 -0.1875 -0.109375q-0.046875 -0.078125 -0.046875 -0.171875l0 -8.109375q0 -0.09375 0.046875 -0.15625q0.0625 -0.0625 0.1875 -0.109375q0.140625 -0.0625 0.359375 -0.078125q0.21875 -0.03125 0.5625 -0.03125q0.328125 0 0.546875 0.03125q0.21875 0.015625 0.34375 0.078125q0.140625 0.046875 0.1875 0.109375q0.0625 0.0625 0.0625 0.15625l0 8.109375zm0.171875 -10.875q0 0.6875 -0.28125 0.953125q-0.28125 0.265625 -1.046875 0.265625q-0.765625 0 -1.046875 -0.25q-0.265625 -0.25 -0.265625 -0.921875q0 -0.6875 0.28125 -0.953125q0.28125 -0.28125 1.0625 -0.28125q0.75 0 1.015625 0.265625q0.28125 0.265625 0.28125 0.921875zm15.050842 10.875q0 0.09375 -0.0625 0.171875q-0.046875 0.0625 -0.1875 0.109375q-0.125 0.046875 -0.34375 0.0625q-0.21875 0.015625 -0.546875 0.015625q-0.34375 0 -0.5625 -0.015625q-0.21875 -0.015625 -0.359375 -0.0625q-0.125 -0.046875 -0.1875 -0.109375q-0.046875 -0.078125 -0.046875 -0.171875l0 -4.8125q0 -0.40625 -0.078125 -0.75q-0.0625 -0.34375 -0.234375 -0.578125q-0.15625 -0.25 -0.40625 -0.375q-0.234375 -0.125 -0.5625 -0.125q-0.421875 0 -0.84375 0.3125q-0.40625 0.3125 -0.90625 0.921875l0 5.40625q0 0.09375 -0.0625 0.171875q-0.046875 0.0625 -0.1875 0.109375q-0.125 0.046875 -0.34375 0.0625q-0.21875 0.015625 -0.546875 0.015625q-0.328125 0 -0.546875 -0.015625q-0.21875 -0.015625 -0.359375 -0.0625q-0.125 -0.046875 -0.1875 -0.109375q-0.046875 -0.078125 -0.046875 -0.171875l0 -4.8125q0 -0.40625 -0.078125 -0.75q-0.078125 -0.34375 -0.234375 -0.578125q-0.15625 -0.25 -0.40625 -0.375q-0.234375 -0.125 -0.5625 -0.125q-0.421875 0 -0.84375 0.3125q-0.421875 0.3125 -0.90625 0.921875l0 5.40625q0 0.09375 -0.0625 0.171875q-0.046875 0.0625 -0.1875 0.109375q-0.125 0.046875 -0.34375 0.0625q-0.21875 0.015625 -0.546875 0.015625q-0.34375 0 -0.5625 -0.015625q-0.21875 -0.015625 -0.359375 -0.0625q-0.125 -0.046875 -0.1875 -0.109375q-0.046875 -0.078125 -0.046875 -0.171875l0 -8.125q0 -0.09375 0.046875 -0.15625q0.046875 -0.0625 0.15625 -0.109375q0.125 -0.046875 0.3125 -0.0625q0.1875 -0.03125 0.46875 -0.03125q0.296875 0 0.484375 0.03125q0.203125 0.015625 0.296875 0.0625q0.109375 0.046875 0.15625 0.109375q0.046875 0.0625 0.046875 0.15625l0 0.9375q0.671875 -0.71875 1.34375 -1.078125q0.671875 -0.375 1.390625 -0.375q0.5 0 0.90625 0.109375q0.40625 0.09375 0.71875 0.296875q0.3125 0.1875 0.53125 0.46875q0.234375 0.265625 0.390625 0.609375q0.359375 -0.390625 0.703125 -0.671875q0.359375 -0.28125 0.703125 -0.453125q0.34375 -0.1875 0.6875 -0.265625q0.34375 -0.09375 0.6875 -0.09375q0.8125 0 1.359375 0.28125q0.5625 0.265625 0.90625 0.734375q0.34375 0.46875 0.484375 1.09375q0.15625 0.625 0.15625 1.328125l0 5.203125zm9.754578 -4.296875q0 0.421875 -0.1875 0.625q-0.1875 0.1875 -0.515625 0.1875l-4.953125 0q0 0.53125 0.125 0.953125q0.125 0.421875 0.390625 0.71875q0.28125 0.296875 0.703125 0.453125q0.421875 0.15625 1.015625 0.15625q0.59375 0 1.046875 -0.078125q0.453125 -0.09375 0.78125 -0.203125q0.34375 -0.109375 0.5625 -0.1875q0.21875 -0.09375 0.359375 -0.09375q0.078125 0 0.125 0.03125q0.0625 0.03125 0.09375 0.125q0.046875 0.078125 0.046875 0.234375q0.015625 0.140625 0.015625 0.359375q0 0.203125 -0.015625 0.34375q0 0.140625 -0.015625 0.25q-0.015625 0.09375 -0.0625 0.171875q-0.03125 0.0625 -0.09375 0.125q-0.046875 0.0625 -0.3125 0.171875q-0.265625 0.109375 -0.6875 0.21875q-0.40625 0.09375 -0.9375 0.171875q-0.515625 0.078125 -1.125 0.078125q-1.078125 0 -1.890625 -0.265625q-0.8125 -0.28125 -1.359375 -0.828125q-0.546875 -0.5625 -0.828125 -1.40625q-0.265625 -0.84375 -0.265625 -1.984375q0 -1.078125 0.28125 -1.953125q0.28125 -0.875 0.8125 -1.46875q0.546875 -0.609375 1.3125 -0.921875q0.78125 -0.328125 1.734375 -0.328125q1.03125 0 1.75 0.296875q0.71875 0.296875 1.1875 0.84375q0.46875 0.53125 0.6875 1.265625q0.21875 0.71875 0.21875 1.578125l0 0.359375zm-2.21875 -0.65625q0.015625 -0.96875 -0.40625 -1.515625q-0.40625 -0.546875 -1.265625 -0.546875q-0.4375 0 -0.765625 0.171875q-0.3125 0.15625 -0.53125 0.4375q-0.21875 0.265625 -0.328125 0.65625q-0.109375 0.375 -0.140625 0.796875l3.4375 0zm9.829346 2.65625q0 0.703125 -0.265625 1.234375q-0.265625 0.515625 -0.734375 0.875q-0.46875 0.359375 -1.125 0.53125q-0.640625 0.171875 -1.390625 0.171875q-0.46875 0 -0.890625 -0.0625q-0.40625 -0.0625 -0.734375 -0.171875q-0.328125 -0.109375 -0.546875 -0.21875q-0.21875 -0.109375 -0.3125 -0.203125q-0.09375 -0.09375 -0.15625 -0.296875q-0.046875 -0.203125 -0.046875 -0.609375q0 -0.265625 0.015625 -0.421875q0.015625 -0.15625 0.046875 -0.25q0.046875 -0.09375 0.09375 -0.125q0.0625 -0.046875 0.140625 -0.046875q0.09375 0 0.28125 0.125q0.203125 0.109375 0.5 0.25q0.296875 0.140625 0.671875 0.265625q0.390625 0.109375 0.890625 0.109375q0.296875 0 0.53125 -0.0625q0.25 -0.0625 0.421875 -0.1875q0.1875 -0.125 0.28125 -0.296875q0.09375 -0.1875 0.09375 -0.421875q0 -0.28125 -0.171875 -0.46875q-0.171875 -0.203125 -0.453125 -0.34375q-0.265625 -0.140625 -0.625 -0.265625q-0.34375 -0.140625 -0.71875 -0.28125q-0.359375 -0.15625 -0.71875 -0.359375q-0.34375 -0.203125 -0.625 -0.484375q-0.28125 -0.296875 -0.453125 -0.703125q-0.171875 -0.421875 -0.171875 -1.0q0 -0.578125 0.234375 -1.0625q0.234375 -0.484375 0.65625 -0.828125q0.421875 -0.359375 1.03125 -0.546875q0.625 -0.1875 1.390625 -0.1875q0.390625 0 0.75 0.0625q0.359375 0.046875 0.640625 0.125q0.296875 0.078125 0.5 0.1875q0.203125 0.09375 0.28125 0.15625q0.09375 0.0625 0.125 0.140625q0.03125 0.0625 0.046875 0.15625q0.03125 0.09375 0.03125 0.234375q0.015625 0.140625 0.015625 0.359375q0 0.25 -0.015625 0.40625q0 0.140625 -0.03125 0.234375q-0.03125 0.09375 -0.09375 0.125q-0.046875 0.03125 -0.125 0.03125q-0.078125 0 -0.25 -0.09375q-0.171875 -0.09375 -0.4375 -0.203125q-0.265625 -0.109375 -0.609375 -0.203125q-0.328125 -0.09375 -0.765625 -0.09375q-0.3125 0 -0.546875 0.0625q-0.21875 0.0625 -0.375 0.1875q-0.140625 0.109375 -0.21875 0.265625q-0.0625 0.15625 -0.0625 0.34375q0 0.28125 0.171875 0.484375q0.171875 0.1875 0.453125 0.328125q0.28125 0.140625 0.640625 0.28125q0.359375 0.125 0.71875 0.28125q0.375 0.140625 0.734375 0.34375q0.359375 0.1875 0.640625 0.484375q0.28125 0.296875 0.453125 0.703125q0.1875 0.40625 0.1875 0.953125z" fill-rule="nonzero"/></g></svg>