<svg version="1.1" viewBox="0.0 0.0 876.0314960629921 397.13385826771656" fill="none" stroke="none" stroke-linecap="square" stroke-miterlimit="10" xmlns:xlink="http://www.w3.org/1999/xlink" xmlns="http://www.w3.org/2000/svg"><clipPath id="p.0"><path d="m0 0l876.0315 0l0 397.13385l-876.0315 0l0 -397.13385z" clip-rule="nonzero"/></clipPath><g clip-path="url(#p.0)"><path fill="#000000" fill-opacity="0.0" d="m0 0l876.0315 0l0 397.13385l-876.0315 0z" fill-rule="evenodd"/><path fill="#dd7e6b" d="m297.2266 151.88046l140.40945 0l0 68.72441l-140.40945 0z" fill-rule="evenodd"/><path stroke="#000000" stroke-width="2.0" stroke-linejoin="round" stroke-linecap="butt" d="m297.2266 151.88046l140.40945 0l0 68.72441l-140.40945 0z" fill-rule="evenodd"/><path fill="#000000" fill-opacity="0.0" d="m324.2966 153.92656l86.2677 0l0 64.62991l-86.2677 0z" fill-rule="evenodd"/><path fill="#000000" d="m357.62875 179.0653q0 0.21875 -0.015625 0.390625q-0.015625 0.15625 -0.046875 0.265625q-0.015625 0.109375 -0.0625 0.203125q-0.046875 0.078125 -0.15625 0.1875q-0.09375 0.09375 -0.390625 0.265625q-0.28125 0.15625 -0.703125 0.3125q-0.40625 0.140625 -0.9375 0.234375q-0.53125 0.109375 -1.15625 0.109375q-1.203125 0 -2.1875 -0.375q-0.96875 -0.375 -1.65625 -1.109375q-0.671875 -0.75 -1.046875 -1.859375q-0.359375 -1.109375 -0.359375 -2.578125q0 -1.5 0.390625 -2.671875q0.40625 -1.171875 1.125 -1.953125q0.71875 -0.796875 1.71875 -1.203125q1.015625 -0.421875 2.234375 -0.421875q0.484375 0 0.9375 0.09375q0.46875 0.078125 0.84375 0.21875q0.390625 0.125 0.703125 0.296875q0.3125 0.171875 0.4375 0.296875q0.125 0.125 0.15625 0.203125q0.046875 0.078125 0.078125 0.203125q0.03125 0.125 0.046875 0.3125q0.015625 0.171875 0.015625 0.421875q0 0.265625 -0.03125 0.46875q-0.015625 0.1875 -0.0625 0.3125q-0.03125 0.109375 -0.109375 0.171875q-0.0625 0.046875 -0.140625 0.046875q-0.140625 0 -0.34375 -0.15625q-0.203125 -0.15625 -0.546875 -0.34375q-0.328125 -0.203125 -0.796875 -0.359375q-0.453125 -0.171875 -1.09375 -0.171875q-0.703125 0 -1.25 0.296875q-0.546875 0.28125 -0.9375 0.8125q-0.390625 0.53125 -0.59375 1.296875q-0.1875 0.75 -0.1875 1.703125q0 1.03125 0.203125 1.796875q0.21875 0.75 0.609375 1.25q0.40625 0.484375 0.953125 0.734375q0.5625 0.234375 1.265625 0.234375q0.640625 0 1.109375 -0.140625q0.46875 -0.15625 0.796875 -0.328125q0.328125 -0.1875 0.546875 -0.328125q0.21875 -0.15625 0.328125 -0.15625q0.09375 0 0.140625 0.046875q0.0625 0.03125 0.09375 0.140625q0.046875 0.109375 0.0625 0.3125q0.015625 0.1875 0.015625 0.515625zm9.79657 -2.671875q0 1.03125 -0.28125 1.890625q-0.265625 0.859375 -0.828125 1.484375q-0.546875 0.609375 -1.390625 0.953125q-0.828125 0.328125 -1.953125 0.328125q-1.078125 0 -1.890625 -0.296875q-0.796875 -0.296875 -1.328125 -0.875q-0.515625 -0.578125 -0.78125 -1.40625q-0.25 -0.84375 -0.25 -1.921875q0 -1.03125 0.28125 -1.890625q0.28125 -0.859375 0.828125 -1.46875q0.5625 -0.625 1.390625 -0.953125q0.828125 -0.34375 1.953125 -0.34375q1.09375 0 1.890625 0.296875q0.8125 0.296875 1.328125 0.875q0.53125 0.5625 0.78125 1.40625q0.25 0.84375 0.25 1.921875zm-2.359375 0.09375q0 -0.609375 -0.09375 -1.109375q-0.09375 -0.5 -0.328125 -0.875q-0.21875 -0.375 -0.59375 -0.578125q-0.375 -0.21875 -0.953125 -0.21875q-0.515625 0 -0.90625 0.1875q-0.375 0.1875 -0.625 0.546875q-0.234375 0.359375 -0.359375 0.875q-0.125 0.5 -0.125 1.140625q0 0.59375 0.09375 1.109375q0.109375 0.5 0.328125 0.875q0.21875 0.375 0.59375 0.578125q0.390625 0.203125 0.953125 0.203125q0.53125 0 0.90625 -0.1875q0.390625 -0.1875 0.625 -0.53125q0.25 -0.359375 0.359375 -0.859375q0.125 -0.515625 0.125 -1.15625zm11.935822 4.046875q0 0.09375 -0.0625 0.171875q-0.046875 0.0625 -0.171875 0.109375q-0.125 0.046875 -0.359375 0.0625q-0.21875 0.015625 -0.546875 0.015625q-0.328125 0 -0.5625 -0.015625q-0.21875 -0.015625 -0.34375 -0.0625q-0.125 -0.046875 -0.1875 -0.109375q-0.046875 -0.078125 -0.046875 -0.171875l0 -4.640625q0 -0.578125 -0.09375 -0.921875q-0.078125 -0.34375 -0.25 -0.578125q-0.15625 -0.25 -0.421875 -0.375q-0.25 -0.125 -0.609375 -0.125q-0.4375 0 -0.890625 0.3125q-0.4375 0.3125 -0.921875 0.921875l0 5.40625q0 0.09375 -0.0625 0.171875q-0.046875 0.0625 -0.1875 0.109375q-0.125 0.046875 -0.34375 0.0625q-0.21875 0.015625 -0.546875 0.015625q-0.34375 0 -0.5625 -0.015625q-0.21875 -0.015625 -0.359375 -0.0625q-0.125 -0.046875 -0.1875 -0.109375q-0.046875 -0.078125 -0.046875 -0.171875l0 -8.125q0 -0.09375 0.046875 -0.15625q0.046875 -0.0625 0.15625 -0.109375q0.125 -0.046875 0.3125 -0.0625q0.1875 -0.03125 0.46875 -0.03125q0.296875 0 0.484375 0.03125q0.203125 0.015625 0.296875 0.0625q0.109375 0.046875 0.15625 0.109375q0.046875 0.0625 0.046875 0.15625l0 0.9375q0.671875 -0.71875 1.359375 -1.078125q0.703125 -0.375 1.46875 -0.375q0.828125 0 1.390625 0.28125q0.5625 0.265625 0.90625 0.734375q0.359375 0.46875 0.515625 1.09375q0.15625 0.625 0.15625 1.515625l0 5.015625zm9.465759 -8.125q0 0.03125 0 0.109375q0 0.0625 -0.015625 0.140625q-0.015625 0.078125 -0.046875 0.171875q-0.015625 0.09375 -0.046875 0.234375l-2.453125 7.34375q-0.046875 0.15625 -0.125 0.25q-0.078125 0.09375 -0.25 0.15625q-0.171875 0.046875 -0.484375 0.0625q-0.296875 0.015625 -0.796875 0.015625q-0.484375 0 -0.796875 -0.015625q-0.296875 -0.015625 -0.46875 -0.0625q-0.171875 -0.0625 -0.25 -0.15625q-0.078125 -0.109375 -0.125 -0.25l-2.4375 -7.34375q-0.0625 -0.1875 -0.09375 -0.328125q-0.03125 -0.15625 -0.03125 -0.21875q0 -0.0625 0 -0.109375q0 -0.09375 0.046875 -0.15625q0.046875 -0.078125 0.171875 -0.125q0.140625 -0.046875 0.359375 -0.0625q0.21875 -0.015625 0.5625 -0.015625q0.375 0 0.59375 0.03125q0.234375 0.015625 0.359375 0.0625q0.140625 0.03125 0.1875 0.109375q0.0625 0.078125 0.09375 0.1875l1.84375 5.96875l0.0625 0.21875l0.046875 -0.21875l1.828125 -5.96875q0.03125 -0.109375 0.078125 -0.1875q0.0625 -0.078125 0.1875 -0.109375q0.140625 -0.046875 0.34375 -0.0625q0.21875 -0.03125 0.5625 -0.03125q0.34375 0 0.546875 0.015625q0.21875 0.015625 0.328125 0.0625q0.125 0.046875 0.171875 0.125q0.046875 0.0625 0.046875 0.15625z" fill-rule="nonzero"/><path fill="#000000" d="m361.9227 202.3403q0 0.25 -0.03125 0.4375q-0.015625 0.171875 -0.078125 0.28125q-0.046875 0.09375 -0.109375 0.140625q-0.0625 0.046875 -0.140625 0.046875l-6.5 0q-0.078125 0 -0.140625 -0.046875q-0.0625 -0.046875 -0.109375 -0.140625q-0.046875 -0.109375 -0.078125 -0.28125q-0.03125 -0.1875 -0.03125 -0.4375q0 -0.265625 0.015625 -0.4375q0.03125 -0.1875 0.078125 -0.296875q0.046875 -0.109375 0.109375 -0.15625q0.078125 -0.046875 0.15625 -0.046875l2.1875 0l0 -7.671875l-1.890625 1.046875q-0.203125 0.09375 -0.34375 0.125q-0.125 0.015625 -0.203125 -0.0625q-0.078125 -0.078125 -0.109375 -0.265625q-0.03125 -0.1875 -0.03125 -0.53125q0 -0.21875 0 -0.359375q0.015625 -0.140625 0.046875 -0.234375q0.046875 -0.109375 0.109375 -0.171875q0.0625 -0.0625 0.171875 -0.140625l2.53125 -1.640625q0.046875 -0.03125 0.109375 -0.046875q0.078125 -0.03125 0.1875 -0.046875q0.109375 -0.015625 0.28125 -0.015625q0.1875 -0.015625 0.46875 -0.015625q0.34375 0 0.546875 0.015625q0.21875 0.015625 0.328125 0.046875q0.109375 0.03125 0.140625 0.09375q0.046875 0.046875 0.046875 0.125l0 9.75l1.921875 0q0.078125 0 0.140625 0.046875q0.078125 0.046875 0.125 0.15625q0.046875 0.109375 0.0625 0.296875q0.03125 0.171875 0.03125 0.4375zm8.690033 -7.640625q0.171875 0.0625 0.15625 0.28125q0 0.21875 -0.265625 0.671875q-0.265625 0.453125 -0.453125 0.5625q-0.171875 0.109375 -0.328125 0l-1.8125 -1.453125l0.375 2.296875q0.03125 0.1875 -0.171875 0.296875q-0.1875 0.09375 -0.71875 0.09375q-0.53125 0 -0.734375 -0.09375q-0.1875 -0.109375 -0.15625 -0.296875l0.375 -2.296875l-1.8125 1.453125q-0.140625 0.109375 -0.328125 0q-0.171875 -0.125 -0.453125 -0.578125q-0.265625 -0.4375 -0.28125 -0.65625q0 -0.21875 0.171875 -0.28125l2.171875 -0.84375l-2.171875 -0.84375q-0.171875 -0.0625 -0.171875 -0.28125q0.015625 -0.21875 0.28125 -0.671875q0.265625 -0.453125 0.453125 -0.5625q0.1875 -0.125 0.328125 0l1.8125 1.453125l-0.375 -2.296875q-0.03125 -0.171875 0.15625 -0.28125q0.203125 -0.109375 0.734375 -0.109375q0.53125 0 0.71875 0.109375q0.203125 0.109375 0.171875 0.28125l-0.375 2.296875l1.8125 -1.453125q0.15625 -0.125 0.328125 0q0.171875 0.109375 0.453125 0.578125q0.265625 0.4375 0.265625 0.65625q0.015625 0.21875 -0.15625 0.28125l-2.15625 0.84375l2.15625 0.84375zm10.057312 7.640625q0 0.25 -0.03125 0.4375q-0.015625 0.171875 -0.078125 0.28125q-0.046875 0.09375 -0.109375 0.140625q-0.0625 0.046875 -0.140625 0.046875l-6.5 0q-0.078125 0 -0.140625 -0.046875q-0.0625 -0.046875 -0.109375 -0.140625q-0.046875 -0.109375 -0.078125 -0.28125q-0.03125 -0.1875 -0.03125 -0.4375q0 -0.265625 0.015625 -0.4375q0.03125 -0.1875 0.078125 -0.296875q0.046875 -0.109375 0.109375 -0.15625q0.078125 -0.046875 0.15625 -0.046875l2.1875 0l0 -7.671875l-1.890625 1.046875q-0.203125 0.09375 -0.34375 0.125q-0.125 0.015625 -0.203125 -0.0625q-0.078125 -0.078125 -0.109375 -0.265625q-0.03125 -0.1875 -0.03125 -0.53125q0 -0.21875 0 -0.359375q0.015625 -0.140625 0.046875 -0.234375q0.046875 -0.109375 0.109375 -0.171875q0.0625 -0.0625 0.171875 -0.140625l2.53125 -1.640625q0.046875 -0.03125 0.109375 -0.046875q0.078125 -0.03125 0.1875 -0.046875q0.109375 -0.015625 0.28125 -0.015625q0.1875 -0.015625 0.46875 -0.015625q0.34375 0 0.546875 0.015625q0.21875 0.015625 0.328125 0.046875q0.109375 0.03125 0.140625 0.09375q0.046875 0.046875 0.046875 0.125l0 9.75l1.921875 0q0.078125 0 0.140625 0.046875q0.078125 0.046875 0.125 0.15625q0.046875 0.109375 0.0625 0.296875q0.03125 0.171875 0.03125 0.4375z" fill-rule="nonzero"/><path fill="#f1c232" d="m411.84003 153.50618l0 0c0 -12.785187 9.285706 -23.149612 20.740173 -23.149612l0 0c5.500641 0 10.77597 2.4389648 14.665497 6.780365c3.889557 4.341385 6.074646 10.229584 6.074646 16.369247l0 0c0 12.7851715 -9.285675 23.149597 -20.740143 23.149597l0 0c-11.454468 0 -20.740173 -10.364426 -20.740173 -23.149597z" fill-rule="evenodd"/><path stroke="#000000" stroke-width="1.0" stroke-linejoin="round" stroke-linecap="butt" d="m411.84003 153.50618l0 0c0 -12.785187 9.285706 -23.149612 20.740173 -23.149612l0 0c5.500641 0 10.77597 2.4389648 14.665497 6.780365c3.889557 4.341385 6.074646 10.229584 6.074646 16.369247l0 0c0 12.7851715 -9.285675 23.149597 -20.740143 23.149597l0 0c-11.454468 0 -20.740173 -10.364426 -20.740173 -23.149597z" fill-rule="evenodd"/><path fill="#000000" fill-opacity="0.0" d="m411.83688 122.89665l41.480316 0l0 42.015747l-41.480316 0z" fill-rule="evenodd"/><path fill="#000000" d="m437.35666 149.50415q0 0.109375 -0.046875 0.171875q-0.03125 0.0625 -0.171875 0.109375q-0.125 0.046875 -0.390625 0.0625q-0.265625 0.015625 -0.71875 0.015625q-0.390625 0 -0.625 -0.015625q-0.21875 -0.015625 -0.359375 -0.0625q-0.125 -0.046875 -0.1875 -0.125q-0.046875 -0.078125 -0.078125 -0.1875l-1.0625 -2.640625q-0.1875 -0.4375 -0.375 -0.78125q-0.171875 -0.359375 -0.40625 -0.578125q-0.21875 -0.234375 -0.515625 -0.34375q-0.28125 -0.125 -0.671875 -0.125l-0.734375 0l0 4.484375q0 0.09375 -0.0625 0.171875q-0.0625 0.0625 -0.203125 0.109375q-0.140625 0.046875 -0.375 0.0625q-0.21875 0.03125 -0.5625 0.03125q-0.359375 0 -0.59375 -0.03125q-0.21875 -0.015625 -0.359375 -0.0625q-0.140625 -0.046875 -0.203125 -0.109375q-0.046875 -0.078125 -0.046875 -0.171875l0 -10.703125q0 -0.40625 0.203125 -0.578125q0.203125 -0.171875 0.515625 -0.171875l3.046875 0q0.46875 0 0.765625 0.015625q0.296875 0.015625 0.546875 0.046875q0.703125 0.09375 1.265625 0.34375q0.578125 0.25 0.96875 0.640625q0.40625 0.390625 0.609375 0.9375q0.21875 0.546875 0.21875 1.25q0 0.578125 -0.15625 1.078125q-0.140625 0.484375 -0.4375 0.875q-0.296875 0.375 -0.734375 0.65625q-0.421875 0.28125 -0.96875 0.453125q0.265625 0.125 0.5 0.3125q0.234375 0.1875 0.4375 0.453125q0.203125 0.25 0.390625 0.578125q0.1875 0.328125 0.359375 0.75l0.984375 2.328125q0.140625 0.34375 0.1875 0.5q0.046875 0.15625 0.046875 0.25zm-3.09375 -8.0q0 -0.578125 -0.265625 -0.96875q-0.265625 -0.40625 -0.859375 -0.578125q-0.1875 -0.046875 -0.421875 -0.0625q-0.21875 -0.03125 -0.640625 -0.03125l-1.0625 0l0 3.34375l1.21875 0q0.5 0 0.875 -0.125q0.390625 -0.125 0.640625 -0.34375q0.265625 -0.234375 0.390625 -0.53125q0.125 -0.3125 0.125 -0.703125z" fill-rule="nonzero"/><path fill="#000000" fill-opacity="0.0" d="m437.6299 186.24153l90.11026 0" fill-rule="evenodd"/><path stroke="#000000" stroke-width="1.0" stroke-linejoin="round" stroke-linecap="butt" d="m437.6299 186.24153l84.11026 0" fill-rule="evenodd"/><path fill="#000000" stroke="#000000" stroke-width="1.0" stroke-linecap="butt" d="m521.7402 187.89326l4.538086 -1.6517334l-4.538086 -1.6517334z" fill-rule="evenodd"/><path fill="#6d9eeb" d="m107.35381 151.87868l140.40945 0l0 68.724396l-140.40945 0z" fill-rule="evenodd"/><path stroke="#000000" stroke-width="2.0" stroke-linejoin="round" stroke-linecap="butt" d="m107.35381 151.87868l140.40945 0l0 68.724396l-140.40945 0z" fill-rule="evenodd"/><path fill="#000000" fill-opacity="0.0" d="m117.08662 153.92657l120.94488 0l0 64.62993l-120.94488 0z" fill-rule="evenodd"/><path fill="#000000" d="m154.34988 179.95595q0.109375 0.328125 0.140625 0.515625q0.03125 0.1875 -0.078125 0.296875q-0.09375 0.09375 -0.359375 0.109375q-0.25 0.015625 -0.6875 0.015625q-0.46875 0 -0.734375 -0.015625q-0.25 0 -0.390625 -0.03125q-0.140625 -0.046875 -0.203125 -0.125q-0.046875 -0.078125 -0.078125 -0.1875l-0.796875 -2.375l-4.421875 0l-0.75 2.3125q-0.03125 0.125 -0.09375 0.21875q-0.0625 0.078125 -0.203125 0.125q-0.125 0.046875 -0.375 0.0625q-0.234375 0.015625 -0.625 0.015625q-0.421875 0 -0.65625 -0.03125q-0.234375 -0.015625 -0.328125 -0.109375q-0.09375 -0.109375 -0.0625 -0.296875q0.03125 -0.203125 0.140625 -0.515625l3.640625 -10.46875q0.046875 -0.15625 0.109375 -0.25q0.078125 -0.09375 0.234375 -0.140625q0.171875 -0.046875 0.453125 -0.0625q0.28125 -0.015625 0.75 -0.015625q0.53125 0 0.84375 0.015625q0.328125 0.015625 0.5 0.0625q0.1875 0.046875 0.25 0.15625q0.078125 0.09375 0.140625 0.265625l3.640625 10.453125zm-5.40625 -8.640625l-0.015625 0l-1.65625 5.0l3.34375 0l-1.671875 -5.0zm13.942902 1.09375q0 0.03125 0 0.109375q0 0.0625 -0.015625 0.140625q-0.015625 0.078125 -0.046875 0.171875q-0.015625 0.09375 -0.046875 0.234375l-2.453125 7.34375q-0.046875 0.15625 -0.125 0.25q-0.078125 0.09375 -0.25 0.15625q-0.171875 0.046875 -0.484375 0.0625q-0.296875 0.015625 -0.796875 0.015625q-0.484375 0 -0.796875 -0.015625q-0.296875 -0.015625 -0.46875 -0.0625q-0.171875 -0.0625 -0.25 -0.15625q-0.078125 -0.109375 -0.125 -0.25l-2.4375 -7.34375q-0.0625 -0.1875 -0.09375 -0.328125q-0.03125 -0.15625 -0.03125 -0.21875q0 -0.0625 0 -0.109375q0 -0.09375 0.046875 -0.15625q0.046875 -0.078125 0.171875 -0.125q0.140625 -0.046875 0.359375 -0.0625q0.21875 -0.015625 0.5625 -0.015625q0.375 0 0.59375 0.03125q0.234375 0.015625 0.359375 0.0625q0.140625 0.03125 0.1875 0.109375q0.0625 0.078125 0.09375 0.1875l1.84375 5.96875l0.0625 0.21875l0.046875 -0.21875l1.828125 -5.96875q0.03125 -0.109375 0.078125 -0.1875q0.0625 -0.078125 0.1875 -0.109375q0.140625 -0.046875 0.34375 -0.0625q0.21875 -0.03125 0.5625 -0.03125q0.34375 0 0.546875 0.015625q0.21875 0.015625 0.328125 0.0625q0.125 0.046875 0.171875 0.125q0.046875 0.0625 0.046875 0.15625zm8.461212 0.5625q0 0.4375 -0.109375 0.65625q-0.09375 0.203125 -0.234375 0.203125l-0.953125 0q0.203125 0.21875 0.28125 0.5q0.09375 0.28125 0.09375 0.578125q0 0.703125 -0.25 1.265625q-0.234375 0.546875 -0.671875 0.921875q-0.4375 0.375 -1.0625 0.578125q-0.625 0.1875 -1.390625 0.1875q-0.390625 0 -0.75 -0.09375q-0.359375 -0.09375 -0.546875 -0.21875q-0.109375 0.125 -0.203125 0.296875q-0.078125 0.15625 -0.078125 0.34375q0 0.265625 0.234375 0.4375q0.234375 0.171875 0.65625 0.1875l1.96875 0.078125q0.703125 0.015625 1.234375 0.1875q0.546875 0.171875 0.90625 0.484375q0.375 0.296875 0.5625 0.734375q0.203125 0.421875 0.203125 0.96875q0 0.59375 -0.265625 1.125q-0.265625 0.546875 -0.796875 0.9375q-0.515625 0.390625 -1.3125 0.609375q-0.796875 0.234375 -1.859375 0.234375q-1.046875 0 -1.78125 -0.171875q-0.734375 -0.15625 -1.203125 -0.453125q-0.46875 -0.296875 -0.6875 -0.703125q-0.203125 -0.390625 -0.203125 -0.875q0 -0.3125 0.078125 -0.59375q0.078125 -0.265625 0.21875 -0.515625q0.15625 -0.25 0.375 -0.46875q0.21875 -0.234375 0.5 -0.4375q-0.390625 -0.21875 -0.609375 -0.578125q-0.21875 -0.359375 -0.21875 -0.78125q0 -0.53125 0.25 -0.96875q0.25 -0.453125 0.640625 -0.8125q-0.3125 -0.3125 -0.515625 -0.75q-0.1875 -0.453125 -0.1875 -1.125q0 -0.703125 0.25 -1.265625q0.25 -0.5625 0.6875 -0.953125q0.453125 -0.390625 1.078125 -0.59375q0.625 -0.203125 1.359375 -0.203125q0.390625 0 0.734375 0.046875q0.359375 0.046875 0.65625 0.125l2.578125 0q0.15625 0 0.25 0.203125q0.09375 0.203125 0.09375 0.671875zm-2.9375 1.921875q0 -0.65625 -0.375 -1.015625q-0.359375 -0.359375 -1.015625 -0.359375q-0.34375 0 -0.609375 0.109375q-0.25 0.109375 -0.421875 0.3125q-0.15625 0.1875 -0.25 0.453125q-0.078125 0.265625 -0.078125 0.546875q0 0.609375 0.359375 0.96875q0.375 0.359375 1.015625 0.359375q0.359375 0 0.609375 -0.109375q0.25 -0.109375 0.421875 -0.296875q0.171875 -0.1875 0.25 -0.4375q0.09375 -0.25 0.09375 -0.53125zm0.53125 6.484375q0 -0.40625 -0.328125 -0.625q-0.328125 -0.21875 -0.890625 -0.234375l-1.640625 -0.046875q-0.234375 0.171875 -0.375 0.34375q-0.140625 0.15625 -0.234375 0.296875q-0.078125 0.140625 -0.109375 0.28125q-0.03125 0.140625 -0.03125 0.28125q0 0.453125 0.453125 0.6875q0.46875 0.25 1.3125 0.25q0.515625 0 0.875 -0.109375q0.359375 -0.109375 0.578125 -0.28125q0.21875 -0.171875 0.296875 -0.390625q0.09375 -0.203125 0.09375 -0.453125zm7.9546967 -5.109375q0 0.53125 -0.109375 0.734375q-0.09375 0.203125 -0.3125 0.203125l-3.78125 0q-0.234375 0 -0.34375 -0.203125q-0.09375 -0.21875 -0.09375 -0.734375q0 -0.515625 0.09375 -0.71875q0.109375 -0.21875 0.34375 -0.21875l3.78125 0q0.109375 0 0.1875 0.046875q0.078125 0.046875 0.125 0.15625q0.0625 0.109375 0.078125 0.296875q0.03125 0.171875 0.03125 0.4375zm9.899155 -3.625q0 0.984375 -0.3125 1.75q-0.3125 0.765625 -0.90625 1.296875q-0.59375 0.515625 -1.453125 0.796875q-0.859375 0.265625 -2.015625 0.265625l-0.984375 0l0 3.765625q0 0.09375 -0.0625 0.171875q-0.0625 0.0625 -0.203125 0.109375q-0.140625 0.046875 -0.375 0.0625q-0.21875 0.03125 -0.5625 0.03125q-0.359375 0 -0.59375 -0.03125q-0.21875 -0.015625 -0.359375 -0.0625q-0.140625 -0.046875 -0.203125 -0.109375q-0.046875 -0.078125 -0.046875 -0.171875l0 -10.609375q0 -0.421875 0.21875 -0.625q0.234375 -0.21875 0.59375 -0.21875l2.78125 0q0.421875 0 0.796875 0.03125q0.375 0.03125 0.90625 0.140625q0.53125 0.09375 1.0625 0.375q0.546875 0.28125 0.921875 0.71875q0.390625 0.4375 0.59375 1.015625q0.203125 0.578125 0.203125 1.296875zm-2.515625 0.171875q0 -0.625 -0.21875 -1.015625q-0.21875 -0.40625 -0.53125 -0.59375q-0.3125 -0.203125 -0.671875 -0.25q-0.34375 -0.046875 -0.71875 -0.046875l-1.015625 0l0 4.0l1.0625 0q0.578125 0 0.96875 -0.15625q0.390625 -0.15625 0.625 -0.4375q0.25 -0.28125 0.375 -0.65625q0.125 -0.390625 0.125 -0.84375zm12.144196 3.578125q0 1.03125 -0.28125 1.890625q-0.265625 0.859375 -0.828125 1.484375q-0.546875 0.609375 -1.390625 0.953125q-0.828125 0.328125 -1.953125 0.328125q-1.078125 0 -1.890625 -0.296875q-0.796875 -0.296875 -1.328125 -0.875q-0.515625 -0.578125 -0.78125 -1.40625q-0.25 -0.84375 -0.25 -1.921875q0 -1.03125 0.28125 -1.890625q0.28125 -0.859375 0.828125 -1.46875q0.5625 -0.625 1.390625 -0.953125q0.828125 -0.34375 1.953125 -0.34375q1.09375 0 1.890625 0.296875q0.8125 0.296875 1.328125 0.875q0.53125 0.5625 0.78125 1.40625q0.25 0.84375 0.25 1.921875zm-2.359375 0.09375q0 -0.609375 -0.09375 -1.109375q-0.09375 -0.5 -0.328125 -0.875q-0.21875 -0.375 -0.59375 -0.578125q-0.375 -0.21875 -0.953125 -0.21875q-0.515625 0 -0.90625 0.1875q-0.375 0.1875 -0.625 0.546875q-0.234375 0.359375 -0.359375 0.875q-0.125 0.5 -0.125 1.140625q0 0.59375 0.09375 1.109375q0.109375 0.5 0.328125 0.875q0.21875 0.375 0.59375 0.578125q0.390625 0.203125 0.953125 0.203125q0.53125 0 0.90625 -0.1875q0.390625 -0.1875 0.625 -0.53125q0.25 -0.359375 0.359375 -0.859375q0.125 -0.515625 0.125 -1.15625zm12.388931 -0.09375q0 1.03125 -0.28125 1.890625q-0.265625 0.859375 -0.828125 1.484375q-0.546875 0.609375 -1.390625 0.953125q-0.828125 0.328125 -1.953125 0.328125q-1.078125 0 -1.890625 -0.296875q-0.796875 -0.296875 -1.328125 -0.875q-0.515625 -0.578125 -0.78125 -1.40625q-0.25 -0.84375 -0.25 -1.921875q0 -1.03125 0.28125 -1.890625q0.28125 -0.859375 0.828125 -1.46875q0.5625 -0.625 1.390625 -0.953125q0.828125 -0.34375 1.953125 -0.34375q1.09375 0 1.890625 0.296875q0.8125 0.296875 1.328125 0.875q0.53125 0.5625 0.78125 1.40625q0.25 0.84375 0.25 1.921875zm-2.359375 0.09375q0 -0.609375 -0.09375 -1.109375q-0.09375 -0.5 -0.328125 -0.875q-0.21875 -0.375 -0.59375 -0.578125q-0.375 -0.21875 -0.953125 -0.21875q-0.515625 0 -0.90625 0.1875q-0.375 0.1875 -0.625 0.546875q-0.234375 0.359375 -0.359375 0.875q-0.125 0.5 -0.125 1.140625q0 0.59375 0.09375 1.109375q0.109375 0.5 0.328125 0.875q0.21875 0.375 0.59375 0.578125q0.390625 0.203125 0.953125 0.203125q0.53125 0 0.90625 -0.1875q0.390625 -0.1875 0.625 -0.53125q0.25 -0.359375 0.359375 -0.859375q0.125 -0.515625 0.125 -1.15625zm6.4670563 4.046875q0 0.09375 -0.0625 0.171875q-0.046875 0.0625 -0.1875 0.109375q-0.125 0.046875 -0.34375 0.0625q-0.21875 0.015625 -0.546875 0.015625q-0.34375 0 -0.5625 -0.015625q-0.21875 -0.015625 -0.359375 -0.0625q-0.125 -0.046875 -0.1875 -0.109375q-0.046875 -0.078125 -0.046875 -0.171875l0 -11.96875q0 -0.09375 0.046875 -0.171875q0.0625 -0.078125 0.1875 -0.125q0.140625 -0.046875 0.359375 -0.078125q0.21875 -0.03125 0.5625 -0.03125q0.328125 0 0.546875 0.03125q0.21875 0.03125 0.34375 0.078125q0.140625 0.046875 0.1875 0.125q0.0625 0.078125 0.0625 0.171875l0 11.96875z" fill-rule="nonzero"/><path fill="#000000" d="m172.0513 199.41844q0 0.953125 -0.328125 1.71875q-0.328125 0.75 -0.9375 1.265625q-0.609375 0.5 -1.46875 0.78125q-0.84375 0.265625 -1.875 0.265625q-0.546875 0 -1.046875 -0.0625q-0.484375 -0.0625 -0.875 -0.171875q-0.390625 -0.109375 -0.640625 -0.203125q-0.25 -0.109375 -0.328125 -0.171875q-0.078125 -0.078125 -0.125 -0.15625q-0.03125 -0.078125 -0.0625 -0.1875q-0.015625 -0.125 -0.03125 -0.296875q0 -0.171875 0 -0.40625q0 -0.265625 0.015625 -0.4375q0.015625 -0.171875 0.0625 -0.28125q0.046875 -0.109375 0.09375 -0.15625q0.0625 -0.046875 0.125 -0.046875q0.09375 0 0.28125 0.109375q0.1875 0.09375 0.484375 0.234375q0.3125 0.125 0.75 0.234375q0.4375 0.09375 1.046875 0.09375q0.53125 0 0.953125 -0.109375q0.4375 -0.109375 0.734375 -0.34375q0.3125 -0.25 0.46875 -0.609375q0.171875 -0.375 0.171875 -0.875q0 -0.4375 -0.140625 -0.78125q-0.140625 -0.34375 -0.4375 -0.578125q-0.28125 -0.234375 -0.75 -0.34375q-0.46875 -0.125 -1.125 -0.125q-0.53125 0 -0.96875 0.0625q-0.421875 0.046875 -0.8125 0.046875q-0.265625 0 -0.375 -0.125q-0.109375 -0.140625 -0.109375 -0.5l0 -5.125q0 -0.359375 0.140625 -0.515625q0.140625 -0.15625 0.453125 -0.15625l5.578125 0q0.078125 0 0.15625 0.0625q0.078125 0.046875 0.125 0.171875q0.046875 0.109375 0.0625 0.3125q0.03125 0.1875 0.03125 0.453125q0 0.546875 -0.09375 0.796875q-0.09375 0.25 -0.28125 0.25l-4.1875 0l0 2.515625q0.3125 -0.03125 0.625 -0.03125q0.3125 -0.015625 0.671875 -0.015625q0.953125 0 1.6875 0.21875q0.75 0.21875 1.25 0.65625q0.515625 0.4375 0.765625 1.078125q0.265625 0.640625 0.265625 1.484375zm8.690033 -4.71875q0.171875 0.0625 0.15625 0.28125q0 0.21875 -0.265625 0.671875q-0.265625 0.453125 -0.453125 0.5625q-0.171875 0.109375 -0.328125 0l-1.8125 -1.453125l0.375 2.296875q0.03125 0.1875 -0.171875 0.296875q-0.1875 0.09375 -0.71875 0.09375q-0.53125 0 -0.734375 -0.09375q-0.1875 -0.109375 -0.15625 -0.296875l0.375 -2.296875l-1.8125 1.453125q-0.140625 0.109375 -0.328125 0q-0.171875 -0.125 -0.453125 -0.578125q-0.265625 -0.4375 -0.28125 -0.65625q0 -0.21875 0.171875 -0.28125l2.171875 -0.84375l-2.171875 -0.84375q-0.171875 -0.0625 -0.171875 -0.28125q0.015625 -0.21875 0.28125 -0.671875q0.265625 -0.453125 0.453125 -0.5625q0.1875 -0.125 0.328125 0l1.8125 1.453125l-0.375 -2.296875q-0.03125 -0.171875 0.15625 -0.28125q0.203125 -0.109375 0.734375 -0.109375q0.53125 0 0.71875 0.109375q0.203125 0.109375 0.171875 0.28125l-0.375 2.296875l1.8125 -1.453125q0.15625 -0.125 0.328125 0q0.171875 0.109375 0.453125 0.578125q0.265625 0.4375 0.265625 0.65625q0.015625 0.21875 -0.15625 0.28125l-2.15625 0.84375l2.15625 0.84375zm10.057312 4.71875q0 0.953125 -0.328125 1.71875q-0.328125 0.75 -0.9375 1.265625q-0.609375 0.5 -1.46875 0.78125q-0.84375 0.265625 -1.875 0.265625q-0.546875 0 -1.046875 -0.0625q-0.484375 -0.0625 -0.875 -0.171875q-0.390625 -0.109375 -0.640625 -0.203125q-0.25 -0.109375 -0.328125 -0.171875q-0.078125 -0.078125 -0.125 -0.15625q-0.03125 -0.078125 -0.0625 -0.1875q-0.015625 -0.125 -0.03125 -0.296875q0 -0.171875 0 -0.40625q0 -0.265625 0.015625 -0.4375q0.015625 -0.171875 0.0625 -0.28125q0.046875 -0.109375 0.09375 -0.15625q0.0625 -0.046875 0.125 -0.046875q0.09375 0 0.28125 0.109375q0.1875 0.09375 0.484375 0.234375q0.3125 0.125 0.75 0.234375q0.4375 0.09375 1.046875 0.09375q0.53125 0 0.953125 -0.109375q0.4375 -0.109375 0.734375 -0.34375q0.3125 -0.25 0.46875 -0.609375q0.171875 -0.375 0.171875 -0.875q0 -0.4375 -0.140625 -0.78125q-0.140625 -0.34375 -0.4375 -0.578125q-0.28125 -0.234375 -0.75 -0.34375q-0.46875 -0.125 -1.125 -0.125q-0.53125 0 -0.96875 0.0625q-0.421875 0.046875 -0.8125 0.046875q-0.265625 0 -0.375 -0.125q-0.109375 -0.140625 -0.109375 -0.5l0 -5.125q0 -0.359375 0.140625 -0.515625q0.140625 -0.15625 0.453125 -0.15625l5.578125 0q0.078125 0 0.15625 0.0625q0.078125 0.046875 0.125 0.171875q0.046875 0.109375 0.0625 0.3125q0.03125 0.1875 0.03125 0.453125q0 0.546875 -0.09375 0.796875q-0.09375 0.25 -0.28125 0.25l-4.1875 0l0 2.515625q0.3125 -0.03125 0.625 -0.03125q0.3125 -0.015625 0.671875 -0.015625q0.953125 0 1.6875 0.21875q0.75 0.21875 1.25 0.65625q0.515625 0.4375 0.765625 1.078125q0.265625 0.640625 0.265625 1.484375z" fill-rule="nonzero"/><path fill="#000000" fill-opacity="0.0" d="m247.76326 186.24088l49.448807 0" fill-rule="evenodd"/><path stroke="#000000" stroke-width="1.0" stroke-linejoin="round" stroke-linecap="butt" d="m247.76326 186.24088l43.448837 0" fill-rule="evenodd"/><path fill="#000000" stroke="#000000" stroke-width="1.0" stroke-linecap="butt" d="m291.2121 187.89261l4.538086 -1.6517334l-4.538086 -1.6517334z" fill-rule="evenodd"/><path fill="#cfe2f3" d="m626.2444 45.17769l51.811035 0l0 307.87402l-51.811035 0z" fill-rule="evenodd"/><path stroke="#000000" stroke-width="1.0" stroke-linejoin="round" stroke-linecap="butt" d="m626.2444 45.17769l51.811035 0l0 307.87402l-51.811035 0z" fill-rule="evenodd"/><path fill="#cfe2f3" d="m527.7394 43.716682l51.811035 0l0 307.87402l-51.811035 0z" fill-rule="evenodd"/><path stroke="#000000" stroke-width="1.0" stroke-linejoin="round" stroke-linecap="butt" d="m527.7394 43.716682l51.811035 0l0 307.87402l-51.811035 0z" fill-rule="evenodd"/><path fill="#f1c232" d="m647.5678 46.311607l0 0c0 -12.785175 9.285645 -23.149607 20.740112 -23.149607l0 0c5.5006714 0 10.776001 2.4389687 14.665527 6.780363c3.8895264 4.3413925 6.074646 10.229584 6.074646 16.369244l0 0c0 12.785175 -9.285706 23.149605 -20.740173 23.149605l0 0c-11.454468 0 -20.740112 -10.364429 -20.740112 -23.149605z" fill-rule="evenodd"/><path stroke="#000000" stroke-width="1.0" stroke-linejoin="round" stroke-linecap="butt" d="m647.5678 46.311607l0 0c0 -12.785175 9.285645 -23.149607 20.740112 -23.149607l0 0c5.5006714 0 10.776001 2.4389687 14.665527 6.780363c3.8895264 4.3413925 6.074646 10.229584 6.074646 16.369244l0 0c0 12.785175 -9.285706 23.149605 -20.740173 23.149605l0 0c-11.454468 0 -20.740112 -10.364429 -20.740112 -23.149605z" fill-rule="evenodd"/><path fill="#000000" fill-opacity="0.0" d="m653.77954 19.430447l41.480286 0l0 42.015747l-41.480286 0z" fill-rule="evenodd"/><path fill="#000000" d="m678.37634 42.819195q0 0.921875 -0.34375 1.625q-0.34375 0.703125 -0.9375 1.171875q-0.59375 0.46875 -1.390625 0.703125q-0.78125 0.234375 -1.6875 0.234375q-0.609375 0 -1.140625 -0.09375q-0.515625 -0.09375 -0.921875 -0.234375q-0.390625 -0.140625 -0.671875 -0.296875q-0.265625 -0.15625 -0.390625 -0.265625q-0.109375 -0.125 -0.15625 -0.34375q-0.046875 -0.234375 -0.046875 -0.65625q0 -0.28125 0.015625 -0.46875q0.015625 -0.1875 0.046875 -0.3125q0.046875 -0.125 0.109375 -0.171875q0.078125 -0.046875 0.171875 -0.046875q0.125 0 0.359375 0.15625q0.234375 0.140625 0.59375 0.328125q0.359375 0.1875 0.859375 0.34375q0.515625 0.140625 1.1875 0.140625q0.4375 0 0.78125 -0.109375q0.34375 -0.109375 0.578125 -0.296875q0.25 -0.1875 0.375 -0.46875q0.125 -0.28125 0.125 -0.625q0 -0.40625 -0.21875 -0.6875q-0.21875 -0.296875 -0.578125 -0.515625q-0.34375 -0.21875 -0.796875 -0.40625q-0.4375 -0.203125 -0.90625 -0.421875q-0.46875 -0.21875 -0.921875 -0.5q-0.453125 -0.28125 -0.796875 -0.671875q-0.34375 -0.390625 -0.5625 -0.90625q-0.21875 -0.53125 -0.21875 -1.265625q0 -0.859375 0.3125 -1.5q0.3125 -0.640625 0.84375 -1.0625q0.53125 -0.421875 1.25 -0.625q0.734375 -0.21875 1.546875 -0.21875q0.40625 0 0.828125 0.0625q0.421875 0.0625 0.78125 0.171875q0.375 0.109375 0.65625 0.25q0.28125 0.140625 0.359375 0.234375q0.09375 0.078125 0.125 0.15625q0.046875 0.0625 0.0625 0.171875q0.015625 0.09375 0.03125 0.25q0.015625 0.15625 0.015625 0.40625q0 0.265625 -0.015625 0.453125q-0.015625 0.171875 -0.046875 0.296875q-0.03125 0.109375 -0.09375 0.171875q-0.0625 0.046875 -0.15625 0.046875q-0.109375 0 -0.328125 -0.125q-0.21875 -0.125 -0.53125 -0.28125q-0.3125 -0.15625 -0.734375 -0.265625q-0.421875 -0.125 -0.921875 -0.125q-0.390625 0 -0.6875 0.09375q-0.28125 0.09375 -0.484375 0.265625q-0.203125 0.171875 -0.296875 0.40625q-0.09375 0.234375 -0.09375 0.5q0 0.390625 0.21875 0.6875q0.21875 0.28125 0.578125 0.5q0.359375 0.21875 0.8125 0.421875q0.453125 0.1875 0.921875 0.40625q0.484375 0.21875 0.9375 0.5q0.453125 0.28125 0.796875 0.671875q0.359375 0.375 0.578125 0.90625q0.21875 0.515625 0.21875 1.234375z" fill-rule="nonzero"/><path fill="#f1c232" d="m546.69104 50.039967l0 0c0 -12.785175 9.285706 -23.149607 20.740173 -23.149607l0 0c5.5006104 0 10.77594 2.4389706 14.665527 6.780363c3.8895264 4.3413925 6.074646 10.229588 6.074646 16.369244l0 0c0 12.785175 -9.285706 23.149609 -20.740173 23.149609l0 0c-11.454468 0 -20.740173 -10.364433 -20.740173 -23.149609z" fill-rule="evenodd"/><path stroke="#000000" stroke-width="1.0" stroke-linejoin="round" stroke-linecap="butt" d="m546.69104 50.039967l0 0c0 -12.785175 9.285706 -23.149607 20.740173 -23.149607l0 0c5.5006104 0 10.77594 2.4389706 14.665527 6.780363c3.8895264 4.3413925 6.074646 10.229588 6.074646 16.369244l0 0c0 12.785175 -9.285706 23.149609 -20.740173 23.149609l0 0c-11.454468 0 -20.740173 -10.364433 -20.740173 -23.149609z" fill-rule="evenodd"/><path fill="#000000" fill-opacity="0.0" d="m546.68787 19.430447l41.480347 0l0 42.015747l-41.480347 0z" fill-rule="evenodd"/><path fill="#000000" d="m572.20764 46.037945q0 0.109375 -0.046875 0.171875q-0.03125 0.0625 -0.171875 0.109375q-0.125 0.046875 -0.390625 0.0625q-0.265625 0.015625 -0.71875 0.015625q-0.390625 0 -0.625 -0.015625q-0.21875 -0.015625 -0.359375 -0.0625q-0.125 -0.046875 -0.1875 -0.125q-0.046875 -0.078125 -0.078125 -0.1875l-1.0625 -2.640625q-0.1875 -0.4375 -0.375 -0.78125q-0.171875 -0.359375 -0.40625 -0.578125q-0.21875 -0.234375 -0.515625 -0.34375q-0.28125 -0.125 -0.671875 -0.125l-0.734375 0l0 4.484375q0 0.09375 -0.0625 0.171875q-0.0625 0.0625 -0.203125 0.109375q-0.140625 0.046875 -0.375 0.0625q-0.21875 0.03125 -0.5625 0.03125q-0.359375 0 -0.59375 -0.03125q-0.21875 -0.015625 -0.359375 -0.0625q-0.140625 -0.046875 -0.203125 -0.109375q-0.046875 -0.078125 -0.046875 -0.171875l0 -10.703125q0 -0.40625 0.203125 -0.578125q0.203125 -0.171875 0.515625 -0.171875l3.046875 0q0.46875 0 0.765625 0.015625q0.296875 0.015625 0.546875 0.046875q0.703125 0.09375 1.265625 0.34375q0.578125 0.25 0.96875 0.640625q0.40625 0.390625 0.609375 0.9375q0.21875 0.546875 0.21875 1.25q0 0.578125 -0.15625 1.078125q-0.140625 0.484375 -0.4375 0.875q-0.296875 0.375 -0.734375 0.65625q-0.421875 0.28125 -0.96875 0.453125q0.265625 0.125 0.5 0.3125q0.234375 0.1875 0.4375 0.453125q0.203125 0.25 0.390625 0.578125q0.1875 0.328125 0.359375 0.75l0.984375 2.328125q0.140625 0.34375 0.1875 0.5q0.046875 0.15625 0.046875 0.25zm-3.09375 -8.0q0 -0.578125 -0.265625 -0.96875q-0.265625 -0.40625 -0.859375 -0.578125q-0.1875 -0.046875 -0.421875 -0.0625q-0.21875 -0.03125 -0.640625 -0.03125l-1.0625 0l0 3.34375l1.21875 0q0.5 0 0.875 -0.125q0.390625 -0.125 0.640625 -0.34375q0.265625 -0.234375 0.390625 -0.53125q0.125 -0.3125 0.125 -0.703125z" fill-rule="nonzero"/><path fill="#000000" fill-opacity="0.0" d="m579.5504 197.65369l46.70868 1.448822" fill-rule="evenodd"/><path stroke="#000000" stroke-width="1.0" stroke-linejoin="round" stroke-linecap="butt" d="m579.5504 197.65369l40.711548 1.2628021" fill-rule="evenodd"/><path fill="#000000" stroke="#000000" stroke-width="1.0" stroke-linecap="butt" d="m620.21075 200.56743l4.587097 -1.5102539l-4.48468 -1.791626z" fill-rule="evenodd"/><path fill="#000000" fill-opacity="0.0" d="m524.68506 360.0l57.921265 0l0 42.015747l-57.921265 0z" fill-rule="evenodd"/><path fill="#000000" d="m542.2788 386.01373q0 0.25 -0.03125 0.4375q-0.015625 0.171875 -0.078125 0.28125q-0.046875 0.09375 -0.109375 0.140625q-0.0625 0.046875 -0.140625 0.046875l-6.5 0q-0.078125 0 -0.140625 -0.046875q-0.0625 -0.046875 -0.109375 -0.140625q-0.046875 -0.109375 -0.078125 -0.28125q-0.03125 -0.1875 -0.03125 -0.4375q0 -0.265625 0.015625 -0.4375q0.03125 -0.1875 0.078125 -0.296875q0.046875 -0.109375 0.109375 -0.15625q0.078125 -0.046875 0.15625 -0.046875l2.1875 0l0 -7.671875l-1.890625 1.046875q-0.203125 0.09375 -0.34375 0.125q-0.125 0.015625 -0.203125 -0.0625q-0.078125 -0.078125 -0.109375 -0.265625q-0.03125 -0.1875 -0.03125 -0.53125q0 -0.21875 0 -0.359375q0.015625 -0.140625 0.046875 -0.234375q0.046875 -0.109375 0.109375 -0.171875q0.0625 -0.0625 0.171875 -0.140625l2.53125 -1.640625q0.046875 -0.03125 0.109375 -0.046875q0.078125 -0.03125 0.1875 -0.046875q0.109375 -0.015625 0.28125 -0.015625q0.1875 -0.015625 0.46875 -0.015625q0.34375 0 0.546875 0.015625q0.21875 0.015625 0.328125 0.046875q0.109375 0.03125 0.140625 0.09375q0.046875 0.046875 0.046875 0.125l0 9.75l1.921875 0q0.078125 0 0.140625 0.046875q0.078125 0.046875 0.125 0.15625q0.046875 0.109375 0.0625 0.296875q0.03125 0.171875 0.03125 0.4375zm9.815002 -5.03125q0 1.40625 -0.234375 2.546875q-0.234375 1.140625 -0.75 1.953125q-0.515625 0.796875 -1.34375 1.21875q-0.8125 0.421875 -2.0 0.421875q-1.21875 0 -2.015625 -0.40625q-0.78125 -0.421875 -1.25 -1.1875q-0.46875 -0.78125 -0.65625 -1.90625q-0.1875 -1.125 -0.1875 -2.546875q0 -1.40625 0.234375 -2.546875q0.234375 -1.140625 0.75 -1.9375q0.515625 -0.8125 1.328125 -1.234375q0.828125 -0.4375 2.015625 -0.4375q1.21875 0 2.015625 0.421875q0.796875 0.40625 1.25 1.1875q0.46875 0.78125 0.65625 1.90625q0.1875 1.125 0.1875 2.546875zm-2.421875 0.109375q0 -0.828125 -0.046875 -1.46875q-0.046875 -0.640625 -0.140625 -1.109375q-0.09375 -0.484375 -0.234375 -0.8125q-0.140625 -0.328125 -0.34375 -0.515625q-0.203125 -0.203125 -0.453125 -0.28125q-0.25 -0.09375 -0.5625 -0.09375q-0.546875 0 -0.90625 0.265625q-0.34375 0.265625 -0.546875 0.78125q-0.203125 0.515625 -0.28125 1.296875q-0.078125 0.765625 -0.078125 1.796875q0 1.265625 0.09375 2.09375q0.109375 0.8125 0.3125 1.296875q0.21875 0.484375 0.546875 0.6875q0.34375 0.203125 0.8125 0.203125q0.359375 0 0.625 -0.109375q0.28125 -0.125 0.484375 -0.34375q0.203125 -0.234375 0.34375 -0.578125q0.140625 -0.34375 0.21875 -0.796875q0.09375 -0.46875 0.125 -1.03125q0.03125 -0.578125 0.03125 -1.28125zm11.627563 4.859375q0 0.265625 -0.03125 0.453125q-0.015625 0.171875 -0.0625 0.296875q-0.03125 0.125 -0.109375 0.171875q-0.078125 0.046875 -0.171875 0.046875l-6.765625 0q-0.203125 0 -0.359375 -0.03125q-0.140625 -0.046875 -0.234375 -0.140625q-0.078125 -0.109375 -0.125 -0.3125q-0.046875 -0.203125 -0.046875 -0.515625q0 -0.296875 0.03125 -0.515625q0.03125 -0.21875 0.09375 -0.375q0.078125 -0.171875 0.1875 -0.328125q0.125 -0.171875 0.296875 -0.359375l2.046875 -2.1875q0.609375 -0.640625 0.984375 -1.15625q0.375 -0.53125 0.578125 -0.953125q0.21875 -0.4375 0.296875 -0.796875q0.078125 -0.375 0.078125 -0.703125q0 -0.296875 -0.109375 -0.5625q-0.09375 -0.265625 -0.28125 -0.46875q-0.1875 -0.203125 -0.46875 -0.3125q-0.28125 -0.125 -0.65625 -0.125q-0.546875 0 -0.96875 0.140625q-0.40625 0.140625 -0.71875 0.3125q-0.3125 0.15625 -0.53125 0.296875q-0.203125 0.140625 -0.3125 0.140625q-0.09375 0 -0.15625 -0.046875q-0.046875 -0.0625 -0.09375 -0.1875q-0.03125 -0.125 -0.0625 -0.328125q-0.015625 -0.21875 -0.015625 -0.53125q0 -0.203125 0.015625 -0.34375q0.015625 -0.15625 0.046875 -0.25q0.03125 -0.109375 0.0625 -0.1875q0.046875 -0.078125 0.15625 -0.1875q0.125 -0.109375 0.421875 -0.265625q0.3125 -0.171875 0.75 -0.328125q0.453125 -0.171875 0.984375 -0.28125q0.546875 -0.109375 1.125 -0.109375q0.921875 0 1.609375 0.234375q0.6875 0.234375 1.140625 0.65625q0.453125 0.40625 0.671875 0.984375q0.234375 0.5625 0.234375 1.21875q0 0.578125 -0.109375 1.140625q-0.109375 0.546875 -0.453125 1.1875q-0.34375 0.640625 -0.984375 1.421875q-0.625 0.78125 -1.65625 1.796875l-1.375 1.421875l4.640625 0q0.09375 0 0.171875 0.0625q0.078125 0.046875 0.125 0.15625q0.0625 0.109375 0.078125 0.296875q0.03125 0.1875 0.03125 0.453125zm9.830627 -2.421875q0 0.46875 -0.109375 0.71875q-0.09375 0.234375 -0.25 0.234375l-1.046875 0l0 2.125q0 0.09375 -0.0625 0.171875q-0.046875 0.0625 -0.1875 0.109375q-0.140625 0.046875 -0.359375 0.0625q-0.21875 0.015625 -0.5625 0.015625q-0.328125 0 -0.546875 -0.015625q-0.21875 -0.015625 -0.359375 -0.0625q-0.125 -0.046875 -0.1875 -0.109375q-0.046875 -0.078125 -0.046875 -0.171875l0 -2.125l-4.5 0q-0.125 0 -0.234375 -0.03125q-0.09375 -0.03125 -0.171875 -0.140625q-0.0625 -0.125 -0.09375 -0.328125q-0.03125 -0.21875 -0.03125 -0.578125q0 -0.296875 0.015625 -0.5q0.015625 -0.21875 0.046875 -0.390625q0.03125 -0.171875 0.078125 -0.328125q0.0625 -0.15625 0.15625 -0.328125l3.671875 -6.46875q0.046875 -0.078125 0.15625 -0.125q0.109375 -0.0625 0.296875 -0.109375q0.203125 -0.046875 0.5 -0.0625q0.296875 -0.015625 0.71875 -0.015625q0.46875 0 0.796875 0.03125q0.328125 0.015625 0.515625 0.0625q0.203125 0.046875 0.296875 0.125q0.09375 0.078125 0.09375 0.171875l0 7.09375l1.046875 0q0.140625 0 0.25 0.234375q0.109375 0.21875 0.109375 0.734375zm-3.71875 -6.390625l-0.015625 0l-3.109375 5.421875l3.125 0l0 -5.421875z" fill-rule="nonzero"/><path fill="#000000" fill-opacity="0.0" d="m623.18896 360.0l57.921265 0l0 42.015747l-57.921265 0z" fill-rule="evenodd"/><path fill="#000000" d="m640.7827 386.01373q0 0.25 -0.03125 0.4375q-0.015625 0.171875 -0.078125 0.28125q-0.046875 0.09375 -0.109375 0.140625q-0.0625 0.046875 -0.140625 0.046875l-6.5 0q-0.078125 0 -0.140625 -0.046875q-0.0625 -0.046875 -0.109375 -0.140625q-0.046875 -0.109375 -0.078125 -0.28125q-0.03125 -0.1875 -0.03125 -0.4375q0 -0.265625 0.015625 -0.4375q0.03125 -0.1875 0.078125 -0.296875q0.046875 -0.109375 0.109375 -0.15625q0.078125 -0.046875 0.15625 -0.046875l2.1875 0l0 -7.671875l-1.890625 1.046875q-0.203125 0.09375 -0.34375 0.125q-0.125 0.015625 -0.203125 -0.0625q-0.078125 -0.078125 -0.109375 -0.265625q-0.03125 -0.1875 -0.03125 -0.53125q0 -0.21875 0 -0.359375q0.015625 -0.140625 0.046875 -0.234375q0.046875 -0.109375 0.109375 -0.171875q0.0625 -0.0625 0.171875 -0.140625l2.53125 -1.640625q0.046875 -0.03125 0.109375 -0.046875q0.078125 -0.03125 0.1875 -0.046875q0.109375 -0.015625 0.28125 -0.015625q0.1875 -0.015625 0.46875 -0.015625q0.34375 0 0.546875 0.015625q0.21875 0.015625 0.328125 0.046875q0.109375 0.03125 0.140625 0.09375q0.046875 0.046875 0.046875 0.125l0 9.75l1.921875 0q0.078125 0 0.140625 0.046875q0.078125 0.046875 0.125 0.15625q0.046875 0.109375 0.0625 0.296875q0.03125 0.171875 0.03125 0.4375zm9.815063 -5.03125q0 1.40625 -0.234375 2.546875q-0.234375 1.140625 -0.75 1.953125q-0.515625 0.796875 -1.34375 1.21875q-0.8125 0.421875 -2.0 0.421875q-1.21875 0 -2.015625 -0.40625q-0.78125 -0.421875 -1.25 -1.1875q-0.46875 -0.78125 -0.65625 -1.90625q-0.1875 -1.125 -0.1875 -2.546875q0 -1.40625 0.234375 -2.546875q0.234375 -1.140625 0.75 -1.9375q0.515625 -0.8125 1.328125 -1.234375q0.828125 -0.4375 2.015625 -0.4375q1.21875 0 2.015625 0.421875q0.796875 0.40625 1.25 1.1875q0.46875 0.78125 0.65625 1.90625q0.1875 1.125 0.1875 2.546875zm-2.421875 0.109375q0 -0.828125 -0.046875 -1.46875q-0.046875 -0.640625 -0.140625 -1.109375q-0.09375 -0.484375 -0.234375 -0.8125q-0.140625 -0.328125 -0.34375 -0.515625q-0.203125 -0.203125 -0.453125 -0.28125q-0.25 -0.09375 -0.5625 -0.09375q-0.546875 0 -0.90625 0.265625q-0.34375 0.265625 -0.546875 0.78125q-0.203125 0.515625 -0.28125 1.296875q-0.078125 0.765625 -0.078125 1.796875q0 1.265625 0.09375 2.09375q0.109375 0.8125 0.3125 1.296875q0.21875 0.484375 0.546875 0.6875q0.34375 0.203125 0.8125 0.203125q0.359375 0 0.625 -0.109375q0.28125 -0.125 0.484375 -0.34375q0.203125 -0.234375 0.34375 -0.578125q0.140625 -0.34375 0.21875 -0.796875q0.09375 -0.46875 0.125 -1.03125q0.03125 -0.578125 0.03125 -1.28125zm11.877502 -0.109375q0 1.40625 -0.234375 2.546875q-0.234375 1.140625 -0.75 1.953125q-0.515625 0.796875 -1.34375 1.21875q-0.8125 0.421875 -2.0 0.421875q-1.21875 0 -2.015625 -0.40625q-0.78125 -0.421875 -1.25 -1.1875q-0.46875 -0.78125 -0.65625 -1.90625q-0.1875 -1.125 -0.1875 -2.546875q0 -1.40625 0.234375 -2.546875q0.234375 -1.140625 0.75 -1.9375q0.515625 -0.8125 1.328125 -1.234375q0.828125 -0.4375 2.015625 -0.4375q1.21875 0 2.015625 0.421875q0.796875 0.40625 1.25 1.1875q0.46875 0.78125 0.65625 1.90625q0.1875 1.125 0.1875 2.546875zm-2.421875 0.109375q0 -0.828125 -0.046875 -1.46875q-0.046875 -0.640625 -0.140625 -1.109375q-0.09375 -0.484375 -0.234375 -0.8125q-0.140625 -0.328125 -0.34375 -0.515625q-0.203125 -0.203125 -0.453125 -0.28125q-0.25 -0.09375 -0.5625 -0.09375q-0.546875 0 -0.90625 0.265625q-0.34375 0.265625 -0.546875 0.78125q-0.203125 0.515625 -0.28125 1.296875q-0.078125 0.765625 -0.078125 1.796875q0 1.265625 0.09375 2.09375q0.109375 0.8125 0.3125 1.296875q0.21875 0.484375 0.546875 0.6875q0.34375 0.203125 0.8125 0.203125q0.359375 0 0.625 -0.109375q0.28125 -0.125 0.484375 -0.34375q0.203125 -0.234375 0.34375 -0.578125q0.140625 -0.34375 0.21875 -0.796875q0.09375 -0.46875 0.125 -1.03125q0.03125 -0.578125 0.03125 -1.28125zm11.877563 -0.109375q0 1.40625 -0.234375 2.546875q-0.234375 1.140625 -0.75 1.953125q-0.515625 0.796875 -1.34375 1.21875q-0.8125 0.421875 -2.0 0.421875q-1.21875 0 -2.015625 -0.40625q-0.78125 -0.421875 -1.25 -1.1875q-0.46875 -0.78125 -0.65625 -1.90625q-0.1875 -1.125 -0.1875 -2.546875q0 -1.40625 0.234375 -2.546875q0.234375 -1.140625 0.75 -1.9375q0.515625 -0.8125 1.328125 -1.234375q0.828125 -0.4375 2.015625 -0.4375q1.21875 0 2.015625 0.421875q0.796875 0.40625 1.25 1.1875q0.46875 0.78125 0.65625 1.90625q0.1875 1.125 0.1875 2.546875zm-2.421875 0.109375q0 -0.828125 -0.046875 -1.46875q-0.046875 -0.640625 -0.140625 -1.109375q-0.09375 -0.484375 -0.234375 -0.8125q-0.140625 -0.328125 -0.34375 -0.515625q-0.203125 -0.203125 -0.453125 -0.28125q-0.25 -0.09375 -0.5625 -0.09375q-0.546875 0 -0.90625 0.265625q-0.34375 0.265625 -0.546875 0.78125q-0.203125 0.515625 -0.28125 1.296875q-0.078125 0.765625 -0.078125 1.796875q0 1.265625 0.09375 2.09375q0.109375 0.8125 0.3125 1.296875q0.21875 0.484375 0.546875 0.6875q0.34375 0.203125 0.8125 0.203125q0.359375 0 0.625 -0.109375q0.28125 -0.125 0.484375 -0.34375q0.203125 -0.234375 0.34375 -0.578125q0.140625 -0.34375 0.21875 -0.796875q0.09375 -0.46875 0.125 -1.03125q0.03125 -0.578125 0.03125 -1.28125z" fill-rule="nonzero"/><path fill="#000000" fill-opacity="0.0" d="m316.87927 232.4252l101.102356 0l0 87.27557l-101.102356 0z" fill-rule="evenodd"/><path fill="#000000" d="m349.17273 258.9858q0 0.109375 -0.046875 0.1875q-0.046875 0.078125 -0.1875 0.125q-0.140625 0.046875 -0.390625 0.0625q-0.25 0.03125 -0.625 0.03125q-0.59375 0 -0.859375 -0.046875q-0.25 -0.03125 -0.359375 -0.125q-0.109375 -0.09375 -0.1875 -0.21875l-3.546875 -5.5937347l0 5.5937347q0 0.09375 -0.0625 0.171875q-0.046875 0.078125 -0.1875 0.125q-0.140625 0.046875 -0.375 0.0625q-0.21875 0.03125 -0.578125 0.03125q-0.34375 0 -0.578125 -0.03125q-0.234375 -0.015625 -0.375 -0.0625q-0.125 -0.046875 -0.1875 -0.125q-0.0625 -0.078125 -0.0625 -0.171875l0 -11.10936q0 -0.09375 0.0625 -0.171875q0.0625 -0.078125 0.1875 -0.109375q0.140625 -0.046875 0.375 -0.078125q0.234375 -0.03125 0.578125 -0.03125q0.359375 0 0.578125 0.03125q0.234375 0.03125 0.375 0.078125q0.140625 0.03125 0.1875 0.109375q0.0625 0.078125 0.0625 0.171875l0 5.015625l3.4375 -5.0q0.078125 -0.125 0.15625 -0.203125q0.09375 -0.078125 0.234375 -0.125q0.15625 -0.046875 0.375 -0.0625q0.234375 -0.015625 0.59375 -0.015625q0.359375 0 0.59375 0.03125q0.234375 0.03125 0.375 0.078125q0.140625 0.046875 0.1875 0.125q0.0625 0.0625 0.0625 0.15625q0 0.15625 -0.078125 0.328125q-0.078125 0.15625 -0.3125 0.515625l-3.234375 4.234375l3.53125 5.3281097q0.203125 0.375 0.234375 0.5q0.046875 0.125 0.046875 0.1875zm13.045319 -6.7343597q0 0.484375 -0.109375 0.6875q-0.109375 0.1875 -0.296875 0.1875l-6.953125 0q-0.1875 0 -0.296875 -0.1875q-0.109375 -0.203125 -0.109375 -0.6875q0 -0.46875 0.09375 -0.671875q0.109375 -0.203125 0.3125 -0.203125l6.953125 0q0.203125 0 0.296875 0.203125q0.109375 0.203125 0.109375 0.671875zm0 3.671875q0 0.49998474 -0.109375 0.68748474q-0.109375 0.1875 -0.296875 0.1875l-6.953125 0q-0.1875 0 -0.296875 -0.1875q-0.109375 -0.1875 -0.109375 -0.68748474q0 -0.453125 0.09375 -0.65625q0.109375 -0.21875 0.3125 -0.21875l6.953125 0q0.203125 0 0.296875 0.21875q0.109375 0.203125 0.109375 0.65625zm13.587524 2.5156097q0 0.25 -0.03125 0.4375q-0.015625 0.171875 -0.078125 0.28125q-0.046875 0.09375 -0.109375 0.140625q-0.0625 0.046875 -0.140625 0.046875l-6.5 0q-0.078125 0 -0.140625 -0.046875q-0.0625 -0.046875 -0.109375 -0.140625q-0.046875 -0.109375 -0.078125 -0.28125q-0.03125 -0.1875 -0.03125 -0.4375q0 -0.265625 0.015625 -0.4375q0.03125 -0.1875 0.078125 -0.296875q0.046875 -0.109375 0.109375 -0.15625q0.078125 -0.046875 0.15625 -0.046875l2.1875 0l0 -7.6718597l-1.890625 1.046875q-0.203125 0.09375 -0.34375 0.125q-0.125 0.015625 -0.203125 -0.0625q-0.078125 -0.078125 -0.109375 -0.265625q-0.03125 -0.1875 -0.03125 -0.53125q0 -0.21875 0 -0.359375q0.015625 -0.140625 0.046875 -0.234375q0.046875 -0.109375 0.109375 -0.171875q0.0625 -0.0625 0.171875 -0.140625l2.53125 -1.640625q0.046875 -0.03125 0.109375 -0.046875q0.078125 -0.03125 0.1875 -0.046875q0.109375 -0.015625 0.28125 -0.015625q0.1875 -0.015625 0.46875 -0.015625q0.34375 0 0.546875 0.015625q0.21875 0.015625 0.328125 0.046875q0.109375 0.03125 0.140625 0.09375q0.046875 0.046875 0.046875 0.125l0 9.749985l1.921875 0q0.078125 0 0.140625 0.046875q0.078125 0.046875 0.125 0.15625q0.046875 0.109375 0.0625 0.296875q0.03125 0.171875 0.03125 0.4375zm9.565033 -0.0625q0 0.265625 -0.03125 0.453125q-0.015625 0.171875 -0.0625 0.296875q-0.03125 0.125 -0.109375 0.171875q-0.078125 0.046875 -0.171875 0.046875l-6.765625 0q-0.203125 0 -0.359375 -0.03125q-0.140625 -0.046875 -0.234375 -0.140625q-0.078125 -0.109375 -0.125 -0.3125q-0.046875 -0.203125 -0.046875 -0.515625q0 -0.296875 0.03125 -0.515625q0.03125 -0.21875 0.09375 -0.375q0.078125 -0.171875 0.1875 -0.328125q0.125 -0.171875 0.296875 -0.359375l2.046875 -2.1874847q0.609375 -0.640625 0.984375 -1.15625q0.375 -0.53125 0.578125 -0.953125q0.21875 -0.4375 0.296875 -0.796875q0.078125 -0.375 0.078125 -0.703125q0 -0.296875 -0.109375 -0.5625q-0.09375 -0.265625 -0.28125 -0.46875q-0.1875 -0.203125 -0.46875 -0.3125q-0.28125 -0.125 -0.65625 -0.125q-0.546875 0 -0.96875 0.140625q-0.40625 0.140625 -0.71875 0.3125q-0.3125 0.15625 -0.53125 0.296875q-0.203125 0.140625 -0.3125 0.140625q-0.09375 0 -0.15625 -0.046875q-0.046875 -0.0625 -0.09375 -0.1875q-0.03125 -0.125 -0.0625 -0.328125q-0.015625 -0.21875 -0.015625 -0.53125q0 -0.203125 0.015625 -0.34375q0.015625 -0.15625 0.046875 -0.25q0.03125 -0.109375 0.0625 -0.1875q0.046875 -0.078125 0.15625 -0.1875q0.125 -0.109375 0.421875 -0.265625q0.3125 -0.171875 0.75 -0.328125q0.453125 -0.171875 0.984375 -0.28125q0.546875 -0.109375 1.125 -0.109375q0.921875 0 1.609375 0.234375q0.6875 0.234375 1.140625 0.65625q0.453125 0.40625 0.671875 0.984375q0.234375 0.5625 0.234375 1.21875q0 0.578125 -0.109375 1.140625q-0.109375 0.546875 -0.453125 1.1875q-0.34375 0.640625 -0.984375 1.421875q-0.625 0.78125 -1.65625 1.796875l-1.375 1.4218597l4.640625 0q0.09375 0 0.171875 0.0625q0.078125 0.046875 0.125 0.15625q0.0625 0.109375 0.078125 0.296875q0.03125 0.1875 0.03125 0.453125zm9.643158 -2.1875q0 0.796875 -0.28125 1.421875q-0.28125 0.625 -0.828125 1.0625q-0.53125 0.4375 -1.34375 0.65625q-0.796875 0.21875 -1.84375 0.21875q-1.0 0 -1.75 -0.203125q-0.75 -0.1875 -1.265625 -0.578125q-0.515625 -0.390625 -0.765625 -0.953125q-0.25 -0.578125 -0.25 -1.3125q0 -0.5 0.140625 -0.93748474q0.15625 -0.453125 0.453125 -0.828125q0.296875 -0.375 0.734375 -0.703125q0.4375 -0.328125 1.015625 -0.640625q-0.46875 -0.25 -0.84375 -0.546875q-0.375 -0.296875 -0.640625 -0.640625q-0.25 -0.359375 -0.390625 -0.765625q-0.140625 -0.421875 -0.140625 -0.921875q0 -0.703125 0.25 -1.28125q0.25 -0.578125 0.75 -1.0q0.5 -0.4375 1.234375 -0.65625q0.75 -0.234375 1.734375 -0.234375q0.984375 0 1.671875 0.21875q0.703125 0.203125 1.140625 0.59375q0.453125 0.375 0.65625 0.90625q0.21875 0.53125 0.21875 1.1875q0 0.421875 -0.140625 0.828125q-0.140625 0.40625 -0.390625 0.78125q-0.25 0.359375 -0.625 0.6875q-0.375 0.3125 -0.84375 0.578125q0.546875 0.28125 0.984375 0.609375q0.4375 0.328125 0.734375 0.71875q0.3125 0.375 0.46875 0.8125q0.15625 0.421875 0.15625 0.92185974zm-2.640625 -5.7187347q0 -0.328125 -0.09375 -0.578125q-0.09375 -0.25 -0.296875 -0.421875q-0.1875 -0.1875 -0.484375 -0.28125q-0.28125 -0.09375 -0.671875 -0.09375q-0.765625 0 -1.140625 0.359375q-0.359375 0.34375 -0.359375 0.96875q0 0.28125 0.09375 0.53125q0.09375 0.25 0.296875 0.46875q0.203125 0.21875 0.515625 0.4375q0.3125 0.203125 0.75 0.4375q0.671875 -0.390625 1.03125 -0.828125q0.359375 -0.453125 0.359375 -1.0zm0.265625 5.8749847q0 -0.328125 -0.109375 -0.60935974q-0.109375 -0.28125 -0.359375 -0.515625q-0.234375 -0.25 -0.609375 -0.484375q-0.359375 -0.234375 -0.84375 -0.46875q-0.40625 0.234375 -0.734375 0.46875q-0.3125 0.21875 -0.53125 0.46875q-0.203125 0.25 -0.3125 0.53125q-0.09375 0.28123474 -0.09375 0.59373474q0 0.703125 0.453125 1.078125q0.453125 0.375 1.375 0.375q0.890625 0 1.328125 -0.375q0.4375 -0.390625 0.4375 -1.0625z" fill-rule="nonzero"/><path fill="#000000" d="m357.6957 278.21393q0 0.921875 -0.34375 1.625q-0.34375 0.703125 -0.9375 1.171875q-0.59375 0.46875 -1.390625 0.703125q-0.78125 0.234375 -1.6875 0.234375q-0.609375 0 -1.140625 -0.09375q-0.515625 -0.09375 -0.921875 -0.234375q-0.390625 -0.140625 -0.671875 -0.296875q-0.265625 -0.15625 -0.390625 -0.265625q-0.109375 -0.125 -0.15625 -0.34375q-0.046875 -0.234375 -0.046875 -0.65625q0 -0.28125 0.015625 -0.46875q0.015625 -0.1875 0.046875 -0.3125q0.046875 -0.125 0.109375 -0.171875q0.078125 -0.046875 0.171875 -0.046875q0.125 0 0.359375 0.15625q0.234375 0.140625 0.59375 0.328125q0.359375 0.1875 0.859375 0.34375q0.515625 0.140625 1.1875 0.140625q0.4375 0 0.78125 -0.109375q0.34375 -0.109375 0.578125 -0.296875q0.25 -0.1875 0.375 -0.46875q0.125 -0.28125 0.125 -0.625q0 -0.40625 -0.21875 -0.6875q-0.21875 -0.296875 -0.578125 -0.515625q-0.34375 -0.21875 -0.796875 -0.40625q-0.4375 -0.203125 -0.90625 -0.421875q-0.46875 -0.21875 -0.921875 -0.5q-0.453125 -0.28125 -0.796875 -0.671875q-0.34375 -0.390625 -0.5625 -0.90625q-0.21875 -0.53125 -0.21875 -1.265625q0 -0.859375 0.3125 -1.5q0.3125 -0.640625 0.84375 -1.0625q0.53125 -0.421875 1.25 -0.625q0.734375 -0.21875 1.546875 -0.21875q0.40625 0 0.828125 0.0625q0.421875 0.0625 0.78125 0.171875q0.375 0.109375 0.65625 0.25q0.28125 0.140625 0.359375 0.234375q0.09375 0.078125 0.125 0.15625q0.046875 0.0625 0.0625 0.171875q0.015625 0.09375 0.03125 0.25q0.015625 0.15625 0.015625 0.40625q0 0.265625 -0.015625 0.453125q-0.015625 0.171875 -0.046875 0.296875q-0.03125 0.109375 -0.09375 0.171875q-0.0625 0.046875 -0.15625 0.046875q-0.109375 0 -0.328125 -0.125q-0.21875 -0.125 -0.53125 -0.28125q-0.3125 -0.15625 -0.734375 -0.265625q-0.421875 -0.125 -0.921875 -0.125q-0.390625 0 -0.6875 0.09375q-0.28125 0.09375 -0.484375 0.265625q-0.203125 0.171875 -0.296875 0.40625q-0.09375 0.234375 -0.09375 0.5q0 0.390625 0.21875 0.6875q0.21875 0.28125 0.578125 0.5q0.359375 0.21875 0.8125 0.421875q0.453125 0.1875 0.921875 0.40625q0.484375 0.21875 0.9375 0.5q0.453125 0.28125 0.796875 0.671875q0.359375 0.375 0.578125 0.90625q0.21875 0.515625 0.21875 1.234375zm13.285675 -3.5625q0 0.484375 -0.109375 0.6875q-0.109375 0.1875 -0.296875 0.1875l-6.953125 0q-0.1875 0 -0.296875 -0.1875q-0.109375 -0.203125 -0.109375 -0.6875q0 -0.46875 0.09375 -0.671875q0.109375 -0.203125 0.3125 -0.203125l6.953125 0q0.203125 0 0.296875 0.203125q0.109375 0.203125 0.109375 0.671875zm0 3.671875q0 0.5 -0.109375 0.6875q-0.109375 0.1875 -0.296875 0.1875l-6.953125 0q-0.1875 0 -0.296875 -0.1875q-0.109375 -0.1875 -0.109375 -0.6875q0 -0.453125 0.09375 -0.65625q0.109375 -0.21875 0.3125 -0.21875l6.953125 0q0.203125 0 0.296875 0.21875q0.109375 0.203125 0.109375 0.65625zm13.587524 2.515625q0 0.25 -0.03125 0.4375q-0.015625 0.171875 -0.078125 0.28125q-0.046875 0.09375 -0.109375 0.140625q-0.0625 0.046875 -0.140625 0.046875l-6.5 0q-0.078125 0 -0.140625 -0.046875q-0.0625 -0.046875 -0.109375 -0.140625q-0.046875 -0.109375 -0.078125 -0.28125q-0.03125 -0.1875 -0.03125 -0.4375q0 -0.265625 0.015625 -0.4375q0.03125 -0.1875 0.078125 -0.296875q0.046875 -0.109375 0.109375 -0.15625q0.078125 -0.046875 0.15625 -0.046875l2.1875 0l0 -7.671875l-1.890625 1.046875q-0.203125 0.09375 -0.34375 0.125q-0.125 0.015625 -0.203125 -0.0625q-0.078125 -0.078125 -0.109375 -0.265625q-0.03125 -0.1875 -0.03125 -0.53125q0 -0.21875 0 -0.359375q0.015625 -0.140625 0.046875 -0.234375q0.046875 -0.109375 0.109375 -0.171875q0.0625 -0.0625 0.171875 -0.140625l2.53125 -1.640625q0.046875 -0.03125 0.109375 -0.046875q0.078125 -0.03125 0.1875 -0.046875q0.109375 -0.015625 0.28125 -0.015625q0.1875 -0.015625 0.46875 -0.015625q0.34375 0 0.546875 0.015625q0.21875 0.015625 0.328125 0.046875q0.109375 0.03125 0.140625 0.09375q0.046875 0.046875 0.046875 0.125l0 9.75l1.921875 0q0.078125 0 0.140625 0.046875q0.078125 0.046875 0.125 0.15625q0.046875 0.109375 0.0625 0.296875q0.03125 0.171875 0.03125 0.4375z" fill-rule="nonzero"/><path fill="#000000" d="m358.23376 295.94208q0 0.984375 -0.3125 1.75q-0.3125 0.765625 -0.90625 1.296875q-0.59375 0.515625 -1.453125 0.796875q-0.859375 0.265625 -2.015625 0.265625l-0.984375 0l0 3.765625q0 0.09375 -0.0625 0.171875q-0.0625 0.0625 -0.203125 0.109375q-0.140625 0.046875 -0.375 0.0625q-0.21875 0.03125 -0.5625 0.03125q-0.359375 0 -0.59375 -0.03125q-0.21875 -0.015625 -0.359375 -0.0625q-0.140625 -0.046875 -0.203125 -0.109375q-0.046875 -0.078125 -0.046875 -0.171875l0 -10.609375q0 -0.421875 0.21875 -0.625q0.234375 -0.21875 0.59375 -0.21875l2.78125 0q0.421875 0 0.796875 0.03125q0.375 0.03125 0.90625 0.140625q0.53125 0.09375 1.0625 0.375q0.546875 0.28125 0.921875 0.71875q0.390625 0.4375 0.59375 1.015625q0.203125 0.578125 0.203125 1.296875zm-2.515625 0.171875q0 -0.625 -0.21875 -1.015625q-0.21875 -0.40625 -0.53125 -0.59375q-0.3125 -0.203125 -0.671875 -0.25q-0.34375 -0.046875 -0.71875 -0.046875l-1.015625 0l0 4.0l1.0625 0q0.578125 0 0.96875 -0.15625q0.390625 -0.15625 0.625 -0.4375q0.25 -0.28125 0.375 -0.65625q0.125 -0.390625 0.125 -0.84375zm15.818939 0.9375q0 0.484375 -0.109375 0.6875q-0.109375 0.1875 -0.296875 0.1875l-6.953125 0q-0.1875 0 -0.296875 -0.1875q-0.109375 -0.203125 -0.109375 -0.6875q0 -0.46875 0.09375 -0.671875q0.109375 -0.203125 0.3125 -0.203125l6.953125 0q0.203125 0 0.296875 0.203125q0.109375 0.203125 0.109375 0.671875zm0 3.671875q0 0.5 -0.109375 0.6875q-0.109375 0.1875 -0.296875 0.1875l-6.953125 0q-0.1875 0 -0.296875 -0.1875q-0.109375 -0.1875 -0.109375 -0.6875q0 -0.453125 0.09375 -0.65625q0.109375 -0.21875 0.3125 -0.21875l6.953125 0q0.203125 0 0.296875 0.21875q0.109375 0.203125 0.109375 0.65625zm13.946869 -2.515625q0 1.40625 -0.234375 2.546875q-0.234375 1.140625 -0.75 1.953125q-0.515625 0.796875 -1.34375 1.21875q-0.8125 0.421875 -2.0 0.421875q-1.21875 0 -2.015625 -0.40625q-0.78125 -0.421875 -1.25 -1.1875q-0.46875 -0.78125 -0.65625 -1.90625q-0.1875 -1.125 -0.1875 -2.546875q0 -1.40625 0.234375 -2.546875q0.234375 -1.140625 0.75 -1.9375q0.515625 -0.8125 1.328125 -1.234375q0.828125 -0.4375 2.015625 -0.4375q1.21875 0 2.015625 0.421875q0.796875 0.40625 1.25 1.1875q0.46875 0.78125 0.65625 1.90625q0.1875 1.125 0.1875 2.546875zm-2.421875 0.109375q0 -0.828125 -0.046875 -1.46875q-0.046875 -0.640625 -0.140625 -1.109375q-0.09375 -0.484375 -0.234375 -0.8125q-0.140625 -0.328125 -0.34375 -0.515625q-0.203125 -0.203125 -0.453125 -0.28125q-0.25 -0.09375 -0.5625 -0.09375q-0.546875 0 -0.90625 0.265625q-0.34375 0.265625 -0.546875 0.78125q-0.203125 0.515625 -0.28125 1.296875q-0.078125 0.765625 -0.078125 1.796875q0 1.265625 0.09375 2.09375q0.109375 0.8125 0.3125 1.296875q0.21875 0.484375 0.546875 0.6875q0.34375 0.203125 0.8125 0.203125q0.359375 0 0.625 -0.109375q0.28125 -0.125 0.484375 -0.34375q0.203125 -0.234375 0.34375 -0.578125q0.140625 -0.34375 0.21875 -0.796875q0.09375 -0.46875 0.125 -1.03125q0.03125 -0.578125 0.03125 -1.28125z" fill-rule="nonzero"/><path fill="#000000" fill-opacity="0.0" d="m139.09186 230.73491l86.267715 0l0 42.015762l-86.267715 0z" fill-rule="evenodd"/><path fill="#000000" d="m172.49098 254.12366q0 0.921875 -0.34375 1.625q-0.34375 0.703125 -0.9375 1.171875q-0.59375 0.46875 -1.390625 0.703125q-0.78125 0.234375 -1.6875 0.234375q-0.609375 0 -1.140625 -0.09375q-0.515625 -0.09375 -0.921875 -0.234375q-0.390625 -0.140625 -0.671875 -0.296875q-0.265625 -0.15625 -0.390625 -0.265625q-0.109375 -0.125 -0.15625 -0.34375q-0.046875 -0.234375 -0.046875 -0.65625q0 -0.28125 0.015625 -0.46875q0.015625 -0.1875 0.046875 -0.3125q0.046875 -0.125 0.109375 -0.171875q0.078125 -0.046875 0.171875 -0.046875q0.125 0 0.359375 0.15625q0.234375 0.140625 0.59375 0.328125q0.359375 0.1875 0.859375 0.34375q0.515625 0.140625 1.1875 0.140625q0.4375 0 0.78125 -0.109375q0.34375 -0.109375 0.578125 -0.296875q0.25 -0.1875 0.375 -0.46875q0.125 -0.28125 0.125 -0.625q0 -0.40625 -0.21875 -0.6875q-0.21875 -0.296875 -0.578125 -0.515625q-0.34375 -0.21875 -0.796875 -0.40625q-0.4375 -0.203125 -0.90625 -0.421875q-0.46875 -0.21875 -0.921875 -0.5q-0.453125 -0.28125 -0.796875 -0.671875q-0.34375 -0.390625 -0.5625 -0.90625q-0.21875 -0.53125 -0.21875 -1.265625q0 -0.859375 0.3125 -1.5q0.3125 -0.640625 0.84375 -1.0625q0.53125 -0.421875 1.25 -0.625q0.734375 -0.21875 1.546875 -0.21875q0.40625 0 0.828125 0.0625q0.421875 0.0625 0.78125 0.171875q0.375 0.109375 0.65625 0.25q0.28125 0.140625 0.359375 0.234375q0.09375 0.078125 0.125 0.15625q0.046875 0.0625 0.0625 0.171875q0.015625 0.09375 0.03125 0.25q0.015625 0.15625 0.015625 0.40625q0 0.265625 -0.015625 0.453125q-0.015625 0.171875 -0.046875 0.296875q-0.03125 0.109375 -0.09375 0.171875q-0.0625 0.046875 -0.15625 0.046875q-0.109375 0 -0.328125 -0.125q-0.21875 -0.125 -0.53125 -0.28125q-0.3125 -0.15625 -0.734375 -0.265625q-0.421875 -0.125 -0.921875 -0.125q-0.390625 0 -0.6875 0.09375q-0.28125 0.09375 -0.484375 0.265625q-0.203125 0.171875 -0.296875 0.40625q-0.09375 0.234375 -0.09375 0.5q0 0.390625 0.21875 0.6875q0.21875 0.28125 0.578125 0.5q0.359375 0.21875 0.8125 0.421875q0.453125 0.1875 0.921875 0.40625q0.484375 0.21875 0.9375 0.5q0.453125 0.28125 0.796875 0.671875q0.359375 0.375 0.578125 0.90625q0.21875 0.515625 0.21875 1.234375zm13.28569 -3.5625q0 0.484375 -0.109375 0.6875q-0.109375 0.1875 -0.296875 0.1875l-6.953125 0q-0.1875 0 -0.296875 -0.1875q-0.109375 -0.203125 -0.109375 -0.6875q0 -0.46875 0.09375 -0.671875q0.109375 -0.203125 0.3125 -0.203125l6.953125 0q0.203125 0 0.296875 0.203125q0.109375 0.203125 0.109375 0.671875zm0 3.671875q0 0.5 -0.109375 0.6875q-0.109375 0.1875 -0.296875 0.1875l-6.953125 0q-0.1875 0 -0.296875 -0.1875q-0.109375 -0.1875 -0.109375 -0.6875q0 -0.453125 0.09375 -0.65625q0.109375 -0.21875 0.3125 -0.21875l6.953125 0q0.203125 0 0.296875 0.21875q0.109375 0.203125 0.109375 0.65625zm13.650009 -0.03125q0 0.890625 -0.34375 1.578125q-0.328125 0.671875 -0.9375 1.140625q-0.59375 0.46875 -1.4375 0.703125q-0.84375 0.234375 -1.828125 0.234375q-0.609375 0 -1.140625 -0.09375q-0.515625 -0.078125 -0.921875 -0.203125q-0.40625 -0.125 -0.671875 -0.25q-0.265625 -0.140625 -0.34375 -0.21875q-0.078125 -0.078125 -0.125 -0.15625q-0.046875 -0.09375 -0.078125 -0.21875q-0.03125 -0.125 -0.046875 -0.3125q0 -0.1875 0 -0.453125q0 -0.4375 0.0625 -0.609375q0.078125 -0.171875 0.21875 -0.171875q0.09375 0 0.3125 0.125q0.234375 0.125 0.578125 0.265625q0.34375 0.140625 0.796875 0.265625q0.46875 0.125 1.0625 0.125q0.5 0 0.875 -0.109375q0.390625 -0.125 0.65625 -0.34375q0.28125 -0.21875 0.40625 -0.515625q0.140625 -0.3125 0.140625 -0.6875q0 -0.40625 -0.171875 -0.734375q-0.15625 -0.328125 -0.46875 -0.546875q-0.3125 -0.234375 -0.796875 -0.359375q-0.46875 -0.140625 -1.125 -0.140625l-1.015625 0q-0.109375 0 -0.203125 -0.03125q-0.078125 -0.03125 -0.140625 -0.125q-0.046875 -0.109375 -0.078125 -0.28125q-0.015625 -0.171875 -0.015625 -0.46875q0 -0.25 0.015625 -0.421875q0.03125 -0.171875 0.078125 -0.265625q0.046875 -0.09375 0.125 -0.125q0.078125 -0.03125 0.1875 -0.03125l1.03125 0q0.53125 0 0.9375 -0.125q0.421875 -0.125 0.6875 -0.34375q0.28125 -0.234375 0.421875 -0.5625q0.15625 -0.328125 0.15625 -0.71875q0 -0.296875 -0.109375 -0.5625q-0.09375 -0.265625 -0.296875 -0.453125q-0.1875 -0.203125 -0.5 -0.3125q-0.3125 -0.125 -0.734375 -0.125q-0.46875 0 -0.890625 0.140625q-0.421875 0.140625 -0.75 0.3125q-0.328125 0.171875 -0.5625 0.3125q-0.234375 0.140625 -0.34375 0.140625q-0.078125 0 -0.140625 -0.03125q-0.046875 -0.03125 -0.078125 -0.109375q-0.03125 -0.09375 -0.0625 -0.265625q-0.015625 -0.1875 -0.015625 -0.453125q0 -0.234375 0.015625 -0.375q0.015625 -0.15625 0.03125 -0.25q0.03125 -0.109375 0.0625 -0.171875q0.046875 -0.078125 0.140625 -0.15625q0.09375 -0.09375 0.375 -0.265625q0.28125 -0.171875 0.703125 -0.328125q0.4375 -0.171875 1.0 -0.28125q0.5625 -0.125 1.21875 -0.125q0.84375 0 1.5 0.203125q0.671875 0.203125 1.125 0.578125q0.453125 0.375 0.671875 0.9375q0.234375 0.546875 0.234375 1.234375q0 0.53125 -0.140625 1.0q-0.125 0.46875 -0.390625 0.84375q-0.265625 0.359375 -0.671875 0.609375q-0.390625 0.25 -0.90625 0.375l0 0.03125q0.625 0.078125 1.109375 0.328125q0.5 0.234375 0.84375 0.59375q0.34375 0.359375 0.515625 0.828125q0.1875 0.453125 0.1875 0.984375z" fill-rule="nonzero"/></g></svg>