<svg version="1.1" viewBox="0.0 0.0 969.7296587926509 537.8083989501313" fill="none" stroke="none" stroke-linecap="square" stroke-miterlimit="10" xmlns:xlink="http://www.w3.org/1999/xlink" xmlns="http://www.w3.org/2000/svg"><clipPath id="p.0"><path d="m0 0l969.7297 0l0 537.8084l-969.7297 0l0 -537.8084z" clip-rule="nonzero"/></clipPath><g clip-path="url(#p.0)"><path fill="#000000" fill-opacity="0.0" d="m0 0l969.7297 0l0 537.8084l-969.7297 0z" fill-rule="evenodd"/><path fill="#dd7e6b" d="m198.03105 141.17705l140.40944 0l0 68.72441l-140.40944 0z" fill-rule="evenodd"/><path stroke="#000000" stroke-width="2.0" stroke-linejoin="round" stroke-linecap="butt" d="m198.03105 141.17705l140.40944 0l0 68.72441l-140.40944 0z" fill-rule="evenodd"/><path fill="#000000" fill-opacity="0.0" d="m225.10104 143.22311l86.26773 0l0 64.62991l-86.26773 0z" fill-rule="evenodd"/><path fill="#000000" d="m258.43323 168.36186q0 0.21875 -0.015625 0.390625q-0.015625 0.15625 -0.046875 0.265625q-0.015625 0.109375 -0.0625 0.203125q-0.046875 0.078125 -0.15625 0.1875q-0.09375 0.09375 -0.390625 0.265625q-0.28125 0.15625 -0.703125 0.3125q-0.40625 0.140625 -0.9375 0.234375q-0.53125 0.109375 -1.15625 0.109375q-1.203125 0 -2.1875 -0.375q-0.96875 -0.375 -1.65625 -1.109375q-0.671875 -0.75 -1.046875 -1.859375q-0.359375 -1.109375 -0.359375 -2.578125q0 -1.5 0.390625 -2.671875q0.40625 -1.171875 1.125 -1.953125q0.71875 -0.796875 1.71875 -1.203125q1.015625 -0.421875 2.234375 -0.421875q0.484375 0 0.9375 0.09375q0.46875 0.078125 0.84375 0.21875q0.390625 0.125 0.703125 0.296875q0.3125 0.171875 0.4375 0.296875q0.125 0.125 0.15625 0.203125q0.046875 0.078125 0.078125 0.203125q0.03125 0.125 0.046875 0.3125q0.015625 0.171875 0.015625 0.421875q0 0.265625 -0.03125 0.46875q-0.015625 0.1875 -0.0625 0.3125q-0.03125 0.109375 -0.109375 0.171875q-0.0625 0.046875 -0.140625 0.046875q-0.140625 0 -0.34375 -0.15625q-0.203125 -0.15625 -0.546875 -0.34375q-0.328125 -0.203125 -0.796875 -0.359375q-0.453125 -0.171875 -1.09375 -0.171875q-0.703125 0 -1.25 0.296875q-0.546875 0.28125 -0.9375 0.8125q-0.390625 0.53125 -0.59375 1.296875q-0.1875 0.75 -0.1875 1.703125q0 1.03125 0.203125 1.796875q0.21875 0.75 0.609375 1.25q0.40625 0.484375 0.953125 0.734375q0.5625 0.234375 1.265625 0.234375q0.640625 0 1.109375 -0.140625q0.46875 -0.15625 0.796875 -0.328125q0.328125 -0.1875 0.546875 -0.328125q0.21875 -0.15625 0.328125 -0.15625q0.09375 0 0.140625 0.046875q0.0625 0.03125 0.09375 0.140625q0.046875 0.109375 0.0625 0.3125q0.015625 0.1875 0.015625 0.515625zm9.79657 -2.671875q0 1.03125 -0.28125 1.890625q-0.265625 0.859375 -0.828125 1.484375q-0.546875 0.609375 -1.390625 0.953125q-0.828125 0.328125 -1.953125 0.328125q-1.078125 0 -1.890625 -0.296875q-0.796875 -0.296875 -1.328125 -0.875q-0.515625 -0.578125 -0.78125 -1.40625q-0.25 -0.84375 -0.25 -1.921875q0 -1.03125 0.28125 -1.890625q0.28125 -0.859375 0.828125 -1.46875q0.5625 -0.625 1.390625 -0.953125q0.828125 -0.34375 1.953125 -0.34375q1.09375 0 1.890625 0.296875q0.8125 0.296875 1.328125 0.875q0.53125 0.5625 0.78125 1.40625q0.25 0.84375 0.25 1.921875zm-2.359375 0.09375q0 -0.609375 -0.09375 -1.109375q-0.09375 -0.5 -0.328125 -0.875q-0.21875 -0.375 -0.59375 -0.578125q-0.375 -0.21875 -0.953125 -0.21875q-0.515625 0 -0.90625 0.1875q-0.375 0.1875 -0.625 0.546875q-0.234375 0.359375 -0.359375 0.875q-0.125 0.5 -0.125 1.140625q0 0.59375 0.09375 1.109375q0.109375 0.5 0.328125 0.875q0.21875 0.375 0.59375 0.578125q0.390625 0.203125 0.953125 0.203125q0.53125 0 0.90625 -0.1875q0.390625 -0.1875 0.625 -0.53125q0.25 -0.359375 0.359375 -0.859375q0.125 -0.515625 0.125 -1.15625zm11.935791 4.046875q0 0.09375 -0.0625 0.171875q-0.046875 0.0625 -0.171875 0.109375q-0.125 0.046875 -0.359375 0.0625q-0.21875 0.015625 -0.546875 0.015625q-0.328125 0 -0.5625 -0.015625q-0.21875 -0.015625 -0.34375 -0.0625q-0.125 -0.046875 -0.1875 -0.109375q-0.046875 -0.078125 -0.046875 -0.171875l0 -4.640625q0 -0.578125 -0.09375 -0.921875q-0.078125 -0.34375 -0.25 -0.578125q-0.15625 -0.25 -0.421875 -0.375q-0.25 -0.125 -0.609375 -0.125q-0.4375 0 -0.890625 0.3125q-0.4375 0.3125 -0.921875 0.921875l0 5.40625q0 0.09375 -0.0625 0.171875q-0.046875 0.0625 -0.1875 0.109375q-0.125 0.046875 -0.34375 0.0625q-0.21875 0.015625 -0.546875 0.015625q-0.34375 0 -0.5625 -0.015625q-0.21875 -0.015625 -0.359375 -0.0625q-0.125 -0.046875 -0.1875 -0.109375q-0.046875 -0.078125 -0.046875 -0.171875l0 -8.125q0 -0.09375 0.046875 -0.15625q0.046875 -0.0625 0.15625 -0.109375q0.125 -0.046875 0.3125 -0.0625q0.1875 -0.03125 0.46875 -0.03125q0.296875 0 0.484375 0.03125q0.203125 0.015625 0.296875 0.0625q0.109375 0.046875 0.15625 0.109375q0.046875 0.0625 0.046875 0.15625l0 0.9375q0.671875 -0.71875 1.359375 -1.078125q0.703125 -0.375 1.46875 -0.375q0.828125 0 1.390625 0.28125q0.5625 0.265625 0.90625 0.734375q0.359375 0.46875 0.515625 1.09375q0.15625 0.625 0.15625 1.515625l0 5.015625zm9.465759 -8.125q0 0.03125 0 0.109375q0 0.0625 -0.015625 0.140625q-0.015625 0.078125 -0.046875 0.171875q-0.015625 0.09375 -0.046875 0.234375l-2.453125 7.34375q-0.046875 0.15625 -0.125 0.25q-0.078125 0.09375 -0.25 0.15625q-0.171875 0.046875 -0.484375 0.0625q-0.296875 0.015625 -0.796875 0.015625q-0.484375 0 -0.796875 -0.015625q-0.296875 -0.015625 -0.46875 -0.0625q-0.171875 -0.0625 -0.25 -0.15625q-0.078125 -0.109375 -0.125 -0.25l-2.4375 -7.34375q-0.0625 -0.1875 -0.09375 -0.328125q-0.03125 -0.15625 -0.03125 -0.21875q0 -0.0625 0 -0.109375q0 -0.09375 0.046875 -0.15625q0.046875 -0.078125 0.171875 -0.125q0.140625 -0.046875 0.359375 -0.0625q0.21875 -0.015625 0.5625 -0.015625q0.375 0 0.59375 0.03125q0.234375 0.015625 0.359375 0.0625q0.140625 0.03125 0.1875 0.109375q0.0625 0.078125 0.09375 0.1875l1.84375 5.96875l0.0625 0.21875l0.046875 -0.21875l1.828125 -5.96875q0.03125 -0.109375 0.078125 -0.1875q0.0625 -0.078125 0.1875 -0.109375q0.140625 -0.046875 0.34375 -0.0625q0.21875 -0.03125 0.5625 -0.03125q0.34375 0 0.546875 0.015625q0.21875 0.015625 0.328125 0.0625q0.125 0.046875 0.171875 0.125q0.046875 0.0625 0.046875 0.15625z" fill-rule="nonzero"/><path fill="#000000" d="m262.72714 191.63686q0 0.25 -0.03125 0.4375q-0.015625 0.171875 -0.078125 0.28125q-0.046875 0.09375 -0.109375 0.140625q-0.0625 0.046875 -0.140625 0.046875l-6.4999847 0q-0.078125 0 -0.140625 -0.046875q-0.0625 -0.046875 -0.109375 -0.140625q-0.046875 -0.109375 -0.078125 -0.28125q-0.03125 -0.1875 -0.03125 -0.4375q0 -0.265625 0.015625 -0.4375q0.03125 -0.1875 0.078125 -0.296875q0.046875 -0.109375 0.109375 -0.15625q0.078125 -0.046875 0.15625 -0.046875l2.1874847 0l0 -7.671875l-1.890625 1.046875q-0.20310974 0.09375 -0.34373474 0.125q-0.125 0.015625 -0.203125 -0.0625q-0.078125 -0.078125 -0.109375 -0.265625q-0.03125 -0.1875 -0.03125 -0.53125q0 -0.21875 0 -0.359375q0.015625 -0.140625 0.046875 -0.234375q0.046875 -0.109375 0.109375 -0.171875q0.0625 -0.0625 0.171875 -0.140625l2.5312347 -1.640625q0.046875 -0.03125 0.109375 -0.046875q0.078125 -0.03125 0.1875 -0.046875q0.109375 -0.015625 0.28125 -0.015625q0.1875 -0.015625 0.46875 -0.015625q0.34375 0 0.546875 0.015625q0.21875 0.015625 0.328125 0.046875q0.109375 0.03125 0.140625 0.09375q0.046875 0.046875 0.046875 0.125l0 9.75l1.921875 0q0.078125 0 0.140625 0.046875q0.078125 0.046875 0.125 0.15625q0.046875 0.109375 0.0625 0.296875q0.03125 0.171875 0.03125 0.4375zm8.690033 -7.640625q0.171875 0.0625 0.15625 0.28125q0 0.21875 -0.265625 0.671875q-0.265625 0.453125 -0.453125 0.5625q-0.171875 0.109375 -0.328125 0l-1.8125 -1.453125l0.375 2.296875q0.03125 0.1875 -0.171875 0.296875q-0.1875 0.09375 -0.71875 0.09375q-0.53125 0 -0.734375 -0.09375q-0.1875 -0.109375 -0.15625 -0.296875l0.375 -2.296875l-1.8125 1.453125q-0.140625 0.109375 -0.328125 0q-0.171875 -0.125 -0.453125 -0.578125q-0.265625 -0.4375 -0.28125 -0.65625q0 -0.21875 0.171875 -0.28125l2.171875 -0.84375l-2.171875 -0.84375q-0.171875 -0.0625 -0.171875 -0.28125q0.015625 -0.21875 0.28125 -0.671875q0.265625 -0.453125 0.453125 -0.5625q0.1875 -0.125 0.328125 0l1.8125 1.453125l-0.375 -2.296875q-0.03125 -0.171875 0.15625 -0.28125q0.203125 -0.109375 0.734375 -0.109375q0.53125 0 0.71875 0.109375q0.203125 0.109375 0.171875 0.28125l-0.375 2.296875l1.8125 -1.453125q0.15625 -0.125 0.328125 0q0.171875 0.109375 0.453125 0.578125q0.265625 0.4375 0.265625 0.65625q0.015625 0.21875 -0.15625 0.28125l-2.15625 0.84375l2.15625 0.84375zm10.057312 7.640625q0 0.25 -0.03125 0.4375q-0.015625 0.171875 -0.078125 0.28125q-0.046875 0.09375 -0.109375 0.140625q-0.0625 0.046875 -0.140625 0.046875l-6.5 0q-0.078125 0 -0.140625 -0.046875q-0.0625 -0.046875 -0.109375 -0.140625q-0.046875 -0.109375 -0.078125 -0.28125q-0.03125 -0.1875 -0.03125 -0.4375q0 -0.265625 0.015625 -0.4375q0.03125 -0.1875 0.078125 -0.296875q0.046875 -0.109375 0.109375 -0.15625q0.078125 -0.046875 0.15625 -0.046875l2.1875 0l0 -7.671875l-1.890625 1.046875q-0.203125 0.09375 -0.34375 0.125q-0.125 0.015625 -0.203125 -0.0625q-0.078125 -0.078125 -0.109375 -0.265625q-0.03125 -0.1875 -0.03125 -0.53125q0 -0.21875 0 -0.359375q0.015625 -0.140625 0.046875 -0.234375q0.046875 -0.109375 0.109375 -0.171875q0.0625 -0.0625 0.171875 -0.140625l2.53125 -1.640625q0.046875 -0.03125 0.109375 -0.046875q0.078125 -0.03125 0.1875 -0.046875q0.109375 -0.015625 0.28125 -0.015625q0.1875 -0.015625 0.46875 -0.015625q0.34375 0 0.546875 0.015625q0.21875 0.015625 0.328125 0.046875q0.109375 0.03125 0.140625 0.09375q0.046875 0.046875 0.046875 0.125l0 9.75l1.921875 0q0.078125 0 0.140625 0.046875q0.078125 0.046875 0.125 0.15625q0.046875 0.109375 0.0625 0.296875q0.03125 0.171875 0.03125 0.4375z" fill-rule="nonzero"/><path fill="#f1c232" d="m312.6445 142.80276l0 0c0 -12.7851715 9.285675 -23.149612 20.740173 -23.149612l0 0c5.5006104 0 10.77597 2.4389725 14.665497 6.780365c3.8895264 4.3414 6.074646 10.229584 6.074646 16.369247l0 0c0 12.7851715 -9.285675 23.149597 -20.740143 23.149597l0 0c-11.454498 0 -20.740173 -10.364426 -20.740173 -23.149597z" fill-rule="evenodd"/><path stroke="#000000" stroke-width="1.0" stroke-linejoin="round" stroke-linecap="butt" d="m312.6445 142.80276l0 0c0 -12.7851715 9.285675 -23.149612 20.740173 -23.149612l0 0c5.5006104 0 10.77597 2.4389725 14.665497 6.780365c3.8895264 4.3414 6.074646 10.229584 6.074646 16.369247l0 0c0 12.7851715 -9.285675 23.149597 -20.740143 23.149597l0 0c-11.454498 0 -20.740173 -10.364426 -20.740173 -23.149597z" fill-rule="evenodd"/><path fill="#000000" fill-opacity="0.0" d="m312.64133 112.193245l41.480316 0l0 42.01574l-41.480316 0z" fill-rule="evenodd"/><path fill="#000000" d="m338.16113 138.80074q0 0.109375 -0.046875 0.171875q-0.03125 0.0625 -0.171875 0.109375q-0.125 0.046875 -0.390625 0.0625q-0.265625 0.015625 -0.71875 0.015625q-0.390625 0 -0.625 -0.015625q-0.21875 -0.015625 -0.359375 -0.0625q-0.125 -0.046875 -0.1875 -0.125q-0.046875 -0.078125 -0.078125 -0.1875l-1.0625 -2.640625q-0.1875 -0.4375 -0.375 -0.78125q-0.171875 -0.359375 -0.40625 -0.578125q-0.21875 -0.234375 -0.515625 -0.34375q-0.28125 -0.125 -0.671875 -0.125l-0.734375 0l0 4.484375q0 0.09375 -0.0625 0.171875q-0.0625 0.0625 -0.203125 0.109375q-0.140625 0.046875 -0.375 0.0625q-0.21875 0.03125 -0.5625 0.03125q-0.359375 0 -0.59375 -0.03125q-0.21875 -0.015625 -0.359375 -0.0625q-0.140625 -0.046875 -0.203125 -0.109375q-0.046875 -0.078125 -0.046875 -0.171875l0 -10.703125q0 -0.40624237 0.203125 -0.5781174q0.203125 -0.171875 0.515625 -0.171875l3.046875 0q0.46875 0 0.765625 0.015625q0.296875 0.015625 0.546875 0.046875q0.703125 0.09375 1.265625 0.34375q0.578125 0.25 0.96875 0.6406174q0.40625 0.390625 0.609375 0.9375q0.21875 0.546875 0.21875 1.25q0 0.578125 -0.15625 1.078125q-0.140625 0.484375 -0.4375 0.875q-0.296875 0.375 -0.734375 0.65625q-0.421875 0.28125 -0.96875 0.453125q0.265625 0.125 0.5 0.3125q0.234375 0.1875 0.4375 0.453125q0.203125 0.25 0.390625 0.578125q0.1875 0.328125 0.359375 0.75l0.984375 2.328125q0.140625 0.34375 0.1875 0.5q0.046875 0.15625 0.046875 0.25zm-3.09375 -8.0q0 -0.578125 -0.265625 -0.96875q-0.265625 -0.40625 -0.859375 -0.578125q-0.1875 -0.046875 -0.421875 -0.0625q-0.21875 -0.03125 -0.640625 -0.03125l-1.0625 0l0 3.34375l1.21875 0q0.5 0 0.875 -0.125q0.390625 -0.125 0.640625 -0.34375q0.265625 -0.234375 0.390625 -0.53125q0.125 -0.3125 0.125 -0.703125z" fill-rule="nonzero"/><path fill="#dd7e6b" d="m424.38275 141.17705l140.40942 0l0 68.72441l-140.40942 0z" fill-rule="evenodd"/><path stroke="#000000" stroke-width="2.0" stroke-linejoin="round" stroke-linecap="butt" d="m424.38275 141.17705l140.40942 0l0 68.72441l-140.40942 0z" fill-rule="evenodd"/><path fill="#000000" fill-opacity="0.0" d="m451.45276 150.68246l86.2677 0l0 64.62991l-86.2677 0z" fill-rule="evenodd"/><path fill="#000000" d="m484.78494 175.82121q0 0.21875 -0.015625 0.390625q-0.015625 0.15625 -0.046875 0.265625q-0.015625 0.109375 -0.0625 0.203125q-0.046875 0.078125 -0.15625 0.1875q-0.09375 0.09375 -0.390625 0.265625q-0.28125 0.15625 -0.703125 0.3125q-0.40625 0.140625 -0.9375 0.234375q-0.53125 0.109375 -1.15625 0.109375q-1.203125 0 -2.1875 -0.375q-0.96875 -0.375 -1.65625 -1.109375q-0.671875 -0.75 -1.046875 -1.859375q-0.359375 -1.109375 -0.359375 -2.578125q0 -1.5 0.390625 -2.671875q0.40625 -1.171875 1.125 -1.953125q0.71875 -0.796875 1.71875 -1.203125q1.015625 -0.421875 2.234375 -0.421875q0.484375 0 0.9375 0.09375q0.46875 0.078125 0.84375 0.21875q0.390625 0.125 0.703125 0.296875q0.3125 0.171875 0.4375 0.296875q0.125 0.125 0.15625 0.203125q0.046875 0.078125 0.078125 0.203125q0.03125 0.125 0.046875 0.3125q0.015625 0.171875 0.015625 0.421875q0 0.265625 -0.03125 0.46875q-0.015625 0.1875 -0.0625 0.3125q-0.03125 0.109375 -0.109375 0.171875q-0.0625 0.046875 -0.140625 0.046875q-0.140625 0 -0.34375 -0.15625q-0.203125 -0.15625 -0.546875 -0.34375q-0.328125 -0.203125 -0.796875 -0.359375q-0.453125 -0.171875 -1.09375 -0.171875q-0.703125 0 -1.25 0.296875q-0.546875 0.28125 -0.9375 0.8125q-0.390625 0.53125 -0.59375 1.296875q-0.1875 0.75 -0.1875 1.703125q0 1.03125 0.203125 1.796875q0.21875 0.75 0.609375 1.25q0.40625 0.484375 0.953125 0.734375q0.5625 0.234375 1.265625 0.234375q0.640625 0 1.109375 -0.140625q0.46875 -0.15625 0.796875 -0.328125q0.328125 -0.1875 0.546875 -0.328125q0.21875 -0.15625 0.328125 -0.15625q0.09375 0 0.140625 0.046875q0.0625 0.03125 0.09375 0.140625q0.046875 0.109375 0.0625 0.3125q0.015625 0.1875 0.015625 0.515625zm9.79657 -2.671875q0 1.03125 -0.28125 1.890625q-0.265625 0.859375 -0.828125 1.484375q-0.546875 0.609375 -1.390625 0.953125q-0.828125 0.328125 -1.953125 0.328125q-1.078125 0 -1.890625 -0.296875q-0.796875 -0.296875 -1.328125 -0.875q-0.515625 -0.578125 -0.78125 -1.40625q-0.25 -0.84375 -0.25 -1.921875q0 -1.03125 0.28125 -1.890625q0.28125 -0.859375 0.828125 -1.46875q0.5625 -0.625 1.390625 -0.953125q0.828125 -0.34375 1.953125 -0.34375q1.09375 0 1.890625 0.296875q0.8125 0.296875 1.328125 0.875q0.53125 0.5625 0.78125 1.40625q0.25 0.84375 0.25 1.921875zm-2.359375 0.09375q0 -0.609375 -0.09375 -1.109375q-0.09375 -0.5 -0.328125 -0.875q-0.21875 -0.375 -0.59375 -0.578125q-0.375 -0.21875 -0.953125 -0.21875q-0.515625 0 -0.90625 0.1875q-0.375 0.1875 -0.625 0.546875q-0.234375 0.359375 -0.359375 0.875q-0.125 0.5 -0.125 1.140625q0 0.59375 0.09375 1.109375q0.109375 0.5 0.328125 0.875q0.21875 0.375 0.59375 0.578125q0.390625 0.203125 0.953125 0.203125q0.53125 0 0.90625 -0.1875q0.390625 -0.1875 0.625 -0.53125q0.25 -0.359375 0.359375 -0.859375q0.125 -0.515625 0.125 -1.15625zm11.935791 4.046875q0 0.09375 -0.0625 0.171875q-0.046875 0.0625 -0.171875 0.109375q-0.125 0.046875 -0.359375 0.0625q-0.21875 0.015625 -0.546875 0.015625q-0.328125 0 -0.5625 -0.015625q-0.21875 -0.015625 -0.34375 -0.0625q-0.125 -0.046875 -0.1875 -0.109375q-0.046875 -0.078125 -0.046875 -0.171875l0 -4.640625q0 -0.578125 -0.09375 -0.921875q-0.078125 -0.34375 -0.25 -0.578125q-0.15625 -0.25 -0.421875 -0.375q-0.25 -0.125 -0.609375 -0.125q-0.4375 0 -0.890625 0.3125q-0.4375 0.3125 -0.921875 0.921875l0 5.40625q0 0.09375 -0.0625 0.171875q-0.046875 0.0625 -0.1875 0.109375q-0.125 0.046875 -0.34375 0.0625q-0.21875 0.015625 -0.546875 0.015625q-0.34375 0 -0.5625 -0.015625q-0.21875 -0.015625 -0.359375 -0.0625q-0.125 -0.046875 -0.1875 -0.109375q-0.046875 -0.078125 -0.046875 -0.171875l0 -8.125q0 -0.09375 0.046875 -0.15625q0.046875 -0.0625 0.15625 -0.109375q0.125 -0.046875 0.3125 -0.0625q0.1875 -0.03125 0.46875 -0.03125q0.296875 0 0.484375 0.03125q0.203125 0.015625 0.296875 0.0625q0.109375 0.046875 0.15625 0.109375q0.046875 0.0625 0.046875 0.15625l0 0.9375q0.671875 -0.71875 1.359375 -1.078125q0.703125 -0.375 1.46875 -0.375q0.828125 0 1.390625 0.28125q0.5625 0.265625 0.90625 0.734375q0.359375 0.46875 0.515625 1.09375q0.15625 0.625 0.15625 1.515625l0 5.015625zm9.46579 -8.125q0 0.03125 0 0.109375q0 0.0625 -0.015625 0.140625q-0.015625 0.078125 -0.046875 0.171875q-0.015625 0.09375 -0.046875 0.234375l-2.4531555 7.34375q-0.046875 0.15625 -0.125 0.25q-0.078125 0.09375 -0.25 0.15625q-0.171875 0.046875 -0.484375 0.0625q-0.296875 0.015625 -0.796875 0.015625q-0.484375 0 -0.796875 -0.015625q-0.296875 -0.015625 -0.46875 -0.0625q-0.171875 -0.0625 -0.25 -0.15625q-0.078125 -0.109375 -0.125 -0.25l-2.4375 -7.34375q-0.0625 -0.1875 -0.09375 -0.328125q-0.03125 -0.15625 -0.03125 -0.21875q0 -0.0625 0 -0.109375q0 -0.09375 0.046875 -0.15625q0.046875 -0.078125 0.171875 -0.125q0.140625 -0.046875 0.359375 -0.0625q0.21875 -0.015625 0.5625 -0.015625q0.375 0 0.59375 0.03125q0.234375 0.015625 0.359375 0.0625q0.140625 0.03125 0.1875 0.109375q0.0625 0.078125 0.09375 0.1875l1.84375 5.96875l0.0625 0.21875l0.046875 -0.21875l1.828125 -5.96875q0.03125 -0.109375 0.078125 -0.1875q0.0625 -0.078125 0.1875 -0.109375q0.140625 -0.046875 0.34375 -0.0625q0.21878052 -0.03125 0.5625305 -0.03125q0.34375 0 0.546875 0.015625q0.21875 0.015625 0.328125 0.0625q0.125 0.046875 0.171875 0.125q0.046875 0.0625 0.046875 0.15625z" fill-rule="nonzero"/><path fill="#000000" d="m489.14136 196.54933q0 0.890625 -0.34375 1.578125q-0.328125 0.671875 -0.9375 1.140625q-0.59375 0.46875 -1.4375 0.703125q-0.84375 0.234375 -1.828125 0.234375q-0.609375 0 -1.140625 -0.09375q-0.515625 -0.078125 -0.921875 -0.203125q-0.40625 -0.125 -0.671875 -0.25q-0.265625 -0.140625 -0.34375 -0.21875q-0.078125 -0.078125 -0.125 -0.15625q-0.046875 -0.09375 -0.078125 -0.21875q-0.03125 -0.125 -0.046875 -0.3125q0 -0.1875 0 -0.453125q0 -0.4375 0.0625 -0.609375q0.078125 -0.171875 0.21875 -0.171875q0.09375 0 0.3125 0.125q0.234375 0.125 0.578125 0.265625q0.34375 0.140625 0.796875 0.265625q0.46875 0.125 1.0625 0.125q0.5 0 0.875 -0.109375q0.390625 -0.125 0.65625 -0.34375q0.28125 -0.21875 0.40625 -0.515625q0.140625 -0.3125 0.140625 -0.6875q0 -0.40625 -0.171875 -0.734375q-0.15625 -0.328125 -0.46875 -0.546875q-0.3125 -0.234375 -0.796875 -0.359375q-0.46875 -0.140625 -1.125 -0.140625l-1.015625 0q-0.109375 0 -0.203125 -0.03125q-0.078125 -0.03125 -0.140625 -0.125q-0.046875 -0.109375 -0.078125 -0.28125q-0.015625 -0.171875 -0.015625 -0.46875q0 -0.25 0.015625 -0.421875q0.03125 -0.171875 0.078125 -0.265625q0.046875 -0.09375 0.125 -0.125q0.078125 -0.03125 0.1875 -0.03125l1.03125 0q0.53125 0 0.9375 -0.125q0.421875 -0.125 0.6875 -0.34375q0.28125 -0.234375 0.421875 -0.5625q0.15625 -0.328125 0.15625 -0.71875q0 -0.296875 -0.109375 -0.5625q-0.09375 -0.265625 -0.296875 -0.453125q-0.1875 -0.203125 -0.5 -0.3125q-0.3125 -0.125 -0.734375 -0.125q-0.46875 0 -0.890625 0.140625q-0.421875 0.140625 -0.75 0.3125q-0.328125 0.171875 -0.5625 0.3125q-0.234375 0.140625 -0.34375 0.140625q-0.078125 0 -0.140625 -0.03125q-0.046875 -0.03125 -0.078125 -0.109375q-0.03125 -0.09375 -0.0625 -0.265625q-0.015625 -0.1875 -0.015625 -0.453125q0 -0.234375 0.015625 -0.375q0.015625 -0.15625 0.03125 -0.25q0.03125 -0.109375 0.0625 -0.171875q0.046875 -0.078125 0.140625 -0.15625q0.09375 -0.09375 0.375 -0.265625q0.28125 -0.171875 0.703125 -0.328125q0.4375 -0.171875 1.0 -0.28125q0.5625 -0.125 1.21875 -0.125q0.84375 0 1.5 0.203125q0.671875 0.203125 1.125 0.578125q0.453125 0.375 0.671875 0.9375q0.234375 0.546875 0.234375 1.234375q0 0.53125 -0.140625 1.0q-0.125 0.46875 -0.390625 0.84375q-0.265625 0.359375 -0.671875 0.609375q-0.390625 0.25 -0.90625 0.375l0 0.03125q0.625 0.078125 1.109375 0.328125q0.5 0.234375 0.84375 0.59375q0.34375 0.359375 0.515625 0.828125q0.1875 0.453125 0.1875 0.984375zm8.627533 -5.09375q0.171875 0.0625 0.15625 0.28125q0 0.21875 -0.265625 0.671875q-0.265625 0.453125 -0.453125 0.5625q-0.171875 0.109375 -0.328125 0l-1.8125 -1.453125l0.375 2.296875q0.03125 0.1875 -0.171875 0.296875q-0.1875 0.09375 -0.71875 0.09375q-0.53125 0 -0.734375 -0.09375q-0.1875 -0.109375 -0.15625 -0.296875l0.375 -2.296875l-1.8125 1.453125q-0.140625 0.109375 -0.328125 0q-0.171875 -0.125 -0.453125 -0.578125q-0.265625 -0.4375 -0.28125 -0.65625q0 -0.21875 0.171875 -0.28125l2.171875 -0.84375l-2.171875 -0.84375q-0.171875 -0.0625 -0.171875 -0.28125q0.015625 -0.21875 0.28125 -0.671875q0.265625 -0.453125 0.453125 -0.5625q0.1875 -0.125 0.328125 0l1.8125 1.453125l-0.375 -2.296875q-0.03125 -0.171875 0.15625 -0.28125q0.203125 -0.109375 0.734375 -0.109375q0.53125 0 0.71875 0.109375q0.203125 0.109375 0.171875 0.28125l-0.375 2.296875l1.8125 -1.453125q0.15625 -0.125 0.328125 0q0.171875 0.109375 0.453125 0.578125q0.265625 0.4375 0.265625 0.65625q0.015625 0.21875 -0.15625 0.28125l-2.15625 0.84375l2.15625 0.84375zm10.119812 5.09375q0 0.890625 -0.34375 1.578125q-0.328125 0.671875 -0.9375 1.140625q-0.59375 0.46875 -1.4375 0.703125q-0.84375 0.234375 -1.828125 0.234375q-0.609375 0 -1.140625 -0.09375q-0.515625 -0.078125 -0.921875 -0.203125q-0.40625 -0.125 -0.671875 -0.25q-0.265625 -0.140625 -0.34375 -0.21875q-0.078125 -0.078125 -0.125 -0.15625q-0.046875 -0.09375 -0.078125 -0.21875q-0.03125 -0.125 -0.046875 -0.3125q0 -0.1875 0 -0.453125q0 -0.4375 0.0625 -0.609375q0.078125 -0.171875 0.21875 -0.171875q0.09375 0 0.3125 0.125q0.234375 0.125 0.578125 0.265625q0.34375 0.140625 0.796875 0.265625q0.46875 0.125 1.0625 0.125q0.5 0 0.875 -0.109375q0.390625 -0.125 0.65625 -0.34375q0.28125 -0.21875 0.40625 -0.515625q0.140625 -0.3125 0.140625 -0.6875q0 -0.40625 -0.171875 -0.734375q-0.15625 -0.328125 -0.46875 -0.546875q-0.3125 -0.234375 -0.796875 -0.359375q-0.46875 -0.140625 -1.125 -0.140625l-1.015625 0q-0.109375 0 -0.203125 -0.03125q-0.078125 -0.03125 -0.140625 -0.125q-0.046875 -0.109375 -0.078125 -0.28125q-0.015625 -0.171875 -0.015625 -0.46875q0 -0.25 0.015625 -0.421875q0.03125 -0.171875 0.078125 -0.265625q0.046875 -0.09375 0.125 -0.125q0.078125 -0.03125 0.1875 -0.03125l1.03125 0q0.53125 0 0.9375 -0.125q0.421875 -0.125 0.6875 -0.34375q0.28125 -0.234375 0.421875 -0.5625q0.15625 -0.328125 0.15625 -0.71875q0 -0.296875 -0.109375 -0.5625q-0.09375 -0.265625 -0.296875 -0.453125q-0.1875 -0.203125 -0.5 -0.3125q-0.3125 -0.125 -0.734375 -0.125q-0.46875 0 -0.890625 0.140625q-0.421875 0.140625 -0.75 0.3125q-0.328125 0.171875 -0.5625 0.3125q-0.234375 0.140625 -0.34375 0.140625q-0.078125 0 -0.140625 -0.03125q-0.046875 -0.03125 -0.078125 -0.109375q-0.03125 -0.09375 -0.0625 -0.265625q-0.015625 -0.1875 -0.015625 -0.453125q0 -0.234375 0.015625 -0.375q0.015625 -0.15625 0.03125 -0.25q0.03125 -0.109375 0.0625 -0.171875q0.046875 -0.078125 0.140625 -0.15625q0.09375 -0.09375 0.375 -0.265625q0.28125 -0.171875 0.703125 -0.328125q0.4375 -0.171875 1.0 -0.28125q0.5625 -0.125 1.21875 -0.125q0.84375 0 1.5 0.203125q0.671875 0.203125 1.125 0.578125q0.453125 0.375 0.671875 0.9375q0.234375 0.546875 0.234375 1.234375q0 0.53125 -0.140625 1.0q-0.125 0.46875 -0.390625 0.84375q-0.265625 0.359375 -0.671875 0.609375q-0.390625 0.25 -0.90625 0.375l0 0.03125q0.625 0.078125 1.109375 0.328125q0.5 0.234375 0.84375 0.59375q0.34375 0.359375 0.515625 0.828125q0.1875 0.453125 0.1875 0.984375z" fill-rule="nonzero"/><path fill="#f1c232" d="m538.9962 150.26208l0 0c0 -12.785187 9.285706 -23.149612 20.740173 -23.149612l0 0c5.5006104 0 10.77594 2.4389648 14.665466 6.780365c3.8895264 4.341385 6.074646 10.229584 6.074646 16.369247l0 0c0 12.7851715 -9.285645 23.149597 -20.740112 23.149597l0 0c-11.454468 0 -20.740173 -10.364426 -20.740173 -23.149597z" fill-rule="evenodd"/><path stroke="#000000" stroke-width="1.0" stroke-linejoin="round" stroke-linecap="butt" d="m538.9962 150.26208l0 0c0 -12.785187 9.285706 -23.149612 20.740173 -23.149612l0 0c5.5006104 0 10.77594 2.4389648 14.665466 6.780365c3.8895264 4.341385 6.074646 10.229584 6.074646 16.369247l0 0c0 12.7851715 -9.285645 23.149597 -20.740112 23.149597l0 0c-11.454468 0 -20.740173 -10.364426 -20.740173 -23.149597z" fill-rule="evenodd"/><path fill="#000000" fill-opacity="0.0" d="m538.99304 119.65256l41.480347 0l0 42.015747l-41.480347 0z" fill-rule="evenodd"/><path fill="#000000" d="m564.5128 146.26006q0 0.109375 -0.046875 0.171875q-0.03125 0.0625 -0.171875 0.109375q-0.125 0.046875 -0.390625 0.0625q-0.265625 0.015625 -0.71875 0.015625q-0.390625 0 -0.625 -0.015625q-0.21875 -0.015625 -0.359375 -0.0625q-0.125 -0.046875 -0.1875 -0.125q-0.046875 -0.078125 -0.078125 -0.1875l-1.0625 -2.640625q-0.1875 -0.4375 -0.375 -0.78125q-0.171875 -0.359375 -0.40625 -0.578125q-0.21875 -0.234375 -0.515625 -0.34375q-0.28125 -0.125 -0.671875 -0.125l-0.734375 0l0 4.484375q0 0.09375 -0.0625 0.171875q-0.0625 0.0625 -0.203125 0.109375q-0.140625 0.046875 -0.375 0.0625q-0.21875 0.03125 -0.5625 0.03125q-0.359375 0 -0.59375 -0.03125q-0.21875 -0.015625 -0.359375 -0.0625q-0.140625 -0.046875 -0.203125 -0.109375q-0.046875 -0.078125 -0.046875 -0.171875l0 -10.703125q0 -0.40625 0.203125 -0.578125q0.203125 -0.171875 0.515625 -0.171875l3.046875 0q0.46875 0 0.765625 0.015625q0.296875 0.015625 0.546875 0.046875q0.703125 0.09375 1.265625 0.34375q0.578125 0.25 0.96875 0.640625q0.40625 0.390625 0.609375 0.9375q0.21875 0.546875 0.21875 1.25q0 0.578125 -0.15625 1.078125q-0.140625 0.484375 -0.4375 0.875q-0.296875 0.375 -0.734375 0.65625q-0.421875 0.28125 -0.96875 0.453125q0.265625 0.125 0.5 0.3125q0.234375 0.1875 0.4375 0.453125q0.203125 0.25 0.390625 0.578125q0.1875 0.328125 0.359375 0.75l0.984375 2.328125q0.140625 0.34375 0.1875 0.5q0.046875 0.15625 0.046875 0.25zm-3.09375 -8.0q0 -0.578125 -0.265625 -0.96875q-0.265625 -0.40625 -0.859375 -0.578125q-0.1875 -0.046875 -0.421875 -0.0625q-0.21875 -0.03125 -0.640625 -0.03125l-1.0625 0l0 3.34375l1.21875 0q0.5 0 0.875 -0.125q0.390625 -0.125 0.640625 -0.34375q0.265625 -0.234375 0.390625 -0.53125q0.125 -0.3125 0.125 -0.703125z" fill-rule="nonzero"/><path fill="#000000" fill-opacity="0.0" d="m338.43 175.53926l85.95276 0" fill-rule="evenodd"/><path stroke="#000000" stroke-width="2.0" stroke-linejoin="round" stroke-linecap="butt" d="m338.43 175.53926l73.95276 0" fill-rule="evenodd"/><path fill="#000000" stroke="#000000" stroke-width="2.0" stroke-linecap="butt" d="m412.38275 178.84273l9.076202 -3.3034668l-9.076202 -3.3034515z" fill-rule="evenodd"/><path fill="#dd7e6b" d="m621.5612 141.17705l140.40948 0l0 68.72441l-140.40948 0z" fill-rule="evenodd"/><path stroke="#000000" stroke-width="2.0" stroke-linejoin="round" stroke-linecap="butt" d="m621.5612 141.17705l140.40948 0l0 68.72441l-140.40948 0z" fill-rule="evenodd"/><path fill="#000000" fill-opacity="0.0" d="m648.6312 150.68246l86.2677 0l0 64.62991l-86.2677 0z" fill-rule="evenodd"/><path fill="#000000" d="m681.96344 175.82121q0 0.21875 -0.015625 0.390625q-0.015625 0.15625 -0.046875 0.265625q-0.015625 0.109375 -0.0625 0.203125q-0.046875 0.078125 -0.15625 0.1875q-0.09375 0.09375 -0.390625 0.265625q-0.28125 0.15625 -0.703125 0.3125q-0.40625 0.140625 -0.9375 0.234375q-0.53125 0.109375 -1.15625 0.109375q-1.203125 0 -2.1875 -0.375q-0.96875 -0.375 -1.65625 -1.109375q-0.671875 -0.75 -1.046875 -1.859375q-0.359375 -1.109375 -0.359375 -2.578125q0 -1.5 0.390625 -2.671875q0.40625 -1.171875 1.125 -1.953125q0.71875 -0.796875 1.71875 -1.203125q1.015625 -0.421875 2.234375 -0.421875q0.484375 0 0.9375 0.09375q0.46875 0.078125 0.84375 0.21875q0.390625 0.125 0.703125 0.296875q0.3125 0.171875 0.4375 0.296875q0.125 0.125 0.15625 0.203125q0.046875 0.078125 0.078125 0.203125q0.03125 0.125 0.046875 0.3125q0.015625 0.171875 0.015625 0.421875q0 0.265625 -0.03125 0.46875q-0.015625 0.1875 -0.0625 0.3125q-0.03125 0.109375 -0.109375 0.171875q-0.0625 0.046875 -0.140625 0.046875q-0.140625 0 -0.34375 -0.15625q-0.203125 -0.15625 -0.546875 -0.34375q-0.328125 -0.203125 -0.796875 -0.359375q-0.453125 -0.171875 -1.09375 -0.171875q-0.703125 0 -1.25 0.296875q-0.546875 0.28125 -0.9375 0.8125q-0.390625 0.53125 -0.59375 1.296875q-0.1875 0.75 -0.1875 1.703125q0 1.03125 0.203125 1.796875q0.21875 0.75 0.609375 1.25q0.40625 0.484375 0.953125 0.734375q0.5625 0.234375 1.265625 0.234375q0.640625 0 1.109375 -0.140625q0.46875 -0.15625 0.796875 -0.328125q0.328125 -0.1875 0.546875 -0.328125q0.21875 -0.15625 0.328125 -0.15625q0.09375 0 0.140625 0.046875q0.0625 0.03125 0.09375 0.140625q0.046875 0.109375 0.0625 0.3125q0.015625 0.1875 0.015625 0.515625zm9.79657 -2.671875q0 1.03125 -0.28125 1.890625q-0.265625 0.859375 -0.828125 1.484375q-0.546875 0.609375 -1.390625 0.953125q-0.828125 0.328125 -1.953125 0.328125q-1.078125 0 -1.890625 -0.296875q-0.796875 -0.296875 -1.328125 -0.875q-0.515625 -0.578125 -0.78125 -1.40625q-0.25 -0.84375 -0.25 -1.921875q0 -1.03125 0.28125 -1.890625q0.28125 -0.859375 0.828125 -1.46875q0.5625 -0.625 1.390625 -0.953125q0.828125 -0.34375 1.953125 -0.34375q1.09375 0 1.890625 0.296875q0.8125 0.296875 1.328125 0.875q0.53125 0.5625 0.78125 1.40625q0.25 0.84375 0.25 1.921875zm-2.359375 0.09375q0 -0.609375 -0.09375 -1.109375q-0.09375 -0.5 -0.328125 -0.875q-0.21875 -0.375 -0.59375 -0.578125q-0.375 -0.21875 -0.953125 -0.21875q-0.515625 0 -0.90625 0.1875q-0.375 0.1875 -0.625 0.546875q-0.234375 0.359375 -0.359375 0.875q-0.125 0.5 -0.125 1.140625q0 0.59375 0.09375 1.109375q0.109375 0.5 0.328125 0.875q0.21875 0.375 0.59375 0.578125q0.390625 0.203125 0.953125 0.203125q0.53125 0 0.90625 -0.1875q0.390625 -0.1875 0.625 -0.53125q0.25 -0.359375 0.359375 -0.859375q0.125 -0.515625 0.125 -1.15625zm11.935791 4.046875q0 0.09375 -0.0625 0.171875q-0.046875 0.0625 -0.171875 0.109375q-0.125 0.046875 -0.359375 0.0625q-0.21875 0.015625 -0.546875 0.015625q-0.328125 0 -0.5625 -0.015625q-0.21875 -0.015625 -0.34375 -0.0625q-0.125 -0.046875 -0.1875 -0.109375q-0.046875 -0.078125 -0.046875 -0.171875l0 -4.640625q0 -0.578125 -0.09375 -0.921875q-0.078125 -0.34375 -0.25 -0.578125q-0.15625 -0.25 -0.421875 -0.375q-0.25 -0.125 -0.609375 -0.125q-0.4375 0 -0.890625 0.3125q-0.4375 0.3125 -0.921875 0.921875l0 5.40625q0 0.09375 -0.0625 0.171875q-0.046875 0.0625 -0.1875 0.109375q-0.125 0.046875 -0.34375 0.0625q-0.21875 0.015625 -0.546875 0.015625q-0.34375 0 -0.5625 -0.015625q-0.21875 -0.015625 -0.359375 -0.0625q-0.125 -0.046875 -0.1875 -0.109375q-0.046875 -0.078125 -0.046875 -0.171875l0 -8.125q0 -0.09375 0.046875 -0.15625q0.046875 -0.0625 0.15625 -0.109375q0.125 -0.046875 0.3125 -0.0625q0.1875 -0.03125 0.46875 -0.03125q0.296875 0 0.484375 0.03125q0.203125 0.015625 0.296875 0.0625q0.109375 0.046875 0.15625 0.109375q0.046875 0.0625 0.046875 0.15625l0 0.9375q0.671875 -0.71875 1.359375 -1.078125q0.703125 -0.375 1.46875 -0.375q0.828125 0 1.390625 0.28125q0.5625 0.265625 0.90625 0.734375q0.359375 0.46875 0.515625 1.09375q0.15625 0.625 0.15625 1.515625l0 5.015625zm9.465759 -8.125q0 0.03125 0 0.109375q0 0.0625 -0.015625 0.140625q-0.015625 0.078125 -0.046875 0.171875q-0.015625 0.09375 -0.046875 0.234375l-2.453125 7.34375q-0.046875 0.15625 -0.125 0.25q-0.078125 0.09375 -0.25 0.15625q-0.171875 0.046875 -0.484375 0.0625q-0.296875 0.015625 -0.796875 0.015625q-0.484375 0 -0.796875 -0.015625q-0.296875 -0.015625 -0.46875 -0.0625q-0.171875 -0.0625 -0.25 -0.15625q-0.078125 -0.109375 -0.125 -0.25l-2.4375 -7.34375q-0.0625 -0.1875 -0.09375 -0.328125q-0.03125 -0.15625 -0.03125 -0.21875q0 -0.0625 0 -0.109375q0 -0.09375 0.046875 -0.15625q0.046875 -0.078125 0.171875 -0.125q0.140625 -0.046875 0.359375 -0.0625q0.21875 -0.015625 0.5625 -0.015625q0.375 0 0.59375 0.03125q0.234375 0.015625 0.359375 0.0625q0.140625 0.03125 0.1875 0.109375q0.0625 0.078125 0.09375 0.1875l1.84375 5.96875l0.0625 0.21875l0.046875 -0.21875l1.828125 -5.96875q0.03125 -0.109375 0.078125 -0.1875q0.0625 -0.078125 0.1875 -0.109375q0.140625 -0.046875 0.34375 -0.0625q0.21875 -0.03125 0.5625 -0.03125q0.34375 0 0.546875 0.015625q0.21875 0.015625 0.328125 0.0625q0.125 0.046875 0.171875 0.125q0.046875 0.0625 0.046875 0.15625z" fill-rule="nonzero"/><path fill="#000000" d="m686.3198 196.54933q0 0.890625 -0.34375 1.578125q-0.328125 0.671875 -0.9375 1.140625q-0.59375 0.46875 -1.4375 0.703125q-0.84375 0.234375 -1.828125 0.234375q-0.609375 0 -1.140625 -0.09375q-0.515625 -0.078125 -0.921875 -0.203125q-0.40625 -0.125 -0.671875 -0.25q-0.265625 -0.140625 -0.34375 -0.21875q-0.078125 -0.078125 -0.125 -0.15625q-0.046875 -0.09375 -0.078125 -0.21875q-0.03125 -0.125 -0.046875 -0.3125q0 -0.1875 0 -0.453125q0 -0.4375 0.0625 -0.609375q0.078125 -0.171875 0.21875 -0.171875q0.09375 0 0.3125 0.125q0.234375 0.125 0.578125 0.265625q0.34375 0.140625 0.796875 0.265625q0.46875 0.125 1.0625 0.125q0.5 0 0.875 -0.109375q0.390625 -0.125 0.65625 -0.34375q0.28125 -0.21875 0.40625 -0.515625q0.140625 -0.3125 0.140625 -0.6875q0 -0.40625 -0.171875 -0.734375q-0.15625 -0.328125 -0.46875 -0.546875q-0.3125 -0.234375 -0.796875 -0.359375q-0.46875 -0.140625 -1.125 -0.140625l-1.015625 0q-0.109375 0 -0.203125 -0.03125q-0.078125 -0.03125 -0.140625 -0.125q-0.046875 -0.109375 -0.078125 -0.28125q-0.015625 -0.171875 -0.015625 -0.46875q0 -0.25 0.015625 -0.421875q0.03125 -0.171875 0.078125 -0.265625q0.046875 -0.09375 0.125 -0.125q0.078125 -0.03125 0.1875 -0.03125l1.03125 0q0.53125 0 0.9375 -0.125q0.421875 -0.125 0.6875 -0.34375q0.28125 -0.234375 0.421875 -0.5625q0.15625 -0.328125 0.15625 -0.71875q0 -0.296875 -0.109375 -0.5625q-0.09375 -0.265625 -0.296875 -0.453125q-0.1875 -0.203125 -0.5 -0.3125q-0.3125 -0.125 -0.734375 -0.125q-0.46875 0 -0.890625 0.140625q-0.421875 0.140625 -0.75 0.3125q-0.328125 0.171875 -0.5625 0.3125q-0.234375 0.140625 -0.34375 0.140625q-0.078125 0 -0.140625 -0.03125q-0.046875 -0.03125 -0.078125 -0.109375q-0.03125 -0.09375 -0.0625 -0.265625q-0.015625 -0.1875 -0.015625 -0.453125q0 -0.234375 0.015625 -0.375q0.015625 -0.15625 0.03125 -0.25q0.03125 -0.109375 0.0625 -0.171875q0.046875 -0.078125 0.140625 -0.15625q0.09375 -0.09375 0.375 -0.265625q0.28125 -0.171875 0.703125 -0.328125q0.4375 -0.171875 1.0 -0.28125q0.5625 -0.125 1.21875 -0.125q0.84375 0 1.5 0.203125q0.671875 0.203125 1.125 0.578125q0.453125 0.375 0.671875 0.9375q0.234375 0.546875 0.234375 1.234375q0 0.53125 -0.140625 1.0q-0.125 0.46875 -0.390625 0.84375q-0.265625 0.359375 -0.671875 0.609375q-0.390625 0.25 -0.90625 0.375l0 0.03125q0.625 0.078125 1.109375 0.328125q0.5 0.234375 0.84375 0.59375q0.34375 0.359375 0.515625 0.828125q0.1875 0.453125 0.1875 0.984375zm8.627563 -5.09375q0.171875 0.0625 0.15625 0.28125q0 0.21875 -0.265625 0.671875q-0.265625 0.453125 -0.453125 0.5625q-0.171875 0.109375 -0.328125 0l-1.8125 -1.453125l0.375 2.296875q0.03125 0.1875 -0.171875 0.296875q-0.1875 0.09375 -0.71875 0.09375q-0.53125 0 -0.734375 -0.09375q-0.1875 -0.109375 -0.15625 -0.296875l0.375 -2.296875l-1.8125 1.453125q-0.140625 0.109375 -0.328125 0q-0.171875 -0.125 -0.453125 -0.578125q-0.265625 -0.4375 -0.28125 -0.65625q0 -0.21875 0.171875 -0.28125l2.171875 -0.84375l-2.171875 -0.84375q-0.171875 -0.0625 -0.171875 -0.28125q0.015625 -0.21875 0.28125 -0.671875q0.265625 -0.453125 0.453125 -0.5625q0.1875 -0.125 0.328125 0l1.8125 1.453125l-0.375 -2.296875q-0.03125 -0.171875 0.15625 -0.28125q0.203125 -0.109375 0.734375 -0.109375q0.53125 0 0.71875 0.109375q0.203125 0.109375 0.171875 0.28125l-0.375 2.296875l1.8125 -1.453125q0.15625 -0.125 0.328125 0q0.171875 0.109375 0.453125 0.578125q0.265625 0.4375 0.265625 0.65625q0.015625 0.21875 -0.15625 0.28125l-2.15625 0.84375l2.15625 0.84375zm10.119812 5.09375q0 0.890625 -0.34375 1.578125q-0.328125 0.671875 -0.9375 1.140625q-0.59375 0.46875 -1.4375 0.703125q-0.84375 0.234375 -1.828125 0.234375q-0.609375 0 -1.140625 -0.09375q-0.515625 -0.078125 -0.921875 -0.203125q-0.40625 -0.125 -0.671875 -0.25q-0.265625 -0.140625 -0.34375 -0.21875q-0.078125 -0.078125 -0.125 -0.15625q-0.046875 -0.09375 -0.078125 -0.21875q-0.03125 -0.125 -0.046875 -0.3125q0 -0.1875 0 -0.453125q0 -0.4375 0.0625 -0.609375q0.078125 -0.171875 0.21875 -0.171875q0.09375 0 0.3125 0.125q0.234375 0.125 0.578125 0.265625q0.34375 0.140625 0.796875 0.265625q0.46875 0.125 1.0625 0.125q0.5 0 0.875 -0.109375q0.390625 -0.125 0.65625 -0.34375q0.28125 -0.21875 0.40625 -0.515625q0.140625 -0.3125 0.140625 -0.6875q0 -0.40625 -0.171875 -0.734375q-0.15625 -0.328125 -0.46875 -0.546875q-0.3125 -0.234375 -0.796875 -0.359375q-0.46875 -0.140625 -1.125 -0.140625l-1.015625 0q-0.109375 0 -0.203125 -0.03125q-0.078125 -0.03125 -0.140625 -0.125q-0.046875 -0.109375 -0.078125 -0.28125q-0.015625 -0.171875 -0.015625 -0.46875q0 -0.25 0.015625 -0.421875q0.03125 -0.171875 0.078125 -0.265625q0.046875 -0.09375 0.125 -0.125q0.078125 -0.03125 0.1875 -0.03125l1.03125 0q0.53125 0 0.9375 -0.125q0.421875 -0.125 0.6875 -0.34375q0.28125 -0.234375 0.421875 -0.5625q0.15625 -0.328125 0.15625 -0.71875q0 -0.296875 -0.109375 -0.5625q-0.09375 -0.265625 -0.296875 -0.453125q-0.1875 -0.203125 -0.5 -0.3125q-0.3125 -0.125 -0.734375 -0.125q-0.46875 0 -0.890625 0.140625q-0.421875 0.140625 -0.75 0.3125q-0.328125 0.171875 -0.5625 0.3125q-0.234375 0.140625 -0.34375 0.140625q-0.078125 0 -0.140625 -0.03125q-0.046875 -0.03125 -0.078125 -0.109375q-0.03125 -0.09375 -0.0625 -0.265625q-0.015625 -0.1875 -0.015625 -0.453125q0 -0.234375 0.015625 -0.375q0.015625 -0.15625 0.03125 -0.25q0.03125 -0.109375 0.0625 -0.171875q0.046875 -0.078125 0.140625 -0.15625q0.09375 -0.09375 0.375 -0.265625q0.28125 -0.171875 0.703125 -0.328125q0.4375 -0.171875 1.0 -0.28125q0.5625 -0.125 1.21875 -0.125q0.84375 0 1.5 0.203125q0.671875 0.203125 1.125 0.578125q0.453125 0.375 0.671875 0.9375q0.234375 0.546875 0.234375 1.234375q0 0.53125 -0.140625 1.0q-0.125 0.46875 -0.390625 0.84375q-0.265625 0.359375 -0.671875 0.609375q-0.390625 0.25 -0.90625 0.375l0 0.03125q0.625 0.078125 1.109375 0.328125q0.5 0.234375 0.84375 0.59375q0.34375 0.359375 0.515625 0.828125q0.1875 0.453125 0.1875 0.984375z" fill-rule="nonzero"/><path fill="#000000" fill-opacity="0.0" d="m564.8053 175.53926l56.75592 0" fill-rule="evenodd"/><path stroke="#000000" stroke-width="1.0" stroke-linejoin="round" stroke-linecap="butt" d="m564.8053 175.53926l50.75592 0" fill-rule="evenodd"/><path fill="#000000" stroke="#000000" stroke-width="1.0" stroke-linecap="butt" d="m615.5612 177.191l4.538086 -1.6517334l-4.538086 -1.6517181z" fill-rule="evenodd"/><path fill="#dd7e6b" d="m198.03236 285.86472l140.40944 0l0 68.724396l-140.40944 0z" fill-rule="evenodd"/><path stroke="#000000" stroke-width="2.0" stroke-linejoin="round" stroke-linecap="butt" d="m198.03236 285.86472l140.40944 0l0 68.724396l-140.40944 0z" fill-rule="evenodd"/><path fill="#000000" fill-opacity="0.0" d="m225.10236 295.37012l86.26773 0l0 64.629944l-86.26773 0z" fill-rule="evenodd"/><path fill="#000000" d="m258.43454 320.50888q0 0.21875 -0.015625 0.390625q-0.015625 0.15625 -0.046875 0.265625q-0.015625 0.109375 -0.0625 0.203125q-0.046875 0.078125 -0.15625 0.1875q-0.09375 0.09375 -0.390625 0.265625q-0.28125 0.15625 -0.703125 0.3125q-0.40625 0.140625 -0.9375 0.234375q-0.53125 0.109375 -1.15625 0.109375q-1.203125 0 -2.1875 -0.375q-0.96875 -0.375 -1.65625 -1.109375q-0.671875 -0.75 -1.046875 -1.859375q-0.359375 -1.109375 -0.359375 -2.578125q0 -1.5 0.390625 -2.671875q0.40625 -1.171875 1.125 -1.953125q0.71875 -0.796875 1.71875 -1.203125q1.015625 -0.421875 2.234375 -0.421875q0.484375 0 0.9375 0.09375q0.46875 0.078125 0.84375 0.21875q0.390625 0.125 0.703125 0.296875q0.3125 0.171875 0.4375 0.296875q0.125 0.125 0.15625 0.203125q0.046875 0.078125 0.078125 0.203125q0.03125 0.125 0.046875 0.3125q0.015625 0.171875 0.015625 0.421875q0 0.265625 -0.03125 0.46875q-0.015625 0.1875 -0.0625 0.3125q-0.03125 0.109375 -0.109375 0.171875q-0.0625 0.046875 -0.140625 0.046875q-0.140625 0 -0.34375 -0.15625q-0.203125 -0.15625 -0.546875 -0.34375q-0.328125 -0.203125 -0.796875 -0.359375q-0.453125 -0.171875 -1.09375 -0.171875q-0.703125 0 -1.25 0.296875q-0.546875 0.28125 -0.9375 0.8125q-0.390625 0.53125 -0.59375 1.296875q-0.1875 0.75 -0.1875 1.703125q0 1.03125 0.203125 1.796875q0.21875 0.75 0.609375 1.25q0.40625 0.484375 0.953125 0.734375q0.5625 0.234375 1.265625 0.234375q0.640625 0 1.109375 -0.140625q0.46875 -0.15625 0.796875 -0.328125q0.328125 -0.1875 0.546875 -0.328125q0.21875 -0.15625 0.328125 -0.15625q0.09375 0 0.140625 0.046875q0.0625 0.03125 0.09375 0.140625q0.046875 0.109375 0.0625 0.3125q0.015625 0.1875 0.015625 0.515625zm9.79657 -2.671875q0 1.03125 -0.28125 1.890625q-0.265625 0.859375 -0.828125 1.484375q-0.546875 0.609375 -1.390625 0.953125q-0.828125 0.328125 -1.953125 0.328125q-1.078125 0 -1.890625 -0.296875q-0.796875 -0.296875 -1.328125 -0.875q-0.515625 -0.578125 -0.78125 -1.40625q-0.25 -0.84375 -0.25 -1.921875q0 -1.03125 0.28125 -1.890625q0.28125 -0.859375 0.828125 -1.46875q0.5625 -0.625 1.390625 -0.953125q0.828125 -0.34375 1.953125 -0.34375q1.09375 0 1.890625 0.296875q0.8125 0.296875 1.328125 0.875q0.53125 0.5625 0.78125 1.40625q0.25 0.84375 0.25 1.921875zm-2.359375 0.09375q0 -0.609375 -0.09375 -1.109375q-0.09375 -0.5 -0.328125 -0.875q-0.21875 -0.375 -0.59375 -0.578125q-0.375 -0.21875 -0.953125 -0.21875q-0.515625 0 -0.90625 0.1875q-0.375 0.1875 -0.625 0.546875q-0.234375 0.359375 -0.359375 0.875q-0.125 0.5 -0.125 1.140625q0 0.59375 0.09375 1.109375q0.109375 0.5 0.328125 0.875q0.21875 0.375 0.59375 0.578125q0.390625 0.203125 0.953125 0.203125q0.53125 0 0.90625 -0.1875q0.390625 -0.1875 0.625 -0.53125q0.25 -0.359375 0.359375 -0.859375q0.125 -0.515625 0.125 -1.15625zm11.935791 4.046875q0 0.09375 -0.0625 0.171875q-0.046875 0.0625 -0.171875 0.109375q-0.125 0.046875 -0.359375 0.0625q-0.21875 0.015625 -0.546875 0.015625q-0.328125 0 -0.5625 -0.015625q-0.21875 -0.015625 -0.34375 -0.0625q-0.125 -0.046875 -0.1875 -0.109375q-0.046875 -0.078125 -0.046875 -0.171875l0 -4.640625q0 -0.578125 -0.09375 -0.921875q-0.078125 -0.34375 -0.25 -0.578125q-0.15625 -0.25 -0.421875 -0.375q-0.25 -0.125 -0.609375 -0.125q-0.4375 0 -0.890625 0.3125q-0.4375 0.3125 -0.921875 0.921875l0 5.40625q0 0.09375 -0.0625 0.171875q-0.046875 0.0625 -0.1875 0.109375q-0.125 0.046875 -0.34375 0.0625q-0.21875 0.015625 -0.546875 0.015625q-0.34375 0 -0.5625 -0.015625q-0.21875 -0.015625 -0.359375 -0.0625q-0.125 -0.046875 -0.1875 -0.109375q-0.046875 -0.078125 -0.046875 -0.171875l0 -8.125q0 -0.09375 0.046875 -0.15625q0.046875 -0.0625 0.15625 -0.109375q0.125 -0.046875 0.3125 -0.0625q0.1875 -0.03125 0.46875 -0.03125q0.296875 0 0.484375 0.03125q0.203125 0.015625 0.296875 0.0625q0.109375 0.046875 0.15625 0.109375q0.046875 0.0625 0.046875 0.15625l0 0.9375q0.671875 -0.71875 1.359375 -1.078125q0.703125 -0.375 1.46875 -0.375q0.828125 0 1.390625 0.28125q0.5625 0.265625 0.90625 0.734375q0.359375 0.46875 0.515625 1.09375q0.15625 0.625 0.15625 1.515625l0 5.015625zm9.465759 -8.125q0 0.03125 0 0.109375q0 0.0625 -0.015625 0.140625q-0.015625 0.078125 -0.046875 0.171875q-0.015625 0.09375 -0.046875 0.234375l-2.453125 7.34375q-0.046875 0.15625 -0.125 0.25q-0.078125 0.09375 -0.25 0.15625q-0.171875 0.046875 -0.484375 0.0625q-0.296875 0.015625 -0.796875 0.015625q-0.484375 0 -0.796875 -0.015625q-0.296875 -0.015625 -0.46875 -0.0625q-0.171875 -0.0625 -0.25 -0.15625q-0.078125 -0.109375 -0.125 -0.25l-2.4375 -7.34375q-0.0625 -0.1875 -0.09375 -0.328125q-0.03125 -0.15625 -0.03125 -0.21875q0 -0.0625 0 -0.109375q0 -0.09375 0.046875 -0.15625q0.046875 -0.078125 0.171875 -0.125q0.140625 -0.046875 0.359375 -0.0625q0.21875 -0.015625 0.5625 -0.015625q0.375 0 0.59375 0.03125q0.234375 0.015625 0.359375 0.0625q0.140625 0.03125 0.1875 0.109375q0.0625 0.078125 0.09375 0.1875l1.84375 5.96875l0.0625 0.21875l0.046875 -0.21875l1.828125 -5.96875q0.03125 -0.109375 0.078125 -0.1875q0.0625 -0.078125 0.1875 -0.109375q0.140625 -0.046875 0.34375 -0.0625q0.21875 -0.03125 0.5625 -0.03125q0.34375 0 0.546875 0.015625q0.21875 0.015625 0.328125 0.0625q0.125 0.046875 0.171875 0.125q0.046875 0.0625 0.046875 0.15625z" fill-rule="nonzero"/><path fill="#000000" d="m262.79095 341.237q0 0.890625 -0.34375 1.578125q-0.328125 0.671875 -0.9375 1.140625q-0.59375 0.46875 -1.4375 0.703125q-0.84375 0.234375 -1.828125 0.234375q-0.609375 0 -1.140625 -0.09375q-0.515625 -0.078125 -0.921875 -0.203125q-0.40623474 -0.125 -0.67185974 -0.25q-0.265625 -0.140625 -0.34375 -0.21875q-0.078125 -0.078125 -0.125 -0.15625q-0.046875 -0.09375 -0.078125 -0.21875q-0.03125 -0.125 -0.046875 -0.3125q0 -0.1875 0 -0.453125q0 -0.4375 0.0625 -0.609375q0.078125 -0.171875 0.21875 -0.171875q0.09375 0 0.3125 0.125q0.234375 0.125 0.57810974 0.265625q0.34375 0.140625 0.796875 0.265625q0.46875 0.125 1.0625 0.125q0.5 0 0.875 -0.109375q0.390625 -0.125 0.65625 -0.34375q0.28125 -0.21875 0.40625 -0.515625q0.140625 -0.3125 0.140625 -0.6875q0 -0.40625 -0.171875 -0.734375q-0.15625 -0.328125 -0.46875 -0.546875q-0.3125 -0.234375 -0.796875 -0.359375q-0.46875 -0.140625 -1.125 -0.140625l-1.015625 0q-0.109375 0 -0.203125 -0.03125q-0.078125 -0.03125 -0.140625 -0.125q-0.046875 -0.109375 -0.078125 -0.28125q-0.015625 -0.171875 -0.015625 -0.46875q0 -0.25 0.015625 -0.421875q0.03125 -0.171875 0.078125 -0.265625q0.046875 -0.09375 0.125 -0.125q0.078125 -0.03125 0.1875 -0.03125l1.03125 0q0.53125 0 0.9375 -0.125q0.421875 -0.125 0.6875 -0.34375q0.28125 -0.234375 0.421875 -0.5625q0.15625 -0.328125 0.15625 -0.71875q0 -0.296875 -0.109375 -0.5625q-0.09375 -0.265625 -0.296875 -0.453125q-0.1875 -0.203125 -0.5 -0.3125q-0.3125 -0.125 -0.734375 -0.125q-0.46875 0 -0.890625 0.140625q-0.421875 0.140625 -0.75 0.3125q-0.328125 0.171875 -0.56248474 0.3125q-0.234375 0.140625 -0.34375 0.140625q-0.078125 0 -0.140625 -0.03125q-0.046875 -0.03125 -0.078125 -0.109375q-0.03125 -0.09375 -0.0625 -0.265625q-0.015625 -0.1875 -0.015625 -0.453125q0 -0.234375 0.015625 -0.375q0.015625 -0.15625 0.03125 -0.25q0.03125 -0.109375 0.0625 -0.171875q0.046875 -0.078125 0.140625 -0.15625q0.09375 -0.09375 0.375 -0.265625q0.28123474 -0.171875 0.70310974 -0.328125q0.4375 -0.171875 1.0 -0.28125q0.5625 -0.125 1.21875 -0.125q0.84375 0 1.5 0.203125q0.671875 0.203125 1.125 0.578125q0.453125 0.375 0.671875 0.9375q0.234375 0.546875 0.234375 1.234375q0 0.53125 -0.140625 1.0q-0.125 0.46875 -0.390625 0.84375q-0.265625 0.359375 -0.671875 0.609375q-0.390625 0.25 -0.90625 0.375l0 0.03125q0.625 0.078125 1.109375 0.328125q0.5 0.234375 0.84375 0.59375q0.34375 0.359375 0.515625 0.828125q0.1875 0.453125 0.1875 0.984375zm8.627533 -5.09375q0.171875 0.0625 0.15625 0.28125q0 0.21875 -0.265625 0.671875q-0.265625 0.453125 -0.453125 0.5625q-0.171875 0.109375 -0.328125 0l-1.8125 -1.453125l0.375 2.296875q0.03125 0.1875 -0.171875 0.296875q-0.1875 0.09375 -0.71875 0.09375q-0.53125 0 -0.734375 -0.09375q-0.1875 -0.109375 -0.15625 -0.296875l0.375 -2.296875l-1.8125 1.453125q-0.140625 0.109375 -0.328125 0q-0.171875 -0.125 -0.453125 -0.578125q-0.265625 -0.4375 -0.28125 -0.65625q0 -0.21875 0.171875 -0.28125l2.171875 -0.84375l-2.171875 -0.84375q-0.171875 -0.0625 -0.171875 -0.28125q0.015625 -0.21875 0.28125 -0.671875q0.265625 -0.453125 0.453125 -0.5625q0.1875 -0.125 0.328125 0l1.8125 1.453125l-0.375 -2.296875q-0.03125 -0.171875 0.15625 -0.28125q0.203125 -0.109375 0.734375 -0.109375q0.53125 0 0.71875 0.109375q0.203125 0.109375 0.171875 0.28125l-0.375 2.296875l1.8125 -1.453125q0.15625 -0.125 0.328125 0q0.171875 0.109375 0.453125 0.578125q0.265625 0.4375 0.265625 0.65625q0.015625 0.21875 -0.15625 0.28125l-2.15625 0.84375l2.15625 0.84375zm10.119812 5.09375q0 0.890625 -0.34375 1.578125q-0.328125 0.671875 -0.9375 1.140625q-0.59375 0.46875 -1.4375 0.703125q-0.84375 0.234375 -1.828125 0.234375q-0.609375 0 -1.140625 -0.09375q-0.515625 -0.078125 -0.921875 -0.203125q-0.40625 -0.125 -0.671875 -0.25q-0.265625 -0.140625 -0.34375 -0.21875q-0.078125 -0.078125 -0.125 -0.15625q-0.046875 -0.09375 -0.078125 -0.21875q-0.03125 -0.125 -0.046875 -0.3125q0 -0.1875 0 -0.453125q0 -0.4375 0.0625 -0.609375q0.078125 -0.171875 0.21875 -0.171875q0.09375 0 0.3125 0.125q0.234375 0.125 0.578125 0.265625q0.34375 0.140625 0.796875 0.265625q0.46875 0.125 1.0625 0.125q0.5 0 0.875 -0.109375q0.390625 -0.125 0.65625 -0.34375q0.28125 -0.21875 0.40625 -0.515625q0.140625 -0.3125 0.140625 -0.6875q0 -0.40625 -0.171875 -0.734375q-0.15625 -0.328125 -0.46875 -0.546875q-0.3125 -0.234375 -0.796875 -0.359375q-0.46875 -0.140625 -1.125 -0.140625l-1.015625 0q-0.109375 0 -0.203125 -0.03125q-0.078125 -0.03125 -0.140625 -0.125q-0.046875 -0.109375 -0.078125 -0.28125q-0.015625 -0.171875 -0.015625 -0.46875q0 -0.25 0.015625 -0.421875q0.03125 -0.171875 0.078125 -0.265625q0.046875 -0.09375 0.125 -0.125q0.078125 -0.03125 0.1875 -0.03125l1.03125 0q0.53125 0 0.9375 -0.125q0.421875 -0.125 0.6875 -0.34375q0.28125 -0.234375 0.421875 -0.5625q0.15625 -0.328125 0.15625 -0.71875q0 -0.296875 -0.109375 -0.5625q-0.09375 -0.265625 -0.296875 -0.453125q-0.1875 -0.203125 -0.5 -0.3125q-0.3125 -0.125 -0.734375 -0.125q-0.46875 0 -0.890625 0.140625q-0.421875 0.140625 -0.75 0.3125q-0.328125 0.171875 -0.5625 0.3125q-0.234375 0.140625 -0.34375 0.140625q-0.078125 0 -0.140625 -0.03125q-0.046875 -0.03125 -0.078125 -0.109375q-0.03125 -0.09375 -0.0625 -0.265625q-0.015625 -0.1875 -0.015625 -0.453125q0 -0.234375 0.015625 -0.375q0.015625 -0.15625 0.03125 -0.25q0.03125 -0.109375 0.0625 -0.171875q0.046875 -0.078125 0.140625 -0.15625q0.09375 -0.09375 0.375 -0.265625q0.28125 -0.171875 0.703125 -0.328125q0.4375 -0.171875 1.0 -0.28125q0.5625 -0.125 1.21875 -0.125q0.84375 0 1.5 0.203125q0.671875 0.203125 1.125 0.578125q0.453125 0.375 0.671875 0.9375q0.234375 0.546875 0.234375 1.234375q0 0.53125 -0.140625 1.0q-0.125 0.46875 -0.390625 0.84375q-0.265625 0.359375 -0.671875 0.609375q-0.390625 0.25 -0.90625 0.375l0 0.03125q0.625 0.078125 1.109375 0.328125q0.5 0.234375 0.84375 0.59375q0.34375 0.359375 0.515625 0.828125q0.1875 0.453125 0.1875 0.984375z" fill-rule="nonzero"/><path fill="#f1c232" d="m312.6458 294.94974l0 0c0 -12.785156 9.285675 -23.149597 20.740173 -23.149597l0 0c5.5006104 0 10.77597 2.4389648 14.665497 6.780365c3.8895264 4.3414 6.074646 10.229584 6.074646 16.369232l0 0c0 12.785187 -9.285675 23.149597 -20.740143 23.149597l0 0c-11.454498 0 -20.740173 -10.36441 -20.740173 -23.149597z" fill-rule="evenodd"/><path stroke="#000000" stroke-width="1.0" stroke-linejoin="round" stroke-linecap="butt" d="m312.6458 294.94974l0 0c0 -12.785156 9.285675 -23.149597 20.740173 -23.149597l0 0c5.5006104 0 10.77597 2.4389648 14.665497 6.780365c3.8895264 4.3414 6.074646 10.229584 6.074646 16.369232l0 0c0 12.785187 -9.285675 23.149597 -20.740143 23.149597l0 0c-11.454498 0 -20.740173 -10.36441 -20.740173 -23.149597z" fill-rule="evenodd"/><path fill="#000000" fill-opacity="0.0" d="m312.64264 264.3402l41.480316 0l0 42.015747l-41.480316 0z" fill-rule="evenodd"/><path fill="#000000" d="m338.16245 290.94772q0 0.109375 -0.046875 0.171875q-0.03125 0.0625 -0.171875 0.109375q-0.125 0.046875 -0.390625 0.0625q-0.265625 0.015625 -0.71875 0.015625q-0.390625 0 -0.625 -0.015625q-0.21875 -0.015625 -0.359375 -0.0625q-0.125 -0.046875 -0.1875 -0.125q-0.046875 -0.078125 -0.078125 -0.1875l-1.0625 -2.640625q-0.1875 -0.4375 -0.375 -0.78125q-0.171875 -0.359375 -0.40625 -0.578125q-0.21875 -0.234375 -0.515625 -0.34375q-0.28125 -0.125 -0.671875 -0.125l-0.734375 0l0 4.484375q0 0.09375 -0.0625 0.171875q-0.0625 0.0625 -0.203125 0.109375q-0.140625 0.046875 -0.375 0.0625q-0.21875 0.03125 -0.5625 0.03125q-0.359375 0 -0.59375 -0.03125q-0.21875 -0.015625 -0.359375 -0.0625q-0.140625 -0.046875 -0.203125 -0.109375q-0.046875 -0.078125 -0.046875 -0.171875l0 -10.703125q0 -0.40625 0.203125 -0.578125q0.203125 -0.171875 0.515625 -0.171875l3.046875 0q0.46875 0 0.765625 0.015625q0.296875 0.015625 0.546875 0.046875q0.703125 0.09375 1.265625 0.34375q0.578125 0.25 0.96875 0.640625q0.40625 0.390625 0.609375 0.9375q0.21875 0.546875 0.21875 1.25q0 0.578125 -0.15625 1.078125q-0.140625 0.484375 -0.4375 0.875q-0.296875 0.375 -0.734375 0.65625q-0.421875 0.28125 -0.96875 0.453125q0.265625 0.125 0.5 0.3125q0.234375 0.1875 0.4375 0.453125q0.203125 0.25 0.390625 0.578125q0.1875 0.328125 0.359375 0.75l0.984375 2.328125q0.140625 0.34375 0.1875 0.5q0.046875 0.15625 0.046875 0.25zm-3.09375 -8.0q0 -0.578125 -0.265625 -0.96875q-0.265625 -0.40625 -0.859375 -0.578125q-0.1875 -0.046875 -0.421875 -0.0625q-0.21875 -0.03125 -0.640625 -0.03125l-1.0625 0l0 3.34375l1.21875 0q0.5 0 0.875 -0.125q0.390625 -0.125 0.640625 -0.34375q0.265625 -0.234375 0.390625 -0.53125q0.125 -0.3125 0.125 -0.703125z" fill-rule="nonzero"/><path fill="#6d9eeb" d="m198.03098 400.0414l140.40945 0l0 68.724396l-140.40945 0z" fill-rule="evenodd"/><path stroke="#000000" stroke-width="2.0" stroke-linejoin="round" stroke-linecap="butt" d="m198.03098 400.0414l140.40945 0l0 68.724396l-140.40945 0z" fill-rule="evenodd"/><path fill="#000000" fill-opacity="0.0" d="m207.76378 402.0893l120.94487 0l0 64.629944l-120.94487 0z" fill-rule="evenodd"/><path fill="#000000" d="m246.60008 428.68118q0 0.09375 -0.046875 0.171875q-0.046875 0.0625 -0.1875 0.109375q-0.125 0.046875 -0.34375 0.0625q-0.21875 0.03125 -0.546875 0.03125q-0.328125 0 -0.546875 -0.03125q-0.21875 -0.015625 -0.359375 -0.0625q-0.125 -0.046875 -0.1875 -0.109375q-0.046875 -0.078125 -0.046875 -0.171875l0 -9.59375l-0.015625 0l-3.421875 9.578125q-0.03125 0.125 -0.109375 0.203125q-0.078125 0.078125 -0.21875 0.125q-0.140625 0.046875 -0.359375 0.046875q-0.21875 0.015625 -0.53125 0.015625q-0.3125 0 -0.53125 -0.015625q-0.21875 -0.015625 -0.359375 -0.0625q-0.140625 -0.0625 -0.234375 -0.125q-0.078125 -0.078125 -0.09375 -0.1875l-3.296875 -9.578125l-0.03125 0l0 9.59375q0 0.09375 -0.046875 0.171875q-0.046875 0.0625 -0.1875 0.109375q-0.140625 0.046875 -0.359375 0.0625q-0.203125 0.03125 -0.546875 0.03125q-0.3125 0 -0.53125 -0.03125q-0.21875 -0.015625 -0.359375 -0.0625q-0.125 -0.046875 -0.1875 -0.109375q-0.046875 -0.078125 -0.046875 -0.171875l0 -10.5q0 -0.46875 0.25 -0.703125q0.25 -0.25 0.65625 -0.25l1.5625 0q0.421875 0 0.71875 0.0625q0.296875 0.0625 0.515625 0.234375q0.21875 0.15625 0.359375 0.421875q0.15625 0.25 0.265625 0.625l2.546875 7.03125l0.046875 0l2.640625 -7.0q0.109375 -0.390625 0.25 -0.65625q0.140625 -0.265625 0.328125 -0.421875q0.1875 -0.171875 0.4375 -0.234375q0.265625 -0.0625 0.609375 -0.0625l1.609375 0q0.234375 0 0.40625 0.0625q0.1875 0.0625 0.296875 0.1875q0.125 0.109375 0.171875 0.296875q0.0625 0.171875 0.0625 0.40625l0 10.5zm9.3685 0.046875q0 0.125 -0.09375 0.203125q-0.09375 0.0625 -0.296875 0.09375q-0.1875 0.03125 -0.578125 0.03125q-0.40625 0 -0.59375 -0.03125q-0.1875 -0.03125 -0.265625 -0.09375q-0.078125 -0.078125 -0.078125 -0.203125l0 -0.640625q-0.5 0.53125 -1.140625 0.828125q-0.640625 0.296875 -1.421875 0.296875q-0.65625 0 -1.203125 -0.171875q-0.53125 -0.15625 -0.9375 -0.484375q-0.390625 -0.34375 -0.609375 -0.828125q-0.21875 -0.5 -0.21875 -1.15625q0 -0.703125 0.28125 -1.21875q0.28125 -0.53125 0.828125 -0.875q0.5625 -0.34375 1.375 -0.5q0.8125 -0.171875 1.90625 -0.171875l0.796875 0l0 -0.484375q0 -0.390625 -0.078125 -0.671875q-0.078125 -0.296875 -0.265625 -0.484375q-0.171875 -0.1875 -0.46875 -0.28125q-0.296875 -0.09375 -0.734375 -0.09375q-0.578125 0 -1.03125 0.140625q-0.4375 0.125 -0.796875 0.28125q-0.34375 0.140625 -0.578125 0.28125q-0.21875 0.125 -0.375 0.125q-0.09375 0 -0.171875 -0.0625q-0.078125 -0.0625 -0.140625 -0.1875q-0.046875 -0.125 -0.078125 -0.296875q-0.015625 -0.171875 -0.015625 -0.375q0 -0.28125 0.046875 -0.4375q0.046875 -0.171875 0.171875 -0.296875q0.125 -0.140625 0.4375 -0.296875q0.328125 -0.171875 0.75 -0.296875q0.4375 -0.140625 0.9375 -0.21875q0.5 -0.09375 1.046875 -0.09375q0.953125 0 1.625 0.1875q0.6875 0.1875 1.125 0.578125q0.4375 0.375 0.640625 0.984375q0.203125 0.609375 0.203125 1.453125l0 5.46875zm-2.25 -3.484375l-0.875 0q-0.5625 0 -0.953125 0.09375q-0.390625 0.078125 -0.640625 0.25q-0.25 0.15625 -0.359375 0.390625q-0.109375 0.21875 -0.109375 0.53125q0 0.5 0.3125 0.796875q0.328125 0.296875 0.90625 0.296875q0.484375 0 0.890625 -0.25q0.40625 -0.25 0.828125 -0.71875l0 -1.390625zm11.411545 3.296875q0.078125 0.15625 0.0625 0.25q0 0.09375 -0.125 0.171875q-0.125 0.0625 -0.390625 0.078125q-0.265625 0.015625 -0.703125 0.015625q-0.40625 0 -0.65625 -0.015625q-0.25 0 -0.390625 -0.03125q-0.140625 -0.046875 -0.21875 -0.109375q-0.0625 -0.0625 -0.09375 -0.15625l-1.5 -2.890625l-1.515625 2.890625q-0.03125 0.09375 -0.09375 0.15625q-0.0625 0.0625 -0.203125 0.109375q-0.125 0.03125 -0.359375 0.03125q-0.234375 0.015625 -0.625 0.015625q-0.390625 0 -0.640625 -0.015625q-0.234375 -0.015625 -0.34375 -0.078125q-0.109375 -0.078125 -0.109375 -0.171875q0 -0.09375 0.078125 -0.25l2.25 -4.0l-2.078125 -3.75q-0.078125 -0.171875 -0.09375 -0.28125q0 -0.125 0.109375 -0.1875q0.125 -0.0625 0.390625 -0.078125q0.265625 -0.03125 0.703125 -0.03125q0.40625 0 0.640625 0.015625q0.25 0.015625 0.375 0.046875q0.140625 0.015625 0.203125 0.078125q0.0625 0.0625 0.109375 0.140625l1.453125 2.71875l1.4375 -2.71875q0.03125 -0.0625 0.078125 -0.109375q0.0625 -0.0625 0.171875 -0.09375q0.125 -0.046875 0.328125 -0.0625q0.203125 -0.015625 0.5625 -0.015625q0.40625 0 0.640625 0.015625q0.234375 0.015625 0.34375 0.078125q0.109375 0.0625 0.09375 0.1875q0 0.109375 -0.09375 0.296875l-2.03125 3.6875l2.234375 4.0625zm4.9483337 -4.109375q0 0.53125 -0.109375 0.734375q-0.09375 0.203125 -0.3125 0.203125l-3.78125 0q-0.234375 0 -0.34375 -0.203125q-0.09375 -0.21875 -0.09375 -0.734375q0 -0.515625 0.09375 -0.71875q0.109375 -0.21875 0.34375 -0.21875l3.78125 0q0.109375 0 0.1875 0.046875q0.078125 0.046875 0.125 0.15625q0.0625 0.109375 0.078125 0.296875q0.03125 0.171875 0.03125 0.4375zm9.899139 -3.625q0 0.984375 -0.3125 1.75q-0.3125 0.765625 -0.90625 1.296875q-0.59375 0.515625 -1.453125 0.796875q-0.859375 0.265625 -2.015625 0.265625l-0.984375 0l0 3.765625q0 0.09375 -0.0625 0.171875q-0.0625 0.0625 -0.203125 0.109375q-0.140625 0.046875 -0.375 0.0625q-0.21875 0.03125 -0.5625 0.03125q-0.359375 0 -0.59375 -0.03125q-0.21875 -0.015625 -0.359375 -0.0625q-0.140625 -0.046875 -0.203125 -0.109375q-0.046875 -0.078125 -0.046875 -0.171875l0 -10.609375q0 -0.421875 0.21875 -0.625q0.234375 -0.21875 0.59375 -0.21875l2.78125 0q0.421875 0 0.796875 0.03125q0.375 0.03125 0.90625 0.140625q0.53125 0.09375 1.0625 0.375q0.546875 0.28125 0.921875 0.71875q0.390625 0.4375 0.59375 1.015625q0.203125 0.578125 0.203125 1.296875zm-2.515625 0.171875q0 -0.625 -0.21875 -1.015625q-0.21875 -0.40625 -0.53125 -0.59375q-0.3125 -0.203125 -0.671875 -0.25q-0.34375 -0.046875 -0.71875 -0.046875l-1.015625 0l0 4.0l1.0625 0q0.578125 0 0.96875 -0.15625q0.390625 -0.15625 0.625 -0.4375q0.25 -0.28125 0.375 -0.65625q0.125 -0.390625 0.125 -0.84375zm12.144196 3.578125q0 1.03125 -0.28125 1.890625q-0.265625 0.859375 -0.828125 1.484375q-0.546875 0.609375 -1.390625 0.953125q-0.828125 0.328125 -1.953125 0.328125q-1.078125 0 -1.890625 -0.296875q-0.796875 -0.296875 -1.328125 -0.875q-0.515625 -0.578125 -0.78125 -1.40625q-0.25 -0.84375 -0.25 -1.921875q0 -1.03125 0.28125 -1.890625q0.28125 -0.859375 0.828125 -1.46875q0.5625 -0.625 1.390625 -0.953125q0.828125 -0.34375 1.953125 -0.34375q1.09375 0 1.890625 0.296875q0.8125 0.296875 1.328125 0.875q0.53125 0.5625 0.78125 1.40625q0.25 0.84375 0.25 1.921875zm-2.359375 0.09375q0 -0.609375 -0.09375 -1.109375q-0.09375 -0.5 -0.328125 -0.875q-0.21875 -0.375 -0.59375 -0.578125q-0.375 -0.21875 -0.953125 -0.21875q-0.515625 0 -0.90625 0.1875q-0.375 0.1875 -0.625 0.546875q-0.234375 0.359375 -0.359375 0.875q-0.125 0.5 -0.125 1.140625q0 0.59375 0.09375 1.109375q0.109375 0.5 0.328125 0.875q0.21875 0.375 0.59375 0.578125q0.390625 0.203125 0.953125 0.203125q0.53125 0 0.90625 -0.1875q0.390625 -0.1875 0.625 -0.53125q0.25 -0.359375 0.359375 -0.859375q0.125 -0.515625 0.125 -1.15625zm12.388947 -0.09375q0 1.03125 -0.28125 1.890625q-0.265625 0.859375 -0.828125 1.484375q-0.546875 0.609375 -1.390625 0.953125q-0.828125 0.328125 -1.953125 0.328125q-1.078125 0 -1.890625 -0.296875q-0.796875 -0.296875 -1.328125 -0.875q-0.515625 -0.578125 -0.78125 -1.40625q-0.25 -0.84375 -0.25 -1.921875q0 -1.03125 0.28125 -1.890625q0.28125 -0.859375 0.828125 -1.46875q0.5625 -0.625 1.390625 -0.953125q0.828125 -0.34375 1.953125 -0.34375q1.09375 0 1.890625 0.296875q0.8125 0.296875 1.328125 0.875q0.53125 0.5625 0.78125 1.40625q0.25 0.84375 0.25 1.921875zm-2.359375 0.09375q0 -0.609375 -0.09375 -1.109375q-0.09375 -0.5 -0.328125 -0.875q-0.21875 -0.375 -0.59375 -0.578125q-0.375 -0.21875 -0.953125 -0.21875q-0.515625 0 -0.90625 0.1875q-0.375 0.1875 -0.625 0.546875q-0.234375 0.359375 -0.359375 0.875q-0.125 0.5 -0.125 1.140625q0 0.59375 0.09375 1.109375q0.109375 0.5 0.328125 0.875q0.21875 0.375 0.59375 0.578125q0.390625 0.203125 0.953125 0.203125q0.53125 0 0.90625 -0.1875q0.390625 -0.1875 0.625 -0.53125q0.25 -0.359375 0.359375 -0.859375q0.125 -0.515625 0.125 -1.15625zm6.467041 4.046875q0 0.09375 -0.0625 0.171875q-0.046875 0.0625 -0.1875 0.109375q-0.125 0.046875 -0.34375 0.0625q-0.21875 0.015625 -0.546875 0.015625q-0.34375 0 -0.5625 -0.015625q-0.21875 -0.015625 -0.359375 -0.0625q-0.125 -0.046875 -0.1875 -0.109375q-0.046875 -0.078125 -0.046875 -0.171875l0 -11.96875q0 -0.09375 0.046875 -0.171875q0.0625 -0.078125 0.1875 -0.125q0.140625 -0.046875 0.359375 -0.078125q0.21875 -0.03125 0.5625 -0.03125q0.328125 0 0.546875 0.03125q0.21875 0.03125 0.34375 0.078125q0.140625 0.046875 0.1875 0.125q0.0625 0.078125 0.0625 0.171875l0 11.96875z" fill-rule="nonzero"/><path fill="#000000" d="m262.791 447.95618q0 0.890625 -0.34375 1.578125q-0.328125 0.671875 -0.9375 1.140625q-0.59375 0.46875 -1.4375 0.703125q-0.84375 0.234375 -1.828125 0.234375q-0.609375 0 -1.140625 -0.09375q-0.515625 -0.078125 -0.921875 -0.203125q-0.40626526 -0.125 -0.67189026 -0.25q-0.265625 -0.140625 -0.34375 -0.21875q-0.078125 -0.078125 -0.125 -0.15625q-0.046875 -0.09375 -0.078125 -0.21875q-0.03125 -0.125 -0.046875 -0.3125q0 -0.1875 0 -0.453125q0 -0.4375 0.0625 -0.609375q0.078125 -0.171875 0.21875 -0.171875q0.09375 0 0.3125 0.125q0.234375 0.125 0.57814026 0.265625q0.34375 0.140625 0.796875 0.265625q0.46875 0.125 1.0625 0.125q0.5 0 0.875 -0.109375q0.390625 -0.125 0.65625 -0.34375q0.28125 -0.21875 0.40625 -0.515625q0.140625 -0.3125 0.140625 -0.6875q0 -0.40625 -0.171875 -0.734375q-0.15625 -0.328125 -0.46875 -0.546875q-0.3125 -0.234375 -0.796875 -0.359375q-0.46875 -0.140625 -1.125 -0.140625l-1.015625 0q-0.109375 0 -0.203125 -0.03125q-0.078125 -0.03125 -0.140625 -0.125q-0.046875 -0.109375 -0.078125 -0.28125q-0.015625 -0.171875 -0.015625 -0.46875q0 -0.25 0.015625 -0.421875q0.03125 -0.171875 0.078125 -0.265625q0.046875 -0.09375 0.125 -0.125q0.078125 -0.03125 0.1875 -0.03125l1.03125 0q0.53125 0 0.9375 -0.125q0.421875 -0.125 0.6875 -0.34375q0.28125 -0.234375 0.421875 -0.5625q0.15625 -0.328125 0.15625 -0.71875q0 -0.296875 -0.109375 -0.5625q-0.09375 -0.265625 -0.296875 -0.453125q-0.1875 -0.203125 -0.5 -0.3125q-0.3125 -0.125 -0.734375 -0.125q-0.46875 0 -0.890625 0.140625q-0.421875 0.140625 -0.75 0.3125q-0.328125 0.171875 -0.56251526 0.3125q-0.234375 0.140625 -0.34375 0.140625q-0.078125 0 -0.140625 -0.03125q-0.046875 -0.03125 -0.078125 -0.109375q-0.03125 -0.09375 -0.0625 -0.265625q-0.015625 -0.1875 -0.015625 -0.453125q0 -0.234375 0.015625 -0.375q0.015625 -0.15625 0.03125 -0.25q0.03125 -0.109375 0.0625 -0.171875q0.046875 -0.078125 0.140625 -0.15625q0.09375 -0.09375 0.375 -0.265625q0.28126526 -0.171875 0.70314026 -0.328125q0.4375 -0.171875 1.0 -0.28125q0.5625 -0.125 1.21875 -0.125q0.84375 0 1.5 0.203125q0.671875 0.203125 1.125 0.578125q0.453125 0.375 0.671875 0.9375q0.234375 0.546875 0.234375 1.234375q0 0.53125 -0.140625 1.0q-0.125 0.46875 -0.390625 0.84375q-0.265625 0.359375 -0.671875 0.609375q-0.390625 0.25 -0.90625 0.375l0 0.03125q0.625 0.078125 1.109375 0.328125q0.5 0.234375 0.84375 0.59375q0.34375 0.359375 0.515625 0.828125q0.1875 0.453125 0.1875 0.984375zm8.627533 -5.09375q0.171875 0.0625 0.15625 0.28125q0 0.21875 -0.265625 0.671875q-0.265625 0.453125 -0.453125 0.5625q-0.171875 0.109375 -0.328125 0l-1.8125 -1.453125l0.375 2.296875q0.03125 0.1875 -0.171875 0.296875q-0.1875 0.09375 -0.71875 0.09375q-0.53125 0 -0.734375 -0.09375q-0.1875 -0.109375 -0.15625 -0.296875l0.375 -2.296875l-1.8125 1.453125q-0.140625 0.109375 -0.328125 0q-0.171875 -0.125 -0.453125 -0.578125q-0.265625 -0.4375 -0.28125 -0.65625q0 -0.21875 0.171875 -0.28125l2.171875 -0.84375l-2.171875 -0.84375q-0.171875 -0.0625 -0.171875 -0.28125q0.015625 -0.21875 0.28125 -0.671875q0.265625 -0.453125 0.453125 -0.5625q0.1875 -0.125 0.328125 0l1.8125 1.453125l-0.375 -2.296875q-0.03125 -0.171875 0.15625 -0.28125q0.203125 -0.109375 0.734375 -0.109375q0.53125 0 0.71875 0.109375q0.203125 0.109375 0.171875 0.28125l-0.375 2.296875l1.8125 -1.453125q0.15625 -0.125 0.328125 0q0.171875 0.109375 0.453125 0.578125q0.265625 0.4375 0.265625 0.65625q0.015625 0.21875 -0.15625 0.28125l-2.15625 0.84375l2.15625 0.84375zm10.119812 5.09375q0 0.890625 -0.34375 1.578125q-0.328125 0.671875 -0.9375 1.140625q-0.59375 0.46875 -1.4375 0.703125q-0.84375 0.234375 -1.828125 0.234375q-0.609375 0 -1.140625 -0.09375q-0.515625 -0.078125 -0.921875 -0.203125q-0.40625 -0.125 -0.671875 -0.25q-0.265625 -0.140625 -0.34375 -0.21875q-0.078125 -0.078125 -0.125 -0.15625q-0.046875 -0.09375 -0.078125 -0.21875q-0.03125 -0.125 -0.046875 -0.3125q0 -0.1875 0 -0.453125q0 -0.4375 0.0625 -0.609375q0.078125 -0.171875 0.21875 -0.171875q0.09375 0 0.3125 0.125q0.234375 0.125 0.578125 0.265625q0.34375 0.140625 0.796875 0.265625q0.46875 0.125 1.0625 0.125q0.5 0 0.875 -0.109375q0.390625 -0.125 0.65625 -0.34375q0.28125 -0.21875 0.40625 -0.515625q0.140625 -0.3125 0.140625 -0.6875q0 -0.40625 -0.171875 -0.734375q-0.15625 -0.328125 -0.46875 -0.546875q-0.3125 -0.234375 -0.796875 -0.359375q-0.46875 -0.140625 -1.125 -0.140625l-1.015625 0q-0.109375 0 -0.203125 -0.03125q-0.078125 -0.03125 -0.140625 -0.125q-0.046875 -0.109375 -0.078125 -0.28125q-0.015625 -0.171875 -0.015625 -0.46875q0 -0.25 0.015625 -0.421875q0.03125 -0.171875 0.078125 -0.265625q0.046875 -0.09375 0.125 -0.125q0.078125 -0.03125 0.1875 -0.03125l1.03125 0q0.53125 0 0.9375 -0.125q0.421875 -0.125 0.6875 -0.34375q0.28125 -0.234375 0.421875 -0.5625q0.15625 -0.328125 0.15625 -0.71875q0 -0.296875 -0.109375 -0.5625q-0.09375 -0.265625 -0.296875 -0.453125q-0.1875 -0.203125 -0.5 -0.3125q-0.3125 -0.125 -0.734375 -0.125q-0.46875 0 -0.890625 0.140625q-0.421875 0.140625 -0.75 0.3125q-0.328125 0.171875 -0.5625 0.3125q-0.234375 0.140625 -0.34375 0.140625q-0.078125 0 -0.140625 -0.03125q-0.046875 -0.03125 -0.078125 -0.109375q-0.03125 -0.09375 -0.0625 -0.265625q-0.015625 -0.1875 -0.015625 -0.453125q0 -0.234375 0.015625 -0.375q0.015625 -0.15625 0.03125 -0.25q0.03125 -0.109375 0.0625 -0.171875q0.046875 -0.078125 0.140625 -0.15625q0.09375 -0.09375 0.375 -0.265625q0.28125 -0.171875 0.703125 -0.328125q0.4375 -0.171875 1.0 -0.28125q0.5625 -0.125 1.21875 -0.125q0.84375 0 1.5 0.203125q0.671875 0.203125 1.125 0.578125q0.453125 0.375 0.671875 0.9375q0.234375 0.546875 0.234375 1.234375q0 0.53125 -0.140625 1.0q-0.125 0.46875 -0.390625 0.84375q-0.265625 0.359375 -0.671875 0.609375q-0.390625 0.25 -0.90625 0.375l0 0.03125q0.625 0.078125 1.109375 0.328125q0.5 0.234375 0.84375 0.59375q0.34375 0.359375 0.515625 0.828125q0.1875 0.453125 0.1875 0.984375z" fill-rule="nonzero"/><path fill="#000000" fill-opacity="0.0" d="m130.47244 175.53806l0 260.50394" fill-rule="evenodd"/><path stroke="#000000" stroke-width="2.0" stroke-linejoin="round" stroke-linecap="butt" d="m130.47244 175.53806l0 260.50394" fill-rule="evenodd"/><path fill="#000000" fill-opacity="0.0" d="m130.472 173.99596l67.55905 1.5433044" fill-rule="evenodd"/><path stroke="#000000" stroke-width="2.0" stroke-linejoin="round" stroke-linecap="butt" d="m130.47198 173.99596l55.562195 1.2692566" fill-rule="evenodd"/><path fill="#000000" stroke="#000000" stroke-width="2.0" stroke-linecap="butt" d="m185.95872 178.56781l9.149277 -3.0953217l-8.998383 -3.5098724z" fill-rule="evenodd"/><path fill="#000000" fill-opacity="0.0" d="m133.90637 319.34503l64.12599 0.881897" fill-rule="evenodd"/><path stroke="#000000" stroke-width="2.0" stroke-linejoin="round" stroke-linecap="butt" d="m133.90637 319.34503l52.127106 0.7168884" fill-rule="evenodd"/><path fill="#000000" stroke="#000000" stroke-width="2.0" stroke-linecap="butt" d="m185.98807 323.36508l9.120758 -3.1783447l-9.029907 -3.4279785z" fill-rule="evenodd"/><path fill="#000000" fill-opacity="0.0" d="m132.77113 434.90753l65.25984 -0.50393677" fill-rule="evenodd"/><path stroke="#000000" stroke-width="2.0" stroke-linejoin="round" stroke-linecap="butt" d="m132.77113 434.90756l53.260193 -0.4112854" fill-rule="evenodd"/><path fill="#000000" stroke="#000000" stroke-width="2.0" stroke-linecap="butt" d="m186.05685 437.79965l9.050415 -3.3734436l-9.10144 -3.2332764z" fill-rule="evenodd"/><path fill="#000000" fill-opacity="0.0" d="m338.4418 320.22693l504.91342 -3.1811218" fill-rule="evenodd"/><path stroke="#000000" stroke-width="2.0" stroke-linejoin="round" stroke-linecap="butt" d="m338.4418 320.22693l492.91367 -3.1054993" fill-rule="evenodd"/><path fill="#000000" stroke="#000000" stroke-width="2.0" stroke-linecap="butt" d="m831.3763 320.42484l9.055176 -3.3605957l-9.096802 -3.2462158z" fill-rule="evenodd"/><path fill="#000000" fill-opacity="0.0" d="m338.44043 434.4036l501.4803 -4.0629883" fill-rule="evenodd"/><path stroke="#000000" stroke-width="2.0" stroke-linejoin="round" stroke-linecap="butt" d="m338.44043 434.40363l489.48077 -3.9657593" fill-rule="evenodd"/><path fill="#000000" stroke="#000000" stroke-width="2.0" stroke-linecap="butt" d="m827.94794 433.7412l9.049133 -3.376892l-9.102661 -3.229828z" fill-rule="evenodd"/><path fill="#000000" fill-opacity="0.0" d="m761.9707 175.53926l79.08661 0.75590515" fill-rule="evenodd"/><path stroke="#000000" stroke-width="2.0" stroke-linejoin="round" stroke-linecap="butt" d="m761.9707 175.53926l67.08722 0.6412201" fill-rule="evenodd"/><path fill="#000000" stroke="#000000" stroke-width="2.0" stroke-linecap="butt" d="m829.0263 179.4838l9.107361 -3.216568l-9.044189 -3.3900604z" fill-rule="evenodd"/><path fill="#000000" fill-opacity="0.0" d="m839.91864 174.00787l2.2991943 255.18109" fill-rule="evenodd"/><path stroke="#000000" stroke-width="2.0" stroke-linejoin="round" stroke-linecap="butt" d="m839.91864 174.00787l2.2991943 255.18109" fill-rule="evenodd"/><path fill="#000000" fill-opacity="0.0" d="m839.91864 317.04462l78.96063 0" fill-rule="evenodd"/><path stroke="#000000" stroke-width="2.0" stroke-linejoin="round" stroke-linecap="butt" d="m839.91864 317.04462l66.96063 0" fill-rule="evenodd"/><path fill="#000000" stroke="#000000" stroke-width="2.0" stroke-linecap="butt" d="m906.8793 320.34808l9.076172 -3.3034668l-9.076172 -3.3034668z" fill-rule="evenodd"/><path fill="#f1c232" d="m734.90436 146.53242l0 0c0 -12.7851715 9.285645 -23.149612 20.740173 -23.149612l0 0c5.5006104 0 10.77594 2.4389725 14.665466 6.780365c3.8895264 4.3414 6.074646 10.229584 6.074646 16.369247l0 0c0 12.7851715 -9.285645 23.149597 -20.740112 23.149597l0 0c-11.454529 0 -20.740173 -10.364426 -20.740173 -23.149597z" fill-rule="evenodd"/><path stroke="#000000" stroke-width="1.0" stroke-linejoin="round" stroke-linecap="butt" d="m734.90436 146.53242l0 0c0 -12.7851715 9.285645 -23.149612 20.740173 -23.149612l0 0c5.5006104 0 10.77594 2.4389725 14.665466 6.780365c3.8895264 4.3414 6.074646 10.229584 6.074646 16.369247l0 0c0 12.7851715 -9.285645 23.149597 -20.740112 23.149597l0 0c-11.454529 0 -20.740173 -10.364426 -20.740173 -23.149597z" fill-rule="evenodd"/><path fill="#000000" fill-opacity="0.0" d="m734.9012 115.9229l41.480286 0l0 42.015747l-41.480286 0z" fill-rule="evenodd"/><path fill="#000000" d="m760.42096 142.5304q0 0.109375 -0.046875 0.171875q-0.03125 0.0625 -0.171875 0.109375q-0.125 0.046875 -0.390625 0.0625q-0.265625 0.015625 -0.71875 0.015625q-0.390625 0 -0.625 -0.015625q-0.21875 -0.015625 -0.359375 -0.0625q-0.125 -0.046875 -0.1875 -0.125q-0.046875 -0.078125 -0.078125 -0.1875l-1.0625 -2.640625q-0.1875 -0.4375 -0.375 -0.78125q-0.171875 -0.359375 -0.40625 -0.578125q-0.21875 -0.234375 -0.515625 -0.34375q-0.28125 -0.125 -0.671875 -0.125l-0.734375 0l0 4.484375q0 0.09375 -0.0625 0.171875q-0.0625 0.0625 -0.203125 0.109375q-0.140625 0.046875 -0.375 0.0625q-0.21875 0.03125 -0.5625 0.03125q-0.359375 0 -0.59375 -0.03125q-0.21875 -0.015625 -0.359375 -0.0625q-0.140625 -0.046875 -0.203125 -0.109375q-0.046875 -0.078125 -0.046875 -0.171875l0 -10.703125q0 -0.40625 0.203125 -0.578125q0.203125 -0.171875 0.515625 -0.171875l3.046875 0q0.46875 0 0.765625 0.015625q0.296875 0.015625 0.546875 0.046875q0.703125 0.09375 1.265625 0.34375q0.578125 0.25 0.96875 0.640625q0.40625 0.390625 0.609375 0.9375q0.21875 0.546875 0.21875 1.25q0 0.578125 -0.15625 1.078125q-0.140625 0.484375 -0.4375 0.875q-0.296875 0.375 -0.734375 0.65625q-0.421875 0.28125 -0.96875 0.453125q0.265625 0.125 0.5 0.3125q0.234375 0.1875 0.4375 0.453125q0.203125 0.25 0.390625 0.578125q0.1875 0.328125 0.359375 0.75l0.984375 2.328125q0.140625 0.34375 0.1875 0.5q0.046875 0.15625 0.046875 0.25zm-3.09375 -8.0q0 -0.578125 -0.265625 -0.96875q-0.265625 -0.40625 -0.859375 -0.578125q-0.1875 -0.046875 -0.421875 -0.0625q-0.21875 -0.03125 -0.640625 -0.03125l-1.0625 0l0 3.34375l1.21875 0q0.5 0 0.875 -0.125q0.390625 -0.125 0.640625 -0.34375q0.265625 -0.234375 0.390625 -0.53125q0.125 -0.3125 0.125 -0.703125z" fill-rule="nonzero"/></g></svg>